<svg id="svg_css_ex1" viewBox="0 0 100 100" 
   height="20cm"
   width="20cm"
   xmlns="http://www.w3.org/2000/svg">
  <path
    fill="none"
    stroke="black"
    stroke-width=".2"
    d="
M 80.0 50.0
C 80.0,50.0 79.99840077739431,49.68584671573693 79.99885769192514,49.73820393504878
C 79.99931460645597,49.79056115436063 79.99360333574903,50.628270683226006 79.99543085469173,50.523572193118504
C 79.99725837363445,50.418873703011 79.98560835353044,49.05768368203498 79.98971974926673,49.2146915507638
C 79.993831145003,49.371699419492636 79.97441696135235,51.256254322307406 79.98172481057287,51.04698490107503
C 79.9890326597934,50.83771547984265 79.96003074173098,48.429951150796946 79.97144664745574,48.691418379039916
C 79.9828625531805,48.952885607282894 79.94245172874204,51.883664077091275 79.95888604263722,51.570078687288316
C 79.9753203565324,51.256493297485356 79.92168240757997,47.80293578373885 79.944043952656,48.168543813954294
C 79.96640549773204,48.534151844169735 79.89772571401943,52.51021351520396 79.92692150779473,52.09269421232376
C 79.95611730157002,51.67517490944356 79.87058503377925,47.17692373304396 79.90752001199384,47.646227128164654
C 79.94445499020843,48.115530523285344 79.84026420178898,53.13561681543054 79.88584094275237,52.614672282429744
C 79.93141768371575,52.09372774942895 79.80676750135837,46.55220043826365 79.86188595101537,47.12462742439328
C 79.91700440067237,47.69705441052292 79.77009966324961,53.75958897048288 79.8356568610482,53.1358538980296
C 79.90121405884679,52.51211882557632 79.73026586465333,45.9290504239312 79.80715567029762,46.6039035869628
C 79.88404547594192,47.27875674999439 79.68727172806766,54.38184598895343 79.77638454923965,53.65608030215442
C 79.86549737041167,52.93031461535542 79.64112332008152,45.30775709809089 79.7433458412143,46.084214233398455
C 79.84556836234711,46.860671368706015 79.59182715006207,55.00210509625296 79.7080420622471,54.175193028801964
C 79.82425697443216,53.348280961350966 79.5393901687466,44.68860255194347 79.6704759008575,45.56571766611168
C 79.8015616329684,46.44283278027989 79.4838197667396,55.62008493433177 79.63065021785414,54.69303395120693
C 79.77748066896868,53.765982968082085 79.4251237729149,44.0718673608082 79.58856804611695,45.048571824179675
C 79.752012319319,46.025276287551144 79.36331045272397,56.23550575998492 79.54423259036625,55.20944533000791
C 79.72515472800852,54.1833849000309 79.29838850641025,43.457830386599674 79.49764722691864,44.53293423523557
C 79.69690594742704,45.60803808387148 79.23036706713029,56.84808964154408 79.44881550342993,55.72426986129634
C 79.66726393972955,54.600450081048606 79.15925569898221,42.84676858201627 79.3977411386249,44.01896196748409
C 79.63622657826757,45.19115535295191 79.08506439494198,57.45756065376018 79.34442802201417,56.23735072453278
C 79.60379164908636,55.01714079530538 79.00780357470795,42.23895679663482 79.288880213598,43.506811581856915
C 79.56995685248805,44.774666367079014 78.92748408245455,58.06364507068318 79.23110194355706,56.74853163031595
C 79.53471980465956,55.43341818994872 78.8441171844954,41.6346675851042 79.17109761193029,42.99663908432284
C 79.4980780393652,44.35861058354148 78.75771456685668,58.6660715563477 79.1088717882799,57.25765686799003
C 79.4600290097031,55.849242179632355 78.66828833276142,41.03417101762774 79.04442921134323,42.488599878366756
C 79.42057008992504,43.94302873910577 78.57585100002537,59.264571353075624 78.97777478867205,57.764571353075624
C 79.37969857731873,56.264571353075624 78.48041549836503,40.43773449292213 78.90891359625869,41.982848717652296
C 79.33741169415235,43.52796294238246 78.38199516661885,59.85887846720959 78.83785087814957,58.26912067450998
C 79.29370658968028,56.67936288181036 78.28060374988206,39.84562255383724 78.76459204604579,41.47953965888232
C 79.24858034220952,43.1134567639274 78.17625539655619,60.448729852094345 78.68914267889106,58.771151141682104
C 79.20202996122595,57.09357243126986 78.06896465531378,39.25809670581867 78.61150852244681,40.97882601487181
C 79.15405238957983,42.69955532392495 77.95874647197945,61.03386558812584 78.53169548885461,59.27050983124842
C 79.10464450572977,57.507154074371 77.84561618632786,38.67541523839109 78.44970965618597,40.48086030784724
C 79.0538031260441,42.28630537730338 77.72958952879966,61.614029059691674 78.36555726797951,59.7670446337147
C 79.00152500715934,57.92006020773773 77.61068261713626,38.09783304983736 78.27924473276535,39.985794222986875
C 78.94780684839444,41.87375539613639 77.48891195293419,62.18896712882968 78.19077862357724,60.260604299770065
C 78.89264529422032,58.33224147071044 77.36429441812025,37.52560147524446 78.10016567745193,39.49377856221598
C 78.83603693678361,41.4619556491875 77.23684727134824,62.75843030543558 78.00741279491605,60.75103848635901
C 78.77797831848386,58.743646667282434 77.10658814431825,36.95896811808359 77.91252703946074,39.004963198271085
C 78.71846593460322,41.05095827845858 76.97353503801958,63.32217291385435 77.81551563700361,61.23819780247736
C 78.65749623598767,59.154222691100365 76.83770631889824,36.39817668548766 77.7163859753386,38.51949702904731
C 78.59506563177897,40.640817372606946 76.6991207149502,63.87995325569416 77.61514560357321,61.72193385467821
C 78.53117049219622,59.56391445366226 76.55779731174121,35.8434668273851 77.51180223155373,38.03752793224261
C 78.46580715136622,40.23158903710012 76.4137555483546,64.43153376870619 77.40636372927803,62.202099292274006
C 78.39897191020145,59.972664815841824 76.26701521326783,35.29507397964451 77.29883812629629,37.559202720312825
C 78.33066103932478,39.823331460981144 76.11759644015912,64.97668118157792 77.1892336110995,62.67854785222099
C 78.26087078203989,60.38041452286405 75.96551970364533,34.75322921138024 77.07755853049582,37.08466709575114
C 78.18959735734632,39.41610498012206 75.81080581495199,65.51516666449248 76.963821388975,63.15113440367232
C 78.11683696299804,60.787102142852156 75.6534759175169,34.21815907656386 76.84803084806074,36.614065606705736
C 78.0425857786046,39.009972136847615 75.49355148252846,66.04676597531125 76.73019572565104,63.6197149921864
C 77.96683996877361,61.19266400906156 75.33105430439979,33.69008547008201 76.61032499534664,36.14754160294898
C 77.88959568629352,38.60499773581596 75.16600649618005,66.57125960124185 76.48842778576781,64.08414688357672
C 77.81084907535558,61.597034165911595 74.99843048490405,33.169225488375474 76.36451337985896,35.685237192211744
C 77.73059627481388,38.20124889604802 74.8283490068815,67.08843289585938 76.23859121418187,64.54428860739011
C 77.64883342148225,62.00014431892083 74.65578510292715,32.65579129478965 76.110670878197,35.227293196895985
C 77.56555665346683,37.79879509900233 74.48076211353316,67.59807621135332 75.98076211353316,65.0
C 77.48076211353316,62.401923788646684 74.30330367398479,32.14998998976069 75.84887481324577,34.773849111178876
C 77.39444595250677,37.39770823259707 74.12343370942105,68.09998502587841 75.71501902106337,65.45114224730162
C 77.3066043327057,62.80229946872484 73.94117642984142,31.65202348595643 75.57920493062277,34.32504305852154
C 77.21723343140413,36.99806263108664 73.75655632506002,68.59396006589364 75.44144288469278,65.89757792699615
C 77.12632944432555,63.201195788098644 73.56959815960867,31.162088388485333 75.30174337438658,33.88101174959529
C 77.03388858916448,36.59993511070523 73.38032696759012,69.07980742337861 75.16011703836273,66.33917105045082
C 76.93990710913532,63.598534677523006 73.18876804748287,30.680375880280934 75.01657466201505,33.441890440638254
C 76.84438127654722,36.20340500099557 72.99494695689899,69.55733866782276 74.87112717665126,66.7757871041224
C 76.74730739640351,63.994235540422046 72.79888950729637,30.207071612763407 74.72378565866047,33.00781289225502
C 76.64868181002457,35.80855417174662 72.60062175864675,70.02637095288911 74.57456132866976,67.20729309053138
C 76.54850089869275,64.38821522817366 72.40017001406105,29.742355601873857 74.42346555068957,32.57891132867181
C 76.44676108731811,35.415467055469755 72.19756081437328,70.48672711765965 74.27050983124843,67.6335575687742
C 76.34345884812357,64.78038801988873 71.99282093268474,29.286402129570657 74.11570581851652,32.155316397459764
C 76.23859070434831,35.02423066534887 71.78597736886978,70.93823578237641 73.95906530141879,68.05445069456145
C 76.13215323396778,65.1706656067465 71.57705734404462,28.839379650871177 73.80060020873705,31.73715712973838
C 76.02414307342949,34.63493460860558 71.36608829500067,71.38073143859773 73.64032260820166,68.46984425976974
C 75.91455692140266,65.55895708094175 71.15309786860402,28.401450706515703 73.47824470557242,31.32456090087141
C 75.80339154254082,34.24767109522712 70.93811391616241,71.81405453369653 73.31437884370914,68.87961173149512
C 75.69064377125585,65.9451689292937 70.72116448776123,27.97277184132409 73.1487375016316,30.91765339166708
C 75.57631051550197,33.86253494201007 70.50227782657014,72.2380515496328 72.98133329356934,69.28362829059617
C 75.46038876056855,66.32920503155955 70.28148236312163,27.553493528309076 72.81217896800092,30.51655855009449
C 75.34287557288023,33.4796235718799 70.05880670956336,72.65257507593992 72.64128740668316,69.68177086971522
C 75.22376810380297,66.71096666349051 69.8342796538855,27.143760098603906 72.46867162367006,30.121398553527875
C 75.10306359345462,33.099037008451845 69.60793015412479,73.05748387687056 72.29434476432183,70.07391819076574
C 74.98075937451887,67.09035250466093 69.3797873325467,26.743709677254955 72.11832010430372,29.73229377153019
C 74.85685287606074,32.720877865805434 69.1498804698075,73.45264295265443 71.94061104857512,70.45995080187495
C 74.73134162734274,67.46725865109548 68.91823899909747,26.35347412492366 71.76123113036863,29.349362729187384
C 74.6042232616398,32.3452513334511 68.68489250026704,73.8379235948272 71.58019401015953,70.83975111376992
C 74.47549552005204,67.84157863271264 68.4498706939373,25.9731789855353 71.39751347462544,28.972722071004473
C 74.3451562553136,31.972265156473647 68.21320343559643,74.21320343559643 71.21320343559643,71.21320343559643
C 74.21320343559643,68.21320343559643 67.97492070968367,25.60294343990538 71.02727792899553,28.60248652537455
C 74.07963514830737,31.602029610843726 67.73505262366243,74.57836649121683 70.83975111376992,71.58019401015953
C 73.94444960387742,68.58202152910225 67.4936294020838,25.24288026536765 70.65063727081262,28.23876886963137
C 73.80764513954145,31.23465747389509 67.25068138064258,74.93330319935458 70.45995080187495,71.94061104857511
C 73.66922022310733,68.94791889779565 67.00623900022683,24.89309580142104 70.2677062284698,27.881679895696276
C 73.52917345671278,30.870263989971516 66.76033280096279,75.27791045042665 70.07391819076574,72.29434476432183
C 73.3875035805687,69.31077907821701 66.51299341625668,24.55368992140597 69.87860144647212,27.531328376329938
C 73.24420947668756,30.508966831253904 66.26425156683501,75.61209161290788 69.68177086971522,72.64128740668316
C 73.09929017259542,69.67048320045845 66.01413805478481,24.224756010213657 69.48344144990551,27.187821031999068
C 72.9527448450262,30.150886053784482 65.7626837575954,75.93575655260597 69.28362829059618,72.98133329356934
C 72.80457282359697,70.02691003453272 65.50991962220328,23.906380948025408 69.08234660833293,26.8512624983684
C 72.65477359446255,29.796144048711394 65.25587665904185,76.24882164591054 68.87961173149512,73.31437884370912
C 72.5033468039484,70.3799360415077 65.000585936097,23.59864510007188 68.6754390991286,26.521755294427585
C 72.35029226216018,29.44486548878329 64.74407857297075,76.55120978702965 68.46984425976974,73.64032260820166
C 72.19560994656875,70.72943542937367 64.48638573495406,23.30162231239574 68.26284287026162,26.199399791262945
C 72.03930000556917,29.09717727013015 64.22753862711045,76.84285038923375 68.05445069456145,73.95906530141879
C 71.88136276201244,71.07528021360383 63.96756848837203,23.015379913594376 67.84468360254024,25.884294181483483
C 71.72179871670845,28.75320844937259 63.70650658564935,77.12367938013388 67.6335575687742,74.27050983124843
C 71.56060855189904,71.41734028236297 63.44438420795673,22.739978722512475 67.42108867132819,25.576534449310426
C 71.39779313469967,28.413090176108376 63.18123266055437,77.39363919102748 67.20729309053138,74.57456132866976
C 71.23335352050839,71.75548346631203 62.917083259109084,22.475473061847925 66.99218710774498,25.27621434133953
C 71.06729095638089,28.076955620831132 62.651967323874665,77.65267874035162 66.7757871041224,74.87112717665126
C 70.89960688437014,72.08957561295088 62.38591617389393,22.221910777627635 66.55810955936175,24.983425337984958
C 70.73030294482956,27.744939898342277 62.118961121223414,77.90075341129052 66.33917105045082,75.16011703836271
C 70.55938097967821,72.41948066543492 61.85113346518262,21.97933326450348 66.11898825040471,24.698256625613432
C 70.38684303562681,27.417179986723383 61.582464486628915,78.13782502359028 65.89757792699615,75.44144288469278
C 70.21269136736338,72.74506074579529 61.31298544225983,21.74777549681213 65.67495694147847,24.420795069377235
C 70.03692844069711,27.093814641942338 61.04272755894395,78.36386179964015 65.45114224730163,75.71501902106337
C 69.8595569356593,73.06617624248659 60.77172202808212,21.527266065336043 65.22615088882112,24.15112518675423
C 69.68057974956014,26.774984308172417 60.5,78.57883832488648 65.0,75.98076211353316
C 69.5,73.38268590217984 60.22759257837385,21.317827219696674 64.77270680310401,23.88932912180301
C 69.31782102783419,26.460831023909346 59.9545308146905,78.78273550265115 64.54428860739011,76.23859121418187
C 69.13404640008973,73.6944469257126 59.68084570274317,21.119474916304767 64.31476280778826,23.635486620141037
C 68.94867991283334,26.15149832397731 59.40656817316449,78.97554050343294 64.08414688357672,76.48842778576781
C 68.76172559398896,74.00131506810268 59.13172908799788,20.932218871786375 63.852458397051024,23.389675004653352
C 68.57318770610416,25.84713113752033 58.856359235308986,79.15724670877589 63.6197149921864,76.73019572565104
C 68.38307074906382,74.3031447425262 58.580489323838115,20.75606262179737 63.385934393294264,23.151969151939248
C 68.1913794627504,25.547875682081127 58.304149977695346,79.32785364979517 63.15113440367232,76.963821388975
C 67.9981188296493,74.59978912815484 58.02737173109934,20.591003585133272 62.91533290424886,22.922441469504186
C 67.80329407739836,25.253879353875096 57.750185023161364,79.48736694045644 62.67854785222099,77.1892336110995
C 67.6069106812806,74.89110028174257 57.472620192715645,20.43703313303539 62.44079727968717,22.701161873703704
C 67.4089743666587,24.96529061437202 57.19470747319743,79.63579820571022 62.202099292274006,77.40636372927803
C 67.20949111135059,75.17692925284584 56.916476987569894,20.294136663588766 61.96247206775739,22.488197768446277
C 67.00846714794488,24.68225887330379 56.637958743301226,79.77316500458916 61.72193385467822,77.61514560357321
C 66.80590896605521,75.45712620255725 56.359182627393054,20.16229368110175 61.4805029709527,22.283614024661397
C 66.60182331451233,24.404934368221042 56.0801784014614,79.89949074838061 61.23819780247736,77.81551563700361
C 66.39621720349331,75.73154052562663 55.800975696871404,20.041477880351767 60.995036801728915,22.087472960539262
C 66.18909790658643,24.13346804072676 55.521604009926826,80.01480461399262 60.75103848635901,78.00741279491605
C 65.9804729627912,76.00002097583948 55.24209269711571,19.93165723557655 60.50622143778402,21.899834322548074
C 65.77035017845233,23.868011409519596 54.96247097041313,80.11914145263687 60.260604299770065,78.19077862357724
C 65.558737629127,76.26241579451764 54.68276789264222,19.83279409408514 60.01420577701313,21.72075526723465
C 65.34564366138405,23.608716440384164 54.40301237289454,80.21254169395648 59.767044633714704,78.3655572679795
C 65.13107689453487,76.51857284200253 54.123233162010884,19.744845274357875 59.51913969215276,21.55029034381402
C 64.91504622229465,23.355735413270164 53.84345884812358,80.29505124573203 59.270509831248425,78.53169548885461
C 64.69756081437326,76.76833973197719 53.56371785226122,19.667762168500055 59.0211739851282,21.388491477553192
C 64.47863011799518,23.109220786606333 53.28403842401698,80.36672138930331 58.771151141682104,78.68914267889106
C 64.25826385934722,77.01156396847882 53.004448637281406,19.60149084890913 58.520460341117676,21.23540795395421
C 64.03647204495395,22.869325058999287 52.724976386040694,80.42760867084918 58.26912067450998,78.83785087814957
C 63.813264962979254,77.24809308544995 52.44564938024137,19.54597217901115 58.01715128234771,21.09108640374131
C 63.588653184454046,22.636200628471475 52.16649514172231,80.47777478867205 57.764571353075624,78.97777478867205
C 63.36264756442894,77.47777478867205 51.88754100021506,19.501141927917754 57.511400121633244,20.955570788656768
C 63.13525924305143,22.40999964939578 51.60881408941326,80.51728647663757 57.257656867990036,79.1088717882799
C 62.906499646566814,77.70045709992222 51.33034134311206,19.46693088885106 57.00336091567716,20.828902388069704
C 62.676380488242266,22.190873887288344 51.05214949141845,80.54621538392429 56.748531630315945,79.23110194355706
C 62.44491376921345,77.91598850318982 50.77426505703314,19.443265001179903 56.493188418143085,20.711119786401998
C 62.212111779253036,21.978974571624097 50.49671435160498,80.56463795124156 56.23735072453278,79.34442802201417
C 61.977987097460584,78.12421809278676 50.2195234721586,19.43006547590729 55.981038032515926,20.602258861375113
C 61.742552592873245,21.774452246842937 49.94271829759598,80.57263528367766 55.72426986129635,79.44881550342993
C 61.50582142499671,78.32499572318218 49.66632448527282,19.427248924445458 55.46706576476442,20.502352773081363
C 61.26780704425603,21.577456621717264 49.39036746765019,80.57029302034324 55.20944533000791,79.54423259036625
C 61.02852319236564,78.51817216038924 49.114872449022386,19.434727490511587 54.95142817582033,20.41143195388306
C 60.78798390261828,21.38813641725453 48.83986440232147,80.55770120097897 54.69303395120693,79.63065021785414
C 60.54620350009239,78.7035992347293 48.565368065999216,19.45240898497428 54.43428233388832,20.329524099142496
C 60.30319660177743,21.206639213310705 48.291407940987014,80.53495412969811 54.17519302880197,79.7080420622471
C 60.05897811661693,78.88112999479611 48.01800828773435,19.480197023478123 53.91578576660155,20.25665415878569
C 59.81356324546876,21.03311129409325 47.74519312332644,80.50215023603866 53.65608030215442,79.77638454923965
C 59.56696748098241,79.05061886244066 47.47298621868149,19.517991166670786 53.3960964130372,20.192844329702375
C 59.3192066073929,20.86769749273397 47.201411095828185,80.45939193350148 53.1358538980296,79.8356568610482
C 59.07029670023102,79.21192178859492 46.930491025263734,19.565687062855005 52.875372575606725,20.138114048984637
C 58.82025412594972,20.71054103511427 46.66024902339312,80.40678547575315 52.614672282429744,79.88584094275237
C 58.56909554146637,79.36489640975157 46.390707850049935,19.62317659288547 52.353772871835346,20.09247998800616
C 58.316837893620765,20.56178338312685 46.12189000609905,80.34444081067493 52.092694212323764,79.92692150779473
C 58.06349841854848,79.50940220491452 45.853817731121744,19.69034801712855 51.831456186045706,20.055956047343994
C 57.809094640969676,20.421564077559434 45.5865130011835,80.27247143244017 51.570078687288316,79.95888604263722
C 57.55364437339314,79.64530065283425 45.31999752668485,19.76708612430129 51.308581620960084,20.028553352544264
C 57.29716571523532,20.290020580787242 45.05429275029556,80.19099423180525 51.046984901075035,79.98172481057287
C 57.039677051854504,79.7724553893405 44.78941984497247,19.853272382004448 50.7853084492362,20.01028025073328
C 56.781197053499916,20.167288119462114 44.525399712061215,80.10012934479924 50.523572193118504,79.99543085469173
C 56.52174467417579,79.89073236458424 44.26225297948204,19.948785088763014 50.26179606495122,20.00114230807486
C 56.26133915042039,20.053499527386712 44.0,80.0 50.0,80.0
C 56.0,80.0 43.73866084957961,20.05349952738671 49.73820393504879,20.00114230807486
C 55.73774702051796,19.948785088763014 43.47825532582421,79.89073236458424 49.476427806881496,79.99543085469173
C 55.474600287938785,80.10012934479924 43.21880294650009,20.167288119462114 49.21469155076381,20.01028025073328
C 55.21058015502753,19.853272382004455 42.9603229481455,79.77245538934051 48.95301509892498,79.98172481057287
C 54.945707249704455,80.19099423180525 42.702834284764684,20.29002058078724 48.69141837903992,20.028553352544264
C 54.68000247331516,19.76708612430129 42.446355626606874,79.64530065283425 48.42992131271169,79.95888604263722
C 54.41348699881651,80.27247143244017 42.190905359030324,20.421564077559434 48.16854381395429,20.055956047343994
C 54.146182268878256,19.69034801712855 41.93650158145153,79.50940220491452 47.90730578767624,79.92692150779473
C 53.87810999390095,80.34444081067493 41.68316210637924,20.56178338312685 47.646227128164654,20.09247998800616
C 53.609292149950065,19.62317659288547 41.430904458533625,79.36489640975157 47.385327717570256,79.88584094275237
C 53.33975097660688,80.40678547575315 41.17974587405029,20.710541035114268 47.12462742439328,20.138114048984633
C 53.06950897473627,19.565687062854998 40.92970329976898,79.21192178859492 46.8641461019704,79.83565686104821
C 52.798588904171815,80.45939193350148 40.68079339260709,20.86769749273397 46.6039035869628,20.192844329702375
C 52.5270137813185,19.51799116667078 40.43303251901759,79.05061886244066 46.34391969784558,79.77638454923967
C 52.25480687667357,80.50215023603866 40.18643675453125,21.033111294093246 46.084214233398455,20.256654158785686
C 51.98199171226567,19.480197023478123 39.94102188338308,78.88112999479611 45.824806971198036,79.7080420622471
C 51.708592059013,80.53495412969811 39.696803398222585,21.2066392133107 45.56571766611169,20.329524099142496
C 51.43463193400079,19.452408984974287 39.45379649990761,78.70359923472928 45.30696604879307,79.63065021785413
C 51.16013559767853,80.55770120097897 39.21201609738172,21.388136417254525 45.04857182417967,20.411431953883056
C 50.88512755097762,19.434727490511587 38.97147680763437,78.51817216038924 44.79055466999209,79.54423259036625
C 50.60963253234981,80.57029302034324 38.73219295574397,21.577456621717264 44.53293423523557,20.502352773081363
C 50.333675514727176,19.427248924445458 38.49417857500329,78.32499572318218 44.27573013870366,79.44881550342993
C 50.05728170240402,80.57263528367766 38.25744740712677,21.774452246842934 44.01896196748409,20.602258861375113
C 49.78047652784141,19.43006547590729 38.02201290253942,78.12421809278678 43.762649275467226,79.34442802201417
C 49.50328564839503,80.56463795124156 37.787888220746964,21.978974571624097 43.506811581856915,20.711119786401998
C 49.22573494296687,19.443265001179903 37.55508623078656,77.91598850318982 43.251468369684055,79.23110194355706
C 48.94785050858156,80.54621538392429 37.32361951175774,22.190873887288337 42.996639084322844,20.8289023880697
C 48.66965865688795,19.46693088885106 37.093500353433186,77.70045709992222 42.742343132009964,79.1088717882799
C 48.39118591058675,80.51728647663757 36.86474075694857,22.40999964939578 42.488599878366756,20.955570788656768
C 48.11245899978495,19.50114192791776 36.63735243557106,77.47777478867205 42.235428646924376,78.97777478867205
C 47.83350485827769,80.47777478867205 36.411346815545954,22.63620062847147 41.982848717652296,21.09108640374131
C 47.55435061975863,19.54597217901115 36.186735037020746,77.24809308544995 41.73087932549003,78.83785087814957
C 47.275023613959306,80.42760867084918 35.96352795504605,22.86932505899929 41.47953965888232,21.23540795395421
C 46.995551362718594,19.60149084890913 35.741736140652776,77.01156396847882 41.2288488583179,78.68914267889107
C 46.71596157598302,80.36672138930331 35.521369882004834,23.10922078660633 40.978826014871814,21.388491477553192
C 46.43628214773879,19.667762168500055 35.30243918562674,76.76833973197719 40.72949016875158,78.53169548885461
C 46.156541151876425,80.29505124573203 35.08495377770536,23.35573541327016 40.48086030784724,21.550290343814016
C 45.87676683798912,19.74484527435787 34.86892310546514,76.51857284200253 40.23295536628531,78.36555726797951
C 45.59698762710548,80.21254169395648 34.654356338615955,23.608716440384164 39.98579422298687,21.72075526723465
C 45.31723210735778,19.83279409408514 34.441262370873005,76.26241579451764 39.739395700229935,78.19077862357724
C 45.03752902958687,80.11914145263687 34.22964982154765,23.868011409519596 39.49377856221597,21.899834322548074
C 44.75790730288429,19.93165723557655 34.01952703720881,76.00002097583948 39.24896151364099,78.00741279491605
C 44.478395990073174,80.01480461399262 33.810902093413574,24.13346804072676 39.004963198271085,22.087472960539262
C 44.199024303128596,20.041477880351767 33.60378279650668,75.73154052562663 38.76180219752264,77.81551563700361
C 43.91982159853859,79.89949074838061 33.39817668548766,24.40493436822104 38.51949702904731,22.283614024661397
C 43.64081737260695,20.162293681101755 33.1940910339448,75.45712620255726 38.27806614532179,77.61514560357321
C 43.36204125669879,79.77316500458916 32.99153285205512,24.682258873303784 38.037527932242625,22.488197768446277
C 43.08352301243012,20.294136663588766 32.79050888864943,75.17692925284584 37.797900707726,77.40636372927803
C 42.805292526802575,79.63579820571022 32.59102563334131,24.965290614372016 37.55920272031284,22.7011618737037
C 42.52737980728436,20.437033133035385 32.393089318719404,74.89110028174257 37.32145214777902,77.1892336110995
C 42.249814976838636,79.48736694045644 32.19670592260163,25.253879353875096 37.08466709575114,22.922441469504186
C 41.97262826890065,20.591003585133272 32.0018811703507,74.59978912815484 36.84886559632768,76.963821388975
C 41.69585002230465,79.32785364979517 31.80862053724959,25.54787568208113 36.614065606705736,23.15196915193925
C 41.41951067616188,20.75606262179737 31.616929250936177,74.3031447425262 36.3802850078136,76.73019572565104
C 41.143640764691014,79.15724670877589 31.426812293895846,25.84713113752032 36.14754160294898,23.389675004653345
C 40.868270912002124,20.932218871786368 31.23827440601104,74.00131506810268 35.915853116423285,76.48842778576781
C 40.59343182683553,78.97554050343294 31.051320087166665,26.15149832397731 35.685237192211744,23.635486620141037
C 40.31915429725683,21.119474916304767 30.865953599910274,73.6944469257126 35.45571139260989,76.23859121418188
C 40.04546918530951,78.78273550265115 30.682178972165826,26.460831023909346 35.22729319689599,23.88932912180301
C 39.772407421626156,21.317827219696674 30.500000000000004,73.38268590217984 35.00000000000001,75.98076211353316
C 39.50000000000001,78.57883832488648 30.31942025043986,26.774984308172417 34.77384911117887,24.15112518675423
C 39.22827797191788,21.527266065336043 30.140443064340698,73.06617624248659 34.54885775269837,75.71501902106337
C 38.95727244105605,78.36386179964015 29.963071559302897,27.093814641942334 34.32504305852154,24.42079506937723
C 38.68701455774018,21.747775496812128 29.787308632636623,72.74506074579529 34.10242207300386,75.44144288469278
C 38.41753551337109,78.13782502359028 29.613156964373193,27.417179986723376 33.881011749595295,24.698256625613425
C 38.148866534817394,21.979333264503474 29.44061902032178,72.41948066543492 33.660828949549185,75.16011703836273
C 37.881038878776586,77.90075341129052 29.269697055170433,27.744939898342274 33.441890440638254,24.983425337984954
C 37.61408382610608,22.22191077762763 29.100393115629863,72.08957561295088 33.2242128958776,74.87112717665126
C 37.348032676125335,77.65267874035162 28.93270904361912,28.07695562083113 33.00781289225502,25.276214341339525
C 37.08291674089092,22.47547306184792 28.766646479491616,71.75548346631203 32.79270690946862,74.57456132866976
C 36.818767339445635,77.39363919102749 28.602206865300335,28.413090176108373 32.57891132867181,25.576534449310422
C 36.55561579204328,22.739978722512472 28.439391448100967,71.41734028236297 32.366442431225806,74.27050983124843
C 36.29349341435065,77.12367938013388 28.278201283291555,28.753208449372586 32.155316397459764,25.88429418148348
C 36.032431511627976,23.015379913594373 28.118637237987553,71.07528021360383 31.945549305438547,73.95906530141878
C 35.772461372889545,76.84285038923375 27.96069999443082,29.09717727013015 31.73715712973838,26.199399791262945
C 35.513614265045945,23.30162231239574 27.80439005343125,70.72943542937367 31.530155740230253,73.64032260820166
C 35.25592142702926,76.55120978702965 27.64970773783982,29.444865488783282 31.32456090087142,26.521755294427578
C 34.99941406390302,23.598645100071874 27.4966531960516,70.37993604150772 31.120388268504882,73.31437884370914
C 34.74412334095816,76.24882164591054 27.345226405537453,29.796144048711387 30.917653391667088,26.851262498368392
C 34.49008037779672,23.9063809480254 27.195427176403026,70.02691003453272 30.71637170940382,72.98133329356934
C 34.23731624240461,75.93575655260597 27.0472551549738,30.150886053784482 30.516558550094494,27.187821031999068
C 33.98586194521519,24.224756010213657 26.90070982740458,69.67048320045845 30.318229130284774,72.64128740668316
C 33.73574843316497,75.61209161290788 26.75579052331243,30.508966831253908 30.12139855352787,27.53132837632994
C 33.48700658374331,24.553689921405972 26.61249641943129,69.31077907821701 29.926081809234255,72.29434476432183
C 33.239667199037214,75.27791045042665 26.470826543287217,30.870263989971516 29.73229377153019,27.881679895696276
C 32.99376099977317,24.89309580142104 26.330779776892673,68.94791889779565 29.54004919812505,71.94061104857512
C 32.749318619357425,74.93330319935458 26.192354860458554,31.23465747389509 29.349362729187387,28.238768869631368
C 32.50637059791622,25.242880265367646 26.055550396122584,68.58202152910226 29.16024888623009,71.58019401015954
C 32.264947376337595,74.57836649121683 25.92036485169262,31.602029610843726 28.972722071004473,28.60248652537455
C 32.02507929031633,25.60294343990538 25.786796564403577,68.21320343559643 28.786796564403577,71.21320343559643
C 31.786796564403577,74.21320343559643 25.654843744686406,31.972265156473647 28.602486525374555,28.97272207100447
C 31.550129306062708,25.973178985535295 25.524504479947964,67.84157863271263 28.419805989840462,70.83975111376992
C 31.315107499732957,73.8379235948272 25.3957767383602,32.3452513334511 28.238768869631368,29.349362729187384
C 31.081761000902535,26.35347412492366 25.26865837265726,67.46725865109548 28.059388951424886,70.45995080187495
C 30.85011953019251,73.45264295265443 25.143147123939254,32.72087786580543 27.88167989569628,29.732293771530188
C 30.620212667453305,26.74370967725495 25.01924062548114,67.09035250466093 27.70565523567818,70.07391819076575
C 30.39206984587522,73.05748387687058 24.89693640654538,33.099037008451845 27.531328376329935,30.12139855352788
C 30.16572034611449,27.14376009860391 24.776231896197036,66.71096666349051 27.358712593316838,69.68177086971522
C 29.941193290436644,72.65257507593994 24.65712442711977,33.4796235718799 27.187821031999075,30.516558550094487
C 29.71851763687838,27.553493528309076 24.53961123943145,66.32920503155955 27.018666706430665,69.28362829059618
C 29.497722173429874,72.23805154963281 24.42368948449804,33.86253494201007 26.851262498368406,30.917653391667073
C 29.27883551223877,27.972771841324082 24.309356228744154,65.94516892929371 26.68562115629088,68.87961173149513
C 29.061886083837607,71.81405453369655 24.196608457459178,34.24767109522712 26.52175529442758,31.32456090087141
C 28.846902131395986,28.401450706515703 24.085443078597343,65.55895708094177 26.359677391798343,68.46984425976976
C 28.633911704999342,71.38073143859773 23.975856926570504,34.63493460860559 26.19939979126294,31.737157129738385
C 28.422942655955378,28.839379650871184 23.86784676603221,65.17066560674648 26.04093469858121,68.05445069456144
C 28.214022631130213,70.93823578237641 23.761409295651692,35.02423066534887 25.884294181483483,32.155316397459764
C 28.00717906731527,29.286402129570657 23.65654115187642,64.78038801988873 25.72949016875158,67.6335575687742
C 27.80243918562674,70.48672711765965 23.553238912681895,35.415467055469755 25.576534449310426,32.57891132867181
C 27.599829985938957,29.742355601873854 23.451499101307252,64.38821522817366 25.425438671330248,67.2072930905314
C 27.399378241353247,70.02637095288912 23.351318189975434,35.80855417174661 25.276214341339536,33.007812892255004
C 27.201110492703638,30.207071612763396 23.252692603596486,63.994235540422046 25.12887282334875,66.7757871041224
C 27.005053043101015,69.55733866782276 23.15561872345278,36.20340500099557 24.983425337984958,33.441890440638254
C 26.811231952517137,30.68037588028093 23.060092890864677,63.598534677523006 24.839882961637276,66.3391710504508
C 26.619673032409874,69.07980742337861 22.966111410835527,36.59993511070523 24.69825662561343,33.88101174959529
C 26.43040184039133,31.162088388485337 22.873670555674455,63.201195788098644 24.55855711530722,65.89757792699615
C 26.24344367493999,68.59396006589365 22.782766568595875,36.99806263108664 24.420795069377235,34.32504305852153
C 26.058823570158594,31.652023485956427 22.693395667294304,62.802299468724854 24.284980978936634,65.45114224730163
C 25.87656629057896,68.09998502587841 22.60555404749324,37.397708232597054 24.151125186754232,34.77384911117887
C 25.696696326015225,32.149989989760684 22.51923788646684,62.401923788646684 24.01923788646684,65.0
C 25.519237886466836,67.59807621135332 22.434443346533172,37.79879509900232 23.88932912180301,35.227293196895985
C 25.34421489707285,32.65579129478965 22.35116657851774,62.00014431892084 23.761408785818126,64.54428860739011
C 25.171650993118515,67.0884328958594 22.269403725186123,38.201248896048014 23.63548662014104,35.685237192211744
C 25.001569515095962,33.16922548837547 22.189150924644434,61.59703416591161 23.511572214232196,64.08414688357674
C 24.83399350381996,66.57125960124186 22.110404313706486,38.60499773581596 23.38967500465335,36.14754160294898
C 24.66894569560021,33.69008547008201 22.033160031226387,61.19266400906156 23.269804274348967,63.6197149921864
C 24.506448517471547,66.04676597531125 21.957414221395396,39.00997213684761 23.15196915193925,36.61406560670573
C 24.346524082483107,34.21815907656385 21.883163037001964,60.787102142852156 23.03617861102499,63.151134403672316
C 24.189194185048013,65.51516666449248 21.810402642653692,39.41610498012206 22.922441469504182,37.08466709575114
C 24.03448029635467,34.75322921138024 21.73912921796012,60.38041452286405 22.8107663889005,62.67854785222099
C 23.882403559840885,64.97668118157792 21.669338960675226,39.82333146098114 22.701161873703708,37.559202720312825
C 23.732984786732185,35.295073979644506 21.60102808979855,59.972664815841824 22.593636270721976,62.20209929227401
C 23.586244451645403,64.4315337687062 21.534192848633776,40.23158903710012 22.48819776844628,38.037527932242604
C 23.44220268825879,35.843466827385086 21.468829507803783,59.56391445366227 22.384854396426796,61.72193385467823
C 23.300879285049806,63.87995325569418 21.404934368221042,40.640817372606946 22.283614024661397,38.5194970290473
C 23.162293681101755,36.398176685487655 21.342503764012335,59.15422269110037 22.18448436299638,61.238197802477366
C 23.026464961980427,63.32217291385436 21.281534065396777,41.05095827845858 22.087472960539262,39.004963198271085
C 22.89341185568175,36.95896811808359 21.222021681516132,58.743646667282434 21.992587205083947,60.75103848635901
C 22.763152728651765,62.75843030543558 21.16396306321639,41.461955649187495 21.899834322548074,39.49377856221597
C 22.635705581879755,37.52560147524445 21.107354705779684,58.33224147071044 21.80922137642275,60.260604299770065
C 22.51108804706582,62.18896712882969 21.05219315160556,41.873755396136374 21.72075526723465,39.98579422298687
C 22.38931738286374,38.09783304983735 20.998474992840663,57.920060207737734 21.6344427320205,59.76704463371471
C 22.270410471200332,61.61402905969169 20.9461968739559,42.28630537730338 21.55029034381402,40.48086030784724
C 22.15438381367214,38.67541523839109 20.895355494270234,57.50715407437101 21.468304511145394,59.270509831248425
C 22.04125352802055,61.03386558812585 20.84594761042017,42.69955532392494 21.388491477553195,40.9788260148718
C 21.931035344686222,39.25809670581866 20.79797003877406,57.09357243126987 21.310857321108937,58.77115114168211
C 21.823744603443814,60.44872985209435 20.751419657790482,43.1134567639274 21.23540795395421,41.479539658882324
C 21.719396250117935,39.845622553837245 20.706293410319716,56.67936288181037 21.16214912185044,58.26912067450999
C 21.618004833381164,59.85887846720961 20.66258830584765,43.52796294238245 21.09108640374131,41.98284871765229
C 21.519584501634974,40.437734492922125 20.62030142268127,56.26457135307563 21.022225211327953,57.76457135307563
C 21.424148999974637,59.26457135307563 20.579429910074957,43.94302873910577 20.955570788656768,42.48859987836676
C 21.33171166723858,41.03417101762775 20.539970990296887,55.849242179632355 20.891128211720105,57.25765686799003
C 21.242285433143323,58.6660715563477 20.501921960634807,44.35861058354148 20.828902388069704,42.99663908432284
C 21.155882815504597,41.6346675851042 20.465280195340444,55.43341818994871 20.768898056442943,56.748531630315945
C 21.07251591754544,58.06364507068317 20.430043147511952,44.77466636707901 20.711119786402,43.50681158185691
C 20.992196425292054,42.2389567966348 20.396208350913632,55.01714079530538 20.65557197798583,56.23735072453278
C 20.914935605058027,57.45756065376018 20.363773421732436,45.191155352951895 20.602258861375116,44.01896196748407
C 20.840744301017796,42.846768582016246 20.332736060270445,54.60045008104861 20.551184496570084,55.72426986129635
C 20.769632932869722,56.848089641544085 20.30309405257297,45.60803808387147 20.502352773081366,44.53293423523557
C 20.70161149358976,43.45783038659967 20.274845271991484,54.1833849000309 20.455767409633758,55.20944533000791
C 20.636689547276035,56.23550575998492 20.24798768068101,46.02527628755113 20.41143195388306,45.04857182417966
C 20.57487622708511,44.071867360808184 20.222519331031332,53.765982968082085 20.36934978214587,54.69303395120693
C 20.51618023326041,55.62008493433177 20.198438367031603,46.4428327802799 20.329524099142496,45.56571766611169
C 20.46060983125339,44.68860255194348 20.175743025567847,53.34828096135097 20.291957937752894,54.17519302880197
C 20.408172849937937,55.00210509625297 20.154431637652895,46.860671368706015 20.25665415878569,46.084214233398455
C 20.358876679918485,45.30775709809089 20.13450262958833,52.93031461535542 20.22361545076034,53.65608030215443
C 20.31272827193235,54.38184598895343 20.115954524058083,47.278756749994386 20.192844329702375,46.603903586962794
C 20.26973413534667,45.9290504239312 20.098785941153217,52.51211882557633 20.1643431389518,53.13585389802961
C 20.229900336750386,53.759588970482895 20.082995599327628,47.69705441052292 20.138114048984633,47.12462742439328
C 20.193232498641642,46.55220043826365 20.068582316284257,52.093727749428965 20.114159057247633,52.61467228242976
C 20.15973579821101,53.13561681543055 20.055545009791576,48.115530523285344 20.09247998800616,47.64622712816465
C 20.129414966220747,47.17692373304396 20.043882698429986,51.67517490944357 20.073078492205273,52.092694212323764
C 20.102274285980563,52.510213515203965 20.033594502267956,48.53415184416973 20.055956047343994,48.16854381395429
C 20.078317592420028,47.80293578373884 20.024679643467607,51.256493297485356 20.041113957362786,51.570078687288316
C 20.057548271257964,51.883664077091275 20.017137446819504,48.952885607282894 20.028553352544264,48.691418379039916
C 20.03996925826903,48.429951150796946 20.010967340206598,50.83771547984264 20.018275189427126,51.04698490107502
C 20.025583038647657,51.2562543223074 20.006168854997004,49.37169941949263 20.01028025073328,49.214691550763796
C 20.014391646469562,49.05768368203496 20.002741626365548,50.418873703011 20.004569145308263,50.523572193118504
C 20.006396664250975,50.628270683226006 20.000685393544032,49.790561154360624 20.00114230807486,49.738203935048766
"/>
</svg>