<svg id="svg_css_ex1" viewBox="0 0 100 100" 
   height="20cm"
   width="20cm"
   xmlns="http://www.w3.org/2000/svg">
  <path
    fill="none"
    stroke="black"
    stroke-width=".2"
    d="
M 55.0 50.0
C 55.0,50.0 54.993338456955165,49.73832519179949 54.99524110790929,49.78190306317332
C 54.997143758863416,49.82548093454715 54.97337736696483,50.522602802571754 54.98097349045873,50.435778713738294
C 54.98856961395262,50.34895462490483 54.940187220013584,49.21795951634848 54.95722430686905,49.34736903889974
C 54.97426139372452,49.476778561451 54.893885075453994,51.03925095999749 54.92403876506104,50.868240888334654
C 54.95419245466809,50.69723081667182 54.83463392911799,48.70649279943913 54.881480035599665,48.91780193030949
C 54.92832614208134,49.129111061179835 54.76264183333756,51.544095225512606 54.829629131445344,51.294095225512606
C 54.89661642955312,51.044095225512606 54.67816077588563,48.20968278430311 54.76858475374114,48.496471002478636
C 54.85900873159664,48.78325922065416 54.581485325489034,52.031494521471615 54.69846310392954,51.71010071662835
C 54.815440882370055,51.38870691178507 54.47295105314971,47.73302944758127 54.61939766255644,48.08658283817455
C 54.76584427196316,48.44013622876783 54.35293274002652,52.49611353026299 54.53153893518325,52.113091308703495
C 54.71014513033998,51.73006908714401 54.22184238406663,47.28168091168033 54.43505416589111,47.69125693382483
C 54.648265947715586,48.100832955969324 54.08012701892219,52.93301270189222 54.33012701892219,52.5
C 54.58012701892219,52.06698729810778 53.92826635993478,46.860348064747555 54.21695722906443,47.31350195826588
C 54.50564809819408,47.76665585178421 53.7667702931078,53.33772849214819 54.09576022144496,52.86788218175523
C 54.42475014978213,52.398035871362275 53.596176224007436,46.473229941811866 53.96676670145617,46.9561928549564
C 54.33735717890492,47.43915576810093 53.417046304428354,53.7063419249388 53.83022221559489,53.213938048432695
C 54.24339812676143,52.72153417192659 53.22996455542445,46.12395161287583 53.68638668405062,46.6220489619217
C 54.14280881267679,47.12014631096757 53.03553390593274,54.03553390593274 53.53553390593274,53.53553390593274
C 54.03553390593274,53.03553390593274 52.834373166704474,45.815515966903504 53.3779510380783,46.31361331594938
C 53.92152890945213,46.81171066499525 52.62711395959923,54.322626092101 53.213938048432695,53.83022221559489
C 53.80076213726616,53.337818339088784 52.414397622492345,45.55027038539929 53.0438071450436,46.03323329854383
C 53.673216667594865,46.51619621168836 52.19687211009239,54.565606531837915 52.86788218175523,54.09576022144496
C 53.53889225341806,53.625913911052 51.97518891086377,45.32988887741725 52.68649804173412,45.78304277093557
C 53.397807172604466,46.2361966644539 51.75,54.763139720814415 52.5,54.33012701892219
C 53.25,53.897114317029974 51.521954847999645,45.1553698119644 52.30874306617517,45.56494583410889
C 53.09553128435069,45.97452185625339 51.29169750386023,54.914561156742735 52.113091308703495,54.53153893518325
C 52.93448511354677,54.14851671362376 51.05986377123217,45.02704894685029 51.91341716182545,45.38060233744356
C 52.76697055241873,45.73415572803684 50.827078495068854,55.01985690877281 51.71010071662835,54.69846310392954
C 52.59312293818783,54.37706929908627 50.59395297537687,44.944627028083346 51.503528997521364,45.23141524625886
C 52.41310501966586,45.518203464434386 50.36108252362038,55.079629131445344 51.294095225512606,54.829629131445344
C 52.22710792740482,54.579629131445344 50.12904417617219,44.90721083352999 51.08219806969051,45.118519964400335
C 52.03535196320884,45.32982909527068 49.8983945779417,55.095048836723876 50.868240888334654,54.92403876506104
C 51.83808719872761,54.75302869339821 49.669668047955724,44.913366170579685 50.65263096110026,45.04277569313095
C 51.63559387424479,45.172185215682205 49.443374837232184,55.06779757929219 50.43577871373829,54.98097349045873
C 51.4281825902444,54.89414940162526 49.219999587780805,44.96118102071688 50.21809693682668,45.00475889209071
C 51.216194285872554,45.04833676346454 49.0,55.0 50.0,55.0
C 51.0,55.0 48.783805714127446,45.04833676346454 49.78190306317332,45.00475889209071
C 50.780000412219195,44.96118102071688 48.5718174097556,54.89414940162526 49.564221286261706,54.98097349045873
C 50.556625162767816,55.06779757929219 48.36440612575521,45.172185215682205 49.34736903889974,45.04277569313095
C 50.330331952044276,44.913366170579685 48.16191280127239,54.75302869339821 49.131759111665346,54.92403876506104
C 50.101605422058306,55.095048836723876 47.96464803679116,45.32982909527068 48.91780193030949,45.118519964400335
C 49.87095582382781,44.90721083352999 47.77289207259518,54.579629131445344 48.705904774487394,54.829629131445344
C 49.63891747637962,55.079629131445344 47.58689498033414,45.518203464434386 48.496471002478636,45.23141524625886
C 49.406047024623135,44.944627028083346 47.40687706181217,54.37706929908627 48.28989928337165,54.69846310392954
C 49.172921504931146,55.01985690877281 47.23302944758127,45.73415572803684 48.08658283817455,45.38060233744356
C 48.94013622876783,45.02704894685029 47.065514886453236,54.14851671362376 47.886908691296505,54.53153893518325
C 48.70830249613977,54.91456115674274 46.90446871564931,45.97452185625339 47.69125693382483,45.56494583410889
C 48.478045152000355,45.15536981196439 46.75,53.897114317029974 47.5,54.33012701892219
C 48.25,54.763139720814415 46.602192827395534,46.2361966644539 47.31350195826588,45.78304277093557
C 48.024811089136236,45.32988887741725 46.46110774658194,53.62591391105201 47.13211781824477,54.09576022144496
C 47.80312788990761,54.565606531837915 46.326783332405135,46.51619621168836 46.9561928549564,46.03323329854383
C 47.585602377507655,45.55027038539929 46.19923786273384,53.337818339088784 46.786061951567305,53.83022221559489
C 47.37288604040077,54.322626092101 46.07847109054787,46.81171066499525 46.6220489619217,46.31361331594938
C 47.165626833295526,45.815515966903504 45.96446609406726,53.03553390593274 46.46446609406726,53.53553390593274
C 46.96446609406726,54.03553390593274 45.85719118732321,47.12014631096757 46.31361331594938,46.6220489619217
C 46.77003544457555,46.12395161287583 45.75660187323857,52.72153417192659 46.16977778440511,53.213938048432695
C 46.582953695571646,53.7063419249388 45.66264282109508,47.43915576810093 46.03323329854382,46.9561928549564
C 46.403823775992564,46.473229941811866 45.57524985021787,52.398035871362275 45.90423977855504,52.867882181755235
C 46.23322970689221,53.33772849214819 45.49435190180592,47.76665585178421 45.78304277093557,47.31350195826588
C 46.07173364006522,46.860348064747555 45.41987298107781,52.06698729810778 45.66987298107781,52.5
C 45.91987298107781,52.93301270189222 45.351734052284414,48.100832955969324 45.56494583410889,47.69125693382483
C 45.77815761593337,47.28168091168033 45.28985486966002,51.73006908714401 45.46846106481675,52.113091308703495
C 45.64706725997348,52.49611353026299 45.23415572803684,48.44013622876783 45.38060233744356,48.08658283817455
C 45.52704894685029,47.73302944758127 45.184559117629945,51.38870691178507 45.30153689607046,51.71010071662835
C 45.41851467451097,52.031494521471615 45.14099126840336,48.78325922065416 45.23141524625886,48.496471002478636
C 45.32183922411437,48.20968278430311 45.10338357044688,51.044095225512606 45.170370868554656,51.294095225512606
C 45.23735816666244,51.544095225512606 45.07167385791866,49.129111061179835 45.118519964400335,48.91780193030949
C 45.16536607088201,48.70649279943913 45.04580754533191,50.69723081667182 45.07596123493896,50.868240888334654
C 45.106114924546006,51.03925095999749 45.02573860627548,49.476778561451 45.04277569313095,49.34736903889974
C 45.059812779986416,49.21795951634848 45.01143038604738,50.34895462490483 45.01902650954127,50.435778713738294
C 45.02662263303517,50.52260280257176 45.002856241136584,49.82548093454715 45.00475889209071,49.78190306317332
"/>
</svg>