<svg id="svg_css_ex1" viewBox="0 0 10 10" 
   height="20cm"
   width="20cm"
   xmlns="http://www.w3.org/2000/svg">
  <path
    fill="none"
    stroke="black"
    stroke-width="0.01"
    d="
M 9.995241107909289 5.21809693682668
l 0.0 -0.08331302986779177
l -1.9081821032213484 0.0
l 0.0 -0.05148745245829531
l -1.1792565397907933 0.0
l 0.0 -0.0318192456192265
l -0.7287805415907103 0.0
l 0.0 -0.019664293792681975
l -0.45038637470305887 0.0
l 0.0 -0.012152533563877459
l -0.27833877956649034 0.0
l 0.0 -0.00751026574247627
l -0.17201336577209103 0.0
l 0.0 -0.004641344228850334
l -0.10630426004715227 0.0
l 0.0 -0.0028683507334295068
l -0.0656960327091401 0.0
l 0.0 -0.0017726407532594347
l -0.04060014821424858 0.0
l 0.0 -0.0010954919855143308
l -0.025090891596405623 0.0
l 0.0 -0.0006770140470478564
l -0.015506171006578678 0.0
l 0.0 -0.00041839468107557516
l -0.009582813682065622 0.0
l 0.0 -0.00025856791290470546
l -0.005922178855516554 0.0
l 0.0 -0.000159794970175108
l -0.003659906532709231 0.0
l 0.0 -9.875329156821674e-05
l -0.0022618222372143043 0.0
l 0.0 -6.1029534189157957e-05
l -0.0013978061425984401 0.0
"/>
  <path
    fill="none"
    stroke="black"
    stroke-width="0.01"
    d="
M 9.957224306869051 5.652630961100257
l 0.0 -0.2493050271402985
l -1.893659685223978 0.0
l 0.0 -0.15407050677270448
l -1.1702816854684184 0.0
l 0.0 -0.09521557318553137
l -0.7232340816194824 0.0
l 0.0 -0.05884322422865838
l -0.44695866244084015 0.0
l 0.0 -0.03636511257331088
l -0.27622045338843926 0.0
l 0.0 -0.022473639570306125
l -0.17070424019405545 0.0
l 0.0 -0.013888709254449183
l -0.10549522043992626 0.0
l 0.0 -0.008583222319249595
l -0.06519604623187443 0.0
l 0.0 -0.00530443139329625
l -0.04029115657129839 0.0
l 0.0 -0.0032781386010570825
l -0.024899934761062406 0.0
l 0.0 -0.0020258896554532766
l -0.015388159682336568 0.0
l 0.0 -0.0012519998070701249
l -0.009509882683683999 0.0
l 0.0 -0.0007737358807693372
l -0.005877107498516712 0.0
l 0.0 -0.00047816877431545036
l -0.0036320524340833285 0.0
l 0.0 -0.00029550830252694825
l -0.0022446084042634967 0.0
l 0.0 -0.00018262413096165406
l -0.0013871679938348407 0.0
"/>
  <path
    fill="none"
    stroke="black"
    stroke-width="0.01"
    d="
M 9.881480035599667 6.082198069690515
l 0.0 -0.4133996626217765
l -1.864725373599073 0.0
l 0.0 -0.2554809915002579
l -1.1524002808842269 0.0
l 0.0 -0.15788725274715937
l -0.7121833735864522 0.0
l 0.0 -0.0975743221977445
l -0.44012932487642753 0.0
l 0.0 -0.0603009311182061
l -0.2719999227736322 0.0
l 0.0 -0.037265975431051375
l -0.16809595227410468 0.0
l 0.0 -0.023030372816389748
l -0.10388329850539671 0.0
l 0.0 -0.014232770400528866
l -0.06419987847633517 0.0
l 0.0 -0.008795852107526838
l -0.03967552489837513 0.0
l 0.0 -0.005435836602451586
l -0.02451947438719583 0.0
l 0.0 -0.00335934702031508
l -0.015153035171287025 0.0
l 0.0 -0.0020760764585547194
l -0.009364575735855382 0.0
l 0.0 -0.0012830152513868165
l -0.005787307804758626 0.0
l 0.0 -0.0007929034253570527
l -0.00357655622334083 0.0
l 0.0 -0.0004900143168706586
l -0.002210311746024633 0.0
l 0.0 -0.00030282884782606705
l -0.0013659726590432232 0.0
"/>
  <path
    fill="none"
    stroke="black"
    stroke-width="0.01"
    d="
M 9.768584753741134 6.503528997521366
l 0.0 -0.5743480770531617
l -1.8215993759291136 0.0
l 0.0 -0.35494711161885395
l -1.1257484143241923 0.0
l 0.0 -0.21935731498045175
l -0.6957125200523508 0.0
l 0.0 -0.13556282065791916
l -0.42995033739235267 0.0
l 0.0 -0.08377782316659405
l -0.265709308508474 0.0
l 0.0 -0.0517746947169551
l -0.1642083526582369 0.0
l 0.0 -0.031996761335078255
l -0.10148076194279043 0.0
l 0.0 -0.019773998505078362
l -0.06271511088064448 0.0
l 0.0 -0.01222033107613843
l -0.03875793852423828 0.0
l 0.0 -0.007552164605053547
l -0.02395240600797926 0.0
l 0.0 -0.004667237725923093
l -0.014802586912931182 0.0
l 0.0 -0.002884352914620472
l -0.009147998712191472 0.0
l 0.0 -0.001782530101235451
l -0.005653463204134328 0.0
l 0.0 -0.001101603602563509
l -0.0034938402601550154 0.0
l 0.0 -0.0006807910263842486
l -0.0021591932807757995 0.0
l 0.0 -0.00042072885430546555
l -0.0013343814475194442 0.0
"/>
  <path
    fill="none"
    stroke="black"
    stroke-width="0.01"
    d="
M 9.619397662556434 6.913417161825449
l 0.0 -0.7309253558173214
l -1.764609907096558 0.0
l 0.0 -0.4517118698951047
l -1.0905289225856727 0.0
l 0.0 -0.2791579355951747
l -0.6739468741579457 0.0
l 0.0 -0.17251960419781798
l -0.4164991682296104 0.0
l 0.0 -0.1066171153942515
l -0.2573964859658992 0.0
l 0.0 -0.06588937731364744
l -0.1590710283269257 0.0
l 0.0 -0.040719635179834124
l -0.09830589550604008 0.0
l 0.0 -0.025164734541137483
l -0.06075304342273277 0.0
l 0.0 -0.015551805946422963
l -0.03754538083524885 0.0
l 0.0 -0.009611016074889392
l -0.02320304535618379 0.0
l 0.0 -0.005939607934281645
l -0.01433948203012158 0.0
l 0.0 -0.0036706777033860567
l -0.008861799894615137 0.0
l 0.0 -0.002268478820692583
l -0.005476592334872155 0.0
l 0.0 -0.0014019199111880163
l -0.0033845340629509914 0.0
l 0.0 -0.000866386505114194
l -0.002091642050903713 0.0
l 0.0 -0.0005354268601605719
l -0.0012926347874584946 0.0
"/>
  <path
    fill="none"
    stroke="black"
    stroke-width="0.01"
    d="
M 9.43505416589111 7.30874306617517
l 0.0 -0.8819398512789147
l -1.6941906913704035 0.0
l 0.0 -0.5450388280903694
l -1.0470098472669096 0.0
l 0.0 -0.3368339957598483
l -0.6470520856109501 0.0
l 0.0 -0.20816340937958616
l -0.3998781889075671 0.0
l 0.0 -0.12864498699658428
l -0.24712472074487646 0.0
l 0.0 -0.07950260196388909
l -0.15272307742033364 0.0
l 0.0 -0.04913260801368345
l -0.09438286184576619 0.0
l 0.0 -0.030363951752456368
l -0.05832860862068351 0.0
l 0.0 -0.018764922183018035
l -0.03604708012758241 0.0
l 0.0 -0.011596721909105146
l -0.022277095518845928 0.0
l 0.0 -0.007166774139826981
l -0.013767245030646785 0.0
l 0.0 -0.004429066418413074
l -0.008508157428939714 0.0
l 0.0 -0.0027371630465792794
l -0.005258041291084743 0.0
l 0.0 -0.0016915667627859948
l -0.003249469517890371 0.0
l 0.0 -0.0010453882594017448
l -0.0020081721620562494 0.0
l 0.0 -0.0006460499443102783
l -0.0012410503961507624 0.0
"/>
  <path
    fill="none"
    stroke="black"
    stroke-width="0.01"
    d="
M 9.216957229064429 7.6864980417341195
l 0.0 -1.0262422519424337
l -1.6108776615026117 0.0
l 0.0 -0.634217711700424
l -0.995522394808614 0.0
l 0.0 -0.3919465458308621
l -0.6152328399917235 0.0
l 0.0 -0.24222296532347276
l -0.3802138951148851 0.0
l 0.0 -0.14969379256990614
l -0.234972187180999 0.0
l 0.0 -0.092510763808202
l -0.14521281167785738 0.0
l 0.0 -0.05717165203346883
l -0.08974151761691587 0.0
l 0.0 -0.035332080956683734
l -0.055460257887254005 0.0
l 0.0 -0.021835226031230552
l -0.03427443937432297 0.0
l 0.0 -0.013494169687300477
l -0.021181603533331594 0.0
l 0.0 -0.008339396866751695
l -0.013090230983598926 0.0
l 0.0 -0.005153747263652548
l -0.008089762747864136 0.0
l 0.0 -0.003185015808937275
l -0.004999473378180037 0.0
l 0.0 -0.001968339769923236
l -0.0030896745477152618 0.0
l 0.0 -0.00121643397781256
l -0.0019094188704880319 0.0
l 0.0 -0.0007517561982881621
l -0.0011800208619616038 0.0
"/>
  <path
    fill="none"
    stroke="black"
    stroke-width="0.01"
    d="
M 8.966766701456176 8.043807145043603
l 0.0 -1.1627343294066563
l -1.515304879956259 0.0
l 0.0 -0.7185698155733136
l -0.9364584158129681 0.0
l 0.0 -0.4440761460243079
l -0.5787313009724143 0.0
l 0.0 -0.2744390582430223
l -0.35765594400095213 0.0
l 0.0 -0.16960333799418775
l -0.22103137339258838 0.0
l 0.0 -0.10481486288040803
l -0.13659738875661961 0.0
l 0.0 -0.06477558526009215
l -0.08441718625159092 0.0
l 0.0 -0.040031311690736954
l -0.052169821103483185 0.0
l 0.0 -0.02473935062487543
l -0.03224094944195261 0.0
l 0.0 -0.01528891868617302
l -0.01992490675512671 0.0
l 0.0 -0.009448551748054925
l -0.012313592374668308 0.0
l 0.0 -0.005839204980297942
l -0.007609800087545016 0.0
l 0.0 -0.0036086286778241293
l -0.00470285645410282 0.0
l 0.0 -0.002230132522895312
l -0.0029063652886355427 0.0
l 0.0 -0.0013782218991493025
l -0.0017961337483767652 0.0
l 0.0 -0.0008517411336742692
l -0.0011100106564968406 0.0
"/>
  <path
    fill="none"
    stroke="black"
    stroke-width="0.01"
    d="
M 8.686386684050621 8.3779510380783
l 0.0 -1.2903772965459113
l -1.408199713307337 0.0
l 0.0 -0.797453169265373
l -0.8702674228239342 0.0
l 0.0 -0.4928260586060005
l -0.5378252673051914 0.0
l 0.0 -0.30456650421850834
l -0.33237601519460824 0.0
l 0.0 -0.18822209960703812
l -0.2054083773902679 0.0
l 0.0 -0.11632125755714959
l -0.12694237722718557 0.0
l 0.0 -0.07188653717031844
l -0.07845038912640068 0.0
l 0.0 -0.0444258799712568
l -0.04848234048011561 0.0
l 0.0 -0.027455193822236698
l -0.02996208641671145 0.0
l 0.0 -0.016967309782142278
l -0.018516569405527677 0.0
l 0.0 -0.010485797445363928
l -0.011443239892616103 0.0
l 0.0 -0.0064802228212349055
l -0.0070719222536367535 0.0
l 0.0 -0.004004777703523171
l -0.004370447952747513 0.0
l 0.0 -0.00247495262077732
l -0.0027009368347979635 0.0
l 0.0 -0.001529520719640384
l -0.001669178963905141 0.0
l 0.0 -0.0009452438047377572
l -0.0010315525996933772 0.0
"/>
  <path
    fill="none"
    stroke="black"
    stroke-width="0.01"
    d="
M 8.3779510380783 8.686386684050621
l 0.0 -1.408199713307337
l -1.2903772965459113 0.0
l 0.0 -0.8702674228239342
l -0.797453169265373 0.0
l 0.0 -0.5378252673051914
l -0.4928260586060005 0.0
l 0.0 -0.33237601519460824
l -0.30456650421850834 0.0
l 0.0 -0.2054083773902679
l -0.18822209960703812 0.0
l 0.0 -0.12694237722718557
l -0.11632125755714959 0.0
l 0.0 -0.07845038912640068
l -0.07188653717031844 0.0
l 0.0 -0.04848234048011561
l -0.0444258799712568 0.0
l 0.0 -0.02996208641671145
l -0.027455193822236698 0.0
l 0.0 -0.018516569405527677
l -0.016967309782142278 0.0
l 0.0 -0.011443239892616103
l -0.010485797445363928 0.0
l 0.0 -0.0070719222536367535
l -0.0064802228212349055 0.0
l 0.0 -0.004370447952747513
l -0.004004777703523171 0.0
l 0.0 -0.0027009368347979635
l -0.00247495262077732 0.0
l 0.0 -0.001669178963905141
l -0.001529520719640384 0.0
l 0.0 -0.0010315525996933772
l -0.0009452438047377572 0.0
"/>
  <path
    fill="none"
    stroke="black"
    stroke-width="0.01"
    d="
M 8.043807145043603 8.966766701456176
l 0.0 -1.515304879956259
l -1.1627343294066563 0.0
l 0.0 -0.9364584158129681
l -0.7185698155733136 0.0
l 0.0 -0.5787313009724143
l -0.4440761460243079 0.0
l 0.0 -0.35765594400095213
l -0.2744390582430223 0.0
l 0.0 -0.22103137339258838
l -0.16960333799418775 0.0
l 0.0 -0.13659738875661961
l -0.10481486288040803 0.0
l 0.0 -0.08441718625159092
l -0.06477558526009215 0.0
l 0.0 -0.052169821103483185
l -0.040031311690736954 0.0
l 0.0 -0.03224094944195261
l -0.02473935062487543 0.0
l 0.0 -0.01992490675512671
l -0.01528891868617302 0.0
l 0.0 -0.012313592374668308
l -0.009448551748054925 0.0
l 0.0 -0.007609800087545016
l -0.005839204980297942 0.0
l 0.0 -0.00470285645410282
l -0.0036086286778241293 0.0
l 0.0 -0.0029063652886355427
l -0.002230132522895312 0.0
l 0.0 -0.0017961337483767652
l -0.0013782218991493025 0.0
l 0.0 -0.0011100106564968406
l -0.0008517411336742692 0.0
"/>
  <path
    fill="none"
    stroke="black"
    stroke-width="0.01"
    d="
M 7.6864980417341195 9.216957229064427
l 0.0 -1.6108776615026112
l -1.0262422519424337 0.0
l 0.0 -0.9955223948086138
l -0.634217711700424 0.0
l 0.0 -0.6152328399917234
l -0.3919465458308621 0.0
l 0.0 -0.3802138951148851
l -0.24222296532347276 0.0
l 0.0 -0.23497218718099894
l -0.14969379256990614 0.0
l 0.0 -0.14521281167785735
l -0.092510763808202 0.0
l 0.0 -0.08974151761691584
l -0.05717165203346883 0.0
l 0.0 -0.055460257887254005
l -0.035332080956683734 0.0
l 0.0 -0.03427443937432297
l -0.021835226031230552 0.0
l 0.0 -0.021181603533331594
l -0.013494169687300477 0.0
l 0.0 -0.013090230983598926
l -0.008339396866751695 0.0
l 0.0 -0.008089762747864136
l -0.005153747263652548 0.0
l 0.0 -0.004999473378180037
l -0.003185015808937275 0.0
l 0.0 -0.0030896745477152618
l -0.001968339769923236 0.0
l 0.0 -0.0019094188704880319
l -0.00121643397781256 0.0
l 0.0 -0.0011800208619616038
l -0.0007517561982881621 0.0
"/>
  <path
    fill="none"
    stroke="black"
    stroke-width="0.01"
    d="
M 7.30874306617517 9.435054165891108
l 0.0 -1.6941906913704035
l -0.8819398512789152 0.0
l 0.0 -1.0470098472669092
l -0.5450388280903695 0.0
l 0.0 -0.6470520856109498
l -0.3368339957598484 0.0
l 0.0 -0.399878188907567
l -0.20816340937958627 0.0
l 0.0 -0.2471247207448764
l -0.1286449869965843 0.0
l 0.0 -0.15272307742033364
l -0.07950260196388911 0.0
l 0.0 -0.09438286184576616
l -0.049132608013683465 0.0
l 0.0 -0.05832860862068351
l -0.030363951752456382 0.0
l 0.0 -0.0360470801275824
l -0.018764922183018045 0.0
l 0.0 -0.022277095518845928
l -0.011596721909105153 0.0
l 0.0 -0.013767245030646781
l -0.007166774139826984 0.0
l 0.0 -0.00850815742893971
l -0.0044290664184130765 0.0
l 0.0 -0.005258041291084741
l -0.002737163046579281 0.0
l 0.0 -0.003249469517890369
l -0.001691566762785996 0.0
l 0.0 -0.002008172162056248
l -0.0010453882594017453 0.0
l 0.0 -0.0012410503961507616
l -0.0006460499443102787 0.0
"/>
  <path
    fill="none"
    stroke="black"
    stroke-width="0.01"
    d="
M 6.913417161825449 9.619397662556434
l 0.0 -1.764609907096558
l -0.7309253558173217 0.0
l 0.0 -1.0905289225856727
l -0.4517118698951047 0.0
l 0.0 -0.6739468741579457
l -0.2791579355951747 0.0
l 0.0 -0.4164991682296104
l -0.17251960419781798 0.0
l 0.0 -0.2573964859658992
l -0.1066171153942515 0.0
l 0.0 -0.1590710283269257
l -0.06588937731364744 0.0
l 0.0 -0.09830589550604008
l -0.040719635179834124 0.0
l 0.0 -0.06075304342273277
l -0.025164734541137483 0.0
l 0.0 -0.03754538083524885
l -0.015551805946422963 0.0
l 0.0 -0.02320304535618379
l -0.009611016074889392 0.0
l 0.0 -0.01433948203012158
l -0.005939607934281645 0.0
l 0.0 -0.008861799894615137
l -0.0036706777033860567 0.0
l 0.0 -0.005476592334872155
l -0.002268478820692583 0.0
l 0.0 -0.0033845340629509914
l -0.0014019199111880163 0.0
l 0.0 -0.002091642050903713
l -0.000866386505114194 0.0
l 0.0 -0.0012926347874584946
l -0.0005354268601605719 0.0
"/>
  <path
    fill="none"
    stroke="black"
    stroke-width="0.01"
    d="
M 6.503528997521366 9.768584753741134
l 0.0 -1.8215993759291136
l -0.5743480770531619 0.0
l 0.0 -1.1257484143241923
l -0.35494711161885406 0.0
l 0.0 -0.6957125200523508
l -0.21935731498045186 0.0
l 0.0 -0.42995033739235267
l -0.13556282065791925 0.0
l 0.0 -0.265709308508474
l -0.08377782316659407 0.0
l 0.0 -0.1642083526582369
l -0.051774694716955144 0.0
l 0.0 -0.10148076194279043
l -0.03199676133507828 0.0
l 0.0 -0.06271511088064448
l -0.019773998505078376 0.0
l 0.0 -0.03875793852423828
l -0.01222033107613844 0.0
l 0.0 -0.02395240600797926
l -0.007552164605053554 0.0
l 0.0 -0.014802586912931182
l -0.004667237725923097 0.0
l 0.0 -0.009147998712191472
l -0.0028843529146204737 0.0
l 0.0 -0.005653463204134328
l -0.0017825301012354528 0.0
l 0.0 -0.0034938402601550154
l -0.00110160360256351 0.0
l 0.0 -0.0021591932807757995
l -0.0006807910263842492 0.0
l 0.0 -0.0013343814475194442
l -0.0004207288543054659 0.0
"/>
  <path
    fill="none"
    stroke="black"
    stroke-width="0.01"
    d="
M 6.082198069690515 9.881480035599667
l 0.0 -1.864725373599073
l -0.4133996626217765 0.0
l 0.0 -1.1524002808842269
l -0.2554809915002579 0.0
l 0.0 -0.7121833735864522
l -0.15788725274715937 0.0
l 0.0 -0.44012932487642753
l -0.0975743221977445 0.0
l 0.0 -0.2719999227736322
l -0.0603009311182061 0.0
l 0.0 -0.16809595227410468
l -0.037265975431051375 0.0
l 0.0 -0.10388329850539671
l -0.023030372816389748 0.0
l 0.0 -0.06419987847633517
l -0.014232770400528866 0.0
l 0.0 -0.03967552489837513
l -0.008795852107526838 0.0
l 0.0 -0.02451947438719583
l -0.005435836602451586 0.0
l 0.0 -0.015153035171287025
l -0.00335934702031508 0.0
l 0.0 -0.009364575735855382
l -0.0020760764585547194 0.0
l 0.0 -0.005787307804758626
l -0.0012830152513868165 0.0
l 0.0 -0.00357655622334083
l -0.0007929034253570527 0.0
l 0.0 -0.002210311746024633
l -0.0004900143168706586 0.0
l 0.0 -0.0013659726590432232
l -0.00030282884782606705 0.0
"/>
  <path
    fill="none"
    stroke="black"
    stroke-width="0.01"
    d="
M 5.652630961100258 9.957224306869051
l 0.0 -1.893659685223978
l -0.24930502714029878 0.0
l 0.0 -1.1702816854684184
l -0.15407050677270462 0.0
l 0.0 -0.7232340816194824
l -0.09521557318553145 0.0
l 0.0 -0.44695866244084015
l -0.05884322422865845 0.0
l 0.0 -0.27622045338843926
l -0.03636511257331092 0.0
l 0.0 -0.17070424019405545
l -0.022473639570306146 0.0
l 0.0 -0.10549522043992626
l -0.0138887092544492 0.0
l 0.0 -0.06519604623187443
l -0.008583222319249604 0.0
l 0.0 -0.04029115657129839
l -0.005304431393296255 0.0
l 0.0 -0.024899934761062406
l -0.003278138601057086 0.0
l 0.0 -0.015388159682336568
l -0.0020258896554532792 0.0
l 0.0 -0.009509882683683999
l -0.0012519998070701266 0.0
l 0.0 -0.005877107498516712
l -0.0007737358807693381 0.0
l 0.0 -0.0036320524340833285
l -0.000478168774315451 0.0
l 0.0 -0.0022446084042634967
l -0.0002955083025269487 0.0
l 0.0 -0.0013871679938348407
l -0.00018262413096165427 0.0
"/>
  <path
    fill="none"
    stroke="black"
    stroke-width="0.01"
    d="
M 5.218096936826681 9.995241107909289
l 0.0 -1.9081821032213484
l -0.08331302986779218 0.0
l 0.0 -1.1792565397907933
l -0.051487452458295585 0.0
l 0.0 -0.7287805415907103
l -0.031819245619226666 0.0
l 0.0 -0.45038637470305887
l -0.01966429379268208 0.0
l 0.0 -0.27833877956649034
l -0.012152533563877525 0.0
l 0.0 -0.17201336577209103
l -0.00751026574247631 0.0
l 0.0 -0.10630426004715227
l -0.00464134422885036 0.0
l 0.0 -0.0656960327091401
l -0.0028683507334295224 0.0
l 0.0 -0.04060014821424858
l -0.0017726407532594446 0.0
l 0.0 -0.025090891596405623
l -0.0010954919855143369 0.0
l 0.0 -0.015506171006578678
l -0.00067701404704786 0.0
l 0.0 -0.009582813682065622
l -0.00041839468107557766 0.0
l 0.0 -0.005922178855516554
l -0.0002585679129047069 0.0
l 0.0 -0.003659906532709231
l -0.00015979497017510892 0.0
l 0.0 -0.0022618222372143043
l -9.875329156821728e-05 0.0
l 0.0 -0.0013978061425984401
l -6.102953418915828e-05 0.0
"/>
  <path
    fill="none"
    stroke="black"
    stroke-width="0.01"
    d="
M 4.781903063173321 9.995241107909289
l 0.0 -1.9081821032213484
l 0.08331302986779154 0.0
l 0.0 -1.1792565397907933
l 0.05148745245829518 0.0
l 0.0 -0.7287805415907103
l 0.031819245619226416 0.0
l 0.0 -0.45038637470305887
l 0.019664293792681926 0.0
l 0.0 -0.27833877956649034
l 0.012152533563877431 0.0
l 0.0 -0.17201336577209103
l 0.007510265742476251 0.0
l 0.0 -0.10630426004715227
l 0.004641344228850323 0.0
l 0.0 -0.0656960327091401
l 0.0028683507334295 0.0
l 0.0 -0.04060014821424858
l 0.0017726407532594303 0.0
l 0.0 -0.025090891596405623
l 0.001095491985514328 0.0
l 0.0 -0.015506171006578678
l 0.0006770140470478548 0.0
l 0.0 -0.009582813682065622
l 0.0004183946810755742 0.0
l 0.0 -0.005922178855516554
l 0.00025856791290470487 0.0
l 0.0 -0.003659906532709231
l 0.00015979497017510762 0.0
l 0.0 -0.0022618222372143043
l 9.875329156821649e-05 0.0
l 0.0 -0.0013978061425984401
l 6.1029534189157794e-05 0.0
"/>
  <path
    fill="none"
    stroke="black"
    stroke-width="0.01"
    d="
M 4.3473690388997435 9.957224306869053
l 0.0 -1.8936596852239784
l 0.24930502714029812 0.0
l 0.0 -1.1702816854684184
l 0.15407050677270426 0.0
l 0.0 -0.7232340816194827
l 0.09521557318553123 0.0
l 0.0 -0.44695866244084026
l 0.058843224228658286 0.0
l 0.0 -0.27622045338843926
l 0.03636511257331082 0.0
l 0.0 -0.1707042401940555
l 0.02247363957030609 0.0
l 0.0 -0.10549522043992629
l 0.013888709254449162 0.0
l 0.0 -0.06519604623187444
l 0.008583222319249581 0.0
l 0.0 -0.040291156571298406
l 0.005304431393296241 0.0
l 0.0 -0.024899934761062406
l 0.0032781386010570773 0.0
l 0.0 -0.015388159682336568
l 0.002025889655453274 0.0
l 0.0 -0.009509882683683999
l 0.0012519998070701231 0.0
l 0.0 -0.005877107498516712
l 0.0007737358807693362 0.0
l 0.0 -0.0036320524340833285
l 0.0004781687743154497 0.0
l 0.0 -0.0022446084042634967
l 0.00029550830252694793 0.0
l 0.0 -0.0013871679938348407
l 0.00018262413096165384 0.0
"/>
  <path
    fill="none"
    stroke="black"
    stroke-width="0.01"
    d="
M 3.917801930309486 9.881480035599667
l 0.0 -1.864725373599073
l 0.4133996626217764 0.0
l 0.0 -1.1524002808842269
l 0.25548099150025777 0.0
l 0.0 -0.7121833735864522
l 0.1578872527471593 0.0
l 0.0 -0.44012932487642753
l 0.09757432219774445 0.0
l 0.0 -0.2719999227736322
l 0.06030093111820606 0.0
l 0.0 -0.16809595227410468
l 0.03726597543105135 0.0
l 0.0 -0.10388329850539671
l 0.023030372816389734 0.0
l 0.0 -0.06419987847633517
l 0.014232770400528855 0.0
l 0.0 -0.03967552489837513
l 0.008795852107526831 0.0
l 0.0 -0.02451947438719583
l 0.005435836602451583 0.0
l 0.0 -0.015153035171287025
l 0.0033593470203150773 0.0
l 0.0 -0.009364575735855382
l 0.0020760764585547177 0.0
l 0.0 -0.005787307804758626
l 0.0012830152513868156 0.0
l 0.0 -0.00357655622334083
l 0.0007929034253570521 0.0
l 0.0 -0.002210311746024633
l 0.0004900143168706582 0.0
l 0.0 -0.0013659726590432232
l 0.00030282884782606683 0.0
"/>
  <path
    fill="none"
    stroke="black"
    stroke-width="0.01"
    d="
M 3.496471002478635 9.768584753741134
l 0.0 -1.8215993759291136
l 0.5743480770531614 0.0
l 0.0 -1.1257484143241923
l 0.35494711161885373 0.0
l 0.0 -0.6957125200523508
l 0.21935731498045158 0.0
l 0.0 -0.42995033739235267
l 0.13556282065791908 0.0
l 0.0 -0.265709308508474
l 0.08377782316659399 0.0
l 0.0 -0.1642083526582369
l 0.05177469471695509 0.0
l 0.0 -0.10148076194279043
l 0.03199676133507825 0.0
l 0.0 -0.06271511088064448
l 0.019773998505078362 0.0
l 0.0 -0.03875793852423828
l 0.012220331076138426 0.0
l 0.0 -0.02395240600797926
l 0.007552164605053547 0.0
l 0.0 -0.014802586912931182
l 0.004667237725923092 0.0
l 0.0 -0.009147998712191472
l 0.0028843529146204703 0.0
l 0.0 -0.005653463204134328
l 0.001782530101235451 0.0
l 0.0 -0.0034938402601550154
l 0.0011016036025635087 0.0
l 0.0 -0.0021591932807757995
l 0.0006807910263842483 0.0
l 0.0 -0.0013343814475194442
l 0.00042072885430546544 0.0
"/>
  <path
    fill="none"
    stroke="black"
    stroke-width="0.01"
    d="
M 3.0865828381745515 9.619397662556434
l 0.0 -1.764609907096558
l 0.7309253558173214 0.0
l 0.0 -1.0905289225856727
l 0.4517118698951046 0.0
l 0.0 -0.6739468741579457
l 0.2791579355951746 0.0
l 0.0 -0.4164991682296104
l 0.17251960419781792 0.0
l 0.0 -0.2573964859658992
l 0.10661711539425145 0.0
l 0.0 -0.1590710283269257
l 0.0658893773136474 0.0
l 0.0 -0.09830589550604008
l 0.040719635179834096 0.0
l 0.0 -0.06075304342273277
l 0.02516473454113747 0.0
l 0.0 -0.03754538083524885
l 0.015551805946422952 0.0
l 0.0 -0.02320304535618379
l 0.009611016074889386 0.0
l 0.0 -0.01433948203012158
l 0.005939607934281639 0.0
l 0.0 -0.008861799894615137
l 0.003670677703386054 0.0
l 0.0 -0.005476592334872155
l 0.002268478820692581 0.0
l 0.0 -0.0033845340629509914
l 0.001401919911188015 0.0
l 0.0 -0.002091642050903713
l 0.0008663865051141935 0.0
l 0.0 -0.0012926347874584946
l 0.0005354268601605715 0.0
"/>
  <path
    fill="none"
    stroke="black"
    stroke-width="0.01"
    d="
M 2.691256933824831 9.43505416589111
l 0.0 -1.6941906913704035
l 0.8819398512789147 0.0
l 0.0 -1.0470098472669096
l 0.5450388280903692 0.0
l 0.0 -0.6470520856109501
l 0.3368339957598482 0.0
l 0.0 -0.3998781889075671
l 0.20816340937958616 0.0
l 0.0 -0.24712472074487646
l 0.12864498699658422 0.0
l 0.0 -0.15272307742033364
l 0.07950260196388906 0.0
l 0.0 -0.09438286184576619
l 0.04913260801368344 0.0
l 0.0 -0.05832860862068351
l 0.03036395175245636 0.0
l 0.0 -0.03604708012758241
l 0.018764922183018035 0.0
l 0.0 -0.022277095518845928
l 0.011596721909105143 0.0
l 0.0 -0.013767245030646785
l 0.007166774139826979 0.0
l 0.0 -0.008508157428939714
l 0.004429066418413073 0.0
l 0.0 -0.005258041291084743
l 0.0027371630465792794 0.0
l 0.0 -0.003249469517890371
l 0.0016915667627859943 0.0
l 0.0 -0.0020081721620562494
l 0.0010453882594017446 0.0
l 0.0 -0.0012410503961507624
l 0.0006460499443102783 0.0
"/>
  <path
    fill="none"
    stroke="black"
    stroke-width="0.01"
    d="
M 2.3135019582658822 9.21695722906443
l 0.0 -1.6108776615026121
l 1.026242251942433 0.0
l 0.0 -0.9955223948086143
l 0.6342177117004235 0.0
l 0.0 -0.6152328399917236
l 0.39194654583086175 0.0
l 0.0 -0.3802138951148851
l 0.2422229653234726 0.0
l 0.0 -0.23497218718099905
l 0.1496937925699061 0.0
l 0.0 -0.1452128116778574
l 0.09251076380820195 0.0
l 0.0 -0.08974151761691587
l 0.057171652033468814 0.0
l 0.0 -0.055460257887254005
l 0.03533208095668372 0.0
l 0.0 -0.03427443937432298
l 0.021835226031230538 0.0
l 0.0 -0.0211816035333316
l 0.013494169687300474 0.0
l 0.0 -0.01309023098359893
l 0.008339396866751692 0.0
l 0.0 -0.008089762747864139
l 0.005153747263652546 0.0
l 0.0 -0.0049994733781800384
l 0.0031850158089372733 0.0
l 0.0 -0.0030896745477152635
l 0.001968339769923235 0.0
l 0.0 -0.0019094188704880332
l 0.001216433977812559 0.0
l 0.0 -0.0011800208619616045
l 0.0007517561982881614 0.0
"/>
  <path
    fill="none"
    stroke="black"
    stroke-width="0.01"
    d="
M 1.956192854956397 8.966766701456176
l 0.0 -1.515304879956259
l 1.1627343294066563 0.0
l 0.0 -0.9364584158129681
l 0.7185698155733136 0.0
l 0.0 -0.5787313009724143
l 0.4440761460243079 0.0
l 0.0 -0.35765594400095213
l 0.2744390582430223 0.0
l 0.0 -0.22103137339258838
l 0.16960333799418775 0.0
l 0.0 -0.13659738875661961
l 0.10481486288040803 0.0
l 0.0 -0.08441718625159092
l 0.06477558526009215 0.0
l 0.0 -0.052169821103483185
l 0.040031311690736954 0.0
l 0.0 -0.03224094944195261
l 0.02473935062487543 0.0
l 0.0 -0.01992490675512671
l 0.01528891868617302 0.0
l 0.0 -0.012313592374668308
l 0.009448551748054925 0.0
l 0.0 -0.007609800087545016
l 0.005839204980297942 0.0
l 0.0 -0.00470285645410282
l 0.0036086286778241293 0.0
l 0.0 -0.0029063652886355427
l 0.002230132522895312 0.0
l 0.0 -0.0017961337483767652
l 0.0013782218991493025 0.0
l 0.0 -0.0011100106564968406
l 0.0008517411336742692 0.0
"/>
  <path
    fill="none"
    stroke="black"
    stroke-width="0.01"
    d="
M 1.6220489619216987 8.686386684050621
l 0.0 -1.408199713307337
l 1.2903772965459113 0.0
l 0.0 -0.8702674228239342
l 0.797453169265373 0.0
l 0.0 -0.5378252673051914
l 0.4928260586060005 0.0
l 0.0 -0.33237601519460824
l 0.30456650421850834 0.0
l 0.0 -0.2054083773902679
l 0.18822209960703812 0.0
l 0.0 -0.12694237722718557
l 0.11632125755714959 0.0
l 0.0 -0.07845038912640068
l 0.07188653717031844 0.0
l 0.0 -0.04848234048011561
l 0.0444258799712568 0.0
l 0.0 -0.02996208641671145
l 0.027455193822236698 0.0
l 0.0 -0.018516569405527677
l 0.016967309782142278 0.0
l 0.0 -0.011443239892616103
l 0.010485797445363928 0.0
l 0.0 -0.0070719222536367535
l 0.0064802228212349055 0.0
l 0.0 -0.004370447952747513
l 0.004004777703523171 0.0
l 0.0 -0.0027009368347979635
l 0.00247495262077732 0.0
l 0.0 -0.001669178963905141
l 0.001529520719640384 0.0
l 0.0 -0.0010315525996933772
l 0.0009452438047377572 0.0
"/>
  <path
    fill="none"
    stroke="black"
    stroke-width="0.01"
    d="
M 1.3136133159493801 8.3779510380783
l 0.0 -1.2903772965459113
l 1.408199713307337 0.0
l 0.0 -0.7974531692653732
l 0.870267422823934 0.0
l 0.0 -0.4928260586060006
l 0.5378252673051913 0.0
l 0.0 -0.3045665042185084
l 0.33237601519460824 0.0
l 0.0 -0.18822209960703817
l 0.20540837739026785 0.0
l 0.0 -0.11632125755714959
l 0.12694237722718554 0.0
l 0.0 -0.07188653717031844
l 0.07845038912640068 0.0
l 0.0 -0.0444258799712568
l 0.0484823404801156 0.0
l 0.0 -0.027455193822236698
l 0.02996208641671145 0.0
l 0.0 -0.016967309782142278
l 0.018516569405527674 0.0
l 0.0 -0.010485797445363928
l 0.0114432398926161 0.0
l 0.0 -0.0064802228212349055
l 0.00707192225363675 0.0
l 0.0 -0.004004777703523171
l 0.0043704479527475115 0.0
l 0.0 -0.00247495262077732
l 0.0027009368347979627 0.0
l 0.0 -0.001529520719640384
l 0.001669178963905141 0.0
l 0.0 -0.0009452438047377572
l 0.0010315525996933768 0.0
"/>
  <path
    fill="none"
    stroke="black"
    stroke-width="0.01"
    d="
M 1.0332332985438235 8.043807145043601
l 0.0 -1.162734329406656
l 1.5153048799562594 0.0
l 0.0 -0.7185698155733133
l 0.9364584158129683 0.0
l 0.0 -0.44407614602430767
l 0.5787313009724144 0.0
l 0.0 -0.27443905824302217
l 0.35765594400095213 0.0
l 0.0 -0.1696033379941877
l 0.22103137339258844 0.0
l 0.0 -0.104814862880408
l 0.13659738875661964 0.0
l 0.0 -0.06477558526009214
l 0.08441718625159092 0.0
l 0.0 -0.04003131169073694
l 0.0521698211034832 0.0
l 0.0 -0.02473935062487543
l 0.03224094944195262 0.0
l 0.0 -0.01528891868617302
l 0.019924906755126717 0.0
l 0.0 -0.009448551748054925
l 0.012313592374668308 0.0
l 0.0 -0.005839204980297942
l 0.007609800087545016 0.0
l 0.0 -0.0036086286778241293
l 0.00470285645410282 0.0
l 0.0 -0.002230132522895312
l 0.0029063652886355427 0.0
l 0.0 -0.0013782218991493025
l 0.0017961337483767652 0.0
l 0.0 -0.0008517411336742692
l 0.0011100106564968406 0.0
"/>
  <path
    fill="none"
    stroke="black"
    stroke-width="0.01"
    d="
M 0.7830427709355714 7.686498041734119
l 0.0 -1.0262422519424332
l 1.6108776615026117 0.0
l 0.0 -0.6342177117004237
l 0.995522394808614 0.0
l 0.0 -0.39194654583086197
l 0.6152328399917235 0.0
l 0.0 -0.2422229653234727
l 0.3802138951148851 0.0
l 0.0 -0.14969379256990611
l 0.234972187180999 0.0
l 0.0 -0.09251076380820197
l 0.14521281167785738 0.0
l 0.0 -0.05717165203346883
l 0.08974151761691587 0.0
l 0.0 -0.035332080956683734
l 0.055460257887254005 0.0
l 0.0 -0.021835226031230552
l 0.03427443937432297 0.0
l 0.0 -0.013494169687300477
l 0.021181603533331594 0.0
l 0.0 -0.008339396866751695
l 0.013090230983598926 0.0
l 0.0 -0.005153747263652548
l 0.008089762747864136 0.0
l 0.0 -0.003185015808937275
l 0.004999473378180037 0.0
l 0.0 -0.001968339769923236
l 0.0030896745477152618 0.0
l 0.0 -0.00121643397781256
l 0.0019094188704880319 0.0
l 0.0 -0.0007517561982881621
l 0.0011800208619616038 0.0
"/>
  <path
    fill="none"
    stroke="black"
    stroke-width="0.01"
    d="
M 0.5649458341088911 7.30874306617517
l 0.0 -0.8819398512789147
l 1.6941906913704035 0.0
l 0.0 -0.5450388280903694
l 1.0470098472669096 0.0
l 0.0 -0.3368339957598483
l 0.6470520856109501 0.0
l 0.0 -0.20816340937958616
l 0.3998781889075671 0.0
l 0.0 -0.12864498699658428
l 0.24712472074487646 0.0
l 0.0 -0.07950260196388909
l 0.15272307742033364 0.0
l 0.0 -0.04913260801368345
l 0.09438286184576619 0.0
l 0.0 -0.030363951752456368
l 0.05832860862068351 0.0
l 0.0 -0.018764922183018035
l 0.03604708012758241 0.0
l 0.0 -0.011596721909105146
l 0.022277095518845928 0.0
l 0.0 -0.007166774139826981
l 0.013767245030646785 0.0
l 0.0 -0.004429066418413074
l 0.008508157428939714 0.0
l 0.0 -0.0027371630465792794
l 0.005258041291084743 0.0
l 0.0 -0.0016915667627859948
l 0.003249469517890371 0.0
l 0.0 -0.0010453882594017448
l 0.0020081721620562494 0.0
l 0.0 -0.0006460499443102783
l 0.0012410503961507624 0.0
"/>
  <path
    fill="none"
    stroke="black"
    stroke-width="0.01"
    d="
M 0.3806023374435661 6.91341716182545
l 0.0 -0.7309253558173217
l 1.764609907096558 0.0
l 0.0 -0.4517118698951048
l 1.0905289225856727 0.0
l 0.0 -0.27915793559517477
l 0.6739468741579457 0.0
l 0.0 -0.17251960419781803
l 0.4164991682296104 0.0
l 0.0 -0.1066171153942515
l 0.2573964859658992 0.0
l 0.0 -0.06588937731364744
l 0.1590710283269257 0.0
l 0.0 -0.040719635179834124
l 0.09830589550604008 0.0
l 0.0 -0.025164734541137483
l 0.06075304342273277 0.0
l 0.0 -0.015551805946422963
l 0.03754538083524885 0.0
l 0.0 -0.009611016074889392
l 0.02320304535618379 0.0
l 0.0 -0.005939607934281645
l 0.01433948203012158 0.0
l 0.0 -0.0036706777033860567
l 0.008861799894615137 0.0
l 0.0 -0.002268478820692583
l 0.005476592334872155 0.0
l 0.0 -0.0014019199111880163
l 0.0033845340629509914 0.0
l 0.0 -0.000866386505114194
l 0.002091642050903713 0.0
l 0.0 -0.0005354268601605719
l 0.0012926347874584946 0.0
"/>
  <path
    fill="none"
    stroke="black"
    stroke-width="0.01"
    d="
M 0.2314152462588659 6.503528997521366
l 0.0 -0.574348077053162
l 1.8215993759291131 0.0
l 0.0 -0.35494711161885417
l 1.125748414324192 0.0
l 0.0 -0.21935731498045186
l 0.6957125200523506 0.0
l 0.0 -0.13556282065791925
l 0.42995033739235267 0.0
l 0.0 -0.08377782316659407
l 0.265709308508474 0.0
l 0.0 -0.051774694716955144
l 0.1642083526582369 0.0
l 0.0 -0.03199676133507828
l 0.10148076194279043 0.0
l 0.0 -0.019773998505078376
l 0.06271511088064448 0.0
l 0.0 -0.01222033107613844
l 0.03875793852423828 0.0
l 0.0 -0.007552164605053554
l 0.02395240600797926 0.0
l 0.0 -0.004667237725923097
l 0.014802586912931182 0.0
l 0.0 -0.0028843529146204737
l 0.009147998712191472 0.0
l 0.0 -0.0017825301012354528
l 0.005653463204134328 0.0
l 0.0 -0.00110160360256351
l 0.0034938402601550154 0.0
l 0.0 -0.0006807910263842492
l 0.0021591932807757995 0.0
l 0.0 -0.0004207288543054659
l 0.0013343814475194442 0.0
"/>
  <path
    fill="none"
    stroke="black"
    stroke-width="0.01"
    d="
M 0.11851996440033385 6.0821980696905165
l 0.0 -0.4133996626217771
l 1.8647253735990725 0.0
l 0.0 -0.25548099150025827
l 1.1524002808842269 0.0
l 0.0 -0.15788725274715965
l 0.712183373586452 0.0
l 0.0 -0.09757432219774465
l 0.4401293248764274 0.0
l 0.0 -0.06030093111820618
l 0.27199992277363216 0.0
l 0.0 -0.03726597543105142
l 0.16809595227410468 0.0
l 0.0 -0.023030372816389776
l 0.10388329850539668 0.0
l 0.0 -0.01423277040052888
l 0.06419987847633515 0.0
l 0.0 -0.008795852107526848
l 0.03967552489837513 0.0
l 0.0 -0.005435836602451593
l 0.02451947438719583 0.0
l 0.0 -0.003359347020315084
l 0.015153035171287021 0.0
l 0.0 -0.002076076458554722
l 0.009364575735855378 0.0
l 0.0 -0.0012830152513868178
l 0.005787307804758623 0.0
l 0.0 -0.0007929034253570536
l 0.003576556223340829 0.0
l 0.0 -0.0004900143168706591
l 0.0022103117460246322 0.0
l 0.0 -0.0003028288478260674
l 0.0013659726590432228 0.0
"/>
  <path
    fill="none"
    stroke="black"
    stroke-width="0.01"
    d="
M 0.04277569313094798 5.652630961100257
l 0.0 -0.2493050271402985
l 1.893659685223978 0.0
l 0.0 -0.15407050677270448
l 1.1702816854684184 0.0
l 0.0 -0.09521557318553137
l 0.7232340816194824 0.0
l 0.0 -0.05884322422865838
l 0.44695866244084015 0.0
l 0.0 -0.03636511257331088
l 0.27622045338843926 0.0
l 0.0 -0.022473639570306125
l 0.17070424019405545 0.0
l 0.0 -0.013888709254449183
l 0.10549522043992626 0.0
l 0.0 -0.008583222319249595
l 0.06519604623187443 0.0
l 0.0 -0.00530443139329625
l 0.04029115657129839 0.0
l 0.0 -0.0032781386010570825
l 0.024899934761062406 0.0
l 0.0 -0.0020258896554532766
l 0.015388159682336568 0.0
l 0.0 -0.0012519998070701249
l 0.009509882683683999 0.0
l 0.0 -0.0007737358807693372
l 0.005877107498516712 0.0
l 0.0 -0.00047816877431545036
l 0.0036320524340833285 0.0
l 0.0 -0.00029550830252694825
l 0.0022446084042634967 0.0
l 0.0 -0.00018262413096165406
l 0.0013871679938348407 0.0
"/>
  <path
    fill="none"
    stroke="black"
    stroke-width="0.01"
    d="
M 0.004758892090711342 5.21809693682668
l 0.0 -0.0833130298677919
l 1.9081821032213484 0.0
l 0.0 -0.05148745245829539
l 1.1792565397907933 0.0
l 0.0 -0.03181924561922655
l 0.7287805415907103 0.0
l 0.0 -0.01966429379268201
l 0.45038637470305887 0.0
l 0.0 -0.01215253356387748
l 0.27833877956649034 0.0
l 0.0 -0.007510265742476282
l 0.17201336577209103 0.0
l 0.0 -0.004641344228850343
l 0.10630426004715227 0.0
l 0.0 -0.002868350733429512
l 0.0656960327091401 0.0
l 0.0 -0.0017726407532594381
l 0.04060014821424858 0.0
l 0.0 -0.0010954919855143328
l 0.025090891596405623 0.0
l 0.0 -0.0006770140470478577
l 0.015506171006578678 0.0
l 0.0 -0.0004183946810755759
l 0.009582813682065622 0.0
l 0.0 -0.00025856791290470595
l 0.005922178855516554 0.0
l 0.0 -0.00015979497017510827
l 0.003659906532709231 0.0
l 0.0 -9.87532915682169e-05
l 0.0022618222372143043 0.0
l 0.0 -6.102953418915805e-05
l 0.0013978061425984401 0.0
"/>
  <path
    fill="none"
    stroke="black"
    stroke-width="0.01"
    d="
M 0.004758892090711342 4.781903063173319
l 0.0 0.08331302986779227
l 1.9081821032213484 0.0
l 0.0 0.05148745245829563
l 1.1792565397907933 0.0
l 0.0 0.0318192456192267
l 0.7287805415907103 0.0
l 0.0 0.0196642937926821
l 0.45038637470305887 0.0
l 0.0 0.012152533563877542
l 0.27833877956649034 0.0
l 0.0 0.00751026574247632
l 0.17201336577209103 0.0
l 0.0 0.004641344228850365
l 0.10630426004715227 0.0
l 0.0 0.002868350733429526
l 0.0656960327091401 0.0
l 0.0 0.0017726407532594468
l 0.04060014821424858 0.0
l 0.0 0.001095491985514338
l 0.025090891596405623 0.0
l 0.0 0.0006770140470478609
l 0.015506171006578678 0.0
l 0.0 0.000418394681075578
l 0.009582813682065622 0.0
l 0.0 0.00025856791290470725
l 0.005922178855516554 0.0
l 0.0 0.00015979497017510908
l 0.003659906532709231 0.0
l 0.0 9.875329156821739e-05
l 0.0022618222372143043 0.0
l 0.0 6.102953418915835e-05
l 0.0013978061425984401 0.0
"/>
  <path
    fill="none"
    stroke="black"
    stroke-width="0.01"
    d="
M 0.04277569313094709 4.3473690388997435
l 0.0 0.24930502714029806
l 1.8936596852239784 0.0
l 0.0 0.15407050677270417
l 1.1702816854684184 0.0
l 0.0 0.09521557318553117
l 0.7232340816194827 0.0
l 0.0 0.05884322422865827
l 0.44695866244084026 0.0
l 0.0 0.036365112573310814
l 0.27622045338843926 0.0
l 0.0 0.022473639570306084
l 0.1707042401940555 0.0
l 0.0 0.013888709254449162
l 0.10549522043992629 0.0
l 0.0 0.008583222319249581
l 0.06519604623187444 0.0
l 0.0 0.005304431393296241
l 0.040291156571298406 0.0
l 0.0 0.0032781386010570773
l 0.024899934761062406 0.0
l 0.0 0.002025889655453274
l 0.015388159682336568 0.0
l 0.0 0.0012519998070701231
l 0.009509882683683999 0.0
l 0.0 0.0007737358807693362
l 0.005877107498516712 0.0
l 0.0 0.0004781687743154497
l 0.0036320524340833285 0.0
l 0.0 0.00029550830252694793
l 0.0022446084042634967 0.0
l 0.0 0.00018262413096165384
l 0.0013871679938348407 0.0
"/>
  <path
    fill="none"
    stroke="black"
    stroke-width="0.01"
    d="
M 0.11851996440033297 3.9178019303094853
l 0.0 0.41339966262177663
l 1.864725373599073 0.0
l 0.0 0.25548099150025794
l 1.1524002808842269 0.0
l 0.0 0.15788725274715942
l 0.7121833735864522 0.0
l 0.0 0.0975743221977445
l 0.44012932487642753 0.0
l 0.0 0.0603009311182061
l 0.2719999227736322 0.0
l 0.0 0.037265975431051375
l 0.16809595227410468 0.0
l 0.0 0.023030372816389748
l 0.10388329850539671 0.0
l 0.0 0.014232770400528866
l 0.06419987847633517 0.0
l 0.0 0.008795852107526838
l 0.03967552489837513 0.0
l 0.0 0.005435836602451586
l 0.02451947438719583 0.0
l 0.0 0.00335934702031508
l 0.015153035171287025 0.0
l 0.0 0.0020760764585547194
l 0.009364575735855382 0.0
l 0.0 0.0012830152513868165
l 0.005787307804758626 0.0
l 0.0 0.0007929034253570527
l 0.00357655622334083 0.0
l 0.0 0.0004900143168706586
l 0.002210311746024633 0.0
l 0.0 0.00030282884782606705
l 0.0013659726590432232 0.0
"/>
  <path
    fill="none"
    stroke="black"
    stroke-width="0.01"
    d="
M 0.231415246258865 3.4964710024786347
l 0.0 0.5743480770531615
l 1.8215993759291136 0.0
l 0.0 0.35494711161885384
l 1.1257484143241923 0.0
l 0.0 0.2193573149804517
l 0.6957125200523508 0.0
l 0.0 0.13556282065791914
l 0.42995033739235267 0.0
l 0.0 0.08377782316659402
l 0.265709308508474 0.0
l 0.0 0.0517746947169551
l 0.1642083526582369 0.0
l 0.0 0.031996761335078255
l 0.10148076194279043 0.0
l 0.0 0.019773998505078362
l 0.06271511088064448 0.0
l 0.0 0.01222033107613843
l 0.03875793852423828 0.0
l 0.0 0.007552164605053547
l 0.02395240600797926 0.0
l 0.0 0.004667237725923093
l 0.014802586912931182 0.0
l 0.0 0.002884352914620472
l 0.009147998712191472 0.0
l 0.0 0.001782530101235451
l 0.005653463204134328 0.0
l 0.0 0.001101603602563509
l 0.0034938402601550154 0.0
l 0.0 0.0006807910263842486
l 0.0021591932807757995 0.0
l 0.0 0.00042072885430546555
l 0.0013343814475194442 0.0
"/>
  <path
    fill="none"
    stroke="black"
    stroke-width="0.01"
    d="
M 0.3806023374435652 3.0865828381745537
l 0.0 0.7309253558173203
l 1.764609907096558 0.0
l 0.0 0.45171186989510403
l 1.090528922585673 0.0
l 0.0 0.2791579355951743
l 0.673946874157946 0.0
l 0.0 0.1725196041978177
l 0.41649916822961053 0.0
l 0.0 0.10661711539425134
l 0.2573964859658993 0.0
l 0.0 0.06588937731364733
l 0.15907102832692577 0.0
l 0.0 0.040719635179834054
l 0.09830589550604013 0.0
l 0.0 0.02516473454113745
l 0.060753043422732814 0.0
l 0.0 0.015551805946422942
l 0.03754538083524888 0.0
l 0.0 0.009611016074889376
l 0.023203045356183803 0.0
l 0.0 0.005939607934281634
l 0.01433948203012159 0.0
l 0.0 0.0036706777033860506
l 0.008861799894615144 0.0
l 0.0 0.002268478820692579
l 0.005476592334872158 0.0
l 0.0 0.001401919911188014
l 0.003384534062950994 0.0
l 0.0 0.0008663865051141927
l 0.0020916420509037147 0.0
l 0.0 0.000535426860160571
l 0.0012926347874584955 0.0
"/>
  <path
    fill="none"
    stroke="black"
    stroke-width="0.01"
    d="
M 0.5649458341088911 2.6912569338248313
l 0.0 0.8819398512789145
l 1.6941906913704035 0.0
l 0.0 0.5450388280903691
l 1.0470098472669096 0.0
l 0.0 0.33683399575984807
l 0.6470520856109501 0.0
l 0.0 0.20816340937958616
l 0.3998781889075671 0.0
l 0.0 0.12864498699658422
l 0.24712472074487646 0.0
l 0.0 0.07950260196388906
l 0.15272307742033364 0.0
l 0.0 0.04913260801368344
l 0.09438286184576619 0.0
l 0.0 0.03036395175245636
l 0.05832860862068351 0.0
l 0.0 0.018764922183018035
l 0.03604708012758241 0.0
l 0.0 0.011596721909105143
l 0.022277095518845928 0.0
l 0.0 0.007166774139826979
l 0.013767245030646785 0.0
l 0.0 0.004429066418413073
l 0.008508157428939714 0.0
l 0.0 0.0027371630465792794
l 0.005258041291084743 0.0
l 0.0 0.0016915667627859943
l 0.003249469517890371 0.0
l 0.0 0.0010453882594017446
l 0.0020081721620562494 0.0
l 0.0 0.0006460499443102783
l 0.0012410503961507624 0.0
"/>
  <path
    fill="none"
    stroke="black"
    stroke-width="0.01"
    d="
M 0.7830427709355705 2.3135019582658822
l 0.0 1.026242251942433
l 1.6108776615026121 0.0
l 0.0 0.6342177117004235
l 0.9955223948086143 0.0
l 0.0 0.39194654583086175
l 0.6152328399917236 0.0
l 0.0 0.2422229653234726
l 0.3802138951148851 0.0
l 0.0 0.1496937925699061
l 0.23497218718099905 0.0
l 0.0 0.09251076380820195
l 0.1452128116778574 0.0
l 0.0 0.057171652033468814
l 0.08974151761691587 0.0
l 0.0 0.03533208095668372
l 0.055460257887254005 0.0
l 0.0 0.021835226031230538
l 0.03427443937432298 0.0
l 0.0 0.013494169687300474
l 0.0211816035333316 0.0
l 0.0 0.008339396866751692
l 0.01309023098359893 0.0
l 0.0 0.005153747263652546
l 0.008089762747864139 0.0
l 0.0 0.0031850158089372733
l 0.0049994733781800384 0.0
l 0.0 0.001968339769923235
l 0.0030896745477152635 0.0
l 0.0 0.001216433977812559
l 0.0019094188704880332 0.0
l 0.0 0.0007517561982881614
l 0.0011800208619616045 0.0
"/>
  <path
    fill="none"
    stroke="black"
    stroke-width="0.01"
    d="
M 1.0332332985438244 1.956192854956397
l 0.0 1.1627343294066563
l 1.515304879956259 0.0
l 0.0 0.7185698155733136
l 0.9364584158129681 0.0
l 0.0 0.4440761460243079
l 0.5787313009724143 0.0
l 0.0 0.2744390582430223
l 0.35765594400095213 0.0
l 0.0 0.16960333799418775
l 0.22103137339258838 0.0
l 0.0 0.10481486288040803
l 0.13659738875661961 0.0
l 0.0 0.06477558526009215
l 0.08441718625159092 0.0
l 0.0 0.040031311690736954
l 0.052169821103483185 0.0
l 0.0 0.02473935062487543
l 0.03224094944195261 0.0
l 0.0 0.01528891868617302
l 0.01992490675512671 0.0
l 0.0 0.009448551748054925
l 0.012313592374668308 0.0
l 0.0 0.005839204980297942
l 0.007609800087545016 0.0
l 0.0 0.0036086286778241293
l 0.00470285645410282 0.0
l 0.0 0.002230132522895312
l 0.0029063652886355427 0.0
l 0.0 0.0013782218991493025
l 0.0017961337483767652 0.0
l 0.0 0.0008517411336742692
l 0.0011100106564968406 0.0
"/>
  <path
    fill="none"
    stroke="black"
    stroke-width="0.01"
    d="
M 1.313613315949378 1.622048961921701
l 0.0 1.2903772965459104
l 1.4081997133073378 0.0
l 0.0 0.7974531692653726
l 0.8702674228239347 0.0
l 0.0 0.49282605860600015
l 0.5378252673051915 0.0
l 0.0 0.3045665042185081
l 0.33237601519460835 0.0
l 0.0 0.188222099607038
l 0.20540837739026802 0.0
l 0.0 0.1163212575571495
l 0.1269423772271856 0.0
l 0.0 0.07188653717031838
l 0.0784503891264007 0.0
l 0.0 0.04442587997125676
l 0.04848234048011564 0.0
l 0.0 0.027455193822236677
l 0.029962086416711463 0.0
l 0.0 0.016967309782142267
l 0.018516569405527684 0.0
l 0.0 0.010485797445363921
l 0.011443239892616107 0.0
l 0.0 0.006480222821234904
l 0.007071922253636755 0.0
l 0.0 0.004004777703523171
l 0.004370447952747514 0.0
l 0.0 0.002474952620777319
l 0.0027009368347979635 0.0
l 0.0 0.0015295207196403837
l 0.0016691789639051414 0.0
l 0.0 0.000945243804737757
l 0.0010315525996933775 0.0
"/>
  <path
    fill="none"
    stroke="black"
    stroke-width="0.01"
    d="
M 1.6220489619216982 1.3136133159493806
l 0.0 1.4081997133073365
l 1.2903772965459113 0.0
l 0.0 0.870267422823934
l 0.7974531692653732 0.0
l 0.0 0.5378252673051913
l 0.4928260586060006 0.0
l 0.0 0.33237601519460824
l 0.3045665042185084 0.0
l 0.0 0.20540837739026785
l 0.18822209960703817 0.0
l 0.0 0.12694237722718554
l 0.11632125755714959 0.0
l 0.0 0.07845038912640068
l 0.07188653717031844 0.0
l 0.0 0.0484823404801156
l 0.0444258799712568 0.0
l 0.0 0.02996208641671145
l 0.027455193822236698 0.0
l 0.0 0.018516569405527674
l 0.016967309782142278 0.0
l 0.0 0.0114432398926161
l 0.010485797445363928 0.0
l 0.0 0.00707192225363675
l 0.0064802228212349055 0.0
l 0.0 0.0043704479527475115
l 0.004004777703523171 0.0
l 0.0 0.0027009368347979627
l 0.00247495262077732 0.0
l 0.0 0.001669178963905141
l 0.001529520719640384 0.0
l 0.0 0.0010315525996933768
l 0.0009452438047377572 0.0
"/>
  <path
    fill="none"
    stroke="black"
    stroke-width="0.01"
    d="
M 1.9561928549563956 1.0332332985438253
l 0.0 1.515304879956259
l 1.162734329406657 0.0
l 0.0 0.9364584158129678
l 0.718569815573314 0.0
l 0.0 0.5787313009724141
l 0.444076146024308 0.0
l 0.0 0.3576559440009519
l 0.2744390582430223 0.0
l 0.0 0.22103137339258827
l 0.1696033379941878 0.0
l 0.0 0.13659738875661956
l 0.10481486288040803 0.0
l 0.0 0.08441718625159089
l 0.06477558526009217 0.0
l 0.0 0.05216982110348317
l 0.04003131169073697 0.0
l 0.0 0.032240949441952604
l 0.024739350624875443 0.0
l 0.0 0.01992490675512671
l 0.015288918686173023 0.0
l 0.0 0.012313592374668308
l 0.009448551748054928 0.0
l 0.0 0.007609800087545013
l 0.005839204980297946 0.0
l 0.0 0.004702856454102818
l 0.00360862867782413 0.0
l 0.0 0.002906365288635542
l 0.0022301325228953127 0.0
l 0.0 0.0017961337483767647
l 0.0013782218991493034 0.0
l 0.0 0.0011100106564968404
l 0.0008517411336742694 0.0
"/>
  <path
    fill="none"
    stroke="black"
    stroke-width="0.01"
    d="
M 2.3135019582658787 0.7830427709355723
l 0.0 1.6108776615026112
l 1.0262422519424343 0.0
l 0.0 0.9955223948086138
l 0.6342177117004244 0.0
l 0.0 0.6152328399917234
l 0.3919465458308623 0.0
l 0.0 0.3802138951148851
l 0.24222296532347293 0.0
l 0.0 0.23497218718099894
l 0.14969379256990625 0.0
l 0.0 0.14521281167785735
l 0.09251076380820206 0.0
l 0.0 0.08974151761691584
l 0.05717165203346887 0.0
l 0.0 0.055460257887254005
l 0.03533208095668376 0.0
l 0.0 0.03427443937432297
l 0.021835226031230566 0.0
l 0.0 0.021181603533331594
l 0.013494169687300488 0.0
l 0.0 0.013090230983598926
l 0.008339396866751702 0.0
l 0.0 0.008089762747864136
l 0.005153747263652553 0.0
l 0.0 0.004999473378180037
l 0.0031850158089372768 0.0
l 0.0 0.0030896745477152618
l 0.0019683397699232375 0.0
l 0.0 0.0019094188704880319
l 0.0012164339778125608 0.0
l 0.0 0.0011800208619616038
l 0.0007517561982881625 0.0
"/>
  <path
    fill="none"
    stroke="black"
    stroke-width="0.01"
    d="
M 2.691256933824828 0.5649458341088929
l 0.0 1.694190691370403
l 0.8819398512789158 0.0
l 0.0 1.047009847266909
l 0.54503882809037 0.0
l 0.0 0.6470520856109498
l 0.3368339957598486 0.0
l 0.0 0.3998781889075669
l 0.20816340937958644 0.0
l 0.0 0.24712472074487635
l 0.12864498699658442 0.0
l 0.0 0.15272307742033361
l 0.07950260196388917 0.0
l 0.0 0.09438286184576616
l 0.04913260801368351 0.0
l 0.0 0.058328608620683495
l 0.03036395175245641 0.0
l 0.0 0.0360470801275824
l 0.018764922183018062 0.0
l 0.0 0.02227709551884592
l 0.011596721909105163 0.0
l 0.0 0.013767245030646778
l 0.007166774139826989 0.0
l 0.0 0.008508157428939709
l 0.00442906641841308 0.0
l 0.0 0.005258041291084739
l 0.002737163046579283 0.0
l 0.0 0.003249469517890369
l 0.0016915667627859974 0.0
l 0.0 0.002008172162056248
l 0.0010453882594017461 0.0
l 0.0 0.0012410503961507616
l 0.0006460499443102792 0.0
"/>
  <path
    fill="none"
    stroke="black"
    stroke-width="0.01"
    d="
M 3.0865828381745524 0.3806023374435661
l 0.0 1.764609907096558
l 0.730925355817321 0.0
l 0.0 1.0905289225856727
l 0.45171186989510437 0.0
l 0.0 0.6739468741579457
l 0.2791579355951745 0.0
l 0.0 0.4164991682296104
l 0.17251960419781787 0.0
l 0.0 0.2573964859658992
l 0.10661711539425142 0.0
l 0.0 0.1590710283269257
l 0.06588937731364738 0.0
l 0.0 0.09830589550604008
l 0.04071963517983408 0.0
l 0.0 0.06075304342273277
l 0.02516473454113747 0.0
l 0.0 0.03754538083524885
l 0.015551805946422952 0.0
l 0.0 0.02320304535618379
l 0.009611016074889386 0.0
l 0.0 0.01433948203012158
l 0.005939607934281639 0.0
l 0.0 0.008861799894615137
l 0.003670677703386054 0.0
l 0.0 0.005476592334872155
l 0.002268478820692581 0.0
l 0.0 0.0033845340629509914
l 0.001401919911188015 0.0
l 0.0 0.002091642050903713
l 0.0008663865051141935 0.0
l 0.0 0.0012926347874584946
l 0.0005354268601605715 0.0
"/>
  <path
    fill="none"
    stroke="black"
    stroke-width="0.01"
    d="
M 3.496471002478631 0.23141524625886678
l 0.0 1.8215993759291131
l 0.5743480770531629 0.0
l 0.0 1.1257484143241916
l 0.3549471116188546 0.0
l 0.0 0.6957125200523504
l 0.2193573149804522 0.0
l 0.0 0.42995033739235267
l 0.13556282065791944 0.0
l 0.0 0.2657093085084739
l 0.08377782316659421 0.0
l 0.0 0.16420835265823686
l 0.05177469471695523 0.0
l 0.0 0.1014807619427904
l 0.03199676133507834 0.0
l 0.0 0.06271511088064446
l 0.01977399850507841 0.0
l 0.0 0.03875793852423828
l 0.012220331076138458 0.0
l 0.0 0.02395240600797925
l 0.007552164605053566 0.0
l 0.0 0.014802586912931182
l 0.004667237725923104 0.0
l 0.0 0.009147998712191468
l 0.002884352914620479 0.0
l 0.0 0.005653463204134328
l 0.0017825301012354554 0.0
l 0.0 0.0034938402601550145
l 0.0011016036025635115 0.0
l 0.0 0.0021591932807757987
l 0.0006807910263842501 0.0
l 0.0 0.0013343814475194437
l 0.00042072885430546663 0.0
"/>
  <path
    fill="none"
    stroke="black"
    stroke-width="0.01"
    d="
M 3.917801930309486 0.11851996440033297
l 0.0 1.864725373599073
l 0.4133996626217764 0.0
l 0.0 1.1524002808842269
l 0.25548099150025777 0.0
l 0.0 0.7121833735864522
l 0.1578872527471593 0.0
l 0.0 0.44012932487642753
l 0.09757432219774445 0.0
l 0.0 0.2719999227736322
l 0.06030093111820606 0.0
l 0.0 0.16809595227410468
l 0.03726597543105135 0.0
l 0.0 0.10388329850539671
l 0.023030372816389734 0.0
l 0.0 0.06419987847633517
l 0.014232770400528855 0.0
l 0.0 0.03967552489837513
l 0.008795852107526831 0.0
l 0.0 0.02451947438719583
l 0.005435836602451583 0.0
l 0.0 0.015153035171287025
l 0.0033593470203150773 0.0
l 0.0 0.009364575735855382
l 0.0020760764585547177 0.0
l 0.0 0.005787307804758626
l 0.0012830152513868156 0.0
l 0.0 0.00357655622334083
l 0.0007929034253570521 0.0
l 0.0 0.002210311746024633
l 0.0004900143168706582 0.0
l 0.0 0.0013659726590432232
l 0.00030282884782606683 0.0
"/>
  <path
    fill="none"
    stroke="black"
    stroke-width="0.01"
    d="
M 4.347369038899742 0.04277569313094798
l 0.0 1.893659685223978
l 0.24930502714029862 0.0
l 0.0 1.1702816854684184
l 0.1540705067727045 0.0
l 0.0 0.7232340816194824
l 0.0952155731855314 0.0
l 0.0 0.44695866244084015
l 0.05884322422865841 0.0
l 0.0 0.27622045338843926
l 0.03636511257331089 0.0
l 0.0 0.17070424019405545
l 0.022473639570306132 0.0
l 0.0 0.10549522043992626
l 0.01388870925444919 0.0
l 0.0 0.06519604623187443
l 0.008583222319249597 0.0
l 0.0 0.04029115657129839
l 0.0053044313932962515 0.0
l 0.0 0.024899934761062406
l 0.0032781386010570833 0.0
l 0.0 0.015388159682336568
l 0.0020258896554532775 0.0
l 0.0 0.009509882683683999
l 0.0012519998070701253 0.0
l 0.0 0.005877107498516712
l 0.0007737358807693377 0.0
l 0.0 0.0036320524340833285
l 0.0004781687743154507 0.0
l 0.0 0.0022446084042634967
l 0.00029550830252694847 0.0
l 0.0 0.0013871679938348407
l 0.00018262413096165416 0.0
"/>
  <path
    fill="none"
    stroke="black"
    stroke-width="0.01"
    d="
M 4.78190306317332 0.004758892090711342
l 0.0 1.9081821032213484
l 0.08331302986779202 0.0
l 0.0 1.1792565397907933
l 0.05148745245829546 0.0
l 0.0 0.7287805415907103
l 0.0318192456192266 0.0
l 0.0 0.45038637470305887
l 0.019664293792682037 0.0
l 0.0 0.27833877956649034
l 0.012152533563877497 0.0
l 0.0 0.17201336577209103
l 0.007510265742476294 0.0
l 0.0 0.10630426004715227
l 0.00464134422885035 0.0
l 0.0 0.0656960327091401
l 0.0028683507334295163 0.0
l 0.0 0.04060014821424858
l 0.0017726407532594412 0.0
l 0.0 0.025090891596405623
l 0.0010954919855143345 0.0
l 0.0 0.015506171006578678
l 0.0006770140470478588 0.0
l 0.0 0.009582813682065622
l 0.0004183946810755767 0.0
l 0.0 0.005922178855516554
l 0.0002585679129047064 0.0
l 0.0 0.003659906532709231
l 0.00015979497017510854 0.0
l 0.0 0.0022618222372143043
l 9.875329156821709e-05 0.0
l 0.0 0.0013978061425984401
l 6.102953418915817e-05 0.0
"/>
  <path
    fill="none"
    stroke="black"
    stroke-width="0.01"
    d="
M 5.2180969368266785 0.004758892090711342
l 0.0 1.9081821032213484
l -0.08331302986779132 0.0
l 0.0 1.1792565397907933
l -0.05148745245829503 0.0
l 0.0 0.7287805415907103
l -0.031819245619226326 0.0
l 0.0 0.45038637470305887
l -0.01966429379268187 0.0
l 0.0 0.27833877956649034
l -0.012152533563877396 0.0
l 0.0 0.17201336577209103
l -0.00751026574247623 0.0
l 0.0 0.10630426004715227
l -0.00464134422885031 0.0
l 0.0 0.0656960327091401
l -0.002868350733429491 0.0
l 0.0 0.04060014821424858
l -0.0017726407532594256 0.0
l 0.0 0.025090891596405623
l -0.001095491985514325 0.0
l 0.0 0.015506171006578678
l -0.0006770140470478527 0.0
l 0.0 0.009582813682065622
l -0.0004183946810755731 0.0
l 0.0 0.005922178855516554
l -0.0002585679129047041 0.0
l 0.0 0.003659906532709231
l -0.00015979497017510713 0.0
l 0.0 0.0022618222372143043
l -9.875329156821622e-05 0.0
l 0.0 0.0013978061425984401
l -6.102953418915763e-05 0.0
"/>
  <path
    fill="none"
    stroke="black"
    stroke-width="0.01"
    d="
M 5.652630961100261 0.04277569313094798
l 0.0 1.893659685223978
l -0.24930502714029956 0.0
l 0.0 1.1702816854684184
l -0.15407050677270515 0.0
l 0.0 0.7232340816194824
l -0.09521557318553178 0.0
l 0.0 0.44695866244084015
l -0.05884322422865863 0.0
l 0.0 0.27622045338843926
l -0.03636511257331103 0.0
l 0.0 0.17070424019405545
l -0.022473639570306216 0.0
l 0.0 0.10549522043992626
l -0.013888709254449242 0.0
l 0.0 0.06519604623187443
l -0.00858322231924963 0.0
l 0.0 0.04029115657129839
l -0.005304431393296272 0.0
l 0.0 0.024899934761062406
l -0.0032781386010570963 0.0
l 0.0 0.015388159682336568
l -0.0020258896554532853 0.0
l 0.0 0.009509882683683999
l -0.00125199980707013 0.0
l 0.0 0.005877107498516712
l -0.0007737358807693405 0.0
l 0.0 0.0036320524340833285
l -0.0004781687743154524 0.0
l 0.0 0.0022446084042634967
l -0.00029550830252694955 0.0
l 0.0 0.0013871679938348407
l -0.00018262413096165482 0.0
"/>
  <path
    fill="none"
    stroke="black"
    stroke-width="0.01"
    d="
M 6.082198069690512 0.11851996440033297
l 0.0 1.864725373599073
l -0.41339966262177563 0.0
l 0.0 1.1524002808842269
l -0.2554809915002574 0.0
l 0.0 0.7121833735864522
l -0.1578872527471591 0.0
l 0.0 0.44012932487642753
l -0.09757432219774428 0.0
l 0.0 0.2719999227736322
l -0.060300931118205975 0.0
l 0.0 0.16809595227410468
l -0.03726597543105129 0.0
l 0.0 0.10388329850539671
l -0.0230303728163897 0.0
l 0.0 0.06419987847633517
l -0.014232770400528835 0.0
l 0.0 0.03967552489837513
l -0.00879585210752682 0.0
l 0.0 0.02451947438719583
l -0.005435836602451576 0.0
l 0.0 0.015153035171287025
l -0.0033593470203150738 0.0
l 0.0 0.009364575735855382
l -0.002076076458554715 0.0
l 0.0 0.005787307804758626
l -0.001283015251386814 0.0
l 0.0 0.00357655622334083
l -0.0007929034253570512 0.0
l 0.0 0.002210311746024633
l -0.0004900143168706575 0.0
l 0.0 0.0013659726590432232
l -0.0003028288478260664 0.0
"/>
  <path
    fill="none"
    stroke="black"
    stroke-width="0.01"
    d="
M 6.503528997521363 0.231415246258865
l 0.0 1.8215993759291136
l -0.5743480770531607 0.0
l 0.0 1.1257484143241923
l -0.3549471116188533 0.0
l 0.0 0.6957125200523508
l -0.21935731498045136 0.0
l 0.0 0.42995033739235267
l -0.13556282065791891 0.0
l 0.0 0.265709308508474
l -0.0837778231665939 0.0
l 0.0 0.1642083526582369
l -0.05177469471695502 0.0
l 0.0 0.10148076194279043
l -0.03199676133507821 0.0
l 0.0 0.06271511088064448
l -0.019773998505078327 0.0
l 0.0 0.03875793852423828
l -0.012220331076138406 0.0
l 0.0 0.02395240600797926
l -0.007552164605053537 0.0
l 0.0 0.014802586912931182
l -0.004667237725923085 0.0
l 0.0 0.009147998712191472
l -0.002884352914620467 0.0
l 0.0 0.005653463204134328
l -0.0017825301012354485 0.0
l 0.0 0.0034938402601550154
l -0.001101603602563507 0.0
l 0.0 0.0021591932807757995
l -0.0006807910263842473 0.0
l 0.0 0.0013343814475194442
l -0.0004207288543054648 0.0
"/>
  <path
    fill="none"
    stroke="black"
    stroke-width="0.01"
    d="
M 6.91341716182545 0.380602337443567
l 0.0 1.7646099070965575
l -0.7309253558173219 0.0
l 0.0 1.0905289225856725
l -0.45171186989510503 0.0
l 0.0 0.6739468741579455
l -0.2791579355951749 0.0
l 0.0 0.4164991682296104
l -0.17251960419781803 0.0
l 0.0 0.2573964859658992
l -0.10661711539425156 0.0
l 0.0 0.1590710283269257
l -0.06588937731364747 0.0
l 0.0 0.09830589550604008
l -0.040719635179834124 0.0
l 0.0 0.06075304342273277
l -0.025164734541137497 0.0
l 0.0 0.03754538083524885
l -0.01555180594642297 0.0
l 0.0 0.02320304535618379
l -0.009611016074889395 0.0
l 0.0 0.01433948203012158
l -0.005939607934281646 0.0
l 0.0 0.008861799894615137
l -0.0036706777033860575 0.0
l 0.0 0.005476592334872155
l -0.0022684788206925833 0.0
l 0.0 0.0033845340629509914
l -0.0014019199111880163 0.0
l 0.0 0.002091642050903713
l -0.0008663865051141942 0.0
l 0.0 0.0012926347874584946
l -0.0005354268601605719 0.0
"/>
  <path
    fill="none"
    stroke="black"
    stroke-width="0.01"
    d="
M 7.3087430661751664 0.5649458341088902
l 0.0 1.694190691370404
l -0.8819398512789136 0.0
l 0.0 1.0470098472669096
l -0.5450388280903686 0.0
l 0.0 0.6470520856109503
l -0.33683399575984774 0.0
l 0.0 0.3998781889075672
l -0.20816340937958594 0.0
l 0.0 0.2471247207448765
l -0.1286449869965841 0.0
l 0.0 0.15272307742033367
l -0.07950260196388897 0.0
l 0.0 0.09438286184576622
l -0.04913260801368338 0.0
l 0.0 0.05832860862068351
l -0.030363951752456333 0.0
l 0.0 0.03604708012758241
l -0.01876492218301801 0.0
l 0.0 0.022277095518845928
l -0.011596721909105132 0.0
l 0.0 0.013767245030646785
l -0.007166774139826972 0.0
l 0.0 0.008508157428939714
l -0.004429066418413068 0.0
l 0.0 0.005258041291084743
l -0.002737163046579276 0.0
l 0.0 0.003249469517890371
l -0.0016915667627859926 0.0
l 0.0 0.0020081721620562494
l -0.0010453882594017433 0.0
l 0.0 0.0012410503961507624
l -0.0006460499443102774 0.0
"/>
  <path
    fill="none"
    stroke="black"
    stroke-width="0.01"
    d="
M 7.6864980417341195 0.7830427709355714
l 0.0 1.6108776615026117
l -1.0262422519424337 0.0
l 0.0 0.995522394808614
l -0.634217711700424 0.0
l 0.0 0.6152328399917235
l -0.3919465458308621 0.0
l 0.0 0.3802138951148851
l -0.24222296532347276 0.0
l 0.0 0.234972187180999
l -0.14969379256990614 0.0
l 0.0 0.14521281167785738
l -0.092510763808202 0.0
l 0.0 0.08974151761691587
l -0.05717165203346883 0.0
l 0.0 0.055460257887254005
l -0.035332080956683734 0.0
l 0.0 0.03427443937432297
l -0.021835226031230552 0.0
l 0.0 0.021181603533331594
l -0.013494169687300477 0.0
l 0.0 0.013090230983598926
l -0.008339396866751695 0.0
l 0.0 0.008089762747864136
l -0.005153747263652548 0.0
l 0.0 0.004999473378180037
l -0.003185015808937275 0.0
l 0.0 0.0030896745477152618
l -0.001968339769923236 0.0
l 0.0 0.0019094188704880319
l -0.00121643397781256 0.0
l 0.0 0.0011800208619616038
l -0.0007517561982881621 0.0
"/>
  <path
    fill="none"
    stroke="black"
    stroke-width="0.01"
    d="
M 8.043807145043603 1.0332332985438244
l 0.0 1.515304879956259
l -1.1627343294066563 0.0
l 0.0 0.9364584158129681
l -0.7185698155733136 0.0
l 0.0 0.5787313009724143
l -0.4440761460243079 0.0
l 0.0 0.35765594400095213
l -0.2744390582430223 0.0
l 0.0 0.22103137339258838
l -0.16960333799418775 0.0
l 0.0 0.13659738875661961
l -0.10481486288040803 0.0
l 0.0 0.08441718625159092
l -0.06477558526009215 0.0
l 0.0 0.052169821103483185
l -0.040031311690736954 0.0
l 0.0 0.03224094944195261
l -0.02473935062487543 0.0
l 0.0 0.01992490675512671
l -0.01528891868617302 0.0
l 0.0 0.012313592374668308
l -0.009448551748054925 0.0
l 0.0 0.007609800087545016
l -0.005839204980297942 0.0
l 0.0 0.00470285645410282
l -0.0036086286778241293 0.0
l 0.0 0.0029063652886355427
l -0.002230132522895312 0.0
l 0.0 0.0017961337483767652
l -0.0013782218991493025 0.0
l 0.0 0.0011100106564968406
l -0.0008517411336742692 0.0
"/>
  <path
    fill="none"
    stroke="black"
    stroke-width="0.01"
    d="
M 8.3779510380783 1.3136133159493788
l 0.0 1.4081997133073374
l -1.2903772965459108 0.0
l 0.0 0.8702674228239344
l -0.797453169265373 0.0
l 0.0 0.5378252673051914
l -0.4928260586060005 0.0
l 0.0 0.33237601519460835
l -0.30456650421850834 0.0
l 0.0 0.20540837739026796
l -0.18822209960703812 0.0
l 0.0 0.12694237722718557
l -0.11632125755714959 0.0
l 0.0 0.0784503891264007
l -0.07188653717031844 0.0
l 0.0 0.04848234048011563
l -0.0444258799712568 0.0
l 0.0 0.029962086416711456
l -0.027455193822236698 0.0
l 0.0 0.01851656940552768
l -0.016967309782142278 0.0
l 0.0 0.011443239892616107
l -0.010485797445363928 0.0
l 0.0 0.0070719222536367535
l -0.0064802228212349055 0.0
l 0.0 0.004370447952747513
l -0.004004777703523171 0.0
l 0.0 0.0027009368347979635
l -0.00247495262077732 0.0
l 0.0 0.001669178963905141
l -0.001529520719640384 0.0
l 0.0 0.0010315525996933772
l -0.0009452438047377572 0.0
"/>
  <path
    fill="none"
    stroke="black"
    stroke-width="0.01"
    d="
M 8.68638668405062 1.6220489619216978
l 0.0 1.2903772965459113
l -1.4081997133073365 0.0
l 0.0 0.7974531692653735
l -0.870267422823934 0.0
l 0.0 0.4928260586060007
l -0.5378252673051913 0.0
l 0.0 0.3045665042185084
l -0.33237601519460824 0.0
l 0.0 0.18822209960703823
l -0.20540837739026785 0.0
l 0.0 0.11632125755714962
l -0.12694237722718554 0.0
l 0.0 0.07188653717031845
l -0.07845038912640068 0.0
l 0.0 0.0444258799712568
l -0.0484823404801156 0.0
l 0.0 0.027455193822236698
l -0.02996208641671145 0.0
l 0.0 0.01696730978214228
l -0.018516569405527674 0.0
l 0.0 0.010485797445363931
l -0.0114432398926161 0.0
l 0.0 0.006480222821234909
l -0.00707192225363675 0.0
l 0.0 0.004004777703523173
l -0.0043704479527475115 0.0
l 0.0 0.002474952620777321
l -0.0027009368347979627 0.0
l 0.0 0.001529520719640384
l -0.001669178963905141 0.0
l 0.0 0.0009452438047377577
l -0.0010315525996933768 0.0
"/>
  <path
    fill="none"
    stroke="black"
    stroke-width="0.01"
    d="
M 8.966766701456175 1.9561928549563956
l 0.0 1.162734329406657
l -1.515304879956259 0.0
l 0.0 0.718569815573314
l -0.9364584158129678 0.0
l 0.0 0.444076146024308
l -0.5787313009724141 0.0
l 0.0 0.2744390582430223
l -0.3576559440009519 0.0
l 0.0 0.1696033379941878
l -0.22103137339258827 0.0
l 0.0 0.10481486288040803
l -0.13659738875661956 0.0
l 0.0 0.06477558526009217
l -0.08441718625159089 0.0
l 0.0 0.04003131169073697
l -0.05216982110348317 0.0
l 0.0 0.024739350624875443
l -0.032240949441952604 0.0
l 0.0 0.015288918686173023
l -0.01992490675512671 0.0
l 0.0 0.009448551748054928
l -0.012313592374668308 0.0
l 0.0 0.005839204980297946
l -0.007609800087545013 0.0
l 0.0 0.00360862867782413
l -0.004702856454102818 0.0
l 0.0 0.0022301325228953127
l -0.002906365288635542 0.0
l 0.0 0.0013782218991493034
l -0.0017961337483767647 0.0
l 0.0 0.0008517411336742694
l -0.0011100106564968404 0.0
"/>
  <path
    fill="none"
    stroke="black"
    stroke-width="0.01"
    d="
M 9.216957229064427 2.3135019582658787
l 0.0 1.0262422519424343
l -1.6108776615026112 0.0
l 0.0 0.6342177117004244
l -0.9955223948086138 0.0
l 0.0 0.3919465458308623
l -0.6152328399917234 0.0
l 0.0 0.24222296532347293
l -0.3802138951148851 0.0
l 0.0 0.14969379256990625
l -0.23497218718099894 0.0
l 0.0 0.09251076380820206
l -0.14521281167785735 0.0
l 0.0 0.05717165203346887
l -0.08974151761691584 0.0
l 0.0 0.03533208095668376
l -0.055460257887254005 0.0
l 0.0 0.021835226031230566
l -0.03427443937432297 0.0
l 0.0 0.013494169687300488
l -0.021181603533331594 0.0
l 0.0 0.008339396866751702
l -0.013090230983598926 0.0
l 0.0 0.005153747263652553
l -0.008089762747864136 0.0
l 0.0 0.0031850158089372768
l -0.004999473378180037 0.0
l 0.0 0.0019683397699232375
l -0.0030896745477152618 0.0
l 0.0 0.0012164339778125608
l -0.0019094188704880319 0.0
l 0.0 0.0007517561982881625
l -0.0011800208619616038 0.0
"/>
  <path
    fill="none"
    stroke="black"
    stroke-width="0.01"
    d="
M 9.43505416589111 2.6912569338248318
l 0.0 0.8819398512789143
l -1.6941906913704035 0.0
l 0.0 0.545038828090369
l -1.0470098472669096 0.0
l 0.0 0.33683399575984807
l -0.6470520856109501 0.0
l 0.0 0.2081634093795861
l -0.3998781889075671 0.0
l 0.0 0.12864498699658422
l -0.24712472074487646 0.0
l 0.0 0.07950260196388903
l -0.15272307742033364 0.0
l 0.0 0.049132608013683424
l -0.09438286184576619 0.0
l 0.0 0.03036395175245636
l -0.05832860862068351 0.0
l 0.0 0.018764922183018028
l -0.03604708012758241 0.0
l 0.0 0.011596721909105143
l -0.022277095518845928 0.0
l 0.0 0.007166774139826977
l -0.013767245030646785 0.0
l 0.0 0.004429066418413071
l -0.008508157428939714 0.0
l 0.0 0.0027371630465792777
l -0.005258041291084743 0.0
l 0.0 0.001691566762785994
l -0.003249469517890371 0.0
l 0.0 0.0010453882594017442
l -0.0020081721620562494 0.0
l 0.0 0.0006460499443102779
l -0.0012410503961507624 0.0
"/>
  <path
    fill="none"
    stroke="black"
    stroke-width="0.01"
    d="
M 9.619397662556434 3.086582838174552
l 0.0 0.730925355817321
l -1.764609907096558 0.0
l 0.0 0.4517118698951045
l -1.0905289225856727 0.0
l 0.0 0.27915793559517454
l -0.6739468741579457 0.0
l 0.0 0.17251960419781787
l -0.4164991682296104 0.0
l 0.0 0.10661711539425145
l -0.2573964859658992 0.0
l 0.0 0.0658893773136474
l -0.1590710283269257 0.0
l 0.0 0.040719635179834096
l -0.09830589550604008 0.0
l 0.0 0.02516473454113747
l -0.06075304342273277 0.0
l 0.0 0.015551805946422952
l -0.03754538083524885 0.0
l 0.0 0.009611016074889386
l -0.02320304535618379 0.0
l 0.0 0.005939607934281639
l -0.01433948203012158 0.0
l 0.0 0.003670677703386054
l -0.008861799894615137 0.0
l 0.0 0.002268478820692581
l -0.005476592334872155 0.0
l 0.0 0.001401919911188015
l -0.0033845340629509914 0.0
l 0.0 0.0008663865051141935
l -0.002091642050903713 0.0
l 0.0 0.0005354268601605715
l -0.0012926347874584946 0.0
"/>
  <path
    fill="none"
    stroke="black"
    stroke-width="0.01"
    d="
M 9.768584753741134 3.4964710024786307
l 0.0 0.574348077053163
l -1.8215993759291131 0.0
l 0.0 0.3549471116188547
l -1.1257484143241916 0.0
l 0.0 0.2193573149804523
l -0.6957125200523504 0.0
l 0.0 0.1355628206579195
l -0.42995033739235267 0.0
l 0.0 0.08377782316659424
l -0.2657093085084739 0.0
l 0.0 0.05177469471695524
l -0.16420835265823686 0.0
l 0.0 0.03199676133507834
l -0.1014807619427904 0.0
l 0.0 0.019773998505078418
l -0.06271511088064446 0.0
l 0.0 0.012220331076138461
l -0.03875793852423828 0.0
l 0.0 0.007552164605053568
l -0.02395240600797925 0.0
l 0.0 0.004667237725923105
l -0.014802586912931182 0.0
l 0.0 0.002884352914620479
l -0.009147998712191468 0.0
l 0.0 0.0017825301012354558
l -0.005653463204134328 0.0
l 0.0 0.0011016036025635117
l -0.0034938402601550145 0.0
l 0.0 0.0006807910263842503
l -0.0021591932807757987 0.0
l 0.0 0.00042072885430546663
l -0.0013343814475194437 0.0
"/>
  <path
    fill="none"
    stroke="black"
    stroke-width="0.01"
    d="
M 9.881480035599667 3.9178019303094853
l 0.0 0.4133996626217765
l -1.864725373599073 0.0
l 0.0 0.2554809915002579
l -1.1524002808842269 0.0
l 0.0 0.15788725274715937
l -0.7121833735864522 0.0
l 0.0 0.0975743221977445
l -0.44012932487642753 0.0
l 0.0 0.0603009311182061
l -0.2719999227736322 0.0
l 0.0 0.037265975431051375
l -0.16809595227410468 0.0
l 0.0 0.023030372816389748
l -0.10388329850539671 0.0
l 0.0 0.014232770400528866
l -0.06419987847633517 0.0
l 0.0 0.008795852107526838
l -0.03967552489837513 0.0
l 0.0 0.005435836602451586
l -0.02451947438719583 0.0
l 0.0 0.00335934702031508
l -0.015153035171287025 0.0
l 0.0 0.0020760764585547194
l -0.009364575735855382 0.0
l 0.0 0.0012830152513868165
l -0.005787307804758626 0.0
l 0.0 0.0007929034253570527
l -0.00357655622334083 0.0
l 0.0 0.0004900143168706586
l -0.002210311746024633 0.0
l 0.0 0.00030282884782606705
l -0.0013659726590432232 0.0
"/>
  <path
    fill="none"
    stroke="black"
    stroke-width="0.01"
    d="
M 9.957224306869051 4.347369038899742
l 0.0 0.24930502714029873
l -1.893659685223978 0.0
l 0.0 0.15407050677270462
l -1.1702816854684184 0.0
l 0.0 0.09521557318553145
l -0.7232340816194824 0.0
l 0.0 0.058843224228658425
l -0.44695866244084015 0.0
l 0.0 0.036365112573310904
l -0.27622045338843926 0.0
l 0.0 0.02247363957030614
l -0.17070424019405545 0.0
l 0.0 0.013888709254449197
l -0.10549522043992626 0.0
l 0.0 0.008583222319249602
l -0.06519604623187443 0.0
l 0.0 0.005304431393296255
l -0.04029115657129839 0.0
l 0.0 0.003278138601057085
l -0.024899934761062406 0.0
l 0.0 0.002025889655453279
l -0.015388159682336568 0.0
l 0.0 0.0012519998070701262
l -0.009509882683683999 0.0
l 0.0 0.0007737358807693381
l -0.005877107498516712 0.0
l 0.0 0.000478168774315451
l -0.0036320524340833285 0.0
l 0.0 0.0002955083025269487
l -0.0022446084042634967 0.0
l 0.0 0.00018262413096165427
l -0.0013871679938348407 0.0
"/>
  <path
    fill="none"
    stroke="black"
    stroke-width="0.01"
    d="
M 9.995241107909289 4.781903063173323
l 0.0 0.08331302986779043
l -1.9081821032213484 0.0
l 0.0 0.05148745245829449
l -1.1792565397907933 0.0
l 0.0 0.03181924561922599
l -0.7287805415907103 0.0
l 0.0 0.019664293792681663
l -0.45038637470305887 0.0
l 0.0 0.012152533563877268
l -0.27833877956649034 0.0
l 0.0 0.007510265742476152
l -0.17201336577209103 0.0
l 0.0 0.004641344228850261
l -0.10630426004715227 0.0
l 0.0 0.0028683507334294617
l -0.0656960327091401 0.0
l 0.0 0.001772640753259407
l -0.04060014821424858 0.0
l 0.0 0.0010954919855143135
l -0.025090891596405623 0.0
l 0.0 0.0006770140470478457
l -0.015506171006578678 0.0
l 0.0 0.00041839468107556866
l -0.009582813682065622 0.0
l 0.0 0.00025856791290470145
l -0.005922178855516554 0.0
l 0.0 0.00015979497017510545
l -0.003659906532709231 0.0
l 0.0 9.875329156821519e-05
l -0.0022618222372143043 0.0
l 0.0 6.1029534189156994e-05
l -0.0013978061425984401 0.0
"/>
</svg>
