<svg id="svg_css_ex1" viewBox="0 0 10 10" 
   height="20cm"
   width="20cm"
   xmlns="http://www.w3.org/2000/svg">
  <path
    fill="none"
    stroke="black"
    stroke-width="0.01"
    d="
M 9.999238475781956 5.087262032186418
l 0.0 -0.03333409629521151
l -1.9097090977487072 0.0
l 0.0 -0.020600471510440713
l -1.1802002224087011 0.0
l 0.0 -0.012731091393452361
l -0.7293637374485773 0.0
l 0.0 -0.00786781448115356
l -0.4507467897432207 0.0
l 0.0 -0.0048623093493528995
l -0.2785615160613104 0.0
l 0.0 -0.0030049071779000916
l -0.17215101692588985 0.0
l 0.0 -0.001857032635942257
l -0.10638932846019991 0.0
l 0.0 -0.0011476461690123148
l -0.06574860498840354 0.0
"/>
  <path
    fill="none"
    stroke="black"
    stroke-width="0.01"
    d="
M 9.993147673772869 5.261679781214719
l 0.0 -0.0999616764240227
l -1.9073824113812359 0.0
l 0.0 -0.06177631603004603
l -1.1787623302336039 0.0
l 0.0 -0.03817776330656845
l -0.7284751200843671 0.0
l 0.0 -0.023593857723459302
l -0.45019762421213894 0.0
l 0.0 -0.014581004073097849
l -0.2782221317631019 0.0
l 0.0 -0.009011060517174471
l -0.17194127742959697 0.0
l 0.0 -0.005568835399613824
l -0.10625970945149091 0.0
l 0.0 -0.0034415402769613426
l -0.06566850044102139 0.0
"/>
  <path
    fill="none"
    stroke="black"
    stroke-width="0.01"
    d="
M 9.980973490458727 5.435778713738291
l 0.0 -0.16646746864802708
l -1.902731873355234 0.0
l 0.0 -0.10287689562448074
l -1.1758882977335345 0.0
l 0.0 -0.0635779214959291
l -0.7266989679993243 0.0
l 0.0 -0.03929115548448418
l -0.4490999622235824 0.0
l 0.0 -0.024281934089411226
l -0.27754377665417396 0.0
l 0.0 -0.015006235267256134
l -0.1715220539722795 0.0
l 0.0 -0.009273853395164292
l -0.1060006293548687 0.0
l 0.0 -0.005731241398211533
l -0.06550838894130886 0.0
"/>
  <path
    fill="none"
    stroke="black"
    stroke-width="0.01"
    d="
M 9.962730758206611 5.609346717025737
l 0.0 -0.23277044590383167
l -1.895763149634925 0.0
l 0.0 -0.143852135568568
l -1.1715816264743837 0.0
l 0.0 -0.088900619781375
l -0.7240374451611691 0.0
l 0.0 -0.05494058302488976
l -0.4474551411096025 0.0
l 0.0 -0.03395328030938188
l -0.2765272772057344 0.0
l 0.0 -0.020983127231197995
l -0.17089385731314383 0.0
l 0.0 -0.012967572628880365
l -0.10561240381952289 0.0
l 0.0 -0.008013959884648064
l -0.06526846556046516 0.0
"/>
  <path
    fill="none"
    stroke="black"
    stroke-width="0.01"
    d="
M 9.93844170297569 5.782172325201154
l 0.0 -0.29878982822684097
l -1.8864847305367132 0.0
l 0.0 -0.18465211384418773
l -1.165847563471689 0.0
l 0.0 -0.11411500635570798
l -0.7204937942255036 0.0
l 0.0 -0.07052307392782754
l -0.44526516483136136 0.0
l 0.0 -0.043583259687397416
l -0.2751738718657813 0.0
l 0.0 -0.0269344544868116
l -0.17005745281305285 0.0
l 0.0 -0.01664549287284957
l -0.10509550583846664 0.0
l 0.0 -0.010286914595421037
l -0.06494902260817238 0.0
"/>
  <path
    fill="none"
    stroke="black"
    stroke-width="0.01"
    d="
M 9.908135917238319 5.954044976882724
l 0.0 -0.36444518116920055
l -1.8749079203850383 0.0
l 0.0 -0.225227121962566
l -1.1586930947979535 0.0
l 0.0 -0.13919036137286578
l -0.7160723325851353 0.0
l 0.0 -0.08601964332843104
l -0.4425327015376136 0.0
l 0.0 -0.05316013957697038
l -0.2734852095502452 0.0
l 0.0 -0.03285296625856769
l -0.16901385950205156 0.0
l 0.0 -0.020303133147794833
l -0.10445056517226786 0.0
l 0.0 -0.012547336285337208
l -0.06455044927646153 0.0
"/>
  <path
    fill="none"
    stroke="black"
    stroke-width="0.01"
    d="
M 9.871850323926175 6.124755271719325
l 0.0 -0.42965651379678216
l -1.861046823739799 0.0
l 0.0 -0.26552772552641135
l -1.150126937071196 0.0
l 0.0 -0.16409613437532222
l -0.7107784471099992 0.0
l 0.0 -0.10141141104394913
l -0.4392610803139795 0.0
l 0.0 -0.06267225202516057
l -0.2714633476340393 0.0
l 0.0 -0.03873145175154924
l -0.16776434883783625 0.0
l 0.0 -0.023936037182457424
l -0.10367836758178281 0.0
l 0.0 -0.014792470978758687
l -0.06407323116554178 0.0
"/>
  <path
    fill="none"
    stroke="black"
    stroke-width="0.01"
    d="
M 9.82962913144534 6.294095225512604
l 0.0 -0.4943443761458146
l -1.8449183282121204 0.0
l 0.0 -0.30550482445811344
l -1.1401595268350904 0.0
l 0.0 -0.18880198151511407
l -0.704618587584086 0.0
l 0.0 -0.11667962457634051
l -0.4354542871269651 0.0
l 0.0 -0.07210800798817844
l -0.2691107494444644 0.0
l 0.0 -0.04456274893669428
l -0.16631044315667898 0.0
l 0.0 -0.027539778842877068
l -0.10277985387082761 0.0
l 0.0 -0.017019583324898026
l -0.06351794969217146 0.0
"/>
  <path
    fill="none"
    stroke="black"
    stroke-width="0.01"
    d="
M 9.781523779815178 6.461858523613683
l 0.0 -0.5584299560204272
l -1.8265420838893975 0.0
l 0.0 -0.3451097128206241
l -1.1288030078436477 0.0
l 0.0 -0.21327780252314565
l -0.6976002588473742 0.0
l 0.0 -0.131805681959304
l -0.4311169599676773 0.0
l 0.0 -0.08145591145084988
l -0.2664302812600246 0.0
l 0.0 -0.05033975327662521
l -0.1646539138186952 0.0
l 0.0 -0.03110996752495438
l -0.10175611873995363 0.0
l 0.0 -0.019225959930421806
l -0.06288528138129133 0.0
"/>
  <path
    fill="none"
    stroke="black"
    stroke-width="0.01"
    d="
M 9.727592877996585 6.627840772285783
l 0.0 -0.6218351750131692
l -1.8059404793946952 0.0
l 0.0 -0.3842941381581386
l -1.1160712162659217 0.0
l 0.0 -0.2374937773817296
l -0.6897320116523395 0.0
l 0.0 -0.1467711544219089
l -0.42625438320114595 0.0
l 0.0 -0.09070457343273972
l -0.26342520881830817 0.0
l 0.0 -0.05605542638143314
l -0.1627967790497144 0.0
l 0.0 -0.03464225350372568
l -0.10060840945272351 0.0
l 0.0 -0.021408912665302468
l -0.06217599704178314 0.0
"/>
  <path
    fill="none"
    stroke="black"
    stroke-width="0.01"
    d="
M 9.66790213248601 6.791839747726502
l 0.0 -0.6844827836315235
l -1.7831386146096553 0.0
l 0.0 -0.4230103602842815
l -1.1019796638287669 0.0
l 0.0 -0.261420402655686
l -0.6810234322461781 0.0
l 0.0 -0.16155780884121396
l -0.420872481128138 0.0
l 0.0 -0.09984272586387022
l -0.2600991933371893 0.0
l 0.0 -0.0617028045838718
l -0.16074130148238297 0.0
l 0.0 -0.03813233323283277
l -0.09933812431611266 0.0
l 0.0 -0.023565781937890648
l -0.06139096082735762 0.0
"/>
  <path
    fill="none"
    stroke="black"
    stroke-width="0.01"
    d="
M 9.6025242672622 6.9536556424463685
l 0.0 -0.7462964554145128
l -1.758164270094161 0.0
l 0.0 -0.4612112094461689
l -1.0865455189181914 0.0
l 0.0 -0.2850285274377323
l -0.6714851306914424 0.0
l 0.0 -0.17614762995651861
l -0.41497781076731133 0.0
l 0.0 -0.10885923531312847
l -0.2564562870541984 0.0
l 0.0 -0.0672750074235134
l -0.1584899853994946 0.0
l 0.0 -0.04157595458773128
l -0.09794681097688768 0.0
l 0.0 -0.02569393993521793
l -0.06053112918371659 0.0
"/>
  <path
    fill="none"
    stroke="black"
    stroke-width="0.01"
    d="
M 9.53153893518325 7.113091308703497
l 0.0 -0.8072008799247359
l -1.7310478732400014 0.0
l 0.0 -0.4988501437934869
l -1.0697875856623207 0.0
l 0.0 -0.30828938886437485
l -0.6611287279393143 0.0
l 0.0 -0.19052284231818367
l -0.4085775538664962 0.0
l 0.0 -0.1177431165526375
l -0.2525009282894946 0.0
l 0.0 -0.07276524602952997
l -0.15604557368290767 0.0
l 0.0 -0.044968922046249526
l -0.09643616453603693 0.0
l 0.0 -0.027790793824582202
l -0.059597549683270815 0.0
"/>
  <path
    fill="none"
    stroke="black"
    stroke-width="0.01"
    d="
M 9.45503262094184 7.269952498697734
l 0.0 -0.8671218545025345
l -1.7018224611997828 0.0
l 0.0 -0.5358813060825662
l -1.0517262810214656 0.0
l 0.0 -0.331174647159026
l -0.6499668416712658 0.0
l 0.0 -0.204665931944278
l -0.40167950815284226 0.0
l 0.0 -0.12648354594156383
l -0.2482379360384565 0.0
l 0.0 -0.07816683139188646
l -0.1534110444717661 0.0
l 0.0 -0.048307101800185825
l -0.09480802548355144 0.0
l 0.0 -0.029853788912514834
l -0.058591359748834795 0.0
"/>
  <path
    fill="none"
    stroke="black"
    stroke-width="0.01"
    d="
M 9.373098535696979 7.424048101231685
l 0.0 -0.9259863746705037
l -1.670523640636246 0.0
l 0.0 -0.5722595795463713
l -1.0323836099132 0.0
l 0.0 -0.3536564201596575
l -0.6380130709263576 0.0
l 0.0 -0.21855966765866836
l -0.394292077832489 0.0
l 0.0 -0.13506987461305703
l -0.2436725041004782 0.0
l 0.0 -0.08347318251086924
l -0.1505896075340955 0.0
l 0.0 -0.051586426791717196
l -0.09306437745607102 0.0
l 0.0 -0.031880411757281235
l -0.05751378526785189 0.0
"/>
  <path
    fill="none"
    stroke="black"
    stroke-width="0.01"
    d="
M 9.285836503510563 7.575190374550271
l 0.0 -0.9837227230782035
l -1.6371895443410347 0.0
l 0.0 -0.6079406428623297
l -1.0117831384027594 0.0
l 0.0 -0.3757073172889198
l -0.6252819795329054 0.0
l 0.0 -0.2321871220845524
l -0.3864242633513354 0.0
l 0.0 -0.14349164144825338
l -0.2388101947511253 0.0
l 0.0 -0.08867783441502061
l -0.14758470035619545 0.0
l 0.0 -0.05480290166848273
l -0.0912073448201288 0.0
l 0.0 -0.03386819323112233
l -0.0563661390988396 0.0
"/>
  <path
    fill="none"
    stroke="black"
    stroke-width="0.01"
    d="
M 9.19335283972712 7.723195175075135
l 0.0 -1.0402605568787018
l -1.6018607847757602 0.0
l 0.0 -0.6428810241510376
l -0.9899499649914196 0.0
l 0.0 -0.3973004729253412
l -0.6117890783646974 0.0
l 0.0 -0.24553169226786087
l -0.378085650429383 0.0
l 0.0 -0.15173858582153804
l -0.2336569319653587 0.0
l 0.0 -0.09377444603771051
l -0.14439998395459167 0.0
l 0.0 -0.05795260765130508
l -0.08923919008393763 0.0
l 0.0 -0.03581471152850654
l -0.05514981947187346 0.0
"/>
  <path
    fill="none"
    stroke="black"
    stroke-width="0.01"
    d="
M 9.095760221444959 7.86788218175523
l 0.0 -1.095530993430498
l -1.5645804045919744 0.0
l 0.0 -0.6770381539400476
l -0.9669106900378399 0.0
l 0.0 -0.4184095791349496
l -0.5975508064433851 0.0
l 0.0 -0.2585771199053988
l -0.36928639838201205 0.0
l 0.0 -0.15980066010153648
l -0.2282189942000834 0.0
l 0.0 -0.09875680794274952
l -0.14103933841565156 0.0
l 0.0 -0.061031707308619204
l -0.08716231114087267 0.0
l 0.0 -0.03771759511672667
l -0.0538663082850593 0.0
"/>
  <path
    fill="none"
    stroke="black"
    stroke-width="0.01"
    d="
M 8.993177550236464 8.009075115760242
l 0.0 -1.1494666942204124
l -1.5253938241903295 0.0
l 0.0 -0.7103704170282148
l -0.9426933833496234 0.0
l 0.0 -0.43900891772343675
l -0.5825845109100672 0.0
l 0.0 -0.2713075111530839
l -0.36003722774242164 0.0
l 0.0 -0.1676680418926058
l -0.22250300674481654 0.0
l 0.0 -0.10361884988963041
l -0.1375068581682966 0.0
l 0.0 -0.06403644923179158
l -0.0849792383480073 0.0
l 0.0 -0.0395745256252472
l -0.05251716929906852 0.0
"/>
  <path
    fill="none"
    stroke="black"
    stroke-width="0.01"
    d="
M 8.885729807284854 8.146601955249187
l 0.0 -1.2020019469051895
l -1.4843487863828146 0.0
l 0.0 -0.7428372031874071
l -0.9173275499845792 0.0
l 0.0 -0.4590733915698175
l -0.56690842589047 0.0
l 0.0 -0.2837073559901472
l -0.3503494072003105 0.0
l 0.0 -0.17533114600191096
l -0.21651593364979183 0.0
l 0.0 -0.10835464822918098
l -0.13380684699557135 0.0
l 0.0 -0.06696317260563385
l -0.08269263144326311 0.0
l 0.0 -0.04138324067028172
l -0.051104046231936595 0.0
"/>
  <path
    fill="none"
    stroke="black"
    stroke-width="0.01"
    d="
M 8.77354790111386 8.280295144952536
l 0.0 -1.2530727453718686
l -1.4414952982254947 0.0
l 0.0 -0.7743989566398148
l -0.8908440943033555 0.0
l 0.0 -0.47857855520340564
l -0.5505416502794738 0.0
l 0.0 -0.2957615471157047
l -0.3402347398727148 0.0
l 0.0 -0.1827806361175055
l -0.21026506924133775 0.0
l 0.0 -0.1129584331206184
l -0.12994381279114675 0.0
l 0.0 -0.06980831166854216
l -0.08030527630492867 0.0
l 0.0 -0.04314153661115906
l -0.049628660756445925 0.0
"/>
  <path
    fill="none"
    stroke="black"
    stroke-width="0.01"
    d="
M 8.656768508095853 8.409991800312493
l 0.0 -1.3026168677193724
l -1.396885570092616 0.0
l 0.0 -0.805017224250572
l -0.8632752823172365 0.0
l 0.0 -0.4975006445868534
l -0.5335041244720522 0.0
l 0.0 -0.3074553983546754
l -0.3297055489237283 0.0
l 0.0 -0.19000743618318938
l -0.20375802923486408 0.0
l 0.0 -0.11742459556121107
l -0.125922462067146 0.0
l 0.0 -0.07256840005682844
l -0.07782008155749623 0.0
l 0.0 -0.04484727123511997
l -0.04809281040253266 0.0
"/>
  <path
    fill="none"
    stroke="black"
    stroke-width="0.01"
    d="
M 8.535533905932738 8.535533905932738
l 0.0 -1.3505739520663056
l -1.350573952066306 0.0
l 0.0 -0.834654702376977
l -0.834654702376977 0.0
l 0.0 -0.5158166060689717
l -0.5158166060689717 0.0
l 0.0 -0.3187746625506245
l -0.3187746625506245 0.0
l 0.0 -0.19700274145628593
l -0.19700274145628593 0.0
l 0.0 -0.12174769421998471
l -0.12174769421998471 0.0
l 0.0 -0.07524007502795055
l -0.07524007502795055 0.0
l 0.0 -0.04649836636727345
l -0.04649836636727345 0.0
"/>
  <path
    fill="none"
    stroke="black"
    stroke-width="0.01"
    d="
M 8.409991800312493 8.656768508095851
l 0.0 -1.3968855700926155
l -1.3026168677193724 0.0
l 0.0 -0.8632752823172365
l -0.805017224250572 0.0
l 0.0 -0.5335041244720521
l -0.4975006445868534 0.0
l 0.0 -0.32970554892372816
l -0.3074553983546754 0.0
l 0.0 -0.20375802923486397
l -0.19000743618318938 0.0
l 0.0 -0.12592246206714594
l -0.11742459556121107 0.0
l 0.0 -0.0778200815574962
l -0.07256840005682844 0.0
l 0.0 -0.048092810402532646
l -0.04484727123511997 0.0
"/>
  <path
    fill="none"
    stroke="black"
    stroke-width="0.01"
    d="
M 8.280295144952536 8.77354790111386
l 0.0 -1.4414952982254947
l -1.253072745371869 0.0
l 0.0 -0.8908440943033555
l -0.7743989566398148 0.0
l 0.0 -0.5505416502794738
l -0.47857855520340564 0.0
l 0.0 -0.3402347398727148
l -0.2957615471157047 0.0
l 0.0 -0.21026506924133775
l -0.1827806361175055 0.0
l 0.0 -0.12994381279114675
l -0.1129584331206184 0.0
l 0.0 -0.08030527630492867
l -0.06980831166854216 0.0
l 0.0 -0.049628660756445925
l -0.04314153661115906 0.0
"/>
  <path
    fill="none"
    stroke="black"
    stroke-width="0.01"
    d="
M 8.146601955249189 8.885729807284854
l 0.0 -1.4843487863828142
l -1.2020019469051897 0.0
l 0.0 -0.9173275499845792
l -0.7428372031874073 0.0
l 0.0 -0.56690842589047
l -0.45907339156981763 0.0
l 0.0 -0.3503494072003105
l -0.28370735599014735 0.0
l 0.0 -0.21651593364979183
l -0.17533114600191102 0.0
l 0.0 -0.13380684699557135
l -0.10835464822918103 0.0
l 0.0 -0.08269263144326311
l -0.06696317260563388 0.0
l 0.0 -0.051104046231936595
l -0.041383240670281735 0.0
"/>
  <path
    fill="none"
    stroke="black"
    stroke-width="0.01"
    d="
M 8.009075115760242 8.993177550236464
l 0.0 -1.5253938241903295
l -1.1494666942204124 0.0
l 0.0 -0.9426933833496234
l -0.7103704170282148 0.0
l 0.0 -0.5825845109100672
l -0.43900891772343675 0.0
l 0.0 -0.36003722774242164
l -0.2713075111530839 0.0
l 0.0 -0.22250300674481654
l -0.1676680418926058 0.0
l 0.0 -0.1375068581682966
l -0.10361884988963041 0.0
l 0.0 -0.0849792383480073
l -0.06403644923179158 0.0
l 0.0 -0.05251716929906852
l -0.0395745256252472 0.0
"/>
  <path
    fill="none"
    stroke="black"
    stroke-width="0.01"
    d="
M 7.86788218175523 9.095760221444959
l 0.0 -1.5645804045919744
l -1.095530993430498 0.0
l 0.0 -0.9669106900378399
l -0.6770381539400476 0.0
l 0.0 -0.5975508064433851
l -0.4184095791349496 0.0
l 0.0 -0.36928639838201205
l -0.2585771199053988 0.0
l 0.0 -0.2282189942000834
l -0.15980066010153648 0.0
l 0.0 -0.14103933841565156
l -0.09875680794274952 0.0
l 0.0 -0.08716231114087267
l -0.061031707308619204 0.0
l 0.0 -0.0538663082850593
l -0.03771759511672667 0.0
"/>
  <path
    fill="none"
    stroke="black"
    stroke-width="0.01"
    d="
M 7.723195175075135 9.193352839727119
l 0.0 -1.6018607847757598
l -1.0402605568787018 0.0
l 0.0 -0.9899499649914196
l -0.6428810241510376 0.0
l 0.0 -0.6117890783646972
l -0.3973004729253412 0.0
l 0.0 -0.3780856504293829
l -0.24553169226786087 0.0
l 0.0 -0.23365693196535864
l -0.15173858582153804 0.0
l 0.0 -0.14439998395459164
l -0.09377444603771051 0.0
l 0.0 -0.08923919008393763
l -0.05795260765130508 0.0
l 0.0 -0.055149819471873446
l -0.03581471152850654 0.0
"/>
  <path
    fill="none"
    stroke="black"
    stroke-width="0.01"
    d="
M 7.575190374550271 9.285836503510561
l 0.0 -1.6371895443410343
l -0.9837227230782037 0.0
l 0.0 -1.0117831384027591
l -0.6079406428623298 0.0
l 0.0 -0.6252819795329052
l -0.3757073172889198 0.0
l 0.0 -0.3864242633513354
l -0.23218712208455244 0.0
l 0.0 -0.2388101947511253
l -0.1434916414482534 0.0
l 0.0 -0.14758470035619545
l -0.08867783441502061 0.0
l 0.0 -0.0912073448201288
l -0.05480290166848274 0.0
l 0.0 -0.0563661390988396
l -0.03386819323112233 0.0
"/>
  <path
    fill="none"
    stroke="black"
    stroke-width="0.01"
    d="
M 7.424048101231685 9.373098535696979
l 0.0 -1.670523640636246
l -0.9259863746705039 0.0
l 0.0 -1.0323836099132
l -0.5722595795463714 0.0
l 0.0 -0.6380130709263576
l -0.3536564201596576 0.0
l 0.0 -0.394292077832489
l -0.21855966765866836 0.0
l 0.0 -0.2436725041004782
l -0.13506987461305703 0.0
l 0.0 -0.1505896075340955
l -0.08347318251086924 0.0
l 0.0 -0.09306437745607102
l -0.051586426791717196 0.0
l 0.0 -0.05751378526785189
l -0.031880411757281235 0.0
"/>
  <path
    fill="none"
    stroke="black"
    stroke-width="0.01"
    d="
M 7.269952498697734 9.45503262094184
l 0.0 -1.7018224611997828
l -0.8671218545025345 0.0
l 0.0 -1.0517262810214656
l -0.5358813060825662 0.0
l 0.0 -0.6499668416712658
l -0.331174647159026 0.0
l 0.0 -0.40167950815284226
l -0.204665931944278 0.0
l 0.0 -0.2482379360384565
l -0.12648354594156383 0.0
l 0.0 -0.1534110444717661
l -0.07816683139188646 0.0
l 0.0 -0.09480802548355144
l -0.048307101800185825 0.0
l 0.0 -0.058591359748834795
l -0.029853788912514834 0.0
"/>
  <path
    fill="none"
    stroke="black"
    stroke-width="0.01"
    d="
M 7.113091308703497 9.53153893518325
l 0.0 -1.7310478732400014
l -0.8072008799247359 0.0
l 0.0 -1.0697875856623207
l -0.4988501437934869 0.0
l 0.0 -0.6611287279393143
l -0.30828938886437485 0.0
l 0.0 -0.4085775538664962
l -0.19052284231818367 0.0
l 0.0 -0.2525009282894946
l -0.1177431165526375 0.0
l 0.0 -0.15604557368290767
l -0.07276524602952997 0.0
l 0.0 -0.09643616453603693
l -0.044968922046249526 0.0
l 0.0 -0.059597549683270815
l -0.027790793824582202 0.0
"/>
  <path
    fill="none"
    stroke="black"
    stroke-width="0.01"
    d="
M 6.953655642446369 9.6025242672622
l 0.0 -1.758164270094161
l -0.7462964554145133 0.0
l 0.0 -1.0865455189181914
l -0.4612112094461692 0.0
l 0.0 -0.6714851306914424
l -0.28502852743773255 0.0
l 0.0 -0.41497781076731133
l -0.17614762995651873 0.0
l 0.0 -0.2564562870541984
l -0.10885923531312855 0.0
l 0.0 -0.1584899853994946
l -0.06727500742351346 0.0
l 0.0 -0.09794681097688768
l -0.04157595458773132 0.0
l 0.0 -0.06053112918371659
l -0.02569393993521795 0.0
"/>
  <path
    fill="none"
    stroke="black"
    stroke-width="0.01"
    d="
M 6.7918397477265025 9.66790213248601
l 0.0 -1.7831386146096553
l -0.6844827836315237 0.0
l 0.0 -1.1019796638287669
l -0.42301036028428174 0.0
l 0.0 -0.6810234322461781
l -0.2614204026556861 0.0
l 0.0 -0.420872481128138
l -0.161557808841214 0.0
l 0.0 -0.2600991933371893
l -0.09984272586387025 0.0
l 0.0 -0.16074130148238297
l -0.06170280458387181 0.0
l 0.0 -0.09933812431611266
l -0.03813233323283277 0.0
l 0.0 -0.06139096082735762
l -0.023565781937890655 0.0
"/>
  <path
    fill="none"
    stroke="black"
    stroke-width="0.01"
    d="
M 6.627840772285784 9.727592877996583
l 0.0 -1.8059404793946947
l -0.6218351750131694 0.0
l 0.0 -1.1160712162659214
l -0.3842941381581386 0.0
l 0.0 -0.6897320116523395
l -0.23749377738172972 0.0
l 0.0 -0.42625438320114584
l -0.14677115442190897 0.0
l 0.0 -0.2634252088183081
l -0.09070457343273974 0.0
l 0.0 -0.1627967790497144
l -0.05605542638143314 0.0
l 0.0 -0.10060840945272351
l -0.034642253503725684 0.0
l 0.0 -0.062175997041783115
l -0.021408912665302475 0.0
"/>
  <path
    fill="none"
    stroke="black"
    stroke-width="0.01"
    d="
M 6.461858523613683 9.781523779815178
l 0.0 -1.8265420838893975
l -0.5584299560204272 0.0
l 0.0 -1.1288030078436477
l -0.3451097128206241 0.0
l 0.0 -0.6976002588473742
l -0.21327780252314565 0.0
l 0.0 -0.4311169599676773
l -0.131805681959304 0.0
l 0.0 -0.2664302812600246
l -0.08145591145084988 0.0
l 0.0 -0.1646539138186952
l -0.05033975327662521 0.0
l 0.0 -0.10175611873995363
l -0.03110996752495438 0.0
l 0.0 -0.06288528138129133
l -0.019225959930421806 0.0
"/>
  <path
    fill="none"
    stroke="black"
    stroke-width="0.01"
    d="
M 6.294095225512604 9.82962913144534
l 0.0 -1.8449183282121204
l -0.4943443761458146 0.0
l 0.0 -1.1401595268350904
l -0.30550482445811344 0.0
l 0.0 -0.704618587584086
l -0.18880198151511407 0.0
l 0.0 -0.4354542871269651
l -0.11667962457634051 0.0
l 0.0 -0.2691107494444644
l -0.07210800798817844 0.0
l 0.0 -0.16631044315667898
l -0.04456274893669428 0.0
l 0.0 -0.10277985387082761
l -0.027539778842877068 0.0
l 0.0 -0.06351794969217146
l -0.017019583324898026 0.0
"/>
  <path
    fill="none"
    stroke="black"
    stroke-width="0.01"
    d="
M 6.124755271719325 9.871850323926175
l 0.0 -1.861046823739799
l -0.42965651379678194 0.0
l 0.0 -1.150126937071196
l -0.2655277255264113 0.0
l 0.0 -0.7107784471099992
l -0.16409613437532217 0.0
l 0.0 -0.4392610803139795
l -0.1014114110439491 0.0
l 0.0 -0.2714633476340393
l -0.06267225202516054 0.0
l 0.0 -0.16776434883783625
l -0.03873145175154921 0.0
l 0.0 -0.10367836758178281
l -0.02393603718245741 0.0
l 0.0 -0.06407323116554178
l -0.014792470978758684 0.0
"/>
  <path
    fill="none"
    stroke="black"
    stroke-width="0.01"
    d="
M 5.954044976882725 9.908135917238319
l 0.0 -1.8749079203850383
l -0.36444518116920077 0.0
l 0.0 -1.1586930947979535
l -0.2252271219625661 0.0
l 0.0 -0.7160723325851353
l -0.13919036137286586 0.0
l 0.0 -0.4425327015376136
l -0.0860196433284311 0.0
l 0.0 -0.2734852095502452
l -0.05316013957697041 0.0
l 0.0 -0.16901385950205156
l -0.03285296625856771 0.0
l 0.0 -0.10445056517226786
l -0.020303133147794847 0.0
l 0.0 -0.06455044927646153
l -0.012547336285337218 0.0
"/>
  <path
    fill="none"
    stroke="black"
    stroke-width="0.01"
    d="
M 5.782172325201155 9.93844170297569
l 0.0 -1.8864847305367132
l -0.2987898282268411 0.0
l 0.0 -1.165847563471689
l -0.18465211384418778 0.0
l 0.0 -0.7204937942255036
l -0.11411500635570807 0.0
l 0.0 -0.44526516483136136
l -0.07052307392782757 0.0
l 0.0 -0.2751738718657813
l -0.043583259687397444 0.0
l 0.0 -0.17005745281305285
l -0.026934454486811615 0.0
l 0.0 -0.10509550583846664
l -0.01664549287284958 0.0
l 0.0 -0.06494902260817238
l -0.01028691459542104 0.0
"/>
  <path
    fill="none"
    stroke="black"
    stroke-width="0.01"
    d="
M 5.609346717025737 9.962730758206611
l 0.0 -1.895763149634925
l -0.23277044590383167 0.0
l 0.0 -1.1715816264743837
l -0.143852135568568 0.0
l 0.0 -0.7240374451611691
l -0.088900619781375 0.0
l 0.0 -0.4474551411096025
l -0.05494058302488976 0.0
l 0.0 -0.2765272772057344
l -0.03395328030938188 0.0
l 0.0 -0.17089385731314383
l -0.020983127231197995 0.0
l 0.0 -0.10561240381952289
l -0.012967572628880365 0.0
l 0.0 -0.06526846556046516
l -0.008013959884648064 0.0
"/>
  <path
    fill="none"
    stroke="black"
    stroke-width="0.01"
    d="
M 5.435778713738291 9.980973490458727
l 0.0 -1.902731873355234
l -0.16646746864802703 0.0
l 0.0 -1.1758882977335345
l -0.10287689562448071 0.0
l 0.0 -0.7266989679993243
l -0.06357792149592909 0.0
l 0.0 -0.4490999622235824
l -0.03929115548448418 0.0
l 0.0 -0.27754377665417396
l -0.02428193408941122 0.0
l 0.0 -0.1715220539722795
l -0.015006235267256134 0.0
l 0.0 -0.1060006293548687
l -0.009273853395164289 0.0
l 0.0 -0.06550838894130886
l -0.005731241398211531 0.0
"/>
  <path
    fill="none"
    stroke="black"
    stroke-width="0.01"
    d="
M 5.26167978121472 9.993147673772869
l 0.0 -1.9073824113812359
l -0.09996167642402298 0.0
l 0.0 -1.1787623302336039
l -0.0617763160300462 0.0
l 0.0 -0.7284751200843671
l -0.03817776330656856 0.0
l 0.0 -0.45019762421213894
l -0.023593857723459365 0.0
l 0.0 -0.2782221317631019
l -0.01458100407309789 0.0
l 0.0 -0.17194127742959697
l -0.009011060517174495 0.0
l 0.0 -0.10625970945149091
l -0.005568835399613838 0.0
l 0.0 -0.06566850044102139
l -0.003441540276961352 0.0
"/>
  <path
    fill="none"
    stroke="black"
    stroke-width="0.01"
    d="
M 5.087262032186417 9.999238475781956
l 0.0 -1.9097090977487072
l -0.03333409629521125 0.0
l 0.0 -1.1802002224087011
l -0.020600471510440553 0.0
l 0.0 -0.7293637374485773
l -0.01273109139345226 0.0
l 0.0 -0.4507467897432207
l -0.007867814481153498 0.0
l 0.0 -0.2785615160613104
l -0.004862309349352861 0.0
l 0.0 -0.17215101692588985
l -0.003004907177900068 0.0
l 0.0 -0.10638932846019991
l -0.0018570326359422418 0.0
l 0.0 -0.06574860498840354
l -0.0011476461690123057 0.0
"/>
  <path
    fill="none"
    stroke="black"
    stroke-width="0.01"
    d="
M 4.912737967813583 9.999238475781956
l 0.0 -1.9097090977487072
l 0.03333409629521144 0.0
l 0.0 -1.1802002224087011
l 0.02060047151044067 0.0
l 0.0 -0.7293637374485773
l 0.012731091393452337 0.0
l 0.0 -0.4507467897432207
l 0.007867814481153543 0.0
l 0.0 -0.2785615160613104
l 0.004862309349352889 0.0
l 0.0 -0.17215101692588985
l 0.0030049071779000855 0.0
l 0.0 -0.10638932846019991
l 0.0018570326359422526 0.0
l 0.0 -0.06574860498840354
l 0.001147646169012312 0.0
"/>
  <path
    fill="none"
    stroke="black"
    stroke-width="0.01"
    d="
M 4.738320218785282 9.993147673772869
l 0.0 -1.9073824113812359
l 0.09996167642402232 0.0
l 0.0 -1.1787623302336039
l 0.06177631603004578 0.0
l 0.0 -0.7284751200843671
l 0.038177763306568295 0.0
l 0.0 -0.45019762421213894
l 0.023593857723459205 0.0
l 0.0 -0.2782221317631019
l 0.014581004073097786 0.0
l 0.0 -0.17194127742959697
l 0.009011060517174431 0.0
l 0.0 -0.10625970945149091
l 0.0055688353996138 0.0
l 0.0 -0.06566850044102139
l 0.003441540276961328 0.0
"/>
  <path
    fill="none"
    stroke="black"
    stroke-width="0.01"
    d="
M 4.564221286261708 9.980973490458727
l 0.0 -1.902731873355234
l 0.16646746864802725 0.0
l 0.0 -1.1758882977335345
l 0.10287689562448082 0.0
l 0.0 -0.7266989679993243
l 0.06357792149592915 0.0
l 0.0 -0.4490999622235824
l 0.03929115548448421 0.0
l 0.0 -0.27754377665417396
l 0.024281934089411247 0.0
l 0.0 -0.1715220539722795
l 0.015006235267256147 0.0
l 0.0 -0.1060006293548687
l 0.0092738533951643 0.0
l 0.0 -0.06550838894130886
l 0.005731241398211538 0.0
"/>
  <path
    fill="none"
    stroke="black"
    stroke-width="0.01"
    d="
M 4.390653282974263 9.962730758206611
l 0.0 -1.8957631496349254
l 0.2327704459038315 0.0
l 0.0 -1.171581626474384
l 0.14385213556856785 0.0
l 0.0 -0.7240374451611693
l 0.08890061978137492 0.0
l 0.0 -0.4474551411096025
l 0.0549405830248897 0.0
l 0.0 -0.2765272772057344
l 0.033953280309381835 0.0
l 0.0 -0.17089385731314383
l 0.020983127231197975 0.0
l 0.0 -0.10561240381952289
l 0.012967572628880344 0.0
l 0.0 -0.06526846556046516
l 0.008013959884648054 0.0
"/>
  <path
    fill="none"
    stroke="black"
    stroke-width="0.01"
    d="
M 4.217827674798845 9.938441702975688
l 0.0 -1.8864847305367132
l 0.2987898282268413 0.0
l 0.0 -1.1658475634716885
l 0.1846521138441879 0.0
l 0.0 -0.7204937942255036
l 0.11411500635570815 0.0
l 0.0 -0.44526516483136114
l 0.07052307392782763 0.0
l 0.0 -0.2751738718657812
l 0.04358325968739747 0.0
l 0.0 -0.1700574528130528
l 0.026934454486811636 0.0
l 0.0 -0.10509550583846661
l 0.016645492872849593 0.0
l 0.0 -0.06494902260817237
l 0.010286914595421047 0.0
"/>
  <path
    fill="none"
    stroke="black"
    stroke-width="0.01"
    d="
M 4.045955023117276 9.908135917238319
l 0.0 -1.8749079203850383
l 0.36444518116920055 0.0
l 0.0 -1.1586930947979535
l 0.225227121962566 0.0
l 0.0 -0.7160723325851353
l 0.13919036137286578 0.0
l 0.0 -0.4425327015376136
l 0.08601964332843104 0.0
l 0.0 -0.2734852095502452
l 0.05316013957697038 0.0
l 0.0 -0.16901385950205156
l 0.03285296625856769 0.0
l 0.0 -0.10445056517226786
l 0.020303133147794833 0.0
l 0.0 -0.06455044927646153
l 0.012547336285337208 0.0
"/>
  <path
    fill="none"
    stroke="black"
    stroke-width="0.01"
    d="
M 3.875244728280676 9.871850323926175
l 0.0 -1.861046823739799
l 0.4296565137967818 0.0
l 0.0 -1.150126937071196
l 0.26552772552641113 0.0
l 0.0 -0.7107784471099992
l 0.1640961343753221 0.0
l 0.0 -0.4392610803139795
l 0.10141141104394905 0.0
l 0.0 -0.2714633476340393
l 0.06267225202516052 0.0
l 0.0 -0.16776434883783625
l 0.0387314517515492 0.0
l 0.0 -0.10367836758178281
l 0.023936037182457404 0.0
l 0.0 -0.06407323116554178
l 0.014792470978758673 0.0
"/>
  <path
    fill="none"
    stroke="black"
    stroke-width="0.01"
    d="
M 3.705904774487396 9.82962913144534
l 0.0 -1.8449183282121204
l 0.49434437614581483 0.0
l 0.0 -1.1401595268350904
l 0.3055048244581135 0.0
l 0.0 -0.704618587584086
l 0.18880198151511418 0.0
l 0.0 -0.4354542871269651
l 0.11667962457634054 0.0
l 0.0 -0.2691107494444644
l 0.07210800798817846 0.0
l 0.0 -0.16631044315667898
l 0.04456274893669429 0.0
l 0.0 -0.10277985387082761
l 0.027539778842877068 0.0
l 0.0 -0.06351794969217146
l 0.017019583324898026 0.0
"/>
  <path
    fill="none"
    stroke="black"
    stroke-width="0.01"
    d="
M 3.5381414763863166 9.781523779815178
l 0.0 -1.826542083889398
l 0.5584299560204271 0.0
l 0.0 -1.128803007843648
l 0.34510971282062386 0.0
l 0.0 -0.6976002588473744
l 0.2132778025231456 0.0
l 0.0 -0.4311169599676773
l 0.13180568195930398 0.0
l 0.0 -0.2664302812600246
l 0.08145591145084985 0.0
l 0.0 -0.1646539138186952
l 0.05033975327662521 0.0
l 0.0 -0.10175611873995363
l 0.03110996752495438 0.0
l 0.0 -0.06288528138129133
l 0.019225959930421806 0.0
"/>
  <path
    fill="none"
    stroke="black"
    stroke-width="0.01"
    d="
M 3.372159227714218 9.727592877996585
l 0.0 -1.8059404793946952
l 0.6218351750131688 0.0
l 0.0 -1.1160712162659217
l 0.3842941381581383 0.0
l 0.0 -0.6897320116523395
l 0.2374937773817295 0.0
l 0.0 -0.42625438320114595
l 0.14677115442190883 0.0
l 0.0 -0.26342520881830817
l 0.09070457343273966 0.0
l 0.0 -0.1627967790497144
l 0.0560554263814331 0.0
l 0.0 -0.10060840945272351
l 0.03464225350372566 0.0
l 0.0 -0.06217599704178314
l 0.021408912665302454 0.0
"/>
  <path
    fill="none"
    stroke="black"
    stroke-width="0.01"
    d="
M 3.2081602522734984 9.66790213248601
l 0.0 -1.7831386146096553
l 0.6844827836315235 0.0
l 0.0 -1.1019796638287669
l 0.4230103602842815 0.0
l 0.0 -0.6810234322461781
l 0.261420402655686 0.0
l 0.0 -0.420872481128138
l 0.16155780884121396 0.0
l 0.0 -0.2600991933371893
l 0.09984272586387022 0.0
l 0.0 -0.16074130148238297
l 0.0617028045838718 0.0
l 0.0 -0.09933812431611266
l 0.03813233323283277 0.0
l 0.0 -0.06139096082735762
l 0.023565781937890648 0.0
"/>
  <path
    fill="none"
    stroke="black"
    stroke-width="0.01"
    d="
M 3.046344357553632 9.6025242672622
l 0.0 -1.758164270094161
l 0.7462964554145126 0.0
l 0.0 -1.0865455189181914
l 0.4612112094461688 0.0
l 0.0 -0.6714851306914424
l 0.28502852743773227 0.0
l 0.0 -0.41497781076731133
l 0.17614762995651856 0.0
l 0.0 -0.2564562870541984
l 0.10885923531312847 0.0
l 0.0 -0.1584899853994946
l 0.0672750074235134 0.0
l 0.0 -0.09794681097688768
l 0.04157595458773128 0.0
l 0.0 -0.06053112918371659
l 0.02569393993521793 0.0
"/>
  <path
    fill="none"
    stroke="black"
    stroke-width="0.01"
    d="
M 2.886908691296503 9.53153893518325
l 0.0 -1.7310478732400014
l 0.8072008799247359 0.0
l 0.0 -1.0697875856623211
l 0.4988501437934867 0.0
l 0.0 -0.6611287279393143
l 0.3082893888643748 0.0
l 0.0 -0.4085775538664963
l 0.19052284231818362 0.0
l 0.0 -0.2525009282894947
l 0.11774311655263744 0.0
l 0.0 -0.15604557368290772
l 0.07276524602952995 0.0
l 0.0 -0.09643616453603698
l 0.0449689220462495 0.0
l 0.0 -0.059597549683270856
l 0.027790793824582195 0.0
"/>
  <path
    fill="none"
    stroke="black"
    stroke-width="0.01"
    d="
M 2.7300475013022663 9.45503262094184
l 0.0 -1.7018224611997828
l 0.8671218545025343 0.0
l 0.0 -1.0517262810214656
l 0.5358813060825662 0.0
l 0.0 -0.6499668416712658
l 0.3311746471590259 0.0
l 0.0 -0.40167950815284226
l 0.204665931944278 0.0
l 0.0 -0.2482379360384565
l 0.1264835459415638 0.0
l 0.0 -0.1534110444717661
l 0.0781668313918864 0.0
l 0.0 -0.09480802548355144
l 0.04830710180018581 0.0
l 0.0 -0.058591359748834795
l 0.029853788912514834 0.0
"/>
  <path
    fill="none"
    stroke="black"
    stroke-width="0.01"
    d="
M 2.5759518987683148 9.373098535696979
l 0.0 -1.670523640636246
l 0.9259863746705037 0.0
l 0.0 -1.0323836099132
l 0.5722595795463713 0.0
l 0.0 -0.6380130709263576
l 0.3536564201596575 0.0
l 0.0 -0.394292077832489
l 0.21855966765866836 0.0
l 0.0 -0.2436725041004782
l 0.13506987461305703 0.0
l 0.0 -0.1505896075340955
l 0.08347318251086924 0.0
l 0.0 -0.09306437745607102
l 0.051586426791717196 0.0
l 0.0 -0.05751378526785189
l 0.031880411757281235 0.0
"/>
  <path
    fill="none"
    stroke="black"
    stroke-width="0.01"
    d="
M 2.4248096254497287 9.285836503510563
l 0.0 -1.6371895443410347
l 0.9837227230782037 0.0
l 0.0 -1.0117831384027594
l 0.6079406428623298 0.0
l 0.0 -0.6252819795329054
l 0.3757073172889198 0.0
l 0.0 -0.3864242633513354
l 0.23218712208455244 0.0
l 0.0 -0.2388101947511253
l 0.1434916414482534 0.0
l 0.0 -0.14758470035619545
l 0.08867783441502061 0.0
l 0.0 -0.0912073448201288
l 0.05480290166848274 0.0
l 0.0 -0.0563661390988396
l 0.03386819323112233 0.0
"/>
  <path
    fill="none"
    stroke="black"
    stroke-width="0.01"
    d="
M 2.276804824924864 9.19335283972712
l 0.0 -1.6018607847757602
l 1.040260556878702 0.0
l 0.0 -0.9899499649914196
l 0.6428810241510379 0.0
l 0.0 -0.6117890783646974
l 0.39730047292534143 0.0
l 0.0 -0.378085650429383
l 0.24553169226786098 0.0
l 0.0 -0.2336569319653587
l 0.15173858582153807 0.0
l 0.0 -0.14439998395459167
l 0.09377444603771054 0.0
l 0.0 -0.08923919008393763
l 0.05795260765130511 0.0
l 0.0 -0.05514981947187346
l 0.03581471152850656 0.0
"/>
  <path
    fill="none"
    stroke="black"
    stroke-width="0.01"
    d="
M 2.1321178182447706 9.09576022144496
l 0.0 -1.564580404591975
l 1.0955309934304975 0.0
l 0.0 -0.9669106900378406
l 0.6770381539400476 0.0
l 0.0 -0.5975508064433854
l 0.41840957913494936 0.0
l 0.0 -0.36928639838201216
l 0.2585771199053987 0.0
l 0.0 -0.2282189942000835
l 0.15980066010153637 0.0
l 0.0 -0.14103933841565158
l 0.09875680794274949 0.0
l 0.0 -0.0871623111408727
l 0.06103170730861919 0.0
l 0.0 -0.053866308285059325
l 0.03771759511672666 0.0
"/>
  <path
    fill="none"
    stroke="black"
    stroke-width="0.01"
    d="
M 1.990924884239758 8.993177550236464
l 0.0 -1.525393824190329
l 1.1494666942204124 0.0
l 0.0 -0.9426933833496234
l 0.710370417028215 0.0
l 0.0 -0.5825845109100672
l 0.43900891772343675 0.0
l 0.0 -0.36003722774242164
l 0.27130751115308394 0.0
l 0.0 -0.22250300674481654
l 0.16766804189260587 0.0
l 0.0 -0.1375068581682966
l 0.10361884988963044 0.0
l 0.0 -0.0849792383480073
l 0.06403644923179161 0.0
l 0.0 -0.05251716929906852
l 0.039574525625247214 0.0
"/>
  <path
    fill="none"
    stroke="black"
    stroke-width="0.01"
    d="
M 1.8533980447508136 8.885729807284855
l 0.0 -1.4843487863828146
l 1.2020019469051892 0.0
l 0.0 -0.9173275499845794
l 0.7428372031874069 0.0
l 0.0 -0.5669084258904701
l 0.4590733915698175 0.0
l 0.0 -0.3503494072003105
l 0.2837073559901472 0.0
l 0.0 -0.21651593364979188
l 0.17533114600191096 0.0
l 0.0 -0.13380684699557138
l 0.10835464822918098 0.0
l 0.0 -0.08269263144326311
l 0.06696317260563385 0.0
l 0.0 -0.051104046231936595
l 0.04138324067028172 0.0
"/>
  <path
    fill="none"
    stroke="black"
    stroke-width="0.01"
    d="
M 1.7197048550474623 8.77354790111386
l 0.0 -1.4414952982254943
l 1.2530727453718695 0.0
l 0.0 -0.8908440943033555
l 0.7743989566398153 0.0
l 0.0 -0.5505416502794738
l 0.47857855520340586 0.0
l 0.0 -0.3402347398727148
l 0.2957615471157048 0.0
l 0.0 -0.21026506924133775
l 0.18278063611750556 0.0
l 0.0 -0.12994381279114675
l 0.11295843312061843 0.0
l 0.0 -0.08030527630492867
l 0.06980831166854218 0.0
l 0.0 -0.049628660756445925
l 0.04314153661115906 0.0
"/>
  <path
    fill="none"
    stroke="black"
    stroke-width="0.01"
    d="
M 1.5900081996875084 8.656768508095853
l 0.0 -1.396885570092616
l 1.302616867719372 0.0
l 0.0 -0.8632752823172365
l 0.8050172242505718 0.0
l 0.0 -0.5335041244720522
l 0.4975006445868533 0.0
l 0.0 -0.3297055489237283
l 0.3074553983546754 0.0
l 0.0 -0.20375802923486408
l 0.19000743618318938 0.0
l 0.0 -0.125922462067146
l 0.11742459556121101 0.0
l 0.0 -0.07782008155749623
l 0.07256840005682841 0.0
l 0.0 -0.04809281040253266
l 0.04484727123511996 0.0
"/>
  <path
    fill="none"
    stroke="black"
    stroke-width="0.01"
    d="
M 1.4644660940672627 8.535533905932738
l 0.0 -1.350573952066306
l 1.3505739520663056 0.0
l 0.0 -0.834654702376977
l 0.834654702376977 0.0
l 0.0 -0.5158166060689717
l 0.5158166060689717 0.0
l 0.0 -0.3187746625506245
l 0.3187746625506245 0.0
l 0.0 -0.19700274145628593
l 0.19700274145628593 0.0
l 0.0 -0.12174769421998471
l 0.12174769421998471 0.0
l 0.0 -0.07524007502795055
l 0.07524007502795055 0.0
l 0.0 -0.04649836636727345
l 0.04649836636727345 0.0
"/>
  <path
    fill="none"
    stroke="black"
    stroke-width="0.01"
    d="
M 1.343231491904148 8.409991800312493
l 0.0 -1.3026168677193724
l 1.3968855700926155 0.0
l 0.0 -0.805017224250572
l 0.8632752823172365 0.0
l 0.0 -0.4975006445868536
l 0.5335041244720521 0.0
l 0.0 -0.3074553983546755
l 0.32970554892372816 0.0
l 0.0 -0.19000743618318944
l 0.20375802923486397 0.0
l 0.0 -0.11742459556121107
l 0.12592246206714594 0.0
l 0.0 -0.07256840005682845
l 0.0778200815574962 0.0
l 0.0 -0.04484727123511999
l 0.048092810402532646 0.0
"/>
  <path
    fill="none"
    stroke="black"
    stroke-width="0.01"
    d="
M 1.2264520988861398 8.280295144952536
l 0.0 -1.253072745371869
l 1.4414952982254947 0.0
l 0.0 -0.7743989566398148
l 0.8908440943033555 0.0
l 0.0 -0.47857855520340564
l 0.5505416502794738 0.0
l 0.0 -0.2957615471157047
l 0.3402347398727148 0.0
l 0.0 -0.1827806361175055
l 0.21026506924133775 0.0
l 0.0 -0.1129584331206184
l 0.12994381279114675 0.0
l 0.0 -0.06980831166854216
l 0.08030527630492867 0.0
l 0.0 -0.04314153661115906
l 0.049628660756445925 0.0
"/>
  <path
    fill="none"
    stroke="black"
    stroke-width="0.01"
    d="
M 1.1142701927151464 8.146601955249189
l 0.0 -1.2020019469051901
l 1.4843487863828142 0.0
l 0.0 -0.7428372031874075
l 0.917327549984579 0.0
l 0.0 -0.45907339156981775
l 0.5669084258904699 0.0
l 0.0 -0.28370735599014735
l 0.3503494072003104 0.0
l 0.0 -0.17533114600191108
l 0.21651593364979183 0.0
l 0.0 -0.10835464822918106
l 0.13380684699557135 0.0
l 0.0 -0.06696317260563388
l 0.08269263144326311 0.0
l 0.0 -0.041383240670281735
l 0.051104046231936595 0.0
"/>
  <path
    fill="none"
    stroke="black"
    stroke-width="0.01"
    d="
M 1.0068224497635354 8.00907511576024
l 0.0 -1.149466694220412
l 1.5253938241903295 0.0
l 0.0 -0.7103704170282146
l 0.9426933833496236 0.0
l 0.0 -0.43900891772343664
l 0.5825845109100674 0.0
l 0.0 -0.2713075111530838
l 0.36003722774242164 0.0
l 0.0 -0.1676680418926058
l 0.2225030067448166 0.0
l 0.0 -0.10361884988963038
l 0.13750685816829664 0.0
l 0.0 -0.06403644923179157
l 0.08497923834800733 0.0
l 0.0 -0.03957452562524719
l 0.05251716929906852 0.0
"/>
  <path
    fill="none"
    stroke="black"
    stroke-width="0.01"
    d="
M 0.9042397785550413 7.867882181755232
l 0.0 -1.0955309934304986
l 1.5645804045919744 0.0
l 0.0 -0.6770381539400481
l 0.9669106900378399 0.0
l 0.0 -0.4184095791349498
l 0.5975508064433851 0.0
l 0.0 -0.25857711990539894
l 0.36928639838201205 0.0
l 0.0 -0.15980066010153654
l 0.2282189942000834 0.0
l 0.0 -0.0987568079427496
l 0.14103933841565156 0.0
l 0.0 -0.06103170730861926
l 0.08716231114087267 0.0
l 0.0 -0.0377175951167267
l 0.0538663082850593 0.0
"/>
  <path
    fill="none"
    stroke="black"
    stroke-width="0.01"
    d="
M 0.8066471602728793 7.723195175075135
l 0.0 -1.0402605568787016
l 1.6018607847757602 0.0
l 0.0 -0.6428810241510374
l 0.9899499649914196 0.0
l 0.0 -0.3973004729253412
l 0.6117890783646974 0.0
l 0.0 -0.24553169226786087
l 0.378085650429383 0.0
l 0.0 -0.15173858582153804
l 0.2336569319653587 0.0
l 0.0 -0.09377444603771051
l 0.14439998395459167 0.0
l 0.0 -0.05795260765130508
l 0.08923919008393763 0.0
l 0.0 -0.03581471152850654
l 0.05514981947187346 0.0
"/>
  <path
    fill="none"
    stroke="black"
    stroke-width="0.01"
    d="
M 0.714163496489439 7.575190374550272
l 0.0 -0.9837227230782037
l 1.6371895443410343 0.0
l 0.0 -0.60794064286233
l 1.0117831384027591 0.0
l 0.0 -0.37570731728891993
l 0.6252819795329052 0.0
l 0.0 -0.23218712208455256
l 0.3864242633513354 0.0
l 0.0 -0.14349164144825347
l 0.2388101947511253 0.0
l 0.0 -0.08867783441502064
l 0.14758470035619545 0.0
l 0.0 -0.05480290166848274
l 0.0912073448201288 0.0
l 0.0 -0.03386819323112234
l 0.0563661390988396 0.0
"/>
  <path
    fill="none"
    stroke="black"
    stroke-width="0.01"
    d="
M 0.6269014643030211 7.424048101231685
l 0.0 -0.9259863746705039
l 1.670523640636246 0.0
l 0.0 -0.5722595795463714
l 1.0323836099132 0.0
l 0.0 -0.3536564201596576
l 0.6380130709263576 0.0
l 0.0 -0.21855966765866836
l 0.394292077832489 0.0
l 0.0 -0.13506987461305703
l 0.2436725041004782 0.0
l 0.0 -0.08347318251086924
l 0.1505896075340955 0.0
l 0.0 -0.051586426791717196
l 0.09306437745607102 0.0
l 0.0 -0.031880411757281235
l 0.05751378526785189 0.0
"/>
  <path
    fill="none"
    stroke="black"
    stroke-width="0.01"
    d="
M 0.5449673790581606 7.269952498697734
l 0.0 -0.8671218545025345
l 1.7018224611997828 0.0
l 0.0 -0.5358813060825662
l 1.0517262810214656 0.0
l 0.0 -0.331174647159026
l 0.6499668416712658 0.0
l 0.0 -0.204665931944278
l 0.40167950815284226 0.0
l 0.0 -0.12648354594156383
l 0.2482379360384565 0.0
l 0.0 -0.07816683139188646
l 0.1534110444717661 0.0
l 0.0 -0.048307101800185825
l 0.09480802548355144 0.0
l 0.0 -0.029853788912514834
l 0.058591359748834795 0.0
"/>
  <path
    fill="none"
    stroke="black"
    stroke-width="0.01"
    d="
M 0.46846106481675065 7.113091308703497
l 0.0 -0.8072008799247359
l 1.7310478732400014 0.0
l 0.0 -0.4988501437934869
l 1.0697875856623207 0.0
l 0.0 -0.30828938886437485
l 0.6611287279393143 0.0
l 0.0 -0.19052284231818367
l 0.4085775538664962 0.0
l 0.0 -0.1177431165526375
l 0.2525009282894946 0.0
l 0.0 -0.07276524602952997
l 0.15604557368290767 0.0
l 0.0 -0.044968922046249526
l 0.09643616453603693 0.0
l 0.0 -0.027790793824582202
l 0.059597549683270815 0.0
"/>
  <path
    fill="none"
    stroke="black"
    stroke-width="0.01"
    d="
M 0.39747573273779935 6.953655642446371
l 0.0 -0.7462964554145135
l 1.7581642700941607 0.0
l 0.0 -0.46121120944616945
l 1.0865455189181914 0.0
l 0.0 -0.2850285274377327
l 0.6714851306914422 0.0
l 0.0 -0.17614762995651884
l 0.4149778107673112 0.0
l 0.0 -0.10885923531312863
l 0.2564562870541984 0.0
l 0.0 -0.06727500742351349
l 0.15848998539949455 0.0
l 0.0 -0.041575954587731334
l 0.09794681097688765 0.0
l 0.0 -0.025693939935217965
l 0.06053112918371657 0.0
"/>
  <path
    fill="none"
    stroke="black"
    stroke-width="0.01"
    d="
M 0.3320978675139914 6.791839747726501
l 0.0 -0.6844827836315235
l 1.7831386146096553 0.0
l 0.0 -0.4230103602842815
l 1.1019796638287669 0.0
l 0.0 -0.26142040265568595
l 0.6810234322461781 0.0
l 0.0 -0.1615578088412139
l 0.420872481128138 0.0
l 0.0 -0.09984272586387019
l 0.2600991933371893 0.0
l 0.0 -0.06170280458387177
l 0.16074130148238297 0.0
l 0.0 -0.03813233323283275
l 0.09933812431611266 0.0
l 0.0 -0.023565781937890634
l 0.06139096082735762 0.0
"/>
  <path
    fill="none"
    stroke="black"
    stroke-width="0.01"
    d="
M 0.27240712200341655 6.627840772285785
l 0.0 -0.6218351750131699
l 1.8059404793946947 0.0
l 0.0 -0.38429413815813895
l 1.1160712162659214 0.0
l 0.0 -0.23749377738172994
l 0.6897320116523395 0.0
l 0.0 -0.14677115442190908
l 0.42625438320114584 0.0
l 0.0 -0.09070457343273983
l 0.2634252088183081 0.0
l 0.0 -0.056055426381433196
l 0.1627967790497144 0.0
l 0.0 -0.03464225350372572
l 0.10060840945272351 0.0
l 0.0 -0.021408912665302496
l 0.062175997041783115 0.0
"/>
  <path
    fill="none"
    stroke="black"
    stroke-width="0.01"
    d="
M 0.21847622018482316 6.461858523613685
l 0.0 -0.5584299560204278
l 1.8265420838893975 0.0
l 0.0 -0.3451097128206243
l 1.1288030078436477 0.0
l 0.0 -0.21327780252314582
l 0.6976002588473742 0.0
l 0.0 -0.13180568195930414
l 0.4311169599676773 0.0
l 0.0 -0.08145591145084996
l 0.2664302812600246 0.0
l 0.0 -0.05033975327662528
l 0.1646539138186952 0.0
l 0.0 -0.031109967524954416
l 0.10175611873995363 0.0
l 0.0 -0.01922595993042183
l 0.06288528138129133 0.0
"/>
  <path
    fill="none"
    stroke="black"
    stroke-width="0.01"
    d="
M 0.17037086855465944 6.294095225512605
l 0.0 -0.49434437614581517
l 1.84491832821212 0.0
l 0.0 -0.3055048244581137
l 1.1401595268350904 0.0
l 0.0 -0.1888019815151143
l 0.7046185875840858 0.0
l 0.0 -0.11667962457634062
l 0.435454287126965 0.0
l 0.0 -0.07210800798817851
l 0.26911074944446434 0.0
l 0.0 -0.04456274893669432
l 0.16631044315667898 0.0
l 0.0 -0.02753977884287709
l 0.10277985387082761 0.0
l 0.0 -0.017019583324898037
l 0.06351794969217145 0.0
"/>
  <path
    fill="none"
    stroke="black"
    stroke-width="0.01"
    d="
M 0.1281496760738241 6.124755271719324
l 0.0 -0.4296565137967817
l 1.861046823739799 0.0
l 0.0 -0.26552772552641113
l 1.150126937071196 0.0
l 0.0 -0.16409613437532206
l 0.7107784471099992 0.0
l 0.0 -0.10141141104394905
l 0.4392610803139795 0.0
l 0.0 -0.0626722520251605
l 0.2714633476340393 0.0
l 0.0 -0.038731451751549184
l 0.16776434883783625 0.0
l 0.0 -0.023936037182457397
l 0.10367836758178281 0.0
l 0.0 -0.014792470978758673
l 0.06407323116554178 0.0
"/>
  <path
    fill="none"
    stroke="black"
    stroke-width="0.01"
    d="
M 0.09186408276168034 5.954044976882725
l 0.0 -0.3644451811692009
l 1.8749079203850383 0.0
l 0.0 -0.22522712196256617
l 1.1586930947979535 0.0
l 0.0 -0.13919036137286586
l 0.7160723325851353 0.0
l 0.0 -0.08601964332843112
l 0.4425327015376136 0.0
l 0.0 -0.053160139576970425
l 0.2734852095502452 0.0
l 0.0 -0.03285296625856772
l 0.16901385950205156 0.0
l 0.0 -0.020303133147794854
l 0.10445056517226786 0.0
l 0.0 -0.012547336285337218
l 0.06455044927646153 0.0
"/>
  <path
    fill="none"
    stroke="black"
    stroke-width="0.01"
    d="
M 0.06155829702431159 5.782172325201155
l 0.0 -0.2987898282268412
l 1.8864847305367132 0.0
l 0.0 -0.18465211384418784
l 1.1658475634716885 0.0
l 0.0 -0.11411500635570807
l 0.7204937942255036 0.0
l 0.0 -0.0705230739278276
l 0.44526516483136114 0.0
l 0.0 -0.043583259687397444
l 0.2751738718657812 0.0
l 0.0 -0.026934454486811622
l 0.1700574528130528 0.0
l 0.0 -0.016645492872849586
l 0.10509550583846661 0.0
l 0.0 -0.010286914595421044
l 0.06494902260817237 0.0
"/>
  <path
    fill="none"
    stroke="black"
    stroke-width="0.01"
    d="
M 0.03726924179338997 5.609346717025738
l 0.0 -0.23277044590383184
l 1.895763149634925 0.0
l 0.0 -0.14385213556856805
l 1.1715816264743837 0.0
l 0.0 -0.08890061978137506
l 0.7240374451611691 0.0
l 0.0 -0.054940583024889786
l 0.4474551411096025 0.0
l 0.0 -0.033953280309381884
l 0.2765272772057344 0.0
l 0.0 -0.02098312723119801
l 0.17089385731314383 0.0
l 0.0 -0.012967572628880368
l 0.10561240381952289 0.0
l 0.0 -0.008013959884648066
l 0.06526846556046516 0.0
"/>
  <path
    fill="none"
    stroke="black"
    stroke-width="0.01"
    d="
M 0.019026509541272496 5.435778713738293
l 0.0 -0.16646746864802803
l 1.902731873355234 0.0
l 0.0 -0.1028768956244813
l 1.1758882977335345 0.0
l 0.0 -0.06357792149592943
l 0.7266989679993243 0.0
l 0.0 -0.03929115548448439
l 0.4490999622235824 0.0
l 0.0 -0.02428193408941136
l 0.27754377665417396 0.0
l 0.0 -0.015006235267256217
l 0.1715220539722795 0.0
l 0.0 -0.009273853395164343
l 0.1060006293548687 0.0
l 0.0 -0.005731241398211564
l 0.06550838894130886 0.0
"/>
  <path
    fill="none"
    stroke="black"
    stroke-width="0.01"
    d="
M 0.006852326227130945 5.261679781214719
l 0.0 -0.09996167642402268
l 1.9073824113812359 0.0
l 0.0 -0.061776316030046005
l 1.1787623302336039 0.0
l 0.0 -0.03817776330656843
l 0.7284751200843671 0.0
l 0.0 -0.02359385772345929
l 0.45019762421213894 0.0
l 0.0 -0.014581004073097842
l 0.2782221317631019 0.0
l 0.0 -0.009011060517174466
l 0.17194127742959697 0.0
l 0.0 -0.005568835399613821
l 0.10625970945149091 0.0
l 0.0 -0.003441540276961341
l 0.06566850044102139 0.0
"/>
  <path
    fill="none"
    stroke="black"
    stroke-width="0.01"
    d="
M 0.0007615242180438742 5.087262032186417
l 0.0 -0.03333409629521137
l 1.9097090977487072 0.0
l 0.0 -0.020600471510440622
l 1.1802002224087011 0.0
l 0.0 -0.012731091393452305
l 0.7293637374485773 0.0
l 0.0 -0.007867814481153526
l 0.4507467897432207 0.0
l 0.0 -0.004862309349352879
l 0.2785615160613104 0.0
l 0.0 -0.0030049071779000786
l 0.17215101692588985 0.0
l 0.0 -0.0018570326359422487
l 0.10638932846019991 0.0
l 0.0 -0.0011476461690123096
l 0.06574860498840354 0.0
"/>
  <path
    fill="none"
    stroke="black"
    stroke-width="0.01"
    d="
M 0.0007615242180438742 4.912737967813584
l 0.0 0.0333340962952109
l 1.9097090977487072 0.0
l 0.0 0.02060047151044033
l 1.1802002224087011 0.0
l 0.0 0.012731091393452125
l 0.7293637374485773 0.0
l 0.0 0.007867814481153413
l 0.4507467897432207 0.0
l 0.0 0.004862309349352809
l 0.2785615160613104 0.0
l 0.0 0.003004907177900037
l 0.17215101692588985 0.0
l 0.0 0.0018570326359422227
l 0.10638932846019991 0.0
l 0.0 0.0011476461690122937
l 0.06574860498840354 0.0
"/>
  <path
    fill="none"
    stroke="black"
    stroke-width="0.01"
    d="
M 0.006852326227130945 4.738320218785282
l 0.0 0.0999616764240222
l 1.9073824113812359 0.0
l 0.0 0.061776316030045714
l 1.1787623302336039 0.0
l 0.0 0.03817776330656825
l 0.7284751200843671 0.0
l 0.0 0.023593857723459184
l 0.45019762421213894 0.0
l 0.0 0.014581004073097772
l 0.2782221317631019 0.0
l 0.0 0.009011060517174424
l 0.17194127742959697 0.0
l 0.0 0.005568835399613795
l 0.10625970945149091 0.0
l 0.0 0.0034415402769613244
l 0.06566850044102139 0.0
"/>
  <path
    fill="none"
    stroke="black"
    stroke-width="0.01"
    d="
M 0.019026509541272496 4.56422128626171
l 0.0 0.16646746864802664
l 1.902731873355234 0.0
l 0.0 0.10287689562448049
l 1.1758882977335345 0.0
l 0.0 0.06357792149592893
l 0.7266989679993243 0.0
l 0.0 0.039291155484484086
l 0.4490999622235824 0.0
l 0.0 0.024281934089411164
l 0.27754377665417396 0.0
l 0.0 0.015006235267256102
l 0.1715220539722795 0.0
l 0.0 0.00927385339516427
l 0.1060006293548687 0.0
l 0.0 0.005731241398211519
l 0.06550838894130886 0.0
"/>
  <path
    fill="none"
    stroke="black"
    stroke-width="0.01"
    d="
M 0.03726924179338997 4.390653282974261
l 0.0 0.23277044590383222
l 1.895763149634925 0.0
l 0.0 0.1438521355685683
l 1.1715816264743837 0.0
l 0.0 0.0889006197813752
l 0.7240374451611691 0.0
l 0.0 0.05494058302488987
l 0.4474551411096025 0.0
l 0.0 0.03395328030938194
l 0.2765272772057344 0.0
l 0.0 0.020983127231198037
l 0.17089385731314383 0.0
l 0.0 0.012967572628880389
l 0.10561240381952289 0.0
l 0.0 0.00801395988464808
l 0.06526846556046516 0.0
"/>
  <path
    fill="none"
    stroke="black"
    stroke-width="0.01"
    d="
M 0.061558297024310704 4.217827674798846
l 0.0 0.2987898282268407
l 1.8864847305367132 0.0
l 0.0 0.18465211384418756
l 1.165847563471689 0.0
l 0.0 0.1141150063557079
l 0.7204937942255036 0.0
l 0.0 0.07052307392782749
l 0.44526516483136136 0.0
l 0.0 0.04358325968739739
l 0.2751738718657813 0.0
l 0.0 0.02693445448681158
l 0.17005745281305285 0.0
l 0.0 0.016645492872849558
l 0.10509550583846664 0.0
l 0.0 0.01028691459542103
l 0.06494902260817238 0.0
"/>
  <path
    fill="none"
    stroke="black"
    stroke-width="0.01"
    d="
M 0.09186408276168034 4.045955023117276
l 0.0 0.36444518116920044
l 1.8749079203850383 0.0
l 0.0 0.22522712196256583
l 1.1586930947979535 0.0
l 0.0 0.1391903613728657
l 0.7160723325851353 0.0
l 0.0 0.08601964332843101
l 0.4425327015376136 0.0
l 0.0 0.053160139576970356
l 0.2734852095502452 0.0
l 0.0 0.032852966258567685
l 0.16901385950205156 0.0
l 0.0 0.020303133147794826
l 0.10445056517226786 0.0
l 0.0 0.012547336285337204
l 0.06455044927646153 0.0
"/>
  <path
    fill="none"
    stroke="black"
    stroke-width="0.01"
    d="
M 0.1281496760738241 3.8752447282806752
l 0.0 0.42965651379678205
l 1.861046823739799 0.0
l 0.0 0.26552772552641135
l 1.150126937071196 0.0
l 0.0 0.16409613437532217
l 0.7107784471099992 0.0
l 0.0 0.10141141104394913
l 0.4392610803139795 0.0
l 0.0 0.06267225202516055
l 0.2714633476340393 0.0
l 0.0 0.03873145175154921
l 0.16776434883783625 0.0
l 0.0 0.023936037182457418
l 0.10367836758178281 0.0
l 0.0 0.014792470978758684
l 0.06407323116554178 0.0
"/>
  <path
    fill="none"
    stroke="black"
    stroke-width="0.01"
    d="
M 0.17037086855465766 3.705904774487398
l 0.0 0.49434437614581384
l 1.8449183282121209 0.0
l 0.0 0.30550482445811294
l 1.1401595268350906 0.0
l 0.0 0.18880198151511385
l 0.704618587584086 0.0
l 0.0 0.11667962457634032
l 0.4354542871269651 0.0
l 0.0 0.07210800798817833
l 0.26911074944446445 0.0
l 0.0 0.04456274893669421
l 0.16631044315667903 0.0
l 0.0 0.02753977884287702
l 0.10277985387082766 0.0
l 0.0 0.017019583324897995
l 0.06351794969217149 0.0
"/>
  <path
    fill="none"
    stroke="black"
    stroke-width="0.01"
    d="
M 0.21847622018482227 3.5381414763863184
l 0.0 0.5584299560204264
l 1.826542083889398 0.0
l 0.0 0.3451097128206235
l 1.128803007843648 0.0
l 0.0 0.21327780252314538
l 0.6976002588473744 0.0
l 0.0 0.13180568195930384
l 0.4311169599676773 0.0
l 0.0 0.08145591145084977
l 0.2664302812600246 0.0
l 0.0 0.05033975327662517
l 0.1646539138186952 0.0
l 0.0 0.031109967524954353
l 0.10175611873995363 0.0
l 0.0 0.01922595993042179
l 0.06288528138129133 0.0
"/>
  <path
    fill="none"
    stroke="black"
    stroke-width="0.01"
    d="
M 0.27240712200341655 3.3721592277142163
l 0.0 0.6218351750131694
l 1.8059404793946947 0.0
l 0.0 0.3842941381581386
l 1.1160712162659214 0.0
l 0.0 0.23749377738172972
l 0.6897320116523395 0.0
l 0.0 0.14677115442190897
l 0.42625438320114584 0.0
l 0.0 0.09070457343273974
l 0.2634252088183081 0.0
l 0.0 0.05605542638143314
l 0.1627967790497144 0.0
l 0.0 0.034642253503725684
l 0.10060840945272351 0.0
l 0.0 0.021408912665302475
l 0.062175997041783115 0.0
"/>
  <path
    fill="none"
    stroke="black"
    stroke-width="0.01"
    d="
M 0.3320978675139923 3.2081602522734975
l 0.0 0.6844827836315239
l 1.7831386146096548 0.0
l 0.0 0.42301036028428174
l 1.1019796638287669 0.0
l 0.0 0.2614204026556861
l 0.6810234322461779 0.0
l 0.0 0.161557808841214
l 0.4208724811281379 0.0
l 0.0 0.09984272586387025
l 0.2600991933371892 0.0
l 0.0 0.06170280458387181
l 0.16074130148238291 0.0
l 0.0 0.03813233323283277
l 0.09933812431611266 0.0
l 0.0 0.023565781937890655
l 0.06139096082735762 0.0
"/>
  <path
    fill="none"
    stroke="black"
    stroke-width="0.01"
    d="
M 0.39747573273779846 3.0463443575536324
l 0.0 0.7462964554145126
l 1.758164270094161 0.0
l 0.0 0.46121120944616867
l 1.0865455189181914 0.0
l 0.0 0.28502852743773227
l 0.6714851306914424 0.0
l 0.0 0.1761476299565185
l 0.41497781076731133 0.0
l 0.0 0.10885923531312847
l 0.2564562870541984 0.0
l 0.0 0.06727500742351337
l 0.1584899853994946 0.0
l 0.0 0.041575954587731265
l 0.09794681097688768 0.0
l 0.0 0.02569393993521793
l 0.06053112918371659 0.0
"/>
  <path
    fill="none"
    stroke="black"
    stroke-width="0.01"
    d="
M 0.46846106481674976 2.8869086912965036
l 0.0 0.8072008799247357
l 1.7310478732400014 0.0
l 0.0 0.4988501437934866
l 1.0697875856623211 0.0
l 0.0 0.30828938886437474
l 0.6611287279393143 0.0
l 0.0 0.19052284231818356
l 0.4085775538664963 0.0
l 0.0 0.11774311655263744
l 0.2525009282894947 0.0
l 0.0 0.07276524602952995
l 0.15604557368290772 0.0
l 0.0 0.0449689220462495
l 0.09643616453603698 0.0
l 0.0 0.027790793824582195
l 0.059597549683270856 0.0
"/>
  <path
    fill="none"
    stroke="black"
    stroke-width="0.01"
    d="
M 0.5449673790581597 2.730047501302269
l 0.0 0.8671218545025332
l 1.7018224611997832 0.0
l 0.0 0.5358813060825656
l 1.0517262810214658 0.0
l 0.0 0.33117464715902556
l 0.6499668416712658 0.0
l 0.0 0.2046659319442778
l 0.40167950815284237 0.0
l 0.0 0.12648354594156366
l 0.2482379360384565 0.0
l 0.0 0.07816683139188635
l 0.15341104447176615 0.0
l 0.0 0.048307101800185756
l 0.09480802548355147 0.0
l 0.0 0.0298537889125148
l 0.05859135974883481 0.0
"/>
  <path
    fill="none"
    stroke="black"
    stroke-width="0.01"
    d="
M 0.6269014643030211 2.575951898768315
l 0.0 0.9259863746705037
l 1.670523640636246 0.0
l 0.0 0.5722595795463712
l 1.0323836099132 0.0
l 0.0 0.35365642015965737
l 0.6380130709263576 0.0
l 0.0 0.21855966765866824
l 0.394292077832489 0.0
l 0.0 0.135069874613057
l 0.2436725041004782 0.0
l 0.0 0.08347318251086921
l 0.1505896075340955 0.0
l 0.0 0.05158642679171718
l 0.09306437745607102 0.0
l 0.0 0.03188041175728122
l 0.05751378526785189 0.0
"/>
  <path
    fill="none"
    stroke="black"
    stroke-width="0.01"
    d="
M 0.7141634964894381 2.424809625449729
l 0.0 0.9837227230782035
l 1.6371895443410347 0.0
l 0.0 0.6079406428623297
l 1.0117831384027594 0.0
l 0.0 0.3757073172889198
l 0.6252819795329054 0.0
l 0.0 0.2321871220845524
l 0.3864242633513354 0.0
l 0.0 0.14349164144825338
l 0.2388101947511253 0.0
l 0.0 0.08867783441502061
l 0.14758470035619545 0.0
l 0.0 0.05480290166848273
l 0.0912073448201288 0.0
l 0.0 0.03386819323112233
l 0.0563661390988396 0.0
"/>
  <path
    fill="none"
    stroke="black"
    stroke-width="0.01"
    d="
M 0.8066471602728793 2.2768048249248647
l 0.0 1.0402605568787018
l 1.6018607847757602 0.0
l 0.0 0.6428810241510376
l 0.9899499649914196 0.0
l 0.0 0.3973004729253412
l 0.6117890783646974 0.0
l 0.0 0.24553169226786087
l 0.378085650429383 0.0
l 0.0 0.15173858582153804
l 0.2336569319653587 0.0
l 0.0 0.09377444603771051
l 0.14439998395459167 0.0
l 0.0 0.05795260765130508
l 0.08923919008393763 0.0
l 0.0 0.03581471152850654
l 0.05514981947187346 0.0
"/>
  <path
    fill="none"
    stroke="black"
    stroke-width="0.01"
    d="
M 0.9042397785550396 2.1321178182447706
l 0.0 1.0955309934304975
l 1.564580404591975 0.0
l 0.0 0.6770381539400476
l 0.9669106900378406 0.0
l 0.0 0.41840957913494936
l 0.5975508064433854 0.0
l 0.0 0.2585771199053987
l 0.36928639838201216 0.0
l 0.0 0.15980066010153637
l 0.2282189942000835 0.0
l 0.0 0.09875680794274949
l 0.14103933841565158 0.0
l 0.0 0.06103170730861919
l 0.0871623111408727 0.0
l 0.0 0.03771759511672666
l 0.053866308285059325 0.0
"/>
  <path
    fill="none"
    stroke="black"
    stroke-width="0.01"
    d="
M 1.0068224497635345 1.9909248842397598
l 0.0 1.1494666942204117
l 1.52539382419033 0.0
l 0.0 0.7103704170282146
l 0.9426933833496238 0.0
l 0.0 0.43900891772343653
l 0.5825845109100675 0.0
l 0.0 0.27130751115308377
l 0.36003722774242164 0.0
l 0.0 0.16766804189260576
l 0.2225030067448166 0.0
l 0.0 0.10361884988963038
l 0.1375068581682967 0.0
l 0.0 0.06403644923179157
l 0.08497923834800733 0.0
l 0.0 0.03957452562524719
l 0.052517169299068536 0.0
"/>
  <path
    fill="none"
    stroke="black"
    stroke-width="0.01"
    d="
M 1.114270192715146 1.8533980447508118
l 0.0 1.20200194690519
l 1.4843487863828142 0.0
l 0.0 0.7428372031874073
l 0.9173275499845792 0.0
l 0.0 0.45907339156981775
l 0.56690842589047 0.0
l 0.0 0.28370735599014735
l 0.3503494072003105 0.0
l 0.0 0.17533114600191108
l 0.21651593364979183 0.0
l 0.0 0.10835464822918106
l 0.13380684699557135 0.0
l 0.0 0.06696317260563388
l 0.08269263144326311 0.0
l 0.0 0.041383240670281735
l 0.051104046231936595 0.0
"/>
  <path
    fill="none"
    stroke="black"
    stroke-width="0.01"
    d="
M 1.2264520988861403 1.7197048550474632
l 0.0 1.253072745371869
l 1.4414952982254943 0.0
l 0.0 0.7743989566398151
l 0.8908440943033555 0.0
l 0.0 0.47857855520340575
l 0.5505416502794738 0.0
l 0.0 0.29576154711570474
l 0.3402347398727148 0.0
l 0.0 0.1827806361175055
l 0.21026506924133775 0.0
l 0.0 0.11295843312061843
l 0.12994381279114675 0.0
l 0.0 0.06980831166854218
l 0.08030527630492867 0.0
l 0.0 0.04314153661115906
l 0.049628660756445925 0.0
"/>
  <path
    fill="none"
    stroke="black"
    stroke-width="0.01"
    d="
M 1.343231491904147 1.5900081996875084
l 0.0 1.302616867719372
l 1.396885570092616 0.0
l 0.0 0.8050172242505718
l 0.8632752823172365 0.0
l 0.0 0.4975006445868533
l 0.5335041244720522 0.0
l 0.0 0.3074553983546754
l 0.3297055489237283 0.0
l 0.0 0.19000743618318938
l 0.20375802923486408 0.0
l 0.0 0.11742459556121101
l 0.125922462067146 0.0
l 0.0 0.07256840005682841
l 0.07782008155749623 0.0
l 0.0 0.04484727123511996
l 0.04809281040253266 0.0
"/>
  <path
    fill="none"
    stroke="black"
    stroke-width="0.01"
    d="
M 1.4644660940672614 1.4644660940672627
l 0.0 1.3505739520663056
l 1.350573952066306 0.0
l 0.0 0.834654702376977
l 0.8346547023769773 0.0
l 0.0 0.5158166060689717
l 0.515816606068972 0.0
l 0.0 0.3187746625506245
l 0.3187746625506247 0.0
l 0.0 0.19700274145628593
l 0.19700274145628605 0.0
l 0.0 0.12174769421998471
l 0.12174769421998474 0.0
l 0.0 0.07524007502795055
l 0.07524007502795059 0.0
l 0.0 0.04649836636727345
l 0.04649836636727346 0.0
"/>
  <path
    fill="none"
    stroke="black"
    stroke-width="0.01"
    d="
M 1.5900081996875053 1.3432314919041493
l 0.0 1.396885570092615
l 1.3026168677193728 0.0
l 0.0 0.863275282317236
l 0.8050172242505726 0.0
l 0.0 0.5335041244720519
l 0.49750064458685384 0.0
l 0.0 0.32970554892372805
l 0.30745539835467567 0.0
l 0.0 0.2037580292348639
l 0.19000743618318955 0.0
l 0.0 0.1259224620671459
l 0.11742459556121115 0.0
l 0.0 0.07782008155749617
l 0.07256840005682848 0.0
l 0.0 0.048092810402532646
l 0.04484727123512 0.0
"/>
  <path
    fill="none"
    stroke="black"
    stroke-width="0.01"
    d="
M 1.7197048550474618 1.2264520988861416
l 0.0 1.4414952982254938
l 1.2530727453718695 0.0
l 0.0 0.8908440943033553
l 0.7743989566398155 0.0
l 0.0 0.5505416502794735
l 0.47857855520340586 0.0
l 0.0 0.3402347398727147
l 0.29576154711570485 0.0
l 0.0 0.21026506924133764
l 0.1827806361175056 0.0
l 0.0 0.12994381279114667
l 0.11295843312061846 0.0
l 0.0 0.08030527630492862
l 0.0698083116685422 0.0
l 0.0 0.0496286607564459
l 0.04314153661115909 0.0
"/>
  <path
    fill="none"
    stroke="black"
    stroke-width="0.01"
    d="
M 1.853398044750815 1.1142701927151446
l 0.0 1.4843487863828146
l 1.2020019469051888 0.0
l 0.0 0.9173275499845797
l 0.7428372031874066 0.0
l 0.0 0.5669084258904702
l 0.4590733915698172 0.0
l 0.0 0.3503494072003105
l 0.28370735599014707 0.0
l 0.0 0.21651593364979194
l 0.1753311460019109 0.0
l 0.0 0.1338068469955714
l 0.10835464822918092 0.0
l 0.0 0.08269263144326311
l 0.06696317260563381 0.0
l 0.0 0.05110404623193661
l 0.04138324067028169 0.0
"/>
  <path
    fill="none"
    stroke="black"
    stroke-width="0.01"
    d="
M 1.9909248842397584 1.0068224497635359
l 0.0 1.5253938241903295
l 1.1494666942204124 0.0
l 0.0 0.9426933833496234
l 0.7103704170282148 0.0
l 0.0 0.5825845109100672
l 0.43900891772343675 0.0
l 0.0 0.36003722774242164
l 0.2713075111530839 0.0
l 0.0 0.22250300674481654
l 0.1676680418926058 0.0
l 0.0 0.1375068581682966
l 0.10361884988963041 0.0
l 0.0 0.0849792383480073
l 0.06403644923179158 0.0
l 0.0 0.05251716929906852
l 0.0395745256252472 0.0
"/>
  <path
    fill="none"
    stroke="black"
    stroke-width="0.01"
    d="
M 2.132117818244768 0.9042397785550422
l 0.0 1.564580404591974
l 1.0955309934304986 0.0
l 0.0 0.9669106900378399
l 0.6770381539400481 0.0
l 0.0 0.597550806443385
l 0.4184095791349498 0.0
l 0.0 0.36928639838201194
l 0.25857711990539894 0.0
l 0.0 0.22821899420008335
l 0.15980066010153654 0.0
l 0.0 0.1410393384156515
l 0.0987568079427496 0.0
l 0.0 0.08716231114087261
l 0.06103170730861926 0.0
l 0.0 0.05386630828505928
l 0.0377175951167267 0.0
"/>
  <path
    fill="none"
    stroke="black"
    stroke-width="0.01"
    d="
M 2.276804824924865 0.8066471602728793
l 0.0 1.6018607847757602
l 1.0402605568787016 0.0
l 0.0 0.9899499649914196
l 0.6428810241510374 0.0
l 0.0 0.6117890783646974
l 0.3973004729253412 0.0
l 0.0 0.378085650429383
l 0.24553169226786087 0.0
l 0.0 0.2336569319653587
l 0.15173858582153804 0.0
l 0.0 0.14439998395459167
l 0.09377444603771051 0.0
l 0.0 0.08923919008393763
l 0.05795260765130508 0.0
l 0.0 0.05514981947187346
l 0.03581471152850654 0.0
"/>
  <path
    fill="none"
    stroke="black"
    stroke-width="0.01"
    d="
M 2.4248096254497282 0.714163496489439
l 0.0 1.6371895443410343
l 0.9837227230782037 0.0
l 0.0 1.0117831384027591
l 0.60794064286233 0.0
l 0.0 0.6252819795329052
l 0.37570731728891993 0.0
l 0.0 0.3864242633513354
l 0.23218712208455256 0.0
l 0.0 0.2388101947511253
l 0.14349164144825347 0.0
l 0.0 0.14758470035619545
l 0.08867783441502064 0.0
l 0.0 0.0912073448201288
l 0.05480290166848274 0.0
l 0.0 0.0563661390988396
l 0.03386819323112234 0.0
"/>
  <path
    fill="none"
    stroke="black"
    stroke-width="0.01"
    d="
M 2.5759518987683157 0.6269014643030202
l 0.0 1.6705236406362465
l 0.9259863746705035 0.0
l 0.0 1.0323836099132002
l 0.5722595795463711 0.0
l 0.0 0.6380130709263576
l 0.35365642015965737 0.0
l 0.0 0.3942920778324891
l 0.21855966765866824 0.0
l 0.0 0.2436725041004782
l 0.13506987461305694 0.0
l 0.0 0.15058960753409553
l 0.08347318251086921 0.0
l 0.0 0.09306437745607105
l 0.051586426791717155 0.0
l 0.0 0.057513785267851905
l 0.03188041175728121 0.0
"/>
  <path
    fill="none"
    stroke="black"
    stroke-width="0.01"
    d="
M 2.7300475013022654 0.5449673790581606
l 0.0 1.7018224611997828
l 0.8671218545025345 0.0
l 0.0 1.0517262810214656
l 0.5358813060825665 0.0
l 0.0 0.6499668416712658
l 0.331174647159026 0.0
l 0.0 0.40167950815284226
l 0.20466593194427812 0.0
l 0.0 0.2482379360384565
l 0.12648354594156389 0.0
l 0.0 0.1534110444717661
l 0.07816683139188646 0.0
l 0.0 0.09480802548355144
l 0.04830710180018584 0.0
l 0.0 0.058591359748834795
l 0.029853788912514855 0.0
"/>
  <path
    fill="none"
    stroke="black"
    stroke-width="0.01"
    d="
M 2.8869086912965 0.46846106481675154
l 0.0 1.731047873240001
l 0.807200879924737 0.0
l 0.0 1.0697875856623205
l 0.49885014379348747 0.0
l 0.0 0.6611287279393141
l 0.30828938886437524 0.0
l 0.0 0.4085775538664962
l 0.1905228423181839 0.0
l 0.0 0.2525009282894946
l 0.11774311655263764 0.0
l 0.0 0.15604557368290767
l 0.07276524602953006 0.0
l 0.0 0.09643616453603693
l 0.04496892204624958 0.0
l 0.0 0.059597549683270815
l 0.027790793824582237 0.0
"/>
  <path
    fill="none"
    stroke="black"
    stroke-width="0.01"
    d="
M 3.0463443575536306 0.39747573273779846
l 0.0 1.758164270094161
l 0.7462964554145131 0.0
l 0.0 1.0865455189181914
l 0.461211209446169 0.0
l 0.0 0.6714851306914424
l 0.2850285274377325 0.0
l 0.0 0.41497781076731133
l 0.17614762995651867 0.0
l 0.0 0.2564562870541984
l 0.10885923531312852 0.0
l 0.0 0.1584899853994946
l 0.06727500742351342 0.0
l 0.0 0.09794681097688768
l 0.04157595458773129 0.0
l 0.0 0.06053112918371659
l 0.025693939935217944 0.0
"/>
  <path
    fill="none"
    stroke="black"
    stroke-width="0.01"
    d="
M 3.2081602522734967 0.3320978675139923
l 0.0 1.7831386146096548
l 0.6844827836315244 0.0
l 0.0 1.1019796638287669
l 0.42301036028428207 0.0
l 0.0 0.6810234322461779
l 0.2614204026556863 0.0
l 0.0 0.4208724811281379
l 0.16155780884121412 0.0
l 0.0 0.2600991933371892
l 0.09984272586387036 0.0
l 0.0 0.16074130148238291
l 0.06170280458387187 0.0
l 0.0 0.09933812431611266
l 0.03813233323283281 0.0
l 0.0 0.06139096082735762
l 0.023565781937890683 0.0
"/>
  <path
    fill="none"
    stroke="black"
    stroke-width="0.01"
    d="
M 3.3721592277142167 0.27240712200341566
l 0.0 1.8059404793946952
l 0.6218351750131692 0.0
l 0.0 1.1160712162659217
l 0.3842941381581386 0.0
l 0.0 0.6897320116523395
l 0.2374937773817296 0.0
l 0.0 0.42625438320114595
l 0.1467711544219089 0.0
l 0.0 0.26342520881830817
l 0.09070457343273972 0.0
l 0.0 0.1627967790497144
l 0.05605542638143314 0.0
l 0.0 0.10060840945272351
l 0.03464225350372568 0.0
l 0.0 0.06217599704178314
l 0.021408912665302468 0.0
"/>
  <path
    fill="none"
    stroke="black"
    stroke-width="0.01"
    d="
M 3.5381414763863144 0.21847622018482316
l 0.0 1.8265420838893975
l 0.5584299560204279 0.0
l 0.0 1.1288030078436477
l 0.3451097128206244 0.0
l 0.0 0.6976002588473742
l 0.21327780252314593 0.0
l 0.0 0.4311169599676773
l 0.13180568195930417 0.0
l 0.0 0.2664302812600246
l 0.08145591145084999 0.0
l 0.0 0.1646539138186952
l 0.05033975327662529 0.0
l 0.0 0.10175611873995363
l 0.03110996752495443 0.0
l 0.0 0.06288528138129133
l 0.01922595993042184 0.0
"/>
  <path
    fill="none"
    stroke="black"
    stroke-width="0.01"
    d="
M 3.7059047744873967 0.17037086855465855
l 0.0 1.8449183282121204
l 0.4943443761458145 0.0
l 0.0 1.1401595268350904
l 0.30550482445811333 0.0
l 0.0 0.704618587584086
l 0.18880198151511401 0.0
l 0.0 0.4354542871269651
l 0.11667962457634046 0.0
l 0.0 0.2691107494444644
l 0.0721080079881784 0.0
l 0.0 0.16631044315667898
l 0.04456274893669425 0.0
l 0.0 0.10277985387082761
l 0.027539778842877047 0.0
l 0.0 0.06351794969217146
l 0.017019583324898016 0.0
"/>
  <path
    fill="none"
    stroke="black"
    stroke-width="0.01"
    d="
M 3.8752447282806735 0.1281496760738241
l 0.0 1.861046823739799
l 0.4296565137967827 0.0
l 0.0 1.150126937071196
l 0.2655277255264117 0.0
l 0.0 0.7107784471099992
l 0.1640961343753224 0.0
l 0.0 0.4392610803139795
l 0.10141141104394924 0.0
l 0.0 0.2714633476340393
l 0.06267225202516064 0.0
l 0.0 0.16776434883783625
l 0.03873145175154927 0.0
l 0.0 0.10367836758178281
l 0.023936037182457452 0.0
l 0.0 0.06407323116554178
l 0.014792470978758705 0.0
"/>
  <path
    fill="none"
    stroke="black"
    stroke-width="0.01"
    d="
M 4.045955023117273 0.09186408276168034
l 0.0 1.8749079203850383
l 0.3644451811692019 0.0
l 0.0 1.1586930947979535
l 0.22522712196256672 0.0
l 0.0 0.7160723325851353
l 0.13919036137286625 0.0
l 0.0 0.4425327015376136
l 0.08601964332843134 0.0
l 0.0 0.2734852095502452
l 0.05316013957697058 0.0
l 0.0 0.16901385950205156
l 0.03285296625856781 0.0
l 0.0 0.10445056517226786
l 0.02030313314779491 0.0
l 0.0 0.06455044927646153
l 0.012547336285337253 0.0
"/>
  <path
    fill="none"
    stroke="black"
    stroke-width="0.01"
    d="
M 4.217827674798845 0.06155829702431159
l 0.0 1.8864847305367132
l 0.2987898282268413 0.0
l 0.0 1.1658475634716885
l 0.1846521138441879 0.0
l 0.0 0.7204937942255036
l 0.11411500635570815 0.0
l 0.0 0.44526516483136114
l 0.07052307392782763 0.0
l 0.0 0.2751738718657812
l 0.04358325968739747 0.0
l 0.0 0.1700574528130528
l 0.026934454486811636 0.0
l 0.0 0.10509550583846661
l 0.016645492872849593 0.0
l 0.0 0.06494902260817237
l 0.010286914595421047 0.0
"/>
  <path
    fill="none"
    stroke="black"
    stroke-width="0.01"
    d="
M 4.390653282974264 0.037269241793389085
l 0.0 1.8957631496349254
l 0.2327704459038311 0.0
l 0.0 1.171581626474384
l 0.1438521355685676 0.0
l 0.0 0.7240374451611693
l 0.08890061978137478 0.0
l 0.0 0.4474551411096025
l 0.05494058302488962 0.0
l 0.0 0.2765272772057344
l 0.03395328030938178 0.0
l 0.0 0.17089385731314383
l 0.02098312723119794 0.0
l 0.0 0.10561240381952289
l 0.012967572628880326 0.0
l 0.0 0.06526846556046516
l 0.008013959884648042 0.0
"/>
  <path
    fill="none"
    stroke="black"
    stroke-width="0.01"
    d="
M 4.564221286261708 0.019026509541272496
l 0.0 1.902731873355234
l 0.16646746864802725 0.0
l 0.0 1.1758882977335345
l 0.10287689562448085 0.0
l 0.0 0.7266989679993243
l 0.06357792149592917 0.0
l 0.0 0.4490999622235824
l 0.039291155484484225 0.0
l 0.0 0.27754377665417396
l 0.024281934089411247 0.0
l 0.0 0.1715220539722795
l 0.015006235267256147 0.0
l 0.0 0.1060006293548687
l 0.0092738533951643 0.0
l 0.0 0.06550838894130886
l 0.005731241398211538 0.0
"/>
  <path
    fill="none"
    stroke="black"
    stroke-width="0.01"
    d="
M 4.738320218785279 0.006852326227130945
l 0.0 1.9073824113812359
l 0.09996167642402362 0.0
l 0.0 1.1787623302336039
l 0.0617763160300466 0.0
l 0.0 0.7284751200843671
l 0.038177763306568795 0.0
l 0.0 0.45019762421213894
l 0.023593857723459517 0.0
l 0.0 0.2782221317631019
l 0.01458100407309798 0.0
l 0.0 0.17194127742959697
l 0.009011060517174551 0.0
l 0.0 0.10625970945149091
l 0.005568835399613873 0.0
l 0.0 0.06566850044102139
l 0.003441540276961373 0.0
"/>
  <path
    fill="none"
    stroke="black"
    stroke-width="0.01"
    d="
M 4.912737967813582 0.0007615242180438742
l 0.0 1.9097090977487072
l 0.03333409629521148 0.0
l 0.0 1.1802002224087011
l 0.020600471510440692 0.0
l 0.0 0.7293637374485773
l 0.012731091393452347 0.0
l 0.0 0.4507467897432207
l 0.007867814481153552 0.0
l 0.0 0.2785615160613104
l 0.004862309349352894 0.0
l 0.0 0.17215101692588985
l 0.003004907177900089 0.0
l 0.0 0.10638932846019991
l 0.0018570326359422552 0.0
l 0.0 0.06574860498840354
l 0.0011476461690123137 0.0
"/>
  <path
    fill="none"
    stroke="black"
    stroke-width="0.01"
    d="
M 5.087262032186415 0.0007615242180438742
l 0.0 1.9097090977487072
l -0.03333409629521078 0.0
l 0.0 1.1802002224087011
l -0.02060047151044026 0.0
l 0.0 0.7293637374485773
l -0.01273109139345208 0.0
l 0.0 0.4507467897432207
l -0.007867814481153385 0.0
l 0.0 0.2785615160613104
l -0.004862309349352794 0.0
l 0.0 0.17215101692588985
l -0.0030049071779000257 0.0
l 0.0 0.10638932846019991
l -0.0018570326359422158 0.0
l 0.0 0.06574860498840354
l -0.0011476461690122894 0.0
"/>
  <path
    fill="none"
    stroke="black"
    stroke-width="0.01"
    d="
M 5.26167978121472 0.006852326227130945
l 0.0 1.9073824113812359
l -0.09996167642402295 0.0
l 0.0 1.1787623302336039
l -0.06177631603004617 0.0
l 0.0 0.7284751200843671
l -0.03817776330656854 0.0
l 0.0 0.45019762421213894
l -0.02359385772345935 0.0
l 0.0 0.2782221317631019
l -0.014581004073097883 0.0
l 0.0 0.17194127742959697
l -0.00901106051717449 0.0
l 0.0 0.10625970945149091
l -0.0055688353996138345 0.0
l 0.0 0.06566850044102139
l -0.0034415402769613504 0.0
"/>
  <path
    fill="none"
    stroke="black"
    stroke-width="0.01"
    d="
M 5.43577871373829 0.019026509541272496
l 0.0 1.902731873355234
l -0.16646746864802658 0.0
l 0.0 1.1758882977335345
l -0.10287689562448044 0.0
l 0.0 0.7266989679993243
l -0.06357792149592889 0.0
l 0.0 0.4490999622235824
l -0.03929115548448406 0.0
l 0.0 0.27754377665417396
l -0.02428193408941115 0.0
l 0.0 0.1715220539722795
l -0.015006235267256089 0.0
l 0.0 0.1060006293548687
l -0.009273853395164264 0.0
l 0.0 0.06550838894130886
l -0.005731241398211516 0.0
"/>
  <path
    fill="none"
    stroke="black"
    stroke-width="0.01"
    d="
M 5.609346717025739 0.03726924179338997
l 0.0 1.895763149634925
l -0.23277044590383206 0.0
l 0.0 1.1715816264743837
l -0.1438521355685682 0.0
l 0.0 0.7240374451611691
l -0.08890061978137517 0.0
l 0.0 0.4474551411096025
l -0.05494058302488984 0.0
l 0.0 0.2765272772057344
l -0.033953280309381925 0.0
l 0.0 0.17089385731314383
l -0.02098312723119803 0.0
l 0.0 0.10561240381952289
l -0.012967572628880385 0.0
l 0.0 0.06526846556046516
l -0.008013959884648078 0.0
"/>
  <path
    fill="none"
    stroke="black"
    stroke-width="0.01"
    d="
M 5.782172325201153 0.061558297024310704
l 0.0 1.8864847305367132
l -0.29878982822684064 0.0
l 0.0 1.165847563471689
l -0.1846521138441875 0.0
l 0.0 0.7204937942255036
l -0.11411500635570787 0.0
l 0.0 0.44526516483136136
l -0.07052307392782746 0.0
l 0.0 0.2751738718657813
l -0.04358325968739736 0.0
l 0.0 0.17005745281305285
l -0.026934454486811574 0.0
l 0.0 0.10509550583846664
l -0.01664549287284955 0.0
l 0.0 0.06494902260817238
l -0.010286914595421023 0.0
"/>
  <path
    fill="none"
    stroke="black"
    stroke-width="0.01"
    d="
M 5.954044976882721 0.09186408276167946
l 0.0 1.8749079203850383
l -0.36444518116919955 0.0
l 0.0 1.158693094797954
l -0.22522712196256528 0.0
l 0.0 0.7160723325851355
l -0.13919036137286536 0.0
l 0.0 0.4425327015376137
l -0.08601964332843079 0.0
l 0.0 0.27348520955024525
l -0.05316013957697023 0.0
l 0.0 0.16901385950205156
l -0.0328529662585676 0.0
l 0.0 0.10445056517226786
l -0.020303133147794777 0.0
l 0.0 0.06455044927646154
l -0.012547336285337173 0.0
"/>
  <path
    fill="none"
    stroke="black"
    stroke-width="0.01"
    d="
M 6.124755271719325 0.1281496760738241
l 0.0 1.861046823739799
l -0.42965651379678194 0.0
l 0.0 1.150126937071196
l -0.2655277255264113 0.0
l 0.0 0.7107784471099992
l -0.16409613437532217 0.0
l 0.0 0.4392610803139795
l -0.1014114110439491 0.0
l 0.0 0.2714633476340393
l -0.06267225202516054 0.0
l 0.0 0.16776434883783625
l -0.03873145175154921 0.0
l 0.0 0.10367836758178281
l -0.02393603718245741 0.0
l 0.0 0.06407323116554178
l -0.014792470978758684 0.0
"/>
  <path
    fill="none"
    stroke="black"
    stroke-width="0.01"
    d="
M 6.2940952255126055 0.17037086855465944
l 0.0 1.84491832821212
l -0.4943443761458154 0.0
l 0.0 1.1401595268350904
l -0.3055048244581139 0.0
l 0.0 0.7046185875840858
l -0.1888019815151144 0.0
l 0.0 0.435454287126965
l -0.11667962457634068 0.0
l 0.0 0.26911074944446434
l -0.07210800798817855 0.0
l 0.0 0.16631044315667898
l -0.044562748936694346 0.0
l 0.0 0.10277985387082761
l -0.027539778842877102 0.0
l 0.0 0.06351794969217145
l -0.01701958332489805 0.0
"/>
  <path
    fill="none"
    stroke="black"
    stroke-width="0.01"
    d="
M 6.461858523613683 0.21847622018482316
l 0.0 1.8265420838893975
l -0.5584299560204271 0.0
l 0.0 1.1288030078436477
l -0.34510971282062397 0.0
l 0.0 0.6976002588473742
l -0.21327780252314565 0.0
l 0.0 0.4311169599676773
l -0.131805681959304 0.0
l 0.0 0.2664302812600246
l -0.08145591145084988 0.0
l 0.0 0.1646539138186952
l -0.05033975327662521 0.0
l 0.0 0.10175611873995363
l -0.03110996752495438 0.0
l 0.0 0.06288528138129133
l -0.019225959930421806 0.0
"/>
  <path
    fill="none"
    stroke="black"
    stroke-width="0.01"
    d="
M 6.627840772285781 0.27240712200341477
l 0.0 1.8059404793946956
l -0.6218351750131685 0.0
l 0.0 1.1160712162659219
l -0.3842941381581382 0.0
l 0.0 0.6897320116523398
l -0.2374937773817294 0.0
l 0.0 0.42625438320114595
l -0.14677115442190874 0.0
l 0.0 0.26342520881830817
l -0.0907045734327396 0.0
l 0.0 0.1627967790497144
l -0.05605542638143307 0.0
l 0.0 0.10060840945272351
l -0.03464225350372564 0.0
l 0.0 0.06217599704178314
l -0.021408912665302447 0.0
"/>
  <path
    fill="none"
    stroke="black"
    stroke-width="0.01"
    d="
M 6.791839747726498 0.3320978675139896
l 0.0 1.7831386146096562
l -0.6844827836315222 0.0
l 0.0 1.1019796638287673
l -0.42301036028428074 0.0
l 0.0 0.6810234322461781
l -0.26142040265568545 0.0
l 0.0 0.42087248112813813
l -0.16155780884121362 0.0
l 0.0 0.2600991933371894
l -0.09984272586387 0.0
l 0.0 0.16074130148238303
l -0.06170280458387167 0.0
l 0.0 0.09933812431611272
l -0.03813233323283269 0.0
l 0.0 0.06139096082735766
l -0.0235657819378906 0.0
"/>
  <path
    fill="none"
    stroke="black"
    stroke-width="0.01"
    d="
M 6.953655642446368 0.39747573273779757
l 0.0 1.7581642700941615
l -0.7462964554145124 0.0
l 0.0 1.0865455189181916
l -0.46121120944616867 0.0
l 0.0 0.6714851306914424
l -0.28502852743773227 0.0
l 0.0 0.41497781076731144
l -0.1761476299565185 0.0
l 0.0 0.25645628705419843
l -0.10885923531312847 0.0
l 0.0 0.15848998539949466
l -0.06727500742351337 0.0
l 0.0 0.09794681097688768
l -0.041575954587731265 0.0
l 0.0 0.06053112918371659
l -0.02569393993521793 0.0
"/>
  <path
    fill="none"
    stroke="black"
    stroke-width="0.01"
    d="
M 7.113091308703498 0.46846106481675065
l 0.0 1.7310478732400014
l -0.8072008799247363 0.0
l 0.0 1.0697875856623207
l -0.498850143793487 0.0
l 0.0 0.6611287279393143
l -0.30828938886437496 0.0
l 0.0 0.4085775538664962
l -0.19052284231818373 0.0
l 0.0 0.2525009282894946
l -0.11774311655263756 0.0
l 0.0 0.15604557368290767
l -0.07276524602953001 0.0
l 0.0 0.09643616453603693
l -0.044968922046249554 0.0
l 0.0 0.059597549683270815
l -0.027790793824582216 0.0
"/>
  <path
    fill="none"
    stroke="black"
    stroke-width="0.01"
    d="
M 7.269952498697734 0.5449673790581606
l 0.0 1.7018224611997828
l -0.8671218545025341 0.0
l 0.0 1.0517262810214656
l -0.5358813060825661 0.0
l 0.0 0.6499668416712658
l -0.3311746471590259 0.0
l 0.0 0.40167950815284226
l -0.20466593194427796 0.0
l 0.0 0.2482379360384565
l -0.12648354594156377 0.0
l 0.0 0.1534110444717661
l -0.0781668313918864 0.0
l 0.0 0.09480802548355144
l -0.0483071018001858 0.0
l 0.0 0.058591359748834795
l -0.029853788912514827 0.0
"/>
  <path
    fill="none"
    stroke="black"
    stroke-width="0.01"
    d="
M 7.424048101231683 0.6269014643030193
l 0.0 1.6705236406362465
l -0.9259863746705028 0.0
l 0.0 1.0323836099132004
l -0.5722595795463706 0.0
l 0.0 0.6380130709263578
l -0.35365642015965704 0.0
l 0.0 0.3942920778324892
l -0.21855966765866808 0.0
l 0.0 0.24367250410047836
l -0.1350698746130569 0.0
l 0.0 0.15058960753409562
l -0.08347318251086916 0.0
l 0.0 0.09306437745607107
l -0.05158642679171714 0.0
l 0.0 0.05751378526785193
l -0.031880411757281193 0.0
"/>
  <path
    fill="none"
    stroke="black"
    stroke-width="0.01"
    d="
M 7.575190374550271 0.7141634964894381
l 0.0 1.6371895443410347
l -0.9837227230782035 0.0
l 0.0 1.0117831384027594
l -0.6079406428623297 0.0
l 0.0 0.6252819795329054
l -0.3757073172889198 0.0
l 0.0 0.3864242633513354
l -0.2321871220845524 0.0
l 0.0 0.2388101947511253
l -0.14349164144825338 0.0
l 0.0 0.14758470035619545
l -0.08867783441502061 0.0
l 0.0 0.0912073448201288
l -0.05480290166848273 0.0
l 0.0 0.0563661390988396
l -0.03386819323112233 0.0
"/>
  <path
    fill="none"
    stroke="black"
    stroke-width="0.01"
    d="
M 7.7231951750751335 0.8066471602728784
l 0.0 1.6018607847757607
l -1.040260556878701 0.0
l 0.0 0.9899499649914199
l -0.6428810241510372 0.0
l 0.0 0.6117890783646975
l -0.3973004729253409 0.0
l 0.0 0.378085650429383
l -0.2455316922678607 0.0
l 0.0 0.2336569319653587
l -0.15173858582153787 0.0
l 0.0 0.1443999839545917
l -0.09377444603771043 0.0
l 0.0 0.08923919008393766
l -0.05795260765130503 0.0
l 0.0 0.05514981947187349
l -0.035814711528506515 0.0
"/>
  <path
    fill="none"
    stroke="black"
    stroke-width="0.01"
    d="
M 7.86788218175523 0.9042397785550413
l 0.0 1.5645804045919744
l -1.095530993430498 0.0
l 0.0 0.9669106900378399
l -0.6770381539400476 0.0
l 0.0 0.5975508064433851
l -0.4184095791349496 0.0
l 0.0 0.36928639838201205
l -0.2585771199053988 0.0
l 0.0 0.2282189942000834
l -0.15980066010153648 0.0
l 0.0 0.14103933841565156
l -0.09875680794274952 0.0
l 0.0 0.08716231114087267
l -0.061031707308619204 0.0
l 0.0 0.0538663082850593
l -0.03771759511672667 0.0
"/>
  <path
    fill="none"
    stroke="black"
    stroke-width="0.01"
    d="
M 8.00907511576024 1.006822449763534
l 0.0 1.52539382419033
l -1.1494666942204117 0.0
l 0.0 0.942693383349624
l -0.7103704170282144 0.0
l 0.0 0.5825845109100676
l -0.4390089177234364 0.0
l 0.0 0.36003722774242175
l -0.2713075111530837 0.0
l 0.0 0.2225030067448166
l -0.16766804189260576 0.0
l 0.0 0.1375068581682967
l -0.10361884988963035 0.0
l 0.0 0.08497923834800733
l -0.06403644923179157 0.0
l 0.0 0.052517169299068536
l -0.03957452562524719 0.0
"/>
  <path
    fill="none"
    stroke="black"
    stroke-width="0.01"
    d="
M 8.146601955249189 1.114270192715146
l 0.0 1.4843487863828142
l -1.2020019469051897 0.0
l 0.0 0.9173275499845792
l -0.7428372031874073 0.0
l 0.0 0.56690842589047
l -0.45907339156981763 0.0
l 0.0 0.3503494072003105
l -0.28370735599014735 0.0
l 0.0 0.21651593364979183
l -0.17533114600191102 0.0
l 0.0 0.13380684699557135
l -0.10835464822918103 0.0
l 0.0 0.08269263144326311
l -0.06696317260563388 0.0
l 0.0 0.051104046231936595
l -0.041383240670281735 0.0
"/>
  <path
    fill="none"
    stroke="black"
    stroke-width="0.01"
    d="
M 8.280295144952536 1.226452098886139
l 0.0 1.4414952982254952
l -1.2530727453718682 0.0
l 0.0 0.8908440943033558
l -0.7743989566398148 0.0
l 0.0 0.5505416502794739
l -0.47857855520340553 0.0
l 0.0 0.3402347398727149
l -0.29576154711570457 0.0
l 0.0 0.21026506924133775
l -0.1827806361175054 0.0
l 0.0 0.12994381279114675
l -0.11295843312061835 0.0
l 0.0 0.08030527630492867
l -0.06980831166854215 0.0
l 0.0 0.049628660756445925
l -0.04314153661115905 0.0
"/>
  <path
    fill="none"
    stroke="black"
    stroke-width="0.01"
    d="
M 8.40999180031249 1.3432314919041453
l 0.0 1.3968855700926164
l -1.3026168677193715 0.0
l 0.0 0.8632752823172372
l -0.8050172242505713 0.0
l 0.0 0.5335041244720524
l -0.49750064458685317 0.0
l 0.0 0.3297055489237284
l -0.3074553983546752 0.0
l 0.0 0.2037580292348642
l -0.19000743618318933 0.0
l 0.0 0.12592246206714608
l -0.11742459556121099 0.0
l 0.0 0.07782008155749626
l -0.07256840005682838 0.0
l 0.0 0.0480928104025327
l -0.04484727123511993 0.0
"/>
  <path
    fill="none"
    stroke="black"
    stroke-width="0.01"
    d="
M 8.535533905932738 1.4644660940672614
l 0.0 1.350573952066306
l -1.3505739520663056 0.0
l 0.0 0.8346547023769773
l -0.8346547023769768 0.0
l 0.0 0.515816606068972
l -0.5158166060689716 0.0
l 0.0 0.3187746625506247
l -0.3187746625506245 0.0
l 0.0 0.19700274145628605
l -0.19700274145628588 0.0
l 0.0 0.12174769421998474
l -0.12174769421998469 0.0
l 0.0 0.07524007502795059
l -0.07524007502795055 0.0
l 0.0 0.04649836636727346
l -0.04649836636727343 0.0
"/>
  <path
    fill="none"
    stroke="black"
    stroke-width="0.01"
    d="
M 8.656768508095853 1.5900081996875084
l 0.0 1.302616867719372
l -1.396885570092616 0.0
l 0.0 0.8050172242505718
l -0.8632752823172367 0.0
l 0.0 0.4975006445868533
l -0.5335041244720523 0.0
l 0.0 0.3074553983546754
l -0.3297055489237283 0.0
l 0.0 0.19000743618318938
l -0.20375802923486414 0.0
l 0.0 0.11742459556121101
l -0.125922462067146 0.0
l 0.0 0.07256840005682841
l -0.07782008155749623 0.0
l 0.0 0.04484727123511996
l -0.048092810402532674 0.0
"/>
  <path
    fill="none"
    stroke="black"
    stroke-width="0.01"
    d="
M 8.77354790111386 1.7197048550474632
l 0.0 1.253072745371869
l -1.4414952982254943 0.0
l 0.0 0.7743989566398151
l -0.8908440943033555 0.0
l 0.0 0.47857855520340575
l -0.5505416502794738 0.0
l 0.0 0.29576154711570474
l -0.3402347398727148 0.0
l 0.0 0.1827806361175055
l -0.21026506924133775 0.0
l 0.0 0.11295843312061843
l -0.12994381279114675 0.0
l 0.0 0.06980831166854218
l -0.08030527630492867 0.0
l 0.0 0.04314153661115906
l -0.049628660756445925 0.0
"/>
  <path
    fill="none"
    stroke="black"
    stroke-width="0.01"
    d="
M 8.885729807284854 1.853398044750811
l 0.0 1.2020019469051901
l -1.4843487863828138 0.0
l 0.0 0.7428372031874075
l -0.917327549984579 0.0
l 0.0 0.45907339156981797
l -0.5669084258904697 0.0
l 0.0 0.28370735599014746
l -0.35034940720031027 0.0
l 0.0 0.17533114600191113
l -0.21651593364979177 0.0
l 0.0 0.10835464822918106
l -0.1338068469955713 0.0
l 0.0 0.0669631726056339
l -0.08269263144326305 0.0
l 0.0 0.04138324067028175
l -0.05110404623193657 0.0
"/>
  <path
    fill="none"
    stroke="black"
    stroke-width="0.01"
    d="
M 8.993177550236464 1.9909248842397584
l 0.0 1.1494666942204124
l -1.5253938241903295 0.0
l 0.0 0.7103704170282148
l -0.9426933833496234 0.0
l 0.0 0.43900891772343675
l -0.5825845109100672 0.0
l 0.0 0.2713075111530839
l -0.36003722774242164 0.0
l 0.0 0.1676680418926058
l -0.22250300674481654 0.0
l 0.0 0.10361884988963041
l -0.1375068581682966 0.0
l 0.0 0.06403644923179158
l -0.0849792383480073 0.0
l 0.0 0.0395745256252472
l -0.05251716929906852 0.0
"/>
  <path
    fill="none"
    stroke="black"
    stroke-width="0.01"
    d="
M 9.095760221444959 2.1321178182447675
l 0.0 1.0955309934304989
l -1.564580404591974 0.0
l 0.0 0.6770381539400483
l -0.9669106900378399 0.0
l 0.0 0.4184095791349498
l -0.597550806443385 0.0
l 0.0 0.25857711990539894
l -0.36928639838201194 0.0
l 0.0 0.15980066010153654
l -0.22821899420008335 0.0
l 0.0 0.0987568079427496
l -0.1410393384156515 0.0
l 0.0 0.06103170730861926
l -0.08716231114087261 0.0
l 0.0 0.0377175951167267
l -0.05386630828505928 0.0
"/>
  <path
    fill="none"
    stroke="black"
    stroke-width="0.01"
    d="
M 9.19335283972712 2.276804824924865
l 0.0 1.0402605568787016
l -1.6018607847757602 0.0
l 0.0 0.6428810241510374
l -0.9899499649914196 0.0
l 0.0 0.3973004729253412
l -0.6117890783646974 0.0
l 0.0 0.24553169226786087
l -0.378085650429383 0.0
l 0.0 0.15173858582153804
l -0.2336569319653587 0.0
l 0.0 0.09377444603771051
l -0.14439998395459167 0.0
l 0.0 0.05795260765130508
l -0.08923919008393763 0.0
l 0.0 0.03581471152850654
l -0.05514981947187346 0.0
"/>
  <path
    fill="none"
    stroke="black"
    stroke-width="0.01"
    d="
M 9.285836503510561 2.4248096254497273
l 0.0 0.9837227230782042
l -1.6371895443410343 0.0
l 0.0 0.6079406428623302
l -1.0117831384027591 0.0
l 0.0 0.37570731728892004
l -0.6252819795329052 0.0
l 0.0 0.23218712208455256
l -0.3864242633513354 0.0
l 0.0 0.1434916414482535
l -0.2388101947511253 0.0
l 0.0 0.08867783441502067
l -0.14758470035619545 0.0
l 0.0 0.05480290166848277
l -0.0912073448201288 0.0
l 0.0 0.03386819323112235
l -0.0563661390988396 0.0
"/>
  <path
    fill="none"
    stroke="black"
    stroke-width="0.01"
    d="
M 9.373098535696979 2.5759518987683157
l 0.0 0.9259863746705035
l -1.670523640636246 0.0
l 0.0 0.5722595795463711
l -1.0323836099132 0.0
l 0.0 0.35365642015965737
l -0.6380130709263576 0.0
l 0.0 0.21855966765866824
l -0.394292077832489 0.0
l 0.0 0.13506987461305694
l -0.2436725041004782 0.0
l 0.0 0.08347318251086921
l -0.1505896075340955 0.0
l 0.0 0.051586426791717155
l -0.09306437745607102 0.0
l 0.0 0.03188041175728121
l -0.05751378526785189 0.0
"/>
  <path
    fill="none"
    stroke="black"
    stroke-width="0.01"
    d="
M 9.45503262094184 2.7300475013022654
l 0.0 0.8671218545025345
l -1.7018224611997828 0.0
l 0.0 0.5358813060825665
l -1.0517262810214656 0.0
l 0.0 0.331174647159026
l -0.6499668416712658 0.0
l 0.0 0.20466593194427812
l -0.40167950815284226 0.0
l 0.0 0.12648354594156389
l -0.2482379360384565 0.0
l 0.0 0.07816683139188646
l -0.1534110444717661 0.0
l 0.0 0.04830710180018584
l -0.09480802548355144 0.0
l 0.0 0.029853788912514855
l -0.058591359748834795 0.0
"/>
  <path
    fill="none"
    stroke="black"
    stroke-width="0.01"
    d="
M 9.53153893518325 2.8869086912965
l 0.0 0.807200879924737
l -1.731047873240001 0.0
l 0.0 0.49885014379348747
l -1.0697875856623205 0.0
l 0.0 0.30828938886437524
l -0.6611287279393141 0.0
l 0.0 0.1905228423181839
l -0.4085775538664962 0.0
l 0.0 0.11774311655263764
l -0.2525009282894946 0.0
l 0.0 0.07276524602953006
l -0.15604557368290767 0.0
l 0.0 0.04496892204624958
l -0.09643616453603693 0.0
l 0.0 0.027790793824582237
l -0.059597549683270815 0.0
"/>
  <path
    fill="none"
    stroke="black"
    stroke-width="0.01"
    d="
M 9.6025242672622 3.046344357553626
l 0.0 0.7462964554145146
l -1.7581642700941602 0.0
l 0.0 0.4612112094461701
l -1.0865455189181912 0.0
l 0.0 0.28502852743773316
l -0.671485130691442 0.0
l 0.0 0.17614762995651906
l -0.4149778107673112 0.0
l 0.0 0.1088592353131288
l -0.2564562870541984 0.0
l 0.0 0.0672750074235136
l -0.15848998539949455 0.0
l 0.0 0.041575954587731404
l -0.09794681097688765 0.0
l 0.0 0.025693939935218
l -0.06053112918371657 0.0
"/>
  <path
    fill="none"
    stroke="black"
    stroke-width="0.01"
    d="
M 9.667902132486008 3.208160252273496
l 0.0 0.6844827836315244
l -1.7831386146096548 0.0
l 0.0 0.4230103602842822
l -1.1019796638287669 0.0
l 0.0 0.26142040265568633
l -0.6810234322461779 0.0
l 0.0 0.16155780884121418
l -0.4208724811281379 0.0
l 0.0 0.09984272586387036
l -0.2600991933371892 0.0
l 0.0 0.06170280458387187
l -0.16074130148238291 0.0
l 0.0 0.03813233323283281
l -0.09933812431611266 0.0
l 0.0 0.023565781937890683
l -0.06139096082735762 0.0
"/>
  <path
    fill="none"
    stroke="black"
    stroke-width="0.01"
    d="
M 9.727592877996582 3.3721592277142123
l 0.0 0.621835175013171
l -1.8059404793946947 0.0
l 0.0 0.3842941381581396
l -1.1160712162659212 0.0
l 0.0 0.23749377738173028
l -0.6897320116523393 0.0
l 0.0 0.1467711544219093
l -0.4262543832011456 0.0
l 0.0 0.09070457343273994
l -0.263425208818308 0.0
l 0.0 0.05605542638143328
l -0.16279677904971435 0.0
l 0.0 0.034642253503725774
l -0.10060840945272348 0.0
l 0.0 0.021408912665302524
l -0.062175997041783115 0.0
"/>
  <path
    fill="none"
    stroke="black"
    stroke-width="0.01"
    d="
M 9.781523779815178 3.5381414763863184
l 0.0 0.5584299560204263
l -1.8265420838893984 0.0
l 0.0 0.3451097128206234
l -1.128803007843648 0.0
l 0.0 0.21327780252314532
l -0.6976002588473744 0.0
l 0.0 0.13180568195930378
l -0.4311169599676775 0.0
l 0.0 0.08145591145084974
l -0.26643028126002466 0.0
l 0.0 0.05033975327662514
l -0.16465391381869526 0.0
l 0.0 0.031109967524954332
l -0.10175611873995366 0.0
l 0.0 0.019225959930421775
l -0.06288528138129137 0.0
"/>
  <path
    fill="none"
    stroke="black"
    stroke-width="0.01"
    d="
M 9.82962913144534 3.7059047744873963
l 0.0 0.4943443761458145
l -1.8449183282121204 0.0
l 0.0 0.3055048244581134
l -1.1401595268350904 0.0
l 0.0 0.18880198151511407
l -0.704618587584086 0.0
l 0.0 0.11667962457634051
l -0.4354542871269651 0.0
l 0.0 0.07210800798817843
l -0.2691107494444644 0.0
l 0.0 0.04456274893669426
l -0.16631044315667898 0.0
l 0.0 0.027539778842877054
l -0.10277985387082761 0.0
l 0.0 0.01701958332489802
l -0.06351794969217146 0.0
"/>
  <path
    fill="none"
    stroke="black"
    stroke-width="0.01"
    d="
M 9.871850323926175 3.8752447282806735
l 0.0 0.4296565137967828
l -1.861046823739799 0.0
l 0.0 0.2655277255264118
l -1.150126937071196 0.0
l 0.0 0.1640961343753225
l -0.7107784471099992 0.0
l 0.0 0.1014114110439493
l -0.4392610803139795 0.0
l 0.0 0.06267225202516065
l -0.2714633476340393 0.0
l 0.0 0.03873145175154928
l -0.16776434883783625 0.0
l 0.0 0.02393603718245746
l -0.10367836758178281 0.0
l 0.0 0.014792470978758712
l -0.06407323116554178 0.0
"/>
  <path
    fill="none"
    stroke="black"
    stroke-width="0.01"
    d="
M 9.908135917238319 4.045955023117276
l 0.0 0.3644451811692003
l -1.8749079203850383 0.0
l 0.0 0.22522712196256578
l -1.1586930947979535 0.0
l 0.0 0.13919036137286564
l -0.7160723325851353 0.0
l 0.0 0.08601964332843096
l -0.4425327015376136 0.0
l 0.0 0.05316013957697034
l -0.2734852095502452 0.0
l 0.0 0.032852966258567665
l -0.16901385950205156 0.0
l 0.0 0.02030313314779482
l -0.10445056517226786 0.0
l 0.0 0.012547336285337198
l -0.06455044927646153 0.0
"/>
  <path
    fill="none"
    stroke="black"
    stroke-width="0.01"
    d="
M 9.938441702975688 4.217827674798844
l 0.0 0.29878982822684147
l -1.8864847305367132 0.0
l 0.0 0.184652113844188
l -1.1658475634716885 0.0
l 0.0 0.1141150063557082
l -0.7204937942255036 0.0
l 0.0 0.07052307392782767
l -0.44526516483136114 0.0
l 0.0 0.0435832596873975
l -0.2751738718657812 0.0
l 0.0 0.02693445448681165
l -0.1700574528130528 0.0
l 0.0 0.016645492872849603
l -0.10509550583846661 0.0
l 0.0 0.010286914595421054
l -0.06494902260817237 0.0
"/>
  <path
    fill="none"
    stroke="black"
    stroke-width="0.01"
    d="
M 9.962730758206611 4.3906532829742595
l 0.0 0.23277044590383295
l -1.895763149634925 0.0
l 0.0 0.14385213556856874
l -1.1715816264743837 0.0
l 0.0 0.08890061978137548
l -0.7240374451611691 0.0
l 0.0 0.054940583024890036
l -0.4474551411096025 0.0
l 0.0 0.03395328030938204
l -0.2765272772057344 0.0
l 0.0 0.020983127231198107
l -0.17089385731314383 0.0
l 0.0 0.012967572628880427
l -0.10561240381952289 0.0
l 0.0 0.008013959884648104
l -0.06526846556046516 0.0
"/>
  <path
    fill="none"
    stroke="black"
    stroke-width="0.01"
    d="
M 9.980973490458727 4.564221286261708
l 0.0 0.16646746864802736
l -1.902731873355234 0.0
l 0.0 0.10287689562448094
l -1.1758882977335345 0.0
l 0.0 0.06357792149592921
l -0.7266989679993243 0.0
l 0.0 0.03929115548448425
l -0.4490999622235824 0.0
l 0.0 0.024281934089411268
l -0.27754377665417396 0.0
l 0.0 0.015006235267256168
l -0.1715220539722795 0.0
l 0.0 0.009273853395164311
l -0.1060006293548687 0.0
l 0.0 0.005731241398211543
l -0.06550838894130886 0.0
"/>
  <path
    fill="none"
    stroke="black"
    stroke-width="0.01"
    d="
M 9.993147673772869 4.738320218785278
l 0.0 0.09996167642402376
l -1.9073824113812359 0.0
l 0.0 0.06177631603004667
l -1.1787623302336039 0.0
l 0.0 0.03817776330656884
l -0.7284751200843671 0.0
l 0.0 0.023593857723459545
l -0.45019762421213894 0.0
l 0.0 0.014581004073097998
l -0.2782221317631019 0.0
l 0.0 0.009011060517174563
l -0.17194127742959697 0.0
l 0.0 0.00556883539961388
l -0.10625970945149091 0.0
l 0.0 0.003441540276961378
l -0.06566850044102139 0.0
"/>
  <path
    fill="none"
    stroke="black"
    stroke-width="0.01"
    d="
M 9.999238475781956 4.912737967813578
l 0.0 0.0333340962952133
l -1.9097090977487072 0.0
l 0.0 0.020600471510441816
l -1.1802002224087011 0.0
l 0.0 0.012731091393453044
l -0.7293637374485773 0.0
l 0.0 0.00786781448115398
l -0.4507467897432207 0.0
l 0.0 0.00486230934935316
l -0.2785615160613104 0.0
l 0.0 0.003004907177900252
l -0.17215101692588985 0.0
l 0.0 0.0018570326359423558
l -0.10638932846019991 0.0
l 0.0 0.001147646169012376
l -0.06574860498840354 0.0
"/>
</svg>
