<svg id="svg_css_ex1" viewBox="0 0 10 10" 
   height="28cm"
   width="28cm"
   xmlns="http://www.w3.org/2000/svg">
  <rect 
    fill="none"
    stroke="black"
    stroke-width="0.05"
		width="9.70820394" height="6" />
  <line x1="6" y1="0" x2="6" y2="6" stroke="black" stroke-width="0.05" />
  <line x1="6" y1="2.29179606" x2="9.70820394" y2="2.29179606" stroke="black" stroke-width="0.05" />
  <line x1="7.41640786323" y1="2.29179606" x2="7.41640786323" y2="-1.67719211852e-08" stroke="black" stroke-width="0.05" />
  <line x1="7.41640786323" y1="1.41640785682" x2="5.99999998963" y2="1.41640785682" stroke="black" stroke-width="0.05" />
  <line x1="6.87538819922" y1="1.41640785682" x2="6.87538819922" y2="2.29179606641" stroke="black" stroke-width="0.05" />
  <line x1="6.87538819922" y1="1.75077639844" x2="7.41640786719" y2="1.75077639844" stroke="black" stroke-width="0.05" />
  <line x1="7.08203932312" y1="1.75077639844" x2="7.08203932312" y2="1.41640785437" stroke="black" stroke-width="0.05" />
  <line x1="7.08203932312" y1="1.62305897979" x2="6.87538819771" y2="1.62305897979" stroke="black" stroke-width="0.05" />
  <line x1="7.00310561729" y1="1.62305897979" x2="7.00310561729" y2="1.75077639937" stroke="black" stroke-width="0.05" />
  <line x1="7.00310561729" y1="1.67184269296" x2="7.0820393237" y2="1.67184269296" stroke="black" stroke-width="0.05" />
  <line x1="7.03325561018" y1="1.67184269296" x2="7.03325561018" y2="1.62305897944" stroke="black" stroke-width="0.05" />
  <line x1="7.03325561018" y1="1.65320897255" x2="7.00310561707" y2="1.65320897255" stroke="black" stroke-width="0.05" />
  <line x1="7.02173933761" y1="1.65320897255" x2="7.02173933761" y2="1.67184269309" stroke="black" stroke-width="0.05" />
  <line x1="7.02173933761" y1="1.66032642044" x2="7.03325561026" y2="1.66032642044" stroke="black" stroke-width="0.05" />
  <line x1="7.02613816233" y1="1.66032642044" x2="7.02613816233" y2="1.6532089725" stroke="black" stroke-width="0.05" />
  <line x1="7.02613816233" y1="1.65760779725" x2="7.02173933758" y2="1.65760779725" stroke="black" stroke-width="0.05" />
<path
    fill="none"
    stroke="black"
    stroke-width="0.05"
    d="
M 0 0
a 6 6 0 0 0 6 6
a 3.70820394 3.70820394 0 0 0 3.70820394 -3.70820394
a 2.29179607677 2.29179607677 0 0 0 -2.29179607677 -2.29179607677
a 1.41640787359 1.41640787359 0 0 0 -1.41640787359 1.41640787359
a 0.875388209585 0.875388209585 0 0 0 0.875388209585 0.875388209585
a 0.541019667968 0.541019667968 0 0 0 0.541019667968 -0.541019667968
a 0.334368544063 0.334368544063 0 0 0 -0.334368544063 -0.334368544063
a 0.206651125418 0.206651125418 0 0 0 -0.206651125418 0.206651125418
a 0.12771741958 0.12771741958 0 0 0 0.12771741958 0.12771741958
a 0.0789337064155 0.0789337064155 0 0 0 0.0789337064155 -0.0789337064155
a 0.0487837135215 0.0487837135215 0 0 0 -0.0487837135215 -0.0487837135215
a 0.0301499931147 0.0301499931147 0 0 0 -0.0301499931147 0.0301499931147
a 0.0186337205431 0.0186337205431 0 0 0 0.0186337205431 0.0186337205431
a 0.0115162726558 0.0115162726558 0 0 0 0.0115162726558 -0.0115162726558
a 0.00711744793941 0.00711744793941 0 0 0 -0.00711744793941 -0.00711744793941
a 0.00439882474861 0.00439882474861 0 0 0 -0.00439882474861 0.00439882474861
    " />
</svg>
