<svg id="svg_css_ex1" viewBox="0 0 100 100" 
   height="20cm"
   width="20cm"
   xmlns="http://www.w3.org/2000/svg">
  <path
    fill="none"
    stroke="black"
    stroke-width=".2"
    d="
M 49.5 0
l 0 40
a 9.5 9.5 0 0 1 -9.5 9.5
a 10.5 10.5 0 0 0 -10.5 10.5
a 21.0 21.0 0 0 0 42.0 0
a 11.5 11.5 0 0 0 -11.5 -11.5
a 8.5 8.5 0 0 1 -8.5 -8.5
a 8.5 8.5 0 0 1 8.5 -8.5
a 28.5 28.5 0 0 1 28.5 28.5
a -38.0 -38.0 0 0 1 -76.0 0
a 27.5 27.5 0 0 1 27.5 -27.5
a 7.5 7.5 0 0 1 7.5 7.5
a 7.5 7.5 0 0 1 -7.5 7.5
a 12.5 12.5 0 0 0 -12.5 12.5
a 23.0 23.0 0 0 0 46.0 0
a 13.5 13.5 0 0 0 -13.5 -13.5
a 6.5 6.5 0 0 1 -6.5 -6.5
a 6.5 6.5 0 0 1 6.5 -6.5
a 26.5 26.5 0 0 1 26.5 26.5
a -36.0 -36.0 0 0 1 -72.0 0
a 25.5 25.5 0 0 1 25.5 -25.5
a 5.5 5.5 0 0 1 5.5 5.5
a 5.5 5.5 0 0 1 -5.5 5.5
a 14.5 14.5 0 0 0 -14.5 14.5
a 25.0 25.0 0 0 0 50.0 0
a 15.5 15.5 0 0 0 -15.5 -15.5
a 4.5 4.5 0 0 1 -4.5 -4.5
a 4.5 4.5 0 0 1 4.5 -4.5
a 24.5 24.5 0 0 1 24.5 24.5
a -34.0 -34.0 0 0 1 -68.0 0
a 23.5 23.5 0 0 1 23.5 -23.5
a 3.5 3.5 0 0 1 3.5 3.5
a 3.5 3.5 0 0 1 -3.5 3.5
a 16.5 16.5 0 0 0 -16.5 16.5
a 27.0 27.0 0 0 0 54.0 0
a 17.5 17.5 0 0 0 -17.5 -17.5
a 2.5 2.5 0 0 1 -2.5 -2.5
a 2.5 2.5 0 0 1 2.5 -2.5
a 22.5 22.5 0 0 1 22.5 22.5
a -32.0 -32.0 0 0 1 -64.0 0
a 21.5 21.5 0 0 1 21.5 -21.5
a 1.5 1.5 0 0 1 1.5 1.5
a 1.5 1.5 0 0 1 -1.5 1.5
a 18.5 18.5 0 0 0 -18.5 18.5
a 29.0 29.0 0 0 0 58.0 0
a 19.5 19.5 0 0 0 -19.5 -19.5
a 0.5 0.5 0 0 1 -0.5 -0.5
a 0.5 0.5 0 0 1 0.5 -0.5
a 20.5 20.5 0 0 1 20.5 20.5
a -30.0 -30.0 0 0 1 -60.0 0
a 19.5 19.5 0 0 1 19.5 -19.5
a 0.5 0.5 0 0 0 0.5 -0.5
a 0.5 0.5 0 0 0 -0.5 -0.5
a 20.5 20.5 0 0 0 -20.5 20.5
a 31.0 31.0 0 0 0 62.0 0
a 21.5 21.5 0 0 0 -21.5 -21.5
a 1.5 1.5 0 0 0 -1.5 1.5
a 1.5 1.5 0 0 0 1.5 1.5
a 18.5 18.5 0 0 1 18.5 18.5
a -28.0 -28.0 0 0 1 -56.0 0
a 17.5 17.5 0 0 1 17.5 -17.5
a 2.5 2.5 0 0 0 2.5 -2.5
a 2.5 2.5 0 0 0 -2.5 -2.5
a 22.5 22.5 0 0 0 -22.5 22.5
a 33.0 33.0 0 0 0 66.0 0
a 23.5 23.5 0 0 0 -23.5 -23.5
a 3.5 3.5 0 0 0 -3.5 3.5
a 3.5 3.5 0 0 0 3.5 3.5
a 16.5 16.5 0 0 1 16.5 16.5
a -26.0 -26.0 0 0 1 -52.0 0
a 15.5 15.5 0 0 1 15.5 -15.5
a 4.5 4.5 0 0 0 4.5 -4.5
a 4.5 4.5 0 0 0 -4.5 -4.5
a 24.5 24.5 0 0 0 -24.5 24.5
a 35.0 35.0 0 0 0 70.0 0
a 25.5 25.5 0 0 0 -25.5 -25.5
a 5.5 5.5 0 0 0 -5.5 5.5
a 5.5 5.5 0 0 0 5.5 5.5
a 14.5 14.5 0 0 1 14.5 14.5
a -24.0 -24.0 0 0 1 -48.0 0
a 13.5 13.5 0 0 1 13.5 -13.5
a 6.5 6.5 0 0 0 6.5 -6.5
a 6.5 6.5 0 0 0 -6.5 -6.5
a 26.5 26.5 0 0 0 -26.5 26.5
a 37.0 37.0 0 0 0 74.0 0
a 27.5 27.5 0 0 0 -27.5 -27.5
a 7.5 7.5 0 0 0 -7.5 7.5
a 7.5 7.5 0 0 0 7.5 7.5
a 12.5 12.5 0 0 1 12.5 12.5
a -22.0 -22.0 0 0 1 -44.0 0
a 11.5 11.5 0 0 1 11.5 -11.5
a 8.5 8.5 0 0 0 8.5 -8.5
a 8.5 8.5 0 0 0 -8.5 -8.5
a 28.5 28.5 0 0 0 -28.5 28.5
a 39.0 39.0 0 0 0 78.0 0
a 29.5 29.5 0 0 0 -29.5 -29.5
a 9.5 9.5 0 0 0 -9.5 9.5
a 9.5 9.5 0 0 0 9.5 9.5
a 10.5 10.5 0 0 1 10.5 10.5
a -20.0 -20.0 0 0 1 -40.0 0
a 9.5 9.5 0 0 1 9.5 -9.5
a 9.5 9.5 0 0 1 9.5 9.5
a 1.0 1.0 0 0 0 2.0 0
a 8.5 8.5 0 0 1 8.5 -8.5
a 8.5 8.5 0 0 1 8.5 8.5
a -18.0 -18.0 0 0 1 -36.0 0
a 7.5 7.5 0 0 1 7.5 -7.5
a 7.5 7.5 0 0 1 7.5 7.5
a 3.0 3.0 0 0 0 6.0 0
a 6.5 6.5 0 0 1 6.5 -6.5
a 6.5 6.5 0 0 1 6.5 6.5
a -16.0 -16.0 0 0 1 -32.0 0
a 5.5 5.5 0 0 1 5.5 -5.5
a 5.5 5.5 0 0 1 5.5 5.5
a 5.0 5.0 0 0 0 10.0 0
a 4.5 4.5 0 0 1 4.5 -4.5
a 4.5 4.5 0 0 1 4.5 4.5
a -14.0 -14.0 0 0 1 -28.0 0
a 3.5 3.5 0 0 1 3.5 -3.5
a 3.5 3.5 0 0 1 3.5 3.5
a 7.0 7.0 0 0 0 14.0 0
a 2.5 2.5 0 0 1 2.5 -2.5
a 2.5 2.5 0 0 1 2.5 2.5
a -12.0 -12.0 0 0 1 -24.0 0
a 1.5 1.5 0 0 1 1.5 -1.5
a 1.5 1.5 0 0 1 1.5 1.5
a 9.0 9.0 0 0 0 18.0 0
a 0.5 0.5 0 0 1 0.5 -0.5
a 0.5 0.5 0 0 1 0.5 0.5
a -10.0 -10.0 0 0 1 -20.0 0
a 0.5 0.5 0 0 0 -0.5 -0.5
a 0.5 0.5 0 0 0 -0.5 0.5
a 11.0 11.0 0 0 0 22.0 0
a 1.5 1.5 0 0 0 -1.5 -1.5
a 1.5 1.5 0 0 0 -1.5 1.5
a -8.0 -8.0 0 0 1 -16.0 0
a 2.5 2.5 0 0 0 -2.5 -2.5
a 2.5 2.5 0 0 0 -2.5 2.5
a 13.0 13.0 0 0 0 26.0 0
a 3.5 3.5 0 0 0 -3.5 -3.5
a 3.5 3.5 0 0 0 -3.5 3.5
a -6.0 -6.0 0 0 1 -12.0 0
a 4.5 4.5 0 0 0 -4.5 -4.5
a 4.5 4.5 0 0 0 -4.5 4.5
a 15.0 15.0 0 0 0 30.0 0
a 5.5 5.5 0 0 0 -5.5 -5.5
a 5.5 5.5 0 0 0 -5.5 5.5
a -4.0 -4.0 0 0 1 -8.0 0
a 6.5 6.5 0 0 0 -6.5 -6.5
a 6.5 6.5 0 0 0 -6.5 6.5
a 17.0 17.0 0 0 0 34.0 0
a 7.5 7.5 0 0 0 -7.5 -7.5
a 7.5 7.5 0 0 0 -7.5 7.5
a -2.0 -2.0 0 0 1 -4.0 0
a 8.5 8.5 0 0 0 -8.5 -8.5
a 8.5 8.5 0 0 0 -8.5 8.5
a 19.0 19.0 0 0 0 38.0 0
a 9.5 9.5 0 0 0 -9.5 -9.5
a 9.5 9.5 0 0 0 -9.5 9.5
"/>
</svg>