<?xml version="1.0" encoding="UTF-8" standalone="no"?>
<svg
   id="svg_css_ex1"
   viewBox="0 0 100 100"
   height="20cm"
   width="20cm"
   version="1.1"
   sodipodi:docname="lab.svg"
   inkscape:version="1.2.2 (b0a84865, 2022-12-01)"
   xmlns:inkscape="http://www.inkscape.org/namespaces/inkscape"
   xmlns:sodipodi="http://sodipodi.sourceforge.net/DTD/sodipodi-0.dtd"
   xmlns="http://www.w3.org/2000/svg"
   xmlns:svg="http://www.w3.org/2000/svg">
  <defs
     id="defs7" />
  <sodipodi:namedview
     id="namedview5"
     pagecolor="#ffffff"
     bordercolor="#000000"
     borderopacity="0.25"
     inkscape:showpageshadow="2"
     inkscape:pageopacity="0.0"
     inkscape:pagecheckerboard="0"
     inkscape:deskcolor="#d1d1d1"
     inkscape:document-units="cm"
     showgrid="false"
     inkscape:zoom="0.31220833"
     inkscape:cx="358.73482"
     inkscape:cy="377.95276"
     inkscape:window-width="1309"
     inkscape:window-height="456"
     inkscape:window-x="0"
     inkscape:window-y="25"
     inkscape:window-maximized="0"
     inkscape:current-layer="svg_css_ex1" />
  <path
     fill="none"
     stroke="#000000"
     stroke-width="0.2"
     d="m 32.98433,0 v 22.660714 a 5.3819195,5.3819195 0 0 1 -5.38192,5.381919 5.9484373,5.9484373 0 0 0 -5.948437,5.948437 11.896875,11.896875 0 0 0 23.793749,0 6.5149552,6.5149552 0 0 0 -6.514955,-6.514955 4.8154016,4.8154016 0 0 1 -4.815402,-4.815401 4.8154016,4.8154016 0 0 1 4.815402,-4.815402 16.145758,16.145758 0 0 1 16.145759,16.145758 21.527678,21.527678 0 0 1 -43.055356,0 15.579241,15.579241 0 0 1 15.57924,-15.57924 4.2488838,4.2488838 0 0 1 4.248884,4.248884 4.2488838,4.2488838 0 0 1 -4.248884,4.248883 7.081473,7.081473 0 0 0 -7.081473,7.081473 13.02991,13.02991 0 0 0 26.059821,0 7.6479909,7.6479909 0 0 0 -7.647991,-7.64799 3.682366,3.682366 0 0 1 -3.682366,-3.682366 3.682366,3.682366 0 0 1 3.682366,-3.682366 15.012723,15.012723 0 0 1 15.012723,15.012722 20.394643,20.394643 0 0 1 -40.789285,0 14.446205,14.446205 0 0 1 14.446205,-14.446204 3.1158481,3.1158481 0 0 1 3.115848,3.115848 3.1158481,3.1158481 0 0 1 -3.115848,3.115848 8.2145087,8.2145087 0 0 0 -8.214508,8.214508 14.162946,14.162946 0 0 0 28.325892,0 8.7810265,8.7810265 0 0 0 -8.781027,-8.781026 2.5493303,2.5493303 0 0 1 -2.54933,-2.54933 2.5493303,2.5493303 0 0 1 2.54933,-2.549331 13.879687,13.879687 0 0 1 13.879687,13.879687 19.261607,19.261607 0 0 1 -38.523213,0 13.313169,13.313169 0 0 1 13.313169,-13.313169 1.9828124,1.9828124 0 0 1 1.982813,1.982813 1.9828124,1.9828124 0 0 1 -1.982813,1.982812 9.3475444,9.3475444 0 0 0 -9.347544,9.347544 15.295982,15.295982 0 0 0 30.591963,0 9.9140622,9.9140622 0 0 0 -9.914062,-9.914062 1.4162946,1.4162946 0 0 1 -1.416295,-1.416294 1.4162946,1.4162946 0 0 1 1.416295,-1.416295 12.746651,12.746651 0 0 1 12.746652,12.746651 18.128571,18.128571 0 0 1 -36.257142,0 12.180134,12.180134 0 0 1 12.180133,-12.180133 0.84977676,0.84977676 0 0 1 0.849777,0.849777 0.84977676,0.84977676 0 0 1 -0.849777,0.849776 10.48058,10.48058 0 0 0 -10.48058,10.48058 16.429018,16.429018 0 0 0 32.858035,0 11.047098,11.047098 0 0 0 -11.047098,-11.047097 0.28325892,0.28325892 0 0 1 -0.283259,-0.283259 0.28325892,0.28325892 0 0 1 0.283259,-0.283259 11.613616,11.613616 0 0 1 11.613616,11.613615 16.995536,16.995536 0 0 1 -33.991071,0 11.047098,11.047098 0 0 1 11.047098,-11.047097 0.28325892,0.28325892 0 0 0 0.283259,-0.283259 0.28325892,0.28325892 0 0 0 -0.283259,-0.283259 11.613616,11.613616 0 0 0 -11.613615,11.613615 17.562053,17.562053 0 0 0 35.124106,0 12.180134,12.180134 0 0 0 -12.180134,-12.180133 0.84977676,0.84977676 0 0 0 -0.849777,0.849777 0.84977676,0.84977676 0 0 0 0.849777,0.849776 10.48058,10.48058 0 0 1 10.48058,10.48058 15.8625,15.8625 0 0 1 -31.724999,0 9.9140622,9.9140622 0 0 1 9.914062,-9.914062 1.4162946,1.4162946 0 0 0 1.416295,-1.416294 1.4162946,1.4162946 0 0 0 -1.416295,-1.416295 12.746651,12.746651 0 0 0 -12.746651,12.746651 18.695089,18.695089 0 0 0 37.390177,0 13.313169,13.313169 0 0 0 -13.313169,-13.313169 1.9828124,1.9828124 0 0 0 -1.982812,1.982813 1.9828124,1.9828124 0 0 0 1.982812,1.982812 9.3475444,9.3475444 0 0 1 9.347544,9.347544 14.729464,14.729464 0 0 1 -29.458927,0 8.7810265,8.7810265 0 0 1 8.781026,-8.781026 2.5493303,2.5493303 0 0 0 2.549331,-2.54933 2.5493303,2.5493303 0 0 0 -2.549331,-2.549331 13.879687,13.879687 0 0 0 -13.879687,13.879687 19.828125,19.828125 0 0 0 39.656249,0 14.446205,14.446205 0 0 0 -14.446205,-14.446204 3.1158481,3.1158481 0 0 0 -3.115848,3.115848 3.1158481,3.1158481 0 0 0 3.115848,3.115848 8.2145087,8.2145087 0 0 1 8.214509,8.214508 13.596429,13.596429 0 0 1 -27.192857,0 7.6479909,7.6479909 0 0 1 7.647991,-7.64799 3.682366,3.682366 0 0 0 3.682366,-3.682366 3.682366,3.682366 0 0 0 -3.682366,-3.682366 15.012723,15.012723 0 0 0 -15.012723,15.012722 20.961161,20.961161 0 0 0 41.922321,0 15.579241,15.579241 0 0 0 -15.579241,-15.57924 4.2488838,4.2488838 0 0 0 -4.248884,4.248884 4.2488838,4.2488838 0 0 0 4.248884,4.248883 7.081473,7.081473 0 0 1 7.081473,7.081473 12.463393,12.463393 0 0 1 -24.926785,0 6.5149552,6.5149552 0 0 1 6.514955,-6.514955 4.8154016,4.8154016 0 0 0 4.815402,-4.815401 4.8154016,4.8154016 0 0 0 -4.815402,-4.815402 16.145758,16.145758 0 0 0 -16.145758,16.145758 22.094196,22.094196 0 0 0 44.188391,0 16.712276,16.712276 0 0 0 -16.712276,-16.712276 5.3819195,5.3819195 0 0 0 -5.381919,5.38192 5.3819195,5.3819195 0 0 0 5.381919,5.381919 5.9484373,5.9484373 0 0 1 5.948437,5.948437 11.330357,11.330357 0 0 1 -22.660713,0 5.3819195,5.3819195 0 0 1 5.381919,-5.381919 5.3819195,5.3819195 0 0 1 5.38192,5.381919 0.56651784,0.56651784 0 0 0 1.133035,0 4.8154016,4.8154016 0 0 1 4.815402,-4.815401 4.8154016,4.8154016 0 0 1 4.815402,4.815401 10.197322,10.197322 0 0 1 -20.394643,0 4.2488838,4.2488838 0 0 1 4.248884,-4.248883 4.2488838,4.2488838 0 0 1 4.248884,4.248883 1.6995535,1.6995535 0 0 0 3.399107,0 3.682366,3.682366 0 0 1 3.682366,-3.682366 3.682366,3.682366 0 0 1 3.682366,3.682366 9.0642855,9.0642855 0 0 1 -18.128571,0 3.1158481,3.1158481 0 0 1 3.115848,-3.115848 3.1158481,3.1158481 0 0 1 3.115848,3.115848 2.8325895,2.8325895 0 0 0 5.665179,0 2.5493303,2.5493303 0 0 1 2.54933,-2.54933 2.5493303,2.5493303 0 0 1 2.54933,2.54933 7.9312498,7.9312498 0 0 1 -15.862499,0 1.9828124,1.9828124 0 0 1 1.982812,-1.982812 1.9828124,1.9828124 0 0 1 1.982813,1.982812 3.9656249,3.9656249 0 0 0 7.931249,0 1.4162946,1.4162946 0 0 1 1.416295,-1.416294 1.4162946,1.4162946 0 0 1 1.416295,1.416294 6.7982145,6.7982145 0 0 1 -13.596429,0 0.84977676,0.84977676 0 0 1 0.849777,-0.849776 0.84977676,0.84977676 0 0 1 0.849777,0.849776 5.0986606,5.0986606 0 0 0 10.197321,0 0.28325892,0.28325892 0 0 1 0.283259,-0.283258 0.28325892,0.28325892 0 0 1 0.283259,0.283258 5.6651785,5.6651785 0 0 1 -11.330357,0 0.28325892,0.28325892 0 0 0 -0.283259,-0.283258 0.28325892,0.28325892 0 0 0 -0.283259,0.283258 6.2316965,6.2316965 0 0 0 12.463393,0 0.84977676,0.84977676 0 0 0 -0.849777,-0.849776 0.84977676,0.84977676 0 0 0 -0.849777,0.849776 4.5321427,4.5321427 0 0 1 -9.064285,0 1.4162946,1.4162946 0 0 0 -1.416295,-1.416294 1.4162946,1.4162946 0 0 0 -1.416294,1.416294 7.364732,7.364732 0 0 0 14.729464,0 1.9828124,1.9828124 0 0 0 -1.982813,-1.982812 1.9828124,1.9828124 0 0 0 -1.982812,1.982812 3.399107,3.399107 0 0 1 -6.798214,0 2.5493303,2.5493303 0 0 0 -2.549331,-2.54933 2.5493303,2.5493303 0 0 0 -2.54933,2.54933 8.4977676,8.4977676 0 0 0 16.995535,0 3.1158481,3.1158481 0 0 0 -3.115848,-3.115848 3.1158481,3.1158481 0 0 0 -3.115848,3.115848 2.2660715,2.2660715 0 0 1 -4.532143,0 3.682366,3.682366 0 0 0 -3.682366,-3.682366 3.682366,3.682366 0 0 0 -3.682366,3.682366 9.6308035,9.6308035 0 0 0 19.261607,0 4.2488838,4.2488838 0 0 0 -4.248884,-4.248883 4.2488838,4.2488838 0 0 0 -4.248884,4.248883 1.1330357,1.1330357 0 0 1 -2.266071,0 4.8154016,4.8154016 0 0 0 -4.815402,-4.815401 4.8154016,4.8154016 0 0 0 -4.815401,4.815401 10.763839,10.763839 0 0 0 21.527678,0 5.3819195,5.3819195 0 0 0 -5.38192,-5.381919 5.3819195,5.3819195 0 0 0 -5.381919,5.381919"
     id="path2" />
</svg>
