<svg id="svg_css_ex1" viewBox="0 0 200 200" 
   height="20cm"
   width="20cm"
   xmlns="http://www.w3.org/2000/svg">
  <path
    fill="none"
    stroke="black"
    stroke-width=".2"
    d="
M 99.5 0
l 0 41
a 19.5 19.5 0 0 1 -19.5 19.5
a 20.5 20.5 0 0 0 -20.5 20.5
a 41.0 41.0 0 0 0 82.0 0
a 21.5 21.5 0 0 0 -21.5 -21.5
a 18.5 18.5 0 0 1 -18.5 -18.5
a 18.5 18.5 0 0 1 18.5 -18.5
a 58.5 58.5 0 0 1 58.5 58.5
a -78.0 -78.0 0 0 1 -156.0 0
a 57.5 57.5 0 0 1 57.5 -57.5
a 17.5 17.5 0 0 1 17.5 17.5
a 17.5 17.5 0 0 1 -17.5 17.5
a 22.5 22.5 0 0 0 -22.5 22.5
a 43.0 43.0 0 0 0 86.0 0
a 23.5 23.5 0 0 0 -23.5 -23.5
a 16.5 16.5 0 0 1 -16.5 -16.5
a 16.5 16.5 0 0 1 16.5 -16.5
a 56.5 56.5 0 0 1 56.5 56.5
a -76.0 -76.0 0 0 1 -152.0 0
a 55.5 55.5 0 0 1 55.5 -55.5
a 15.5 15.5 0 0 1 15.5 15.5
a 15.5 15.5 0 0 1 -15.5 15.5
a 24.5 24.5 0 0 0 -24.5 24.5
a 45.0 45.0 0 0 0 90.0 0
a 25.5 25.5 0 0 0 -25.5 -25.5
a 14.5 14.5 0 0 1 -14.5 -14.5
a 14.5 14.5 0 0 1 14.5 -14.5
a 54.5 54.5 0 0 1 54.5 54.5
a -74.0 -74.0 0 0 1 -148.0 0
a 53.5 53.5 0 0 1 53.5 -53.5
a 13.5 13.5 0 0 1 13.5 13.5
a 13.5 13.5 0 0 1 -13.5 13.5
a 26.5 26.5 0 0 0 -26.5 26.5
a 47.0 47.0 0 0 0 94.0 0
a 27.5 27.5 0 0 0 -27.5 -27.5
a 12.5 12.5 0 0 1 -12.5 -12.5
a 12.5 12.5 0 0 1 12.5 -12.5
a 52.5 52.5 0 0 1 52.5 52.5
a -72.0 -72.0 0 0 1 -144.0 0
a 51.5 51.5 0 0 1 51.5 -51.5
a 11.5 11.5 0 0 1 11.5 11.5
a 11.5 11.5 0 0 1 -11.5 11.5
a 28.5 28.5 0 0 0 -28.5 28.5
a 49.0 49.0 0 0 0 98.0 0
a 29.5 29.5 0 0 0 -29.5 -29.5
a 10.5 10.5 0 0 1 -10.5 -10.5
a 10.5 10.5 0 0 1 10.5 -10.5
a 50.5 50.5 0 0 1 50.5 50.5
a -70.0 -70.0 0 0 1 -140.0 0
a 49.5 49.5 0 0 1 49.5 -49.5
a 9.5 9.5 0 0 1 9.5 9.5
a 9.5 9.5 0 0 1 -9.5 9.5
a 30.5 30.5 0 0 0 -30.5 30.5
a 51.0 51.0 0 0 0 102.0 0
a 31.5 31.5 0 0 0 -31.5 -31.5
a 8.5 8.5 0 0 1 -8.5 -8.5
a 8.5 8.5 0 0 1 8.5 -8.5
a 48.5 48.5 0 0 1 48.5 48.5
a -68.0 -68.0 0 0 1 -136.0 0
a 47.5 47.5 0 0 1 47.5 -47.5
a 7.5 7.5 0 0 1 7.5 7.5
a 7.5 7.5 0 0 1 -7.5 7.5
a 32.5 32.5 0 0 0 -32.5 32.5
a 53.0 53.0 0 0 0 106.0 0
a 33.5 33.5 0 0 0 -33.5 -33.5
a 6.5 6.5 0 0 1 -6.5 -6.5
a 6.5 6.5 0 0 1 6.5 -6.5
a 46.5 46.5 0 0 1 46.5 46.5
a -66.0 -66.0 0 0 1 -132.0 0
a 45.5 45.5 0 0 1 45.5 -45.5
a 5.5 5.5 0 0 1 5.5 5.5
a 5.5 5.5 0 0 1 -5.5 5.5
a 34.5 34.5 0 0 0 -34.5 34.5
a 55.0 55.0 0 0 0 110.0 0
a 35.5 35.5 0 0 0 -35.5 -35.5
a 4.5 4.5 0 0 1 -4.5 -4.5
a 4.5 4.5 0 0 1 4.5 -4.5
a 44.5 44.5 0 0 1 44.5 44.5
a -64.0 -64.0 0 0 1 -128.0 0
a 43.5 43.5 0 0 1 43.5 -43.5
a 3.5 3.5 0 0 1 3.5 3.5
a 3.5 3.5 0 0 1 -3.5 3.5
a 36.5 36.5 0 0 0 -36.5 36.5
a 57.0 57.0 0 0 0 114.0 0
a 37.5 37.5 0 0 0 -37.5 -37.5
a 2.5 2.5 0 0 1 -2.5 -2.5
a 2.5 2.5 0 0 1 2.5 -2.5
a 42.5 42.5 0 0 1 42.5 42.5
a -62.0 -62.0 0 0 1 -124.0 0
a 41.5 41.5 0 0 1 41.5 -41.5
a 1.5 1.5 0 0 1 1.5 1.5
a 1.5 1.5 0 0 1 -1.5 1.5
a 38.5 38.5 0 0 0 -38.5 38.5
a 59.0 59.0 0 0 0 118.0 0
a 39.5 39.5 0 0 0 -39.5 -39.5
a 0.5 0.5 0 0 1 -0.5 -0.5
a 0.5 0.5 0 0 1 0.5 -0.5
a 40.5 40.5 0 0 1 40.5 40.5
a -60.0 -60.0 0 0 1 -120.0 0
a 39.5 39.5 0 0 1 39.5 -39.5
a 0.5 0.5 0 0 0 0.5 -0.5
a 0.5 0.5 0 0 0 -0.5 -0.5
a 40.5 40.5 0 0 0 -40.5 40.5
a 61.0 61.0 0 0 0 122.0 0
a 41.5 41.5 0 0 0 -41.5 -41.5
a 1.5 1.5 0 0 0 -1.5 1.5
a 1.5 1.5 0 0 0 1.5 1.5
a 38.5 38.5 0 0 1 38.5 38.5
a -58.0 -58.0 0 0 1 -116.0 0
a 37.5 37.5 0 0 1 37.5 -37.5
a 2.5 2.5 0 0 0 2.5 -2.5
a 2.5 2.5 0 0 0 -2.5 -2.5
a 42.5 42.5 0 0 0 -42.5 42.5
a 63.0 63.0 0 0 0 126.0 0
a 43.5 43.5 0 0 0 -43.5 -43.5
a 3.5 3.5 0 0 0 -3.5 3.5
a 3.5 3.5 0 0 0 3.5 3.5
a 36.5 36.5 0 0 1 36.5 36.5
a -56.0 -56.0 0 0 1 -112.0 0
a 35.5 35.5 0 0 1 35.5 -35.5
a 4.5 4.5 0 0 0 4.5 -4.5
a 4.5 4.5 0 0 0 -4.5 -4.5
a 44.5 44.5 0 0 0 -44.5 44.5
a 65.0 65.0 0 0 0 130.0 0
a 45.5 45.5 0 0 0 -45.5 -45.5
a 5.5 5.5 0 0 0 -5.5 5.5
a 5.5 5.5 0 0 0 5.5 5.5
a 34.5 34.5 0 0 1 34.5 34.5
a -54.0 -54.0 0 0 1 -108.0 0
a 33.5 33.5 0 0 1 33.5 -33.5
a 6.5 6.5 0 0 0 6.5 -6.5
a 6.5 6.5 0 0 0 -6.5 -6.5
a 46.5 46.5 0 0 0 -46.5 46.5
a 67.0 67.0 0 0 0 134.0 0
a 47.5 47.5 0 0 0 -47.5 -47.5
a 7.5 7.5 0 0 0 -7.5 7.5
a 7.5 7.5 0 0 0 7.5 7.5
a 32.5 32.5 0 0 1 32.5 32.5
a -52.0 -52.0 0 0 1 -104.0 0
a 31.5 31.5 0 0 1 31.5 -31.5
a 8.5 8.5 0 0 0 8.5 -8.5
a 8.5 8.5 0 0 0 -8.5 -8.5
a 48.5 48.5 0 0 0 -48.5 48.5
a 69.0 69.0 0 0 0 138.0 0
a 49.5 49.5 0 0 0 -49.5 -49.5
a 9.5 9.5 0 0 0 -9.5 9.5
a 9.5 9.5 0 0 0 9.5 9.5
a 30.5 30.5 0 0 1 30.5 30.5
a -50.0 -50.0 0 0 1 -100.0 0
a 29.5 29.5 0 0 1 29.5 -29.5
a 10.5 10.5 0 0 0 10.5 -10.5
a 10.5 10.5 0 0 0 -10.5 -10.5
a 50.5 50.5 0 0 0 -50.5 50.5
a 71.0 71.0 0 0 0 142.0 0
a 51.5 51.5 0 0 0 -51.5 -51.5
a 11.5 11.5 0 0 0 -11.5 11.5
a 11.5 11.5 0 0 0 11.5 11.5
a 28.5 28.5 0 0 1 28.5 28.5
a -48.0 -48.0 0 0 1 -96.0 0
a 27.5 27.5 0 0 1 27.5 -27.5
a 12.5 12.5 0 0 0 12.5 -12.5
a 12.5 12.5 0 0 0 -12.5 -12.5
a 52.5 52.5 0 0 0 -52.5 52.5
a 73.0 73.0 0 0 0 146.0 0
a 53.5 53.5 0 0 0 -53.5 -53.5
a 13.5 13.5 0 0 0 -13.5 13.5
a 13.5 13.5 0 0 0 13.5 13.5
a 26.5 26.5 0 0 1 26.5 26.5
a -46.0 -46.0 0 0 1 -92.0 0
a 25.5 25.5 0 0 1 25.5 -25.5
a 14.5 14.5 0 0 0 14.5 -14.5
a 14.5 14.5 0 0 0 -14.5 -14.5
a 54.5 54.5 0 0 0 -54.5 54.5
a 75.0 75.0 0 0 0 150.0 0
a 55.5 55.5 0 0 0 -55.5 -55.5
a 15.5 15.5 0 0 0 -15.5 15.5
a 15.5 15.5 0 0 0 15.5 15.5
a 24.5 24.5 0 0 1 24.5 24.5
a -44.0 -44.0 0 0 1 -88.0 0
a 23.5 23.5 0 0 1 23.5 -23.5
a 16.5 16.5 0 0 0 16.5 -16.5
a 16.5 16.5 0 0 0 -16.5 -16.5
a 56.5 56.5 0 0 0 -56.5 56.5
a 77.0 77.0 0 0 0 154.0 0
a 57.5 57.5 0 0 0 -57.5 -57.5
a 17.5 17.5 0 0 0 -17.5 17.5
a 17.5 17.5 0 0 0 17.5 17.5
a 22.5 22.5 0 0 1 22.5 22.5
a -42.0 -42.0 0 0 1 -84.0 0
a 21.5 21.5 0 0 1 21.5 -21.5
a 18.5 18.5 0 0 0 18.5 -18.5
a 18.5 18.5 0 0 0 -18.5 -18.5
a 58.5 58.5 0 0 0 -58.5 58.5
a 79.0 79.0 0 0 0 158.0 0
a 59.5 59.5 0 0 0 -59.5 -59.5
a 19.5 19.5 0 0 0 -19.5 19.5
a 19.5 19.5 0 0 0 19.5 19.5
a 20.5 20.5 0 0 1 20.5 20.5
a -40.0 -40.0 0 0 1 -80.0 0
a 19.5 19.5 0 0 1 19.5 -19.5
a 19.5 19.5 0 0 1 19.5 19.5
a 1.0 1.0 0 0 0 2.0 0
a 18.5 18.5 0 0 1 18.5 -18.5
a 18.5 18.5 0 0 1 18.5 18.5
a -38.0 -38.0 0 0 1 -76.0 0
a 17.5 17.5 0 0 1 17.5 -17.5
a 17.5 17.5 0 0 1 17.5 17.5
a 3.0 3.0 0 0 0 6.0 0
a 16.5 16.5 0 0 1 16.5 -16.5
a 16.5 16.5 0 0 1 16.5 16.5
a -36.0 -36.0 0 0 1 -72.0 0
a 15.5 15.5 0 0 1 15.5 -15.5
a 15.5 15.5 0 0 1 15.5 15.5
a 5.0 5.0 0 0 0 10.0 0
a 14.5 14.5 0 0 1 14.5 -14.5
a 14.5 14.5 0 0 1 14.5 14.5
a -34.0 -34.0 0 0 1 -68.0 0
a 13.5 13.5 0 0 1 13.5 -13.5
a 13.5 13.5 0 0 1 13.5 13.5
a 7.0 7.0 0 0 0 14.0 0
a 12.5 12.5 0 0 1 12.5 -12.5
a 12.5 12.5 0 0 1 12.5 12.5
a -32.0 -32.0 0 0 1 -64.0 0
a 11.5 11.5 0 0 1 11.5 -11.5
a 11.5 11.5 0 0 1 11.5 11.5
a 9.0 9.0 0 0 0 18.0 0
a 10.5 10.5 0 0 1 10.5 -10.5
a 10.5 10.5 0 0 1 10.5 10.5
a -30.0 -30.0 0 0 1 -60.0 0
a 9.5 9.5 0 0 1 9.5 -9.5
a 9.5 9.5 0 0 1 9.5 9.5
a 11.0 11.0 0 0 0 22.0 0
a 8.5 8.5 0 0 1 8.5 -8.5
a 8.5 8.5 0 0 1 8.5 8.5
a -28.0 -28.0 0 0 1 -56.0 0
a 7.5 7.5 0 0 1 7.5 -7.5
a 7.5 7.5 0 0 1 7.5 7.5
a 13.0 13.0 0 0 0 26.0 0
a 6.5 6.5 0 0 1 6.5 -6.5
a 6.5 6.5 0 0 1 6.5 6.5
a -26.0 -26.0 0 0 1 -52.0 0
a 5.5 5.5 0 0 1 5.5 -5.5
a 5.5 5.5 0 0 1 5.5 5.5
a 15.0 15.0 0 0 0 30.0 0
a 4.5 4.5 0 0 1 4.5 -4.5
a 4.5 4.5 0 0 1 4.5 4.5
a -24.0 -24.0 0 0 1 -48.0 0
a 3.5 3.5 0 0 1 3.5 -3.5
a 3.5 3.5 0 0 1 3.5 3.5
a 17.0 17.0 0 0 0 34.0 0
a 2.5 2.5 0 0 1 2.5 -2.5
a 2.5 2.5 0 0 1 2.5 2.5
a -22.0 -22.0 0 0 1 -44.0 0
a 1.5 1.5 0 0 1 1.5 -1.5
a 1.5 1.5 0 0 1 1.5 1.5
a 19.0 19.0 0 0 0 38.0 0
a 0.5 0.5 0 0 1 0.5 -0.5
a 0.5 0.5 0 0 1 0.5 0.5
a -20.0 -20.0 0 0 1 -40.0 0
a 0.5 0.5 0 0 0 -0.5 -0.5
a 0.5 0.5 0 0 0 -0.5 0.5
a 21.0 21.0 0 0 0 42.0 0
a 1.5 1.5 0 0 0 -1.5 -1.5
a 1.5 1.5 0 0 0 -1.5 1.5
a -18.0 -18.0 0 0 1 -36.0 0
a 2.5 2.5 0 0 0 -2.5 -2.5
a 2.5 2.5 0 0 0 -2.5 2.5
a 23.0 23.0 0 0 0 46.0 0
a 3.5 3.5 0 0 0 -3.5 -3.5
a 3.5 3.5 0 0 0 -3.5 3.5
a -16.0 -16.0 0 0 1 -32.0 0
a 4.5 4.5 0 0 0 -4.5 -4.5
a 4.5 4.5 0 0 0 -4.5 4.5
a 25.0 25.0 0 0 0 50.0 0
a 5.5 5.5 0 0 0 -5.5 -5.5
a 5.5 5.5 0 0 0 -5.5 5.5
a -14.0 -14.0 0 0 1 -28.0 0
a 6.5 6.5 0 0 0 -6.5 -6.5
a 6.5 6.5 0 0 0 -6.5 6.5
a 27.0 27.0 0 0 0 54.0 0
a 7.5 7.5 0 0 0 -7.5 -7.5
a 7.5 7.5 0 0 0 -7.5 7.5
a -12.0 -12.0 0 0 1 -24.0 0
a 8.5 8.5 0 0 0 -8.5 -8.5
a 8.5 8.5 0 0 0 -8.5 8.5
a 29.0 29.0 0 0 0 58.0 0
a 9.5 9.5 0 0 0 -9.5 -9.5
a 9.5 9.5 0 0 0 -9.5 9.5
a -10.0 -10.0 0 0 1 -20.0 0
a 10.5 10.5 0 0 0 -10.5 -10.5
a 10.5 10.5 0 0 0 -10.5 10.5
a 31.0 31.0 0 0 0 62.0 0
a 11.5 11.5 0 0 0 -11.5 -11.5
a 11.5 11.5 0 0 0 -11.5 11.5
a -8.0 -8.0 0 0 1 -16.0 0
a 12.5 12.5 0 0 0 -12.5 -12.5
a 12.5 12.5 0 0 0 -12.5 12.5
a 33.0 33.0 0 0 0 66.0 0
a 13.5 13.5 0 0 0 -13.5 -13.5
a 13.5 13.5 0 0 0 -13.5 13.5
a -6.0 -6.0 0 0 1 -12.0 0
a 14.5 14.5 0 0 0 -14.5 -14.5
a 14.5 14.5 0 0 0 -14.5 14.5
a 35.0 35.0 0 0 0 70.0 0
a 15.5 15.5 0 0 0 -15.5 -15.5
a 15.5 15.5 0 0 0 -15.5 15.5
a -4.0 -4.0 0 0 1 -8.0 0
a 16.5 16.5 0 0 0 -16.5 -16.5
a 16.5 16.5 0 0 0 -16.5 16.5
a 37.0 37.0 0 0 0 74.0 0
a 17.5 17.5 0 0 0 -17.5 -17.5
a 17.5 17.5 0 0 0 -17.5 17.5
a -2.0 -2.0 0 0 1 -4.0 0
a 18.5 18.5 0 0 0 -18.5 -18.5
a 18.5 18.5 0 0 0 -18.5 18.5
a 39.0 39.0 0 0 0 78.0 0
a 19.5 19.5 0 0 0 -19.5 -19.5
a 19.5 19.5 0 0 0 -19.5 19.5
"/>
</svg>