<svg id="svg_css_ex1" viewBox="0 0 100 100" 
   height="20cm"
   width="20cm"
   xmlns="http://www.w3.org/2000/svg">
  <path
    fill="none"
    stroke="black"
    stroke-width=".2"
    d="
M 5 25
C 3,25 7.25,35 5.25,35C 3.25,35 7.5,25 5.5,25C 3.5,25 7.75,35 5.75,35C 3.75,35 8.0,25 6.0,25C 4.0,25 8.25,35 6.25,35C 4.25,35 8.5,25 6.5,25C 4.5,25 8.75,35 6.75,35C 4.75,35 9.0,25 7.0,25C 5.0,25 9.25,35 7.25,35C 5.25,35 9.5,25 7.5,25C 5.5,25 9.75,35 7.75,35C 5.75,35 10.0,25 8.0,25C 6.0,25 10.25,35 8.25,35C 6.25,35 10.5,25 8.5,25C 6.5,25 10.75,35 8.75,35C 6.75,35 11.0,25 9.0,25C 7.0,25 11.25,35 9.25,35C 7.25,35 11.5,25 9.5,25C 7.5,25 11.75,35 9.75,35C 7.75,35 12.0,25 10.0,25C 8.0,25 12.25,35 10.25,35C 8.25,35 12.5,25 10.5,25C 8.5,25 12.75,35 10.75,35C 8.75,35 13.0,25 11.0,25C 9.0,25 13.25,35 11.25,35C 9.25,35 13.5,25 11.5,25C 9.5,25 13.75,35 11.75,35C 9.75,35 14.0,25 12.0,25C 10.0,25 14.25,35 12.25,35C 10.25,35 14.5,25 12.5,25C 10.5,25 14.75,35 12.75,35C 10.75,35 15.0,25 13.0,25C 11.0,25 15.25,35 13.25,35C 11.25,35 15.5,25 13.5,25C 11.5,25 15.75,35 13.75,35C 11.75,35 16.0,25 14.0,25C 12.0,25 16.25,35 14.25,35C 12.25,35 16.5,25 14.5,25C 12.5,25 16.75,35 14.75,35C 12.75,35 17.0,25 15.0,25C 13.0,25 17.25,35 15.25,35C 13.25,35 17.5,25 15.5,25C 13.5,25 17.75,35 15.75,35C 13.75,35 18.0,25 16.0,25C 14.0,25 18.25,35 16.25,35C 14.25,35 18.5,25 16.5,25C 14.5,25 18.75,35 16.75,35C 14.75,35 19.0,25 17.0,25C 15.0,25 19.25,35 17.25,35C 15.25,35 19.5,25 17.5,25C 15.5,25 19.75,35 17.75,35C 15.75,35 20.0,25 18.0,25C 16.0,25 20.25,35 18.25,35C 16.25,35 20.5,25 18.5,25C 16.5,25 20.75,35 18.75,35C 16.75,35 21.0,25 19.0,25C 17.0,25 21.25,35 19.25,35C 17.25,35 21.5,25 19.5,25C 17.5,25 21.75,35 19.75,35C 17.75,35 22.0,25 20.0,25C 18.0,25 22.25,35 20.25,35C 18.25,35 22.5,25 20.5,25C 18.5,25 22.75,35 20.75,35C 18.75,35 23.0,25 21.0,25C 19.0,25 23.25,35 21.25,35C 19.25,35 23.5,25 21.5,25C 19.5,25 23.75,35 21.75,35C 19.75,35 24.0,25 22.0,25C 20.0,25 24.25,35 22.25,35C 20.25,35 24.5,25 22.5,25C 20.5,25 24.75,35 22.75,35C 20.75,35 25.0,25 23.0,25C 21.0,25 25.25,35 23.25,35C 21.25,35 25.5,25 23.5,25C 21.5,25 25.75,35 23.75,35C 21.75,35 26.0,25 24.0,25C 22.0,25 26.25,35 24.25,35C 22.25,35 26.5,25 24.5,25C 22.5,25 26.75,35 24.75,35C 22.75,35 27.0,25 25.0,25C 23.0,25 27.25,35 25.25,35C 23.25,35 27.5,25 25.5,25C 23.5,25 27.75,35 25.75,35C 23.75,35 28.0,25 26.0,25C 24.0,25 28.25,35 26.25,35C 24.25,35 28.5,25 26.5,25C 24.5,25 28.75,35 26.75,35C 24.75,35 29.0,25 27.0,25C 25.0,25 29.25,35 27.25,35C 25.25,35 29.5,25 27.5,25C 25.5,25 29.75,35 27.75,35C 25.75,35 30.0,25 28.0,25C 26.0,25 30.25,35 28.25,35C 26.25,35 30.5,25 28.5,25C 26.5,25 30.75,35 28.75,35C 26.75,35 31.0,25 29.0,25C 27.0,25 31.25,35 29.25,35C 27.25,35 31.5,25 29.5,25C 27.5,25 31.75,35 29.75,35C 27.75,35 32.0,25 30.0,25C 28.0,25 32.25,35 30.25,35C 28.25,35 32.5,25 30.5,25C 28.5,25 32.75,35 30.75,35C 28.75,35 33.0,25 31.0,25C 29.0,25 33.25,35 31.25,35C 29.25,35 33.5,25 31.5,25C 29.5,25 33.75,35 31.75,35C 29.75,35 34.0,25 32.0,25C 30.0,25 34.25,35 32.25,35C 30.25,35 34.5,25 32.5,25C 30.5,25 34.75,35 32.75,35C 30.75,35 35.0,25 33.0,25C 31.0,25 35.25,35 33.25,35C 31.25,35 35.5,25 33.5,25C 31.5,25 35.75,35 33.75,35C 31.75,35 36.0,25 34.0,25C 32.0,25 36.25,35 34.25,35C 32.25,35 36.5,25 34.5,25C 32.5,25 36.75,35 34.75,35C 32.75,35 37.0,25 35.0,25C 33.0,25 37.25,35 35.25,35C 33.25,35 37.5,25 35.5,25C 33.5,25 37.75,35 35.75,35C 33.75,35 38.0,25 36.0,25C 34.0,25 38.25,35 36.25,35C 34.25,35 38.5,25 36.5,25C 34.5,25 38.75,35 36.75,35C 34.75,35 39.0,25 37.0,25C 35.0,25 39.25,35 37.25,35C 35.25,35 39.5,25 37.5,25C 35.5,25 39.75,35 37.75,35C 35.75,35 40.0,25 38.0,25C 36.0,25 40.25,35 38.25,35C 36.25,35 40.5,25 38.5,25C 36.5,25 40.75,35 38.75,35C 36.75,35 41.0,25 39.0,25C 37.0,25 41.25,35 39.25,35C 37.25,35 41.5,25 39.5,25C 37.5,25 41.75,35 39.75,35C 37.75,35 42.0,25 40.0,25C 38.0,25 42.25,35 40.25,35C 38.25,35 42.5,25 40.5,25C 38.5,25 42.75,35 40.75,35C 38.75,35 43.0,25 41.0,25C 39.0,25 43.25,35 41.25,35C 39.25,35 43.5,25 41.5,25C 39.5,25 43.75,35 41.75,35C 39.75,35 44.0,25 42.0,25C 40.0,25 44.25,35 42.25,35C 40.25,35 44.5,25 42.5,25C 40.5,25 44.75,35 42.75,35C 40.75,35 45.0,25 43.0,25C 41.0,25 45.25,35 43.25,35C 41.25,35 45.5,25 43.5,25C 41.5,25 45.75,35 43.75,35C 41.75,35 46.0,25 44.0,25C 42.0,25 46.25,35 44.25,35C 42.25,35 46.5,25 44.5,25C 42.5,25 46.75,35 44.75,35C 42.75,35 47.0,25 45.0,25C 43.0,25 47.25,35 45.25,35C 43.25,35 47.5,25 45.5,25C 43.5,25 47.75,35 45.75,35C 43.75,35 48.0,25 46.0,25C 44.0,25 48.25,35 46.25,35C 44.25,35 48.5,25 46.5,25C 44.5,25 48.75,35 46.75,35C 44.75,35 49.0,25 47.0,25C 45.0,25 49.25,35 47.25,35C 45.25,35 49.5,25 47.5,25C 45.5,25 49.75,35 47.75,35C 45.75,35 50.0,25 48.0,25C 46.0,25 50.25,35 48.25,35C 46.25,35 50.5,25 48.5,25C 46.5,25 50.75,35 48.75,35C 46.75,35 51.0,25 49.0,25C 47.0,25 51.25,35 49.25,35C 47.25,35 51.5,25 49.5,25C 47.5,25 51.75,35 49.75,35C 47.75,35 52.0,25 50.0,25C 48.0,25 52.25,35 50.25,35C 48.25,35 52.5,25 50.5,25C 48.5,25 52.75,35 50.75,35C 48.75,35 53.0,25 51.0,25C 49.0,25 53.25,35 51.25,35C 49.25,35 53.5,25 51.5,25C 49.5,25 53.75,35 51.75,35C 49.75,35 54.0,25 52.0,25C 50.0,25 54.25,35 52.25,35C 50.25,35 54.5,25 52.5,25C 50.5,25 54.75,35 52.75,35C 50.75,35 55.0,25 53.0,25C 51.0,25 55.25,35 53.25,35C 51.25,35 55.5,25 53.5,25C 51.5,25 55.75,35 53.75,35C 51.75,35 56.0,25 54.0,25C 52.0,25 56.25,35 54.25,35C 52.25,35 56.5,25 54.5,25C 52.5,25 56.75,35 54.75,35C 52.75,35 57.0,25 55.0,25C 53.0,25 57.25,35 55.25,35C 53.25,35 57.5,25 55.5,25C 53.5,25 57.75,35 55.75,35C 53.75,35 58.0,25 56.0,25C 54.0,25 58.25,35 56.25,35C 54.25,35 58.5,25 56.5,25C 54.5,25 58.75,35 56.75,35C 54.75,35 59.0,25 57.0,25C 55.0,25 59.25,35 57.25,35C 55.25,35 59.5,25 57.5,25C 55.5,25 59.75,35 57.75,35C 55.75,35 60.0,25 58.0,25C 56.0,25 60.25,35 58.25,35C 56.25,35 60.5,25 58.5,25C 56.5,25 60.75,35 58.75,35C 56.75,35 61.0,25 59.0,25C 57.0,25 61.25,35 59.25,35C 57.25,35 61.5,25 59.5,25C 57.5,25 61.75,35 59.75,35C 57.75,35 62.0,25 60.0,25C 58.0,25 62.25,35 60.25,35C 58.25,35 62.5,25 60.5,25C 58.5,25 62.75,35 60.75,35C 58.75,35 63.0,25 61.0,25C 59.0,25 63.25,35 61.25,35C 59.25,35 63.5,25 61.5,25C 59.5,25 63.75,35 61.75,35C 59.75,35 64.0,25 62.0,25C 60.0,25 64.25,35 62.25,35C 60.25,35 64.5,25 62.5,25C 60.5,25 64.75,35 62.75,35C 60.75,35 65.0,25 63.0,25C 61.0,25 65.25,35 63.25,35C 61.25,35 65.5,25 63.5,25C 61.5,25 65.75,35 63.75,35C 61.75,35 66.0,25 64.0,25C 62.0,25 66.25,35 64.25,35C 62.25,35 66.5,25 64.5,25C 62.5,25 66.75,35 64.75,35C 62.75,35 67.0,25 65.0,25C 63.0,25 67.25,35 65.25,35C 63.25,35 67.5,25 65.5,25C 63.5,25 67.75,35 65.75,35C 63.75,35 68.0,25 66.0,25C 64.0,25 68.25,35 66.25,35C 64.25,35 68.5,25 66.5,25C 64.5,25 68.75,35 66.75,35C 64.75,35 69.0,25 67.0,25C 65.0,25 69.25,35 67.25,35C 65.25,35 69.5,25 67.5,25C 65.5,25 69.75,35 67.75,35C 65.75,35 70.0,25 68.0,25C 66.0,25 70.25,35 68.25,35C 66.25,35 70.5,25 68.5,25C 66.5,25 70.75,35 68.75,35C 66.75,35 71.0,25 69.0,25C 67.0,25 71.25,35 69.25,35C 67.25,35 71.5,25 69.5,25C 67.5,25 71.75,35 69.75,35C 67.75,35 72.0,25 70.0,25C 68.0,25 72.25,35 70.25,35C 68.25,35 72.5,25 70.5,25C 68.5,25 72.75,35 70.75,35C 68.75,35 73.0,25 71.0,25C 69.0,25 73.25,35 71.25,35C 69.25,35 73.5,25 71.5,25C 69.5,25 73.75,35 71.75,35C 69.75,35 74.0,25 72.0,25C 70.0,25 74.25,35 72.25,35C 70.25,35 74.5,25 72.5,25C 70.5,25 74.75,35 72.75,35C 70.75,35 75.0,25 73.0,25C 71.0,25 75.25,35 73.25,35C 71.25,35 75.5,25 73.5,25C 71.5,25 75.75,35 73.75,35C 71.75,35 76.0,25 74.0,25C 72.0,25 76.25,35 74.25,35C 72.25,35 76.5,25 74.5,25C 72.5,25 76.75,35 74.75,35C 72.75,35 77.0,25 75.0,25C 73.0,25 77.25,35 75.25,35C 73.25,35 77.5,25 75.5,25C 73.5,25 77.75,35 75.75,35C 73.75,35 78.0,25 76.0,25C 74.0,25 78.25,35 76.25,35C 74.25,35 78.5,25 76.5,25C 74.5,25 78.75,35 76.75,35C 74.75,35 79.0,25 77.0,25C 75.0,25 79.25,35 77.25,35C 75.25,35 79.5,25 77.5,25C 75.5,25 79.75,35 77.75,35C 75.75,35 80.0,25 78.0,25C 76.0,25 80.25,35 78.25,35C 76.25,35 80.5,25 78.5,25C 76.5,25 80.75,35 78.75,35C 76.75,35 81.0,25 79.0,25C 77.0,25 81.25,35 79.25,35C 77.25,35 81.5,25 79.5,25C 77.5,25 81.75,35 79.75,35C 77.75,35 82.0,25 80.0,25C 78.0,25 82.25,35 80.25,35C 78.25,35 82.5,25 80.5,25C 78.5,25 82.75,35 80.75,35C 78.75,35 83.0,25 81.0,25C 79.0,25 83.25,35 81.25,35C 79.25,35 83.5,25 81.5,25C 79.5,25 83.75,35 81.75,35C 79.75,35 84.0,25 82.0,25C 80.0,25 84.25,35 82.25,35C 80.25,35 84.5,25 82.5,25C 80.5,25 84.75,35 82.75,35C 80.75,35 85.0,25 83.0,25C 81.0,25 85.25,35 83.25,35C 81.25,35 85.5,25 83.5,25C 81.5,25 85.75,35 83.75,35C 81.75,35 86.0,25 84.0,25C 82.0,25 86.25,35 84.25,35C 82.25,35 86.5,25 84.5,25C 82.5,25 86.75,35 84.75,35C 82.75,35 87.0,25 85.0,25C 83.0,25 87.25,35 85.25,35C 83.25,35 87.5,25 85.5,25C 83.5,25 87.75,35 85.75,35C 83.75,35 88.0,25 86.0,25C 84.0,25 88.25,35 86.25,35C 84.25,35 88.5,25 86.5,25C 84.5,25 88.75,35 86.75,35C 84.75,35 89.0,25 87.0,25C 85.0,25 89.25,35 87.25,35C 85.25,35 89.5,25 87.5,25C 85.5,25 89.75,35 87.75,35C 85.75,35 90.0,25 88.0,25C 86.0,25 90.25,35 88.25,35C 86.25,35 90.5,25 88.5,25C 86.5,25 90.75,35 88.75,35C 86.75,35 91.0,25 89.0,25C 87.0,25 91.25,35 89.25,35C 87.25,35 91.5,25 89.5,25C 87.5,25 91.75,35 89.75,35C 87.75,35 92.0,25 90.0,25"/>
</svg>