<svg id="svg_css_ex1" viewBox="0 0 10 10" 
   height="28cm"
   width="28cm"
   xmlns="http://www.w3.org/2000/svg">
  <path
    fill="none"
    stroke="black"
    stroke-width="0.01"
    d="
M 4.4 5.0
a 0.4025 0.4025 0 0 0 -0.40000000000000036 -0.40500000000000025
a 0.40750000000000003 0.40750000000000003 0 0 0 -0.41000000000000014 0.40500000000000025
a 0.41250000000000003 0.41250000000000003 0 0 0 0.41000000000000014 0.41500000000000004
a 0.41750000000000004 0.41750000000000004 0 0 0 0.41999999999999993 -0.41500000000000004
a 1.5775000000000001 1.5775000000000001 0 0 1 1.580000000000001 -1.5749999999999993
a 1.5725000000000002 1.5725000000000002 0 0 1 1.5699999999999994 1.5750000000000002
a 1.5675 1.5675 0 0 1 -1.5700000000000003 1.5649999999999995
a 1.5625 1.5625 0 0 1 -1.5600000000000005 -1.5649999999999995
a 0.4425 0.4425 0 0 0 -0.4400000000000004 -0.4450000000000003
a 0.4475 0.4475 0 0 0 -0.4500000000000002 0.4450000000000003
a 0.4525 0.4525 0 0 0 0.4500000000000002 0.45500000000000007
a 0.4575 0.4575 0 0 0 0.45999999999999996 -0.45500000000000007
a 1.5375 1.5375 0 0 1 1.540000000000001 -1.5349999999999993
a 1.5325000000000002 1.5325000000000002 0 0 1 1.5299999999999994 1.5350000000000001
a 1.5274999999999999 1.5274999999999999 0 0 1 -1.5300000000000002 1.5250000000000004
a 1.5225 1.5225 0 0 1 -1.5199999999999996 -1.5250000000000004
a 0.4825 0.4825 0 0 0 -0.4800000000000004 -0.4850000000000003
a 0.4875 0.4875 0 0 0 -0.4900000000000002 0.4850000000000003
a 0.4925 0.4925 0 0 0 0.4900000000000002 0.4950000000000001
a 0.4975 0.4975 0 0 0 0.5 -0.4950000000000001
a 1.4975 1.4975 0 0 1 1.5000000000000009 -1.4949999999999992
a 1.4925000000000002 1.4925000000000002 0 0 1 1.4899999999999993 1.495
a 1.4874999999999998 1.4874999999999998 0 0 1 -1.4900000000000002 1.4849999999999994
a 1.4825 1.4825 0 0 1 -1.4800000000000004 -1.4849999999999994
a 0.5225 0.5225 0 0 0 -0.5199999999999996 -0.5250000000000004
a 0.5275000000000001 0.5275000000000001 0 0 0 -0.5300000000000002 0.5250000000000004
a 0.5325 0.5325 0 0 0 0.5300000000000002 0.5350000000000001
a 0.5375000000000001 0.5375000000000001 0 0 0 0.54 -0.5350000000000001
a 1.4575 1.4575 0 0 1 1.4600000000000009 -1.4549999999999992
a 1.4525000000000001 1.4525000000000001 0 0 1 1.4499999999999993 1.455
a 1.4474999999999998 1.4474999999999998 0 0 1 -1.4500000000000002 1.4450000000000003
a 1.4425 1.4425 0 0 1 -1.4399999999999995 -1.4450000000000003
a 0.5625 0.5625 0 0 0 -0.5599999999999996 -0.5649999999999995
a 0.5674999999999999 0.5674999999999999 0 0 0 -0.5699999999999998 0.5649999999999995
a 0.5725 0.5725 0 0 0 0.5699999999999998 0.5750000000000002
a 0.5774999999999999 0.5774999999999999 0 0 0 0.5800000000000001 -0.5750000000000002
a 1.4175 1.4175 0 0 1 1.42 -1.4149999999999991
a 1.4125 1.4125 0 0 1 1.4100000000000001 1.415
a 1.4074999999999998 1.4074999999999998 0 0 1 -1.4100000000000001 1.4049999999999994
a 1.4024999999999999 1.4024999999999999 0 0 1 -1.4000000000000004 -1.4049999999999994
a 0.6024999999999998 0.6024999999999998 0 0 0 -0.5999999999999996 -0.6049999999999995
a 0.6074999999999999 0.6074999999999999 0 0 0 -0.6099999999999999 0.6049999999999995
a 0.6124999999999998 0.6124999999999998 0 0 0 0.6099999999999999 0.6150000000000002
a 0.6174999999999999 0.6174999999999999 0 0 0 0.6200000000000001 -0.6150000000000002
a 1.3775 1.3775 0 0 1 1.38 -1.3749999999999991
a 1.3725 1.3725 0 0 1 1.37 1.375
a 1.3675000000000002 1.3675000000000002 0 0 1 -1.37 1.3650000000000002
a 1.3625000000000003 1.3625000000000003 0 0 1 -1.3600000000000003 -1.3650000000000002
a 0.6424999999999998 0.6424999999999998 0 0 0 -0.6399999999999997 -0.6449999999999996
a 0.6475 0.6475 0 0 0 -0.6499999999999999 0.6449999999999996
a 0.6524999999999999 0.6524999999999999 0 0 0 0.6499999999999999 0.6550000000000002
a 0.6575 0.6575 0 0 0 0.6600000000000001 -0.6550000000000002
a 1.3375 1.3375 0 0 1 1.3399999999999999 -1.334999999999999
a 1.3325 1.3325 0 0 1 1.33 1.335
a 1.3275000000000001 1.3275000000000001 0 0 1 -1.33 1.3250000000000002
a 1.3225000000000002 1.3225000000000002 0 0 1 -1.3200000000000003 -1.3250000000000002
a 0.6824999999999999 0.6824999999999999 0 0 0 -0.6799999999999997 -0.6849999999999996
a 0.6875 0.6875 0 0 0 -0.69 0.6849999999999996
a 0.6924999999999999 0.6924999999999999 0 0 0 0.69 0.6950000000000003
a 0.6975 0.6975 0 0 0 0.7000000000000002 -0.6950000000000003
a 1.2974999999999999 1.2974999999999999 0 0 1 1.2999999999999998 -1.294999999999999
a 1.2925 1.2925 0 0 1 1.29 1.295
a 1.2875 1.2875 0 0 1 -1.29 1.2850000000000001
a 1.2825000000000002 1.2825000000000002 0 0 1 -1.2800000000000002 -1.2850000000000001
a 0.7224999999999999 0.7224999999999999 0 0 0 -0.7199999999999998 -0.7249999999999996
a 0.7274999999999998 0.7274999999999998 0 0 0 -0.73 0.7249999999999996
a 0.7324999999999999 0.7324999999999999 0 0 0 0.73 0.7349999999999994
a 0.7374999999999998 0.7374999999999998 0 0 0 0.7400000000000002 -0.7349999999999994
a 1.2575000000000003 1.2575000000000003 0 0 1 1.2599999999999998 -1.2549999999999994
a 1.2525000000000004 1.2525000000000004 0 0 1 1.25 1.2550000000000003
a 1.2475 1.2475 0 0 1 -1.25 1.245
a 1.2425000000000002 1.2425000000000002 0 0 1 -1.2400000000000002 -1.245
a 0.7624999999999997 0.7624999999999997 0 0 0 -0.7599999999999998 -0.7649999999999997
a 0.7674999999999998 0.7674999999999998 0 0 0 -0.7699999999999996 0.7649999999999997
a 0.7724999999999997 0.7724999999999997 0 0 0 0.7699999999999996 0.7749999999999995
a 0.7774999999999999 0.7774999999999999 0 0 0 0.7799999999999994 -0.7749999999999995
a 1.2175000000000002 1.2175000000000002 0 0 1 1.2200000000000006 -1.2149999999999994
a 1.2125000000000004 1.2125000000000004 0 0 1 1.21 1.2150000000000003
a 1.2075 1.2075 0 0 1 -1.21 1.205
a 1.2025000000000001 1.2025000000000001 0 0 1 -1.2000000000000002 -1.205
a 0.8024999999999998 0.8024999999999998 0 0 0 -0.7999999999999998 -0.8049999999999997
a 0.8074999999999999 0.8074999999999999 0 0 0 -0.8099999999999996 0.8049999999999997
a 0.8124999999999998 0.8124999999999998 0 0 0 0.8099999999999996 0.8149999999999995
a 0.8174999999999999 0.8174999999999999 0 0 0 0.8200000000000003 -0.8149999999999995
a 1.1775000000000002 1.1775000000000002 0 0 1 1.1799999999999997 -1.1750000000000003
a 1.1725000000000003 1.1725000000000003 0 0 1 1.17 1.1750000000000003
a 1.1675 1.1675 0 0 1 -1.17 1.165
a 1.1625 1.1625 0 0 1 -1.1600000000000001 -1.165
a 0.8424999999999998 0.8424999999999998 0 0 0 -0.8399999999999999 -0.8449999999999998
a 0.8474999999999999 0.8474999999999999 0 0 0 -0.8499999999999996 0.8449999999999998
a 0.8524999999999998 0.8524999999999998 0 0 0 0.8499999999999996 0.8549999999999995
a 0.8574999999999999 0.8574999999999999 0 0 0 0.8599999999999994 -0.8549999999999995
a 1.1375000000000002 1.1375000000000002 0 0 1 1.1400000000000006 -1.1350000000000002
a 1.1325000000000003 1.1325000000000003 0 0 1 1.13 1.1350000000000002
a 1.1275 1.1275 0 0 1 -1.13 1.125
a 1.1225 1.1225 0 0 1 -1.12 -1.125
a 0.8824999999999998 0.8824999999999998 0 0 0 -0.8799999999999999 -0.8849999999999998
a 0.8874999999999997 0.8874999999999997 0 0 0 -0.8899999999999997 0.8849999999999998
a 0.8924999999999998 0.8924999999999998 0 0 0 0.8899999999999997 0.8949999999999996
a 0.8974999999999997 0.8974999999999997 0 0 0 0.8999999999999995 -0.8949999999999996
a 1.0975000000000001 1.0975000000000001 0 0 1 1.0999999999999996 -1.0950000000000002
a 1.0925000000000002 1.0925000000000002 0 0 1 1.0899999999999999 1.0950000000000002
a 1.0875 1.0875 0 0 1 -1.0899999999999999 1.085
a 1.0825 1.0825 0 0 1 -1.08 -1.085
a 0.9224999999999999 0.9224999999999999 0 0 0 -0.9199999999999999 -0.9249999999999998
a 0.9274999999999998 0.9274999999999998 0 0 0 -0.9299999999999997 0.9249999999999998
a 0.9324999999999999 0.9324999999999999 0 0 0 0.9299999999999997 0.9349999999999996
a 0.9374999999999998 0.9374999999999998 0 0 0 0.9399999999999995 -0.9349999999999996
a 1.0575 1.0575 0 0 1 1.0600000000000005 -1.0550000000000002
a 1.0525000000000002 1.0525000000000002 0 0 1 1.0499999999999998 1.0550000000000002
a 1.0474999999999999 1.0474999999999999 0 0 1 -1.0499999999999998 1.045
a 1.0425 1.0425 0 0 1 -1.04 -1.045
a 0.9624999999999997 0.9624999999999997 0 0 0 -0.96 -0.9649999999999999
a 0.9674999999999998 0.9674999999999998 0 0 0 -0.9699999999999998 0.9649999999999999
a 0.9724999999999997 0.9724999999999997 0 0 0 0.9699999999999998 0.9749999999999996
a 0.9774999999999998 0.9774999999999998 0 0 0 0.9799999999999995 -0.9749999999999996
a 1.0175 1.0175 0 0 1 1.0200000000000005 -1.0150000000000001
a 1.0125000000000002 1.0125000000000002 0 0 1 1.0099999999999998 1.0150000000000001
a 1.0075000000000003 1.0075000000000003 0 0 1 -1.0099999999999998 1.0050000000000008
a 1.0025000000000004 1.0025000000000004 0 0 1 -1.0 -1.0050000000000008
a 1.0024999999999997 1.0024999999999997 0 0 0 -1.0 -1.005
a 1.0074999999999996 1.0074999999999996 0 0 0 -1.0099999999999998 1.005
a 1.0124999999999997 1.0124999999999997 0 0 0 1.0099999999999998 1.0149999999999997
a 1.0174999999999996 1.0174999999999996 0 0 0 1.0199999999999996 -1.0149999999999997
a 0.9775000000000005 0.9775000000000005 0 0 1 0.9800000000000004 -0.9750000000000005
a 0.9725000000000004 0.9725000000000004 0 0 1 0.9700000000000006 0.9750000000000005
a 0.9675000000000005 0.9675000000000005 0 0 1 -0.9700000000000006 0.9650000000000007
a 0.9625000000000004 0.9625000000000004 0 0 1 -0.9600000000000009 -0.9650000000000007
a 1.0424999999999995 1.0424999999999995 0 0 0 -1.0399999999999991 -1.0449999999999995
a 1.0474999999999994 1.0474999999999994 0 0 0 -1.0499999999999998 1.0449999999999995
a 1.0524999999999998 1.0524999999999998 0 0 0 1.0499999999999998 1.0549999999999997
a 1.0574999999999997 1.0574999999999997 0 0 0 1.0599999999999996 -1.0549999999999997
a 0.9375000000000004 0.9375000000000004 0 0 1 0.9400000000000004 -0.9350000000000005
a 0.9325000000000003 0.9325000000000003 0 0 1 0.9300000000000006 0.9350000000000005
a 0.9275000000000004 0.9275000000000004 0 0 1 -0.9300000000000006 0.9250000000000007
a 0.9225000000000003 0.9225000000000003 0 0 1 -0.9199999999999999 -0.9250000000000007
a 1.0824999999999996 1.0824999999999996 0 0 0 -1.08 -1.0849999999999995
a 1.0874999999999995 1.0874999999999995 0 0 0 -1.0899999999999999 1.0849999999999995
a 1.0924999999999998 1.0924999999999998 0 0 0 1.0899999999999999 1.0949999999999998
a 1.0974999999999997 1.0974999999999997 0 0 0 1.0999999999999996 -1.0949999999999998
a 0.8975000000000004 0.8975000000000004 0 0 1 0.9000000000000004 -0.8950000000000005
a 0.8925000000000003 0.8925000000000003 0 0 1 0.8900000000000006 0.8950000000000005
a 0.8875000000000004 0.8875000000000004 0 0 1 -0.8900000000000006 0.8850000000000007
a 0.8825000000000003 0.8825000000000003 0 0 1 -0.8800000000000008 -0.8850000000000007
a 1.1224999999999996 1.1224999999999996 0 0 0 -1.1199999999999992 -1.1249999999999996
a 1.1274999999999995 1.1274999999999995 0 0 0 -1.13 1.1249999999999996
a 1.1324999999999998 1.1324999999999998 0 0 0 1.13 1.1349999999999998
a 1.1374999999999997 1.1374999999999997 0 0 0 1.1399999999999997 -1.1349999999999998
a 0.8575000000000004 0.8575000000000004 0 0 1 0.8600000000000003 -0.8550000000000004
a 0.8525000000000003 0.8525000000000003 0 0 1 0.8500000000000005 0.8550000000000004
a 0.8475000000000004 0.8475000000000004 0 0 1 -0.8500000000000005 0.8450000000000006
a 0.8425000000000002 0.8425000000000002 0 0 1 -0.8399999999999999 -0.8450000000000006
a 1.1624999999999996 1.1624999999999996 0 0 0 -1.1600000000000001 -1.1649999999999996
a 1.1674999999999995 1.1674999999999995 0 0 0 -1.17 1.1649999999999996
a 1.1724999999999999 1.1724999999999999 0 0 0 1.17 1.1749999999999998
a 1.1774999999999998 1.1774999999999998 0 0 0 1.1799999999999997 -1.1749999999999998
a 0.8175000000000003 0.8175000000000003 0 0 1 0.8200000000000003 -0.8150000000000004
a 0.8125000000000002 0.8125000000000002 0 0 1 0.8100000000000005 0.8150000000000004
a 0.8075000000000003 0.8075000000000003 0 0 1 -0.8100000000000005 0.8050000000000006
a 0.8025000000000002 0.8025000000000002 0 0 1 -0.8000000000000007 -0.8050000000000006
a 1.2024999999999997 1.2024999999999997 0 0 0 -1.1999999999999993 -1.2049999999999996
a 1.2074999999999996 1.2074999999999996 0 0 0 -1.21 1.2049999999999996
a 1.2125 1.2125 0 0 0 1.2099999999999995 1.2149999999999999
a 1.2174999999999998 1.2174999999999998 0 0 0 1.2200000000000002 -1.2149999999999999
a 0.7775000000000003 0.7775000000000003 0 0 1 0.7800000000000002 -0.7750000000000004
a 0.7725000000000002 0.7725000000000002 0 0 1 0.7700000000000005 0.7750000000000004
a 0.7675000000000003 0.7675000000000003 0 0 1 -0.7700000000000005 0.7650000000000006
a 0.7625000000000002 0.7625000000000002 0 0 1 -0.7599999999999998 -0.7650000000000006
a 1.2424999999999997 1.2424999999999997 0 0 0 -1.2400000000000002 -1.2449999999999997
a 1.2474999999999996 1.2474999999999996 0 0 0 -1.25 1.2449999999999997
a 1.2525 1.2525 0 0 0 1.2499999999999996 1.255
a 1.2574999999999998 1.2574999999999998 0 0 0 1.2600000000000002 -1.255
a 0.7375000000000003 0.7375000000000003 0 0 1 0.7400000000000002 -0.7350000000000003
a 0.7325000000000002 0.7325000000000002 0 0 1 0.7300000000000004 0.7350000000000003
a 0.7275000000000003 0.7275000000000003 0 0 1 -0.7300000000000004 0.7250000000000005
a 0.7225000000000001 0.7225000000000001 0 0 1 -0.7200000000000006 -0.7250000000000005
a 1.2824999999999998 1.2824999999999998 0 0 0 -1.2799999999999994 -1.2849999999999997
a 1.2874999999999996 1.2874999999999996 0 0 0 -1.2899999999999996 1.2849999999999997
a 1.2924999999999995 1.2924999999999995 0 0 0 1.2899999999999991 1.295
a 1.2974999999999994 1.2974999999999994 0 0 0 1.3000000000000003 -1.295
a 0.6975000000000005 0.6975000000000005 0 0 1 0.7000000000000002 -0.6950000000000003
a 0.6925000000000003 0.6925000000000003 0 0 1 0.6900000000000004 0.6950000000000003
a 0.6875000000000004 0.6875000000000004 0 0 1 -0.6900000000000004 0.6850000000000005
a 0.6825000000000003 0.6825000000000003 0 0 1 -0.6800000000000006 -0.6850000000000005
a 1.3224999999999993 1.3224999999999993 0 0 0 -1.3199999999999994 -1.3249999999999993
a 1.3274999999999992 1.3274999999999992 0 0 0 -1.3299999999999992 1.3249999999999993
a 1.3324999999999996 1.3324999999999996 0 0 0 1.3299999999999987 1.334999999999999
a 1.3374999999999995 1.3374999999999995 0 0 0 1.3400000000000003 -1.334999999999999
a 0.6575000000000006 0.6575000000000006 0 0 1 0.6600000000000001 -0.6550000000000002
a 0.6525000000000005 0.6525000000000005 0 0 1 0.6500000000000004 0.6550000000000002
a 0.6475000000000006 0.6475000000000006 0 0 1 -0.6500000000000004 0.6450000000000005
a 0.6425000000000005 0.6425000000000005 0 0 1 -0.6400000000000006 -0.6450000000000005
a 1.3624999999999994 1.3624999999999994 0 0 0 -1.3599999999999994 -1.3649999999999993
a 1.3674999999999993 1.3674999999999993 0 0 0 -1.3699999999999992 1.3649999999999993
a 1.3724999999999996 1.3724999999999996 0 0 0 1.3699999999999988 1.375
a 1.3774999999999995 1.3774999999999995 0 0 0 1.3799999999999994 -1.375
a 0.6175000000000006 0.6175000000000006 0 0 1 0.620000000000001 -0.6150000000000002
a 0.6125000000000005 0.6125000000000005 0 0 1 0.6100000000000003 0.6150000000000002
a 0.6075000000000006 0.6075000000000006 0 0 1 -0.6100000000000003 0.6050000000000004
a 0.6025000000000005 0.6025000000000005 0 0 1 -0.6000000000000005 -0.6050000000000004
a 1.4024999999999994 1.4024999999999994 0 0 0 -1.3999999999999995 -1.4049999999999994
a 1.4074999999999993 1.4074999999999993 0 0 0 -1.4099999999999993 1.4049999999999994
a 1.4124999999999996 1.4124999999999996 0 0 0 1.4099999999999988 1.4149999999999991
a 1.4174999999999995 1.4174999999999995 0 0 0 1.4200000000000004 -1.4149999999999991
a 0.5775000000000006 0.5775000000000006 0 0 1 0.5800000000000001 -0.5750000000000002
a 0.5725000000000005 0.5725000000000005 0 0 1 0.5700000000000003 0.5750000000000002
a 0.5675000000000006 0.5675000000000006 0 0 1 -0.5700000000000003 0.5650000000000004
a 0.5625000000000004 0.5625000000000004 0 0 1 -0.5600000000000005 -0.5650000000000004
a 1.4424999999999994 1.4424999999999994 0 0 0 -1.4399999999999995 -1.4449999999999994
a 1.4474999999999993 1.4474999999999993 0 0 0 -1.4499999999999993 1.4449999999999994
a 1.4524999999999997 1.4524999999999997 0 0 0 1.4499999999999988 1.455
a 1.4574999999999996 1.4574999999999996 0 0 0 1.4599999999999995 -1.455
a 0.5375000000000005 0.5375000000000005 0 0 1 0.5400000000000009 -0.5350000000000001
a 0.5325000000000004 0.5325000000000004 0 0 1 0.5300000000000002 0.5350000000000001
a 0.5275000000000005 0.5275000000000005 0 0 1 -0.5300000000000002 0.5250000000000004
a 0.5225000000000004 0.5225000000000004 0 0 1 -0.5200000000000005 -0.5250000000000004
a 1.4824999999999995 1.4824999999999995 0 0 0 -1.4799999999999995 -1.4849999999999994
a 1.4874999999999994 1.4874999999999994 0 0 0 -1.4899999999999993 1.4849999999999994
a 1.4924999999999997 1.4924999999999997 0 0 0 1.4899999999999989 1.4949999999999992
a 1.4974999999999996 1.4974999999999996 0 0 0 1.5000000000000004 -1.4949999999999992
a 0.49750000000000044 0.49750000000000044 0 0 1 0.5 -0.4950000000000001
a 0.49250000000000044 0.49250000000000044 0 0 1 0.4900000000000002 0.4950000000000001
a 0.48750000000000043 0.48750000000000043 0 0 1 -0.4900000000000002 0.4850000000000003
a 0.48250000000000043 0.48250000000000043 0 0 1 -0.4800000000000004 -0.4850000000000003
a 1.5224999999999995 1.5224999999999995 0 0 0 -1.5199999999999996 -1.5249999999999995
a 1.5274999999999994 1.5274999999999994 0 0 0 -1.5299999999999994 1.5249999999999995
a 1.5324999999999998 1.5324999999999998 0 0 0 1.529999999999999 1.5350000000000001
a 1.5374999999999996 1.5374999999999996 0 0 0 1.5399999999999996 -1.5350000000000001
a 0.4575000000000004 0.4575000000000004 0 0 1 0.46000000000000085 -0.45500000000000007
a 0.4525000000000004 0.4525000000000004 0 0 1 0.4500000000000002 0.45500000000000007
a 0.4475000000000004 0.4475000000000004 0 0 1 -0.4500000000000002 0.4450000000000003
a 0.4425000000000004 0.4425000000000004 0 0 1 -0.4400000000000004 -0.4450000000000003
a 1.5624999999999996 1.5624999999999996 0 0 0 -1.5599999999999996 -1.5649999999999995
a 1.5674999999999994 1.5674999999999994 0 0 0 -1.5699999999999994 1.5649999999999995
a 1.5724999999999998 1.5724999999999998 0 0 0 1.569999999999999 1.5749999999999993
a 1.5774999999999997 1.5774999999999997 0 0 0 1.5800000000000005 -1.5749999999999993
a 0.41750000000000037 0.41750000000000037 0 0 1 0.41999999999999993 -0.41500000000000004
a 0.41250000000000037 0.41250000000000037 0 0 1 0.41000000000000014 0.41500000000000004
a 0.40750000000000036 0.40750000000000036 0 0 1 -0.41000000000000014 0.40500000000000025
a 0.40250000000000036 0.40250000000000036 0 0 1 -0.40000000000000036 -0.40500000000000025
    " />
</svg>
