<svg id="svg_css_ex1" viewBox="0 0 10 10" 
   height="10cm"
   width="10cm"
   xmlns="http://www.w3.org/2000/svg">
  <path
    fill="none"
    stroke="black"
    stroke-width="0.01"
    d="
M 8.0 5.0
a 1.6949999999999998 1.6949999999999998 0 0 1 -1.7000000000000002 1.6899999999999995
a 1.685 1.685 0 0 1 -1.6799999999999997 -1.6899999999999995
a 0.325 0.325 0 0 0 -0.3200000000000003 -0.33000000000000007
a 0.33499999999999996 0.33499999999999996 0 0 0 -0.33999999999999986 0.33000000000000007
a 0.345 0.345 0 0 0 0.33999999999999986 0.34999999999999964
a 0.355 0.355 0 0 0 0.3600000000000003 -0.34999999999999964
a 1.6350000000000002 1.6350000000000002 0 0 1 1.6400000000000015 -1.629999999999999
a 1.625 1.625 0 0 1 1.6199999999999992 1.63
a 1.6150000000000002 1.6150000000000002 0 0 1 -1.62 1.6100000000000003
a 1.605 1.605 0 0 1 -1.5999999999999996 -1.6100000000000003
a 0.405 0.405 0 0 0 -0.40000000000000036 -0.41000000000000014
a 0.41500000000000004 0.41500000000000004 0 0 0 -0.41999999999999993 0.41000000000000014
a 0.42500000000000004 0.42500000000000004 0 0 0 0.41999999999999993 0.4299999999999997
a 0.435 0.435 0 0 0 0.4400000000000004 -0.4299999999999997
a 1.5550000000000002 1.5550000000000002 0 0 1 1.5600000000000014 -1.549999999999999
a 1.545 1.545 0 0 1 1.5399999999999991 1.5499999999999998
a 1.5350000000000001 1.5350000000000001 0 0 1 -1.54 1.5300000000000002
a 1.525 1.525 0 0 1 -1.5199999999999996 -1.5300000000000002
a 0.485 0.485 0 0 0 -0.4800000000000004 -0.4900000000000002
a 0.495 0.495 0 0 0 -0.5 0.4900000000000002
a 0.505 0.505 0 0 0 0.5 0.5099999999999998
a 0.515 0.515 0 0 0 0.5199999999999996 -0.5099999999999998
a 1.475 1.475 0 0 1 1.4800000000000013 -1.4699999999999989
a 1.4649999999999999 1.4649999999999999 0 0 1 1.459999999999999 1.4699999999999998
a 1.455 1.455 0 0 1 -1.46 1.4500000000000002
a 1.4449999999999998 1.4449999999999998 0 0 1 -1.4399999999999995 -1.4500000000000002
a 0.5650000000000001 0.5650000000000001 0 0 0 -0.5600000000000005 -0.5700000000000003
a 0.5750000000000001 0.5750000000000001 0 0 0 -0.5800000000000001 0.5700000000000003
a 0.5850000000000001 0.5850000000000001 0 0 0 0.5800000000000001 0.5899999999999999
a 0.5950000000000001 0.5950000000000001 0 0 0 0.5999999999999996 -0.5899999999999999
a 1.395 1.395 0 0 1 1.4000000000000004 -1.3899999999999988
a 1.3849999999999998 1.3849999999999998 0 0 1 1.38 1.3899999999999997
a 1.375 1.375 0 0 1 -1.38 1.37
a 1.3649999999999998 1.3649999999999998 0 0 1 -1.3599999999999994 -1.37
a 0.645 0.645 0 0 0 -0.6399999999999997 -0.6500000000000004
a 0.655 0.655 0 0 0 -0.6600000000000001 0.6500000000000004
a 0.665 0.665 0 0 0 0.6600000000000001 0.6699999999999999
a 0.675 0.675 0 0 0 0.6799999999999997 -0.6699999999999999
a 1.315 1.315 0 0 1 1.3200000000000003 -1.3099999999999987
a 1.3049999999999997 1.3049999999999997 0 0 1 1.2999999999999998 1.3099999999999996
a 1.295 1.295 0 0 1 -1.2999999999999998 1.29
a 1.2849999999999997 1.2849999999999997 0 0 1 -1.2799999999999994 -1.29
a 0.725 0.725 0 0 0 -0.7199999999999998 -0.7300000000000004
a 0.735 0.735 0 0 0 -0.7400000000000002 0.7300000000000004
a 0.745 0.745 0 0 0 0.7400000000000002 0.75
a 0.755 0.755 0 0 0 0.7599999999999998 -0.75
a 1.2349999999999999 1.2349999999999999 0 0 1 1.2400000000000002 -1.229999999999999
a 1.225 1.225 0 0 1 1.2199999999999998 1.23
a 1.2149999999999999 1.2149999999999999 0 0 1 -1.2199999999999998 1.21
a 1.205 1.205 0 0 1 -1.2000000000000002 -1.21
a 0.805 0.805 0 0 0 -0.7999999999999998 -0.8100000000000005
a 0.8150000000000001 0.8150000000000001 0 0 0 -0.8200000000000003 0.8100000000000005
a 0.8250000000000001 0.8250000000000001 0 0 0 0.8200000000000003 0.8300000000000001
a 0.8350000000000001 0.8350000000000001 0 0 0 0.8399999999999999 -0.8300000000000001
a 1.1549999999999998 1.1549999999999998 0 0 1 1.1600000000000001 -1.15
a 1.145 1.145 0 0 1 1.1399999999999997 1.15
a 1.1349999999999998 1.1349999999999998 0 0 1 -1.1399999999999997 1.13
a 1.125 1.125 0 0 1 -1.12 -1.13
a 0.885 0.885 0 0 0 -0.8799999999999999 -0.8899999999999997
a 0.895 0.895 0 0 0 -0.8999999999999999 0.8899999999999997
a 0.905 0.905 0 0 0 0.8999999999999999 0.9100000000000001
a 0.915 0.915 0 0 0 0.9199999999999999 -0.9100000000000001
a 1.0750000000000002 1.0750000000000002 0 0 1 1.08 -1.0700000000000003
a 1.065 1.065 0 0 1 1.0600000000000005 1.0700000000000003
a 1.0550000000000002 1.0550000000000002 0 0 1 -1.0600000000000005 1.0499999999999998
a 1.045 1.045 0 0 1 -1.04 -1.0499999999999998
a 0.965 0.965 0 0 0 -0.96 -0.9699999999999998
a 0.975 0.975 0 0 0 -0.98 0.9699999999999998
a 0.985 0.985 0 0 0 0.98 0.9900000000000002
a 0.995 0.995 0 0 0 1.0 -0.9900000000000002
a 0.995 0.995 0 0 1 1.0 -0.9900000000000002
a 0.985 0.985 0 0 1 0.9800000000000004 0.9900000000000002
a 0.975 0.975 0 0 1 -0.9800000000000004 0.9699999999999998
a 0.965 0.965 0 0 1 -0.96 -0.9699999999999998
a 1.045 1.045 0 0 0 -1.04 -1.0499999999999998
a 1.0550000000000002 1.0550000000000002 0 0 0 -1.06 1.0499999999999998
a 1.065 1.065 0 0 0 1.06 1.0700000000000003
a 1.0750000000000002 1.0750000000000002 0 0 0 1.08 -1.0700000000000003
a 0.9149999999999999 0.9149999999999999 0 0 1 0.9199999999999999 -0.9100000000000001
a 0.9049999999999999 0.9049999999999999 0 0 1 0.9000000000000004 0.9100000000000001
a 0.8949999999999999 0.8949999999999999 0 0 1 -0.9000000000000004 0.8899999999999997
a 0.8849999999999999 0.8849999999999999 0 0 1 -0.8799999999999999 -0.8899999999999997
a 1.125 1.125 0 0 0 -1.12 -1.13
a 1.1350000000000002 1.1350000000000002 0 0 0 -1.1400000000000001 1.13
a 1.145 1.145 0 0 0 1.1400000000000001 1.1500000000000004
a 1.1550000000000002 1.1550000000000002 0 0 0 1.1600000000000001 -1.1500000000000004
a 0.8349999999999999 0.8349999999999999 0 0 1 0.8399999999999999 -0.8300000000000001
a 0.8249999999999998 0.8249999999999998 0 0 1 0.8200000000000003 0.8300000000000001
a 0.8149999999999998 0.8149999999999998 0 0 1 -0.8200000000000003 0.8099999999999996
a 0.8049999999999998 0.8049999999999998 0 0 1 -0.7999999999999998 -0.8099999999999996
a 1.205 1.205 0 0 0 -1.2000000000000002 -1.21
a 1.2149999999999999 1.2149999999999999 0 0 0 -1.2199999999999998 1.21
a 1.225 1.225 0 0 0 1.2199999999999993 1.2300000000000004
a 1.2349999999999999 1.2349999999999999 0 0 0 1.2400000000000007 -1.2300000000000004
a 0.755 0.755 0 0 1 0.7599999999999998 -0.75
a 0.745 0.745 0 0 1 0.7400000000000002 0.75
a 0.735 0.735 0 0 1 -0.7400000000000002 0.7300000000000004
a 0.725 0.725 0 0 1 -0.7199999999999998 -0.7300000000000004
a 1.2850000000000001 1.2850000000000001 0 0 0 -1.2800000000000002 -1.29
a 1.295 1.295 0 0 0 -1.2999999999999998 1.29
a 1.3050000000000002 1.3050000000000002 0 0 0 1.2999999999999994 1.3100000000000005
a 1.315 1.315 0 0 0 1.3200000000000007 -1.3100000000000005
a 0.6749999999999999 0.6749999999999999 0 0 1 0.6799999999999997 -0.6699999999999999
a 0.6649999999999999 0.6649999999999999 0 0 1 0.6600000000000001 0.6699999999999999
a 0.6549999999999999 0.6549999999999999 0 0 1 -0.6600000000000001 0.6500000000000004
a 0.6449999999999999 0.6449999999999999 0 0 1 -0.6399999999999997 -0.6500000000000004
a 1.3650000000000002 1.3650000000000002 0 0 0 -1.3600000000000003 -1.37
a 1.375 1.375 0 0 0 -1.38 1.37
a 1.3850000000000002 1.3850000000000002 0 0 0 1.3799999999999994 1.3900000000000006
a 1.395 1.395 0 0 0 1.4000000000000008 -1.3900000000000006
a 0.5949999999999999 0.5949999999999999 0 0 1 0.5999999999999996 -0.5899999999999999
a 0.5849999999999999 0.5849999999999999 0 0 1 0.5800000000000001 0.5899999999999999
a 0.5749999999999998 0.5749999999999998 0 0 1 -0.5800000000000001 0.5700000000000003
a 0.5649999999999998 0.5649999999999998 0 0 1 -0.5599999999999996 -0.5700000000000003
a 1.4449999999999998 1.4449999999999998 0 0 0 -1.4399999999999995 -1.4500000000000002
a 1.455 1.455 0 0 0 -1.46 1.4500000000000002
a 1.4649999999999999 1.4649999999999999 0 0 0 1.4599999999999995 1.4699999999999998
a 1.475 1.475 0 0 0 1.4800000000000009 -1.4699999999999998
a 0.515 0.515 0 0 1 0.5199999999999996 -0.5099999999999998
a 0.505 0.505 0 0 1 0.5 0.5099999999999998
a 0.495 0.495 0 0 1 -0.5 0.4900000000000002
a 0.48500000000000004 0.48500000000000004 0 0 1 -0.4800000000000004 -0.4900000000000002
a 1.525 1.525 0 0 0 -1.5199999999999996 -1.5300000000000002
a 1.5350000000000001 1.5350000000000001 0 0 0 -1.54 1.5300000000000002
a 1.545 1.545 0 0 0 1.5399999999999996 1.5499999999999998
a 1.5550000000000002 1.5550000000000002 0 0 0 1.560000000000001 -1.5499999999999998
a 0.43499999999999994 0.43499999999999994 0 0 1 0.4399999999999995 -0.4299999999999997
a 0.42499999999999993 0.42499999999999993 0 0 1 0.41999999999999993 0.4299999999999997
a 0.4149999999999999 0.4149999999999999 0 0 1 -0.41999999999999993 0.41000000000000014
a 0.40499999999999997 0.40499999999999997 0 0 1 -0.40000000000000036 -0.41000000000000014
a 1.605 1.605 0 0 0 -1.5999999999999996 -1.6100000000000003
a 1.6150000000000002 1.6150000000000002 0 0 0 -1.62 1.6100000000000003
a 1.625 1.625 0 0 0 1.6199999999999997 1.63
a 1.6350000000000002 1.6350000000000002 0 0 0 1.640000000000001 -1.63
a 0.35499999999999987 0.35499999999999987 0 0 1 0.35999999999999943 -0.34999999999999964
a 0.34499999999999986 0.34499999999999986 0 0 1 0.33999999999999986 0.34999999999999964
a 0.33499999999999985 0.33499999999999985 0 0 1 -0.33999999999999986 0.33000000000000007
a 0.3249999999999999 0.3249999999999999 0 0 1 -0.3200000000000003 -0.33000000000000007
a 1.685 1.685 0 0 0 -1.6799999999999997 -1.69
a 1.6949999999999998 1.6949999999999998 0 0 0 -1.7000000000000002 1.69
    " />
</svg>
