<svg id="svg_css_ex1" viewBox="0 0 10 10" 
   height="10cm"
   width="10cm"
   xmlns="http://www.w3.org/2000/svg">
  <path
    fill="none"
    stroke="black"
    stroke-width="0.05"
    d="
M 5.0 5.0
a 0.006944444444444445 0.01388888888888889 0 0 0 0.012028130608117138 -0.006944444444444642
a 0.020833333333333336 0.02777777777777778 0 0 0 0.0018607582807721457 -0.017111816771789634
a 0.034722222222222224 0.041666666666666664 0 0 0 -0.013888888888889284 -0.017610405450432687
a 0.04861111111111111 0.05555555555555556 0 0 0 -0.02777777777777768 -0.006445855765801589
a 0.0625 0.06944444444444445 0 0 0 -0.03236287526280801 0.013390300210246231
a 0.0763888888888889 0.08333333333333333 0 0 0 -0.023192680292747347 0.03472222222222232
a 0.09027777777777778 0.09722222222222222 0 0 0 -0.0008635809234878167 0.048611111111110716
a 0.10416666666666667 0.11111111111111112 0 0 0 0.028641358701265496 0.047613933753827276
a 0.11805555555555555 0.125 0 0 0 0.05555555555555536 0.028774955135062008
a 0.13194444444444445 0.1388888888888889 0 0 0 0.06944444444444464 -0.004718693918827732
a 0.14583333333333331 0.15277777777777776 0 0 0 0.06286499224484476 -0.043892417192282984
a 0.1597222222222222 0.16666666666666666 0 0 0 0.03435722997737756 -0.07638888888888928
a 0.1736111111111111 0.18055555555555552 0 0 0 -0.010300968761143281 -0.09027777777777768
a 0.1875 0.19444444444444445 0 0 0 -0.05914347568330136 -0.07811605073586314
a 0.2013888888888889 0.20833333333333331 0 0 0 -0.09722222222222232 -0.03993950481969222
a 0.2152777777777778 0.22222222222222224 0 0 0 -0.11111111111111072 0.01588324360345794
a 0.22916666666666669 0.2361111111111111 0 0 0 -0.09336710922688152 0.07439453417431974
a 0.24305555555555555 0.25 0 0 0 -0.045521779662007766 0.11805555555555536
a 0.2569444444444444 0.2638888888888889 0 0 0 0.02146551844577349 0.13194444444444464
a 0.27083333333333337 0.2777777777777778 0 0 0 0.08964559266533723 0.1086181677178999
a 0.2847222222222222 0.2916666666666667 0 0 0 0.13888888888888928 0.05110405450432243
a 0.2986111111111111 0.3055555555555555 0 0 0 0.15277777777777768 -0.02704779328808815
a 0.3125 0.3194444444444444 0 0 0 0.12386922620891827 -0.10489665115635649
a 0.32638888888888884 0.3333333333333333 0 0 0 0.05668632934663709 -0.15972222222222232
a 0.3402777777777778 0.3472222222222222 0 0 0 -0.03263006813040281 -0.17361111111111072
a 0.35416666666666663 0.36111111111111105 0 0 0 -0.12014770964737398 -0.13912028469993665
a 0.3680555555555555 0.375 0 0 0 -0.18055555555555536 -0.062268604188952636
a 0.3819444444444444 0.3888888888888889 0 0 0 -0.19444444444444553 0.03821234297271836
a 0.39583333333333337 0.4027777777777778 0 0 0 -0.15437134319095414 0.13539876813839236
a 0.4097222222222222 0.41666666666666663 0 0 0 -0.06785087903126819 0.20138888888888928
a 0.4236111111111111 0.4305555555555556 0 0 0 0.04379461781503302 0.21527777777777768
a 0.4375 0.4444444444444445 0 0 0 0.15064982662941073 0.1696224016819725
a 0.4513888888888889 0.4583333333333333 0 0 0 0.2222222222222241 0.07343315387358285
a 0.4652777777777778 0.4722222222222222 0 0 0 0.23611111111111072 -0.04937689265734857
a 0.47916666666666663 0.4861111111111111 0 0 0 0.1848734601729909 -0.1659008851204291
a 0.4930555555555556 0.5 0 0 0 0.0790154287158975 -0.24305555555555536
a 0.5069444444444444 0.5138888888888888 0 0 0 -0.05495916749966412 -0.25694444444444553
a 0.5208333333333333 0.5277777777777778 0 0 0 -0.18115194361144749 -0.20012451866400838
a 0.5347222222222223 0.5416666666666667 0 0 0 -0.2638888888888893 -0.08459770355821306
a 0.5486111111111112 0.5555555555555556 0 0 0 -0.2777777777777768 0.06054144234197878
a 0.5625 0.5694444444444444 0 0 0 -0.21537557715502764 0.19640300210246586
a 0.5763888888888888 0.5833333333333334 0 0 0 -0.09017997840052772 0.28472222222222143
a 0.5902777777777778 0.5972222222222222 0 0 0 0.06612371718429255 0.2986111111111116
a 0.6041666666666666 0.611111111111111 0 0 0 0.21165406059348424 0.23062663564604513
a 0.6180555555555556 0.625 0 0 0 0.30555555555555713 0.09576225324284415
a 0.6319444444444444 0.6388888888888888 0 0 0 0.31944444444444375 -0.07170599202660899
a 0.6458333333333333 0.6527777777777778 0 0 0 0.2458776941370635 -0.22690511908450173
a 0.6597222222222222 0.6666666666666666 0 0 0 0.10134452808515881 -0.3263888888888884
a 0.673611111111111 0.6805555555555555 0 0 0 -0.07728826686892365 -0.3402777777777777
a 0.6875 0.6944444444444444 0 0 0 -0.2421561775755201 -0.26112875262808277
a 0.7013888888888888 0.7083333333333333 0 0 0 -0.34722222222222143 -0.10692680292747347
a 0.7152777777777777 0.7222222222222221 0 0 0 -0.3611111111111107 0.08287054171123742
a 0.7291666666666666 0.7361111111111112 0 0 0 -0.27637981111910115 0.2574072360665376
a 0.7430555555555556 0.75 0 0 0 -0.11250907776978991 0.36805555555555447
a 0.7569444444444444 0.763888888888889 0 0 0 0.08845281655355475 0.3819444444444491
a 0.7708333333333334 0.7777777777777778 0 0 0 0.27265829455755686 0.29163086961011864
a 0.7847222222222222 0.7916666666666666 0 0 0 0.3888888888888893 0.1180913526121028
a 0.7986111111111112 0.8055555555555556 0 0 0 0.4027777777777768 -0.09403509139586941
a 0.8125 0.8194444444444444 0 0 0 0.306881928101137 -0.28790935304857523
a 0.8263888888888888 0.8333333333333333 0 0 0 0.12367362745441834 -0.40972222222222143
a 0.8402777777777778 0.8472222222222223 0 0 0 -0.09961736623818229 -0.4236111111111107
a 0.8541666666666667 0.8611111111111112 0 0 0 -0.3031604115395936 -0.3221329865921563
a 0.8680555555555556 0.875 0 0 0 -0.4305555555555509 -0.1292559022967339
a 0.8819444444444444 0.888888888888889 0 0 0 -0.4444444444444482 0.10519964108049695
a 0.8958333333333334 0.9027777777777778 0 0 0 -0.33738404508317554 0.31841147003061376
a 0.9097222222222222 0.9166666666666666 0 0 0 -0.13483817713904944 0.45138888888889106
a 0.9236111111111112 0.9305555555555556 0 0 0 0.11078191592281339 0.4652777777777741
a 0.9375 0.9444444444444444 0 0 0 0.33366252852163214 0.3526351035741948
a 0.9513888888888888 0.9583333333333334 0 0 0 0.47222222222221877 0.14042045198136233
a 0.9652777777777778 0.9722222222222222 0 0 0 0.4861111111111134 -0.11636419076512894
a 0.9791666666666666 0.986111111111111 0 0 0 0.36788616206520874 -0.3489135870126452
a 0.9930555555555556 1.0 0 0 0 0.14600272682368054 -0.49305555555555713
a 1.0069444444444444 1.0138888888888888 0 0 0 -0.12194646560744093 -0.5069444444444411
a 1.0208333333333333 1.0277777777777777 0 0 0 -0.3641646455036742 -0.383137220556236
a 1.0347222222222223 1.0416666666666667 0 0 0 -0.5138888888888848 -0.15158500166599165
a 1.0486111111111112 1.0555555555555556 0 0 0 -0.5277777777777803 0.12752874044976092
a 1.0625 1.0694444444444444 0 0 0 -0.3983882790472437 0.37941570399468283
a 1.0763888888888888 1.0833333333333335 0 0 0 -0.15716727650830942 0.534722222222225
a 1.090277777777778 1.0972222222222223 0 0 0 0.13311101529207336 0.5486111111111072
a 1.1041666666666667 1.1111111111111112 0 0 0 0.39466676248570476 0.4136393375382674
a 1.1180555555555556 1.125 0 0 0 0.5555555555555518 0.16274955135062363
a 1.1319444444444444 1.1388888888888888 0 0 0 0.5694444444444473 -0.13869329013438936
a 1.1458333333333335 1.152777777777778 0 0 0 0.42889039602928136 -0.4099178209767169
a 1.1597222222222223 1.1666666666666667 0 0 0 0.16833182619294185 -0.576388888888892
a 1.1736111111111112 1.1805555555555556 0 0 0 -0.1442755649767049 -0.5902777777777812
a 1.1875 1.1944444444444444 0 0 0 -0.42516887946773707 -0.44414145452029796
a 1.2013888888888888 1.2083333333333333 0 0 0 -0.597222222222225 -0.17391410103525562
a 1.2152777777777777 1.222222222222222 0 0 0 -0.6111111111111063 0.1498578398190169
a 1.2291666666666665 1.2361111111111112 0 0 0 -0.45939251301132433 0.440419937958759
a 1.2430555555555556 1.25 0 0 0 -0.1794963758775694 0.6180555555555589
a 1.2569444444444444 1.2638888888888888 0 0 0 0.15544011466133334 0.6319444444444402
a 1.2708333333333333 1.2777777777777777 0 0 0 0.45567099644977827 0.47464357150234093
a 1.2847222222222223 1.2916666666666667 0 0 0 0.638888888888884 0.18507865071988405
a 1.2986111111111112 1.3055555555555556 0 0 0 0.6527777777777812 -0.1610223895036489
a 1.3125 1.3194444444444444 0 0 0 0.489894629993354 -0.4709220549407904
a 1.3263888888888888 1.3333333333333333 0 0 0 0.19066092556220227 -0.659722222222225
a 1.3402777777777777 1.347222222222222 0 0 0 -0.16660466434596 -0.6736111111111063
a 1.3541666666666665 1.361111111111111 0 0 0 -0.48617311343181413 -0.5051456884843799
a 1.3680555555555554 1.375 0 0 0 -0.6805555555555589 -0.19624320040451648
a 1.3819444444444444 1.3888888888888888 0 0 0 -0.6944444444444393 0.17218693918827643
a 1.3958333333333333 1.4027777777777777 0 0 0 -0.520396746975397 0.5014241719228334
a 1.409722222222222 1.4166666666666665 0 0 0 -0.20182547524683025 0.7013888888888822
a 1.423611111111111 1.4305555555555554 0 0 0 0.17776921403059243 0.7152777777777821
a 1.4374999999999998 1.4444444444444442 0 0 0 0.5166752304138438 0.53564780546641
a 1.4513888888888888 1.4583333333333335 0 0 0 0.722222222222225 0.2074077500891498
a 1.465277777777778 1.4722222222222223 0 0 0 0.7361111111111063 -0.18335148887290398
a 1.4791666666666667 1.4861111111111112 0 0 0 0.5508988639574417 -0.5319262889048764
a 1.4930555555555556 1.5 0 0 0 0.21299002493145736 -0.7430555555555394
a 1.5069444444444444 1.5138888888888888 0 0 0 -0.18893376371522574 -0.7569444444444597
a 1.5208333333333335 1.527777777777778 0 0 0 -0.5471773473958903 -0.5661499224484499
a 1.5347222222222223 1.5416666666666667 0 0 0 -0.7638888888888831 -0.21857229977377157
a 1.5486111111111112 1.5555555555555556 0 0 0 -0.7777777777777821 0.19451603855754218
a 1.5625 1.5694444444444444 0 0 0 -0.5814009809394616 0.5624284058869007
a 1.5763888888888888 1.5833333333333333 0 0 0 -0.22415457461609023 0.7847222222222259
a 1.5902777777777777 1.597222222222222 0 0 0 0.2000983133998524 0.7986111111111054
a 1.6041666666666665 1.6111111111111112 0 0 0 0.5776794643779253 0.596652039430488
a 1.6180555555555556 1.625 0 0 0 0.8055555555555483 0.2297368494584049
a 1.6319444444444444 1.6388888888888888 0 0 0 0.81944444444445 -0.20568058824216884
a 1.6458333333333333 1.6527777777777777 0 0 0 0.6119030979215054 -0.5929305228689445
a 1.659722222222222 1.6666666666666665 0 0 0 0.23531912430071777 -0.8263888888888822
a 1.6736111111111112 1.6805555555555558 0 0 0 -0.2112628630844844 -0.840277777777783
a 1.6875000000000002 1.6944444444444446 0 0 0 -0.608181581359954 -0.6271541564125176
a 1.701388888888889 1.7083333333333335 0 0 0 -0.8472222222222383 -0.24090139914303732
a 1.715277777777778 1.7222222222222223 0 0 0 -0.861111111111093 0.21684513792679594
a 1.7291666666666667 1.7361111111111112 0 0 0 -0.6424052149035453 0.6234326398509786
a 1.7430555555555556 1.75 0 0 0 -0.2464836739853511 0.8680555555555358
a 1.7569444444444446 1.763888888888889 0 0 0 0.22242741276911815 0.881944444444474
a 1.7708333333333335 1.777777777777778 0 0 0 0.6386836983419819 0.6576562733945446
a 1.7847222222222223 1.7916666666666667 0 0 0 0.888888888888892 0.2520659488276715
a 1.7986111111111112 1.8055555555555556 0 0 0 0.902777777777783 -0.22800968761142926
a 1.8125 1.8194444444444444 0 0 0 0.6729073318855798 -0.653934756833018
a 1.8263888888888888 1.8333333333333333 0 0 0 0.2576482236699782 -0.9097222222222276
a 1.8402777777777777 1.8472222222222223 0 0 0 -0.2335919624537386 -0.9236111111110921
a 1.8541666666666667 1.8611111111111112 0 0 0 -0.669185815324032 -0.6881583903766018
a 1.8680555555555556 1.875 0 0 0 -0.9305555555555607 -0.2632304985122982
a 1.8819444444444444 1.8888888888888888 0 0 0 -0.9444444444444491 0.23917423729606213
a 1.8958333333333333 1.9027777777777777 0 0 0 -0.7034094488676006 0.6844368738150335
a 1.9097222222222223 1.9166666666666667 0 0 0 -0.26881277335461906 0.951388888888892
a 1.9236111111111112 1.9305555555555556 0 0 0 0.24475651213837235 0.9652777777777848
a 1.9375 1.9444444444444444 0 0 0 0.6996879323060714 0.7186605073586358
a 1.9513888888888888 1.9583333333333333 0 0 0 0.9722222222222276 0.27439504819692484
a 1.9652777777777777 1.972222222222222 0 0 0 0.9861111111110912 -0.2503387869806817
a 1.9791666666666665 1.986111111111111 0 0 0 0.7339115658496587 -0.7149389907970853
a 1.9930555555555554 2.0 0 0 0 0.2799773230392457 -0.9930555555555598
a 2.0069444444444446 2.013888888888889 0 0 0 -0.2559210618230061 -1.0069444444444509
a 2.020833333333333 2.0277777777777777 0 0 0 -0.7301900492880851 -0.7491626243406557
a 2.0347222222222223 2.0416666666666665 0 0 0 -1.013888888888892 -0.28555959788156615
a 2.0486111111111107 2.0555555555555554 0 0 0 -1.0277777777778105 0.26150333666532966
a 2.0625 2.069444444444444 0 0 0 -0.764413682831667 0.7454411077791101
a 2.076388888888889 2.0833333333333335 0 0 0 -0.2911418727238728 1.0347222222222276
a 2.0902777777777777 2.0972222222222223 0 0 0 0.26708561150762433 1.0486111111110903
a 2.104166666666667 2.111111111111111 0 0 0 0.7606921662701653 0.7796647413227307
a 2.1180555555555554 2.125 0 0 0 1.0555555555555332 0.29672414756617815
a 2.1319444444444446 2.138888888888889 0 0 0 1.0694444444444517 -0.2726678863499483
a 2.145833333333333 2.1527777777777777 0 0 0 0.7949157998137109 -0.7759432247611384
a 2.1597222222222223 2.166666666666667 0 0 0 0.302306422408515 -1.0763888888889221
a 2.173611111111111 2.1805555555555554 0 0 0 -0.27825016119225854 -1.090277777777755
a 2.1875 2.1944444444444446 0 0 0 -0.7911942832521781 -0.8101668583047497
a 2.201388888888889 2.208333333333333 0 0 0 -1.0972222222222268 -0.30788869725081947
a 2.2152777777777777 2.2222222222222223 0 0 0 -1.1111111111111174 0.2838324360345821
a 2.229166666666667 2.236111111111111 0 0 0 -0.8254179167957609 0.806445341743204
a 2.2430555555555554 2.25 0 0 0 -0.31347097209312524 1.1180555555555318
a 2.2569444444444446 2.263888888888889 0 0 0 0.2894147108768914 1.1319444444444517
a 2.270833333333333 2.2777777777777777 0 0 0 0.8216964002342175 0.8406689752867837
a 2.2847222222222223 2.2916666666666665 0 0 0 1.1388888888888955 0.3190532469354457
a 2.298611111111111 2.305555555555556 0 0 0 1.1527777777777546 -0.29499698571919897
a 2.3125 2.3194444444444446 0 0 0 0.8559200337778066 -0.8369474587252315
a 2.3263888888888893 2.3333333333333335 0 0 0 0.32463552177776833 -1.1597222222222276
a 2.3402777777777777 2.3472222222222223 0 0 0 -0.3005792605615252 -1.1736111111111178
a 2.354166666666667 2.361111111111111 0 0 0 -0.8521985172162578 -0.8711710922688174
a 2.3680555555555554 2.375 0 0 0 -1.1805555555555296 -0.3302177966200728
a 2.3819444444444446 2.388888888888889 0 0 0 -1.1944444444444535 0.30616153540383406
a 2.395833333333333 2.4027777777777777 0 0 0 -0.8864221507598402 0.8674495757072709
a 2.4097222222222223 2.4166666666666665 0 0 0 -0.3358000714623941 1.201388888888895
a 2.4236111111111107 2.4305555555555554 0 0 0 0.3117438102461425 1.2152777777777537
a 2.4375 2.444444444444444 0 0 0 0.8827006341982844 0.9016732092508644
a 2.4513888888888884 2.458333333333333 0 0 0 1.2222222222222263 0.341382346304715
a 2.4652777777777777 2.4722222222222223 0 0 0 1.2361111111111196 -0.31732608508846827
a 2.479166666666667 2.486111111111111 0 0 0 0.9169242677418561 -0.8979516926892792
a 2.4930555555555554 2.5 0 0 0 0.34696462114703763 -1.2430555555555944
a 2.5069444444444446 2.513888888888889 0 0 0 -0.3229083599307945 -1.2569444444444495
a 2.520833333333333 2.5277777777777777 0 0 0 -0.9132027511803056 -0.932175326232866
a 2.5347222222222223 2.5416666666666665 0 0 0 -1.263888888888859 -0.3525468959893421
a 2.5486111111111107 2.5555555555555554 0 0 0 -1.2777777777778208 0.3284906347731025
a 2.5625 2.569444444444444 0 0 0 -0.9474263847239075 0.9284538096713506
a 2.576388888888889 2.5833333333333335 0 0 0 -0.3581291708316461 1.2847222222221948
a 2.5902777777777777 2.5972222222222223 0 0 0 0.33407290961539227 1.2986111111110885
a 2.604166666666667 2.611111111111111 0 0 0 0.9437048681623823 0.9626774432149627
a 2.6180555555555554 2.625 0 0 0 1.3055555555555625 0.3637114456739674
a 2.6319444444444446 2.638888888888889 0 0 0 1.319444444444418 -0.3396551844577189
a 2.645833333333333 2.6527777777777777 0 0 0 0.977928501705974 -0.9589559266534096
a 2.6597222222222223 2.6666666666666665 0 0 0 0.3692937205162705 -1.3263888888888609
a 2.6736111111111107 2.6805555555555554 0 0 0 -0.34523745930004424 -1.3402777777777861
a 2.6875 2.694444444444444 0 0 0 -0.9742069851443711 -0.9931795601969453
a 2.7013888888888884 2.708333333333333 0 0 0 -1.347222222222264 -0.37487599535861227
a 2.7152777777777777 2.722222222222222 0 0 0 -1.3611111111110827 0.3508197341423527
a 2.729166666666667 2.7361111111111116 0 0 0 -1.0084306186879886 0.9894580436354161
a 2.743055555555556 2.75 0 0 0 -0.3804582702009154 1.3680555555555625
a 2.7569444444444446 2.7638888888888893 0 0 0 0.35640200898467933 1.3819444444444517
a 2.7708333333333335 2.7777777777777777 0 0 0 1.0047091021264105 1.0236816771789785
a 2.7847222222222223 2.791666666666667 0 0 0 1.3888888888888942 0.3860405450432385
a 2.798611111111111 2.8055555555555554 0 0 0 1.4027777777777866 -0.36198428382698733
a 2.8125 2.8194444444444446 0 0 0 1.0389327356700218 -1.0199601606174573
a 2.826388888888889 2.833333333333333 0 0 0 0.3916228198855407 -1.4097222222221903
a 2.8402777777777777 2.8472222222222223 0 0 0 -0.3675665586692949 -1.4236111111111223
a 2.8541666666666665 2.8611111111111107 0 0 0 -1.0352112191084695 -1.0541837941610455
a 2.8680555555555554 2.875 0 0 0 -1.4305555555555616 -0.39720509472786425
a 2.881944444444444 2.8888888888888884 0 0 0 -1.444444444444417 0.37314883351160244
a 2.895833333333333 2.902777777777778 0 0 0 -1.069434852652091 1.0504622775995172
a 2.9097222222222223 2.916666666666667 0 0 0 -0.40278736957016603 1.4513888888888573
a 2.9236111111111116 2.930555555555556 0 0 0 0.37873110835393 1.4652777777777883
a 2.9375 2.9444444444444446 0 0 0 1.0657133360904734 1.0846859111430582
a 2.9513888888888893 2.9583333333333335 0 0 0 1.4722222222222663 0.40836964441251045
a 2.9652777777777777 2.9722222222222223 0 0 0 1.4861111111111187 -0.3843133831962575
a 2.979166666666667 2.986111111111111 0 0 0 1.0999369696340668 -1.0809643945815015
a 2.9930555555555554 3.0 0 0 0 0.4139519192548118 -1.493055555555519
a 3.0069444444444446 3.013888888888889 0 0 0 -0.3898956580385651 -1.5069444444444966
a 3.020833333333333 3.0277777777777777 0 0 0 -1.09621545307255 -1.1151880281251119
a 3.0347222222222223 3.0416666666666665 0 0 0 -1.5138888888888546 -0.419534194097114
a 3.048611111111111 3.055555555555556 0 0 0 -1.5277777777778274 0.39547793288089306
a 3.0625 3.0694444444444446 0 0 0 -1.1304390866160992 1.1114665115635405
a 3.0763888888888893 3.0833333333333335 0 0 0 -0.4251164689394371 1.5347222222222303
a 3.0902777777777777 3.0972222222222223 0 0 0 0.40106020772317796 1.5486111111110814
a 3.104166666666667 3.111111111111111 0 0 0 1.126717570054613 1.1456901451071824
a 3.1180555555555554 3.125 0 0 0 1.555555555555523 0.4306987437817389
a 3.1319444444444446 3.138888888888889 0 0 0 1.5694444444444544 -0.4066424825655073
a 3.145833333333333 3.1527777777777777 0 0 0 1.1609412035981697 -1.1419686285456025
a 3.1597222222222223 3.1666666666666665 0 0 0 0.43628101862406155 -1.5763888888888982
a 3.1736111111111107 3.1805555555555554 0 0 0 -0.41222475740781306 -1.5902777777777453
a 3.1875 3.194444444444444 0 0 0 -1.1572196870366147 -1.1761922620891938
a 3.201388888888889 3.2083333333333335 0 0 0 -1.5972222222222285 -0.4418632934663864
a 3.2152777777777777 3.2222222222222223 0 0 0 -1.611111111111121 0.4178070322501424
a 3.229166666666667 3.236111111111111 0 0 0 -1.1914433205801793 1.1724707455276038
a 3.2430555555555554 3.25 0 0 0 -0.4474455683087095 1.6180555555555607
a 3.2569444444444446 3.263888888888889 0 0 0 0.42338930709244815 1.6319444444444553
a 3.270833333333333 3.2777777777777777 0 0 0 1.1877218040186563 1.2066943790712275
a 3.2847222222222223 3.2916666666666665 0 0 0 1.6388888888888502 0.45302784315100997
a 3.2986111111111107 3.3055555555555554 0 0 0 1.6527777777778327 -0.42897158193477747
a 3.3125 3.319444444444444 0 0 0 1.2219454375622103 -1.202972862509644
a 3.3263888888888884 3.333333333333333 0 0 0 0.4586101179933344 -1.6597222222222285
a 3.3402777777777777 3.347222222222222 0 0 0 -0.43455385677705927 -1.67361111111108
a 3.354166666666667 3.3611111111111116 0 0 0 -1.2182239210007202 -1.237196496053301
a 3.368055555555556 3.375 0 0 0 -1.680555555555518 -0.46419239283563485
a 3.3819444444444446 3.3888888888888893 0 0 0 -1.694444444444458 0.44013613161938947
a 3.3958333333333335 3.4027777777777777 0 0 0 -1.252447554544284 1.2334749794917088
a 3.4097222222222223 3.416666666666667 0 0 0 -0.4697746676779597 1.7013888888889452
a 3.423611111111111 3.4305555555555554 0 0 0 0.44571840646172056 1.7152777777777386
a 3.4375 3.4444444444444446 0 0 0 1.2487260379826948 1.267698613035268
a 3.451388888888889 3.458333333333333 0 0 0 1.7222222222222774 0.47535694252028193
a 3.4652777777777777 3.4722222222222223 0 0 0 1.7361111111110734 -0.45130068130402456
a 3.4791666666666665 3.4861111111111107 0 0 0 1.2829496715262918 -1.263977096473706
a 3.4930555555555554 3.5 0 0 0 0.48093921736260903 -1.7430555555555092
a 3.506944444444444 3.5138888888888884 0 0 0 -0.45688295614633034 -1.7569444444445086
a 3.520833333333333 3.527777777777778 0 0 0 -1.2792281549648044 -1.2982007300173675
a 3.5347222222222223 3.541666666666667 0 0 0 -1.7638888888888529 -0.4865214922048833
a 3.5486111111111116 3.555555555555556 0 0 0 -1.7777777777777448 0.46246523098863657
a 3.5625 3.5694444444444446 0 0 0 -1.3134517885083934 1.2944792134558156
a 3.5763888888888893 3.5833333333333335 0 0 0 -0.4921037670472077 1.7847222222221828
a 3.5902777777777777 3.5972222222222223 0 0 0 0.46804750583094146 1.7986111111110805
a 3.604166666666667 3.611111111111111 0 0 0 1.309730271946827 1.328702846999418
a 3.6180555555555554 3.625 0 0 0 1.8055555555555136 0.49768604188953347
a 3.6319444444444446 3.638888888888889 0 0 0 1.819444444444505 -0.4736297806732992
a 3.645833333333333 3.6527777777777777 0 0 0 1.3439539054903555 -1.3249813304377858
a 3.6597222222222223 3.6666666666666665 0 0 0 0.503268316731857 -1.826388888888947
a 3.673611111111111 3.680555555555556 0 0 0 -0.4792120555156032 -1.8402777777777382
a 3.6875 3.6944444444444446 0 0 0 -1.340232388928797 -1.359204963981381
a 3.7013888888888893 3.7083333333333335 0 0 0 -1.8472222222222783 -0.5088505915741823
a 3.7152777777777777 3.7222222222222223 0 0 0 -1.8611111111110734 0.4847943303579081
a 3.729166666666667 3.736111111111111 0 0 0 -1.374456022472406 1.3554834474198079
a 3.7430555555555554 3.75 0 0 0 -0.5144328664165081 1.8680555555556104
a 3.7569444444444446 3.763888888888889 0 0 0 0.4903766052002667 1.8819444444445015
a 3.770833333333333 3.7777777777777777 0 0 0 1.3707345059108573 1.389707080963392
a 3.7847222222222223 3.7916666666666665 0 0 0 1.8888888888888484 0.5200151412587797
a 3.7986111111111107 3.8055555555555554 0 0 0 1.902777777777744 -0.495958880042517
a 3.8125 3.819444444444444 0 0 0 1.4049581394545125 -1.3859855644019223
a 3.826388888888889 3.8333333333333335 0 0 0 0.525597416101105 -1.909722222222178
a 3.8402777777777777 3.8472222222222223 0 0 0 -0.5015411548848228 -1.92361111111108
a 3.854166666666667 3.861111111111111 0 0 0 -1.4012366228929327 -1.4202091979455385
a 3.8680555555555554 3.875 0 0 0 -1.9305555555556184 -0.5311796909434303
a 3.8819444444444446 3.888888888888889 0 0 0 -1.9444444444444011 0.5071234297271809
a 3.895833333333333 3.9027777777777777 0 0 0 -1.435460256436469 1.416487681383889
a 3.9097222222222223 3.9166666666666665 0 0 0 -0.5367619657857565 1.9513888888889497
a 3.9236111111111107 3.9305555555555554 0 0 0 0.5127057045694858 1.9652777777777368
a 3.9375 3.944444444444444 0 0 0 1.431738739874898 1.4507113149274948
a 3.9513888888888884 3.958333333333333 0 0 0 1.9722222222221681 0.542344240628081
a 3.9652777777777777 3.972222222222222 0 0 0 1.9861111111111844 -0.5182879794117881
a 3.979166666666667 3.9861111111111116 0 0 0 1.465962373418579 -1.4469897983660065
a 3.993055555555556 4.0 0 0 0 0.5479265154703512 -1.9930555555555145
a 4.006944444444445 4.013888888888889 0 0 0 -0.5238702542541507 -2.006944444444507
a 4.020833333333334 4.027777777777778 0 0 0 -1.46224085685696 -1.481213431909505
a 4.034722222222222 4.041666666666667 0 0 0 -2.013888888888844 -0.5535087903126783
a 4.048611111111111 4.055555555555555 0 0 0 -2.027777777777744 0.5294525290963978
a 4.0625 4.069444444444445 0 0 0 -1.4964644904006312 1.4774919153480277
a 4.076388888888889 4.083333333333333 0 0 0 -0.5590910651550032 2.034722222222173
a 4.090277777777778 4.097222222222222 0 0 0 0.5350348039387591 2.048611111111181
a 4.104166666666666 4.111111111111111 0 0 0 1.4927429738390812 1.5117155488916154
a 4.118055555555555 4.125 0 0 0 2.0555555555555194 0.5646733399972721
a 4.131944444444445 4.138888888888888 0 0 0 2.0694444444444002 -0.5406170787810645
a 4.145833333333333 4.152777777777778 0 0 0 1.5269666073825832 -1.5079940323299885
a 4.159722222222222 4.166666666666667 0 0 0 0.5702556148396578 -2.0763888888889515
a 4.173611111111111 4.180555555555555 0 0 0 -0.5461993536233685 -2.090277777777736
a 4.1875 4.194444444444445 0 0 0 -1.523245090820999 -1.54221766587361
a 4.201388888888889 4.208333333333333 0 0 0 -2.097222222222282 -0.5758378896819827
a 4.215277777777778 4.222222222222222 0 0 0 -2.1111111111111764 0.5517816284657302
a 4.229166666666666 4.236111111111111 0 0 0 -1.557468724364592 1.5384961493120528
a 4.243055555555555 4.25 0 0 0 -0.5814201645242503 2.1180555555555083
a 4.256944444444445 4.263888888888888 0 0 0 0.5573639033080346 2.131944444444513
a 4.270833333333333 4.277777777777778 0 0 0 1.5537472078030619 1.5727197828556196
a 4.284722222222221 4.291666666666666 0 0 0 2.1388888888888387 0.5870024393665751
a 4.298611111111111 4.305555555555555 0 0 0 2.152777777777744 -0.5629461781502751
a 4.3125 4.319444444444445 0 0 0 1.5879708413467508 -1.568998266294134
a 4.326388888888889 4.333333333333334 0 0 0 0.592584714208904 -2.1597222222222907
a 4.340277777777779 4.347222222222222 0 0 0 -0.5685284529926413 -2.1736111111110645
a 4.354166666666666 4.361111111111111 0 0 0 -1.5842493247850822 -1.603221899837671
a 4.368055555555555 4.375 0 0 0 -2.180555555555621 -0.5981669890512307
a 4.381944444444445 4.388888888888889 0 0 0 -2.1944444444444002 0.574110727834944
a 4.395833333333334 4.402777777777778 0 0 0 -1.6184729583286983 1.5995003832760903
a 4.409722222222221 4.416666666666666 0 0 0 -0.6037492638935569 2.2013888888889523
a 4.423611111111111 4.430555555555555 0 0 0 0.5796930026772471 2.215277777777737
a 4.4375 4.444444444444445 0 0 0 1.6147514417672082 1.633724016819789
a 4.451388888888889 4.458333333333334 0 0 0 2.2222222222221735 0.6093315387358214
a 4.465277777777779 4.472222222222222 0 0 0 2.2361111111111827 -0.5852752775196137
a 4.479166666666667 4.486111111111112 0 0 0 1.6489750753107062 -1.630002500258155
a 4.493055555555555 4.5 0 0 0 0.6149138135781484 -2.243055555555503
a 4.506944444444445 4.513888888888889 0 0 0 -0.590857552361916 -2.25694444444452
a 4.520833333333334 4.527777777777778 0 0 0 -1.6452535587491646 -1.6642261338017326
a 4.534722222222222 4.541666666666667 0 0 0 -2.2638888888888324 -0.6204960884204764
a 4.548611111111111 4.555555555555555 0 0 0 -2.277777777777857 0.59643982720422
a 4.5625 4.569444444444445 0 0 0 -1.6794771922928247 1.6605046172402846
a 4.576388888888889 4.583333333333333 0 0 0 -0.6260783632627382 2.28472222222218
a 4.590277777777778 4.597222222222222 0 0 0 0.6020221020465213 2.2986111111110645
a 4.604166666666667 4.611111111111112 0 0 0 1.6757556757311818 1.6947282507837862
a 4.618055555555555 4.625 0 0 0 2.305555555555623 0.6316606381051315
a 4.631944444444445 4.638888888888889 0 0 0 2.3194444444444002 -0.6076043768888244
a 4.645833333333334 4.652777777777778 0 0 0 1.7099793092748143 -1.6910067342221904
a 4.659722222222222 4.666666666666667 0 0 0 0.6372429129474604 -2.3263888888889532
a 4.673611111111111 4.680555555555555 0 0 0 -0.6131866517311941 -2.3402777777778514
a 4.6875 4.694444444444445 0 0 0 -1.706257792713247 -1.7252303677657927
a 4.701388888888889 4.708333333333333 0 0 0 -2.347222222222169 -0.6428251877897209
a 4.715277777777778 4.722222222222222 0 0 0 -2.361111111111189 0.6187689265734955
a 4.729166666666666 4.736111111111111 0 0 0 -1.74048142625682 1.721508851204256
a 4.743055555555555 4.75 0 0 0 -0.6484074626320488 2.368055555555498
a 4.756944444444445 4.763888888888888 0 0 0 0.6243512014157302 2.3819444444444082
a 4.770833333333333 4.777777777777778 0 0 0 1.7367599096953321 1.7557324847479636
a 4.784722222222222 4.791666666666667 0 0 0 2.3888888888889634 0.6539897374743795
a 4.798611111111111 4.805555555555555 0 0 0 2.402777777777728 -0.6299334762581026
a 4.8125 4.819444444444445 0 0 0 1.770983543238943 -1.75201096818639
a 4.826388888888889 4.833333333333333 0 0 0 0.6595720123166355 -2.4097222222221752
a 4.840277777777778 4.847222222222222 0 0 0 -0.6355157511004013 -2.4236111111110636
a 4.854166666666666 4.861111111111111 0 0 0 -1.7672620266772805 -1.7862346017299027
a 4.868055555555555 4.875 0 0 0 -2.430555555555485 -0.6651542871590337
a 4.881944444444445 4.888888888888888 0 0 0 -2.444444444444539 0.6410980259427044
a 4.895833333333333 4.902777777777778 0 0 0 -1.801485660221 1.782513085168409
a 4.909722222222221 4.916666666666666 0 0 0 -0.6707365620012924 2.4513888888888333
a 4.923611111111111 4.930555555555555 0 0 0 0.646680300785075 2.4652777777778585
a 4.9375 4.944444444444445 0 0 0 1.797764143659348 1.8167367187119066
a 4.951388888888889 4.958333333333334 0 0 0 2.4722222222221633 0.6763188368436222
a 4.965277777777779 4.972222222222222 0 0 0 2.4861111111110734 -0.6522625756273062
a 4.979166666666666 4.986111111111111 0 0 0 1.8319877772029862 -1.8130152021503054
    " />
</svg>
