<svg id="svg_css_ex1" viewBox="0 0 100 100" 
   height="20cm"
   width="20cm"
   xmlns="http://www.w3.org/2000/svg">
  <path
    fill="none"
    stroke="black"
    stroke-width=".2"
    d="
M 1 30
C -3.0,40 8.5,60 4.5,60C 0.5,60 12.0,40 8,40C 4.0,40 15.5,60 11.5,60C 7.5,60 19.0,40 15,40C 11.0,40 22.5,60 18.5,60C 14.5,60 26.0,40 22,40C 2.7173395119999952,1.7933487799999952 44.782660488000005,98.20665122 25.5,98.20665122C 6.217339511999995,98.20665122 48.282660488000005,1.7933487799999952 29,1.7933487799999952C 11.447834684,6.11958671 50.052165316,93.88041329 32.5,93.88041329C 14.947834684,93.88041329 53.552165316,6.11958671 36,6.11958671C 20.178329855999998,10.445824639999998 55.321670144,89.55417536 39.5,89.55417536C 23.678329855999998,89.55417536 58.821670144,10.445824639999998 43,10.445824639999998C 28.908825027999995,14.772062569999996 60.591174972000005,85.22793743 46.5,85.22793743C 32.408825027999995,85.22793743 64.091174972,14.772062569999996 50,14.772062569999996C 37.6393202,19.098300499999997 65.8606798,80.9016995 53.5,80.9016995C 41.1393202,80.9016995 69.3606798,19.098300499999997 57,19.098300499999997C 46.369815372,23.42453843 71.130184628,76.57546157 60.5,76.57546157C 49.869815372,76.57546157 74.630184628,23.42453843 64,23.42453843C 55.100310543999996,27.75077636 76.399689456,72.24922364 67.5,72.24922364C 58.600310543999996,72.24922364 79.899689456,27.75077636 71,27.75077636C 63.830805716,32.077014289999994 81.669194284,67.92298571 74.5,67.92298571C 67.330805716,67.92298571 85.169194284,32.077014289999994 78,32.077014289999994C 72.561300888,36.40325222 86.938699112,63.59674778 81.5,63.59674778C 76.061300888,63.59674778 90.438699112,36.40325222 85,36.40325222C 81.29179606,40.729490150000004 92.20820394,59.270509849999996 88.5,59.270509849999996C 84.79179606,59.270509849999996 95.70820394,40.729490150000004 92,40.729490150000004C 90.022291232,45.05572808 97.477708768,54.94427192 95.5,54.94427192C 93.522291232,54.94427192 100.977708768,45.05572808 99,45.05572808"/>
</svg>