<svg id="svg_css_ex1" viewBox="0 0 100 100" 
   height="20cm"
   width="20cm"
   xmlns="http://www.w3.org/2000/svg">
  <path
    fill="none"
    stroke="black"
    stroke-width=".2"
    d="
M 1 49
C 0.6,49 1.65,51 1.25,51C 0.85,51 1.9,49 1.5,49C 0.8999999999999999,48.5 2.35,51.5 1.75,51.5C 1.15,51.5 2.6,48.5 2.0,48.5C 1.2,48.0 3.05,52.0 2.25,52.0C 1.45,52.0 3.3,48.0 2.5,48.0C 1.5,47.5 3.75,52.5 2.75,52.5C 1.75,52.5 4.0,47.5 3.0,47.5C 1.7999999999999998,47.0 4.45,53.0 3.25,53.0C 2.05,53.0 4.7,47.0 3.5,47.0C 2.0999999999999996,46.5 5.15,53.5 3.75,53.5C 2.3499999999999996,53.5 5.4,46.5 4.0,46.5C 2.4,46.0 5.85,54.0 4.25,54.0C 2.65,54.0 6.1,46.0 4.5,46.0C 2.7,45.5 6.55,54.5 4.75,54.5C 2.95,54.5 6.8,45.5 5.0,45.5C 3.0,45.0 7.25,55.0 5.25,55.0C 3.25,55.0 7.5,45.0 5.5,45.0C 3.3,44.5 7.95,55.5 5.75,55.5C 3.55,55.5 8.2,44.5 6.0,44.5C 3.5999999999999996,44.0 8.65,56.0 6.25,56.0C 3.8499999999999996,56.0 8.9,44.0 6.5,44.0C 3.9,43.5 9.35,56.5 6.75,56.5C 4.15,56.5 9.6,43.5 7.0,43.5C 4.199999999999999,43.0 10.05,57.0 7.25,57.0C 4.449999999999999,57.0 10.3,43.0 7.5,43.0C 4.5,42.5 10.75,57.5 7.75,57.5C 4.75,57.5 11.0,42.5 8.0,42.5C 4.8,42.0 11.45,58.0 8.25,58.0C 5.05,58.0 11.7,42.0 8.5,42.0C 5.1,41.5 12.15,58.5 8.75,58.5C 5.35,58.5 12.4,41.5 9.0,41.5C 5.4,41.0 12.85,59.0 9.25,59.0C 5.65,59.0 13.1,41.0 9.5,41.0C 5.699999999999999,40.5 13.55,59.5 9.75,59.5C 5.949999999999999,59.5 13.8,40.5 10.0,40.5C 6.0,40.0 14.25,60.0 10.25,60.0C 6.25,60.0 14.5,40.0 10.5,40.0C 6.3,39.5 14.95,60.5 10.75,60.5C 6.55,60.5 15.2,39.5 11.0,39.5C 6.6,39.0 15.65,61.0 11.25,61.0C 6.85,61.0 15.9,39.0 11.5,39.0C 6.8999999999999995,38.5 16.35,61.5 11.75,61.5C 7.1499999999999995,61.5 16.6,38.5 12.0,38.5C 7.199999999999999,38.0 17.05,62.0 12.25,62.0C 7.449999999999999,62.0 17.3,38.0 12.5,38.0C 7.5,37.5 17.75,62.5 12.75,62.5C 7.75,62.5 18.0,37.5 13.0,37.5C 7.8,37.0 18.45,63.0 13.25,63.0C 8.05,63.0 18.7,37.0 13.5,37.0C 8.1,36.5 19.15,63.5 13.75,63.5C 8.35,63.5 19.4,36.5 14.0,36.5C 8.399999999999999,36.0 19.85,64.0 14.25,64.0C 8.649999999999999,64.0 20.1,36.0 14.5,36.0C 8.7,35.5 20.55,64.5 14.75,64.5C 8.95,64.5 20.8,35.5 15.0,35.5C 9.0,35.0 21.25,65.0 15.25,65.0C 9.25,65.0 21.5,35.0 15.5,35.0C 9.3,34.5 21.95,65.5 15.75,65.5C 9.55,65.5 22.2,34.5 16.0,34.5C 9.6,34.0 22.65,66.0 16.25,66.0C 9.85,66.0 22.9,34.0 16.5,34.0C 9.899999999999999,33.5 23.35,66.5 16.75,66.5C 10.149999999999999,66.5 23.6,33.5 17.0,33.5C 10.2,33.0 24.05,67.0 17.25,67.0C 10.45,67.0 24.3,33.0 17.5,33.0C 10.5,32.5 24.75,67.5 17.75,67.5C 10.75,67.5 25.0,32.5 18.0,32.5C 10.8,32.0 25.45,68.0 18.25,68.0C 11.05,68.0 25.7,32.0 18.5,32.0C 11.1,31.5 26.15,68.5 18.75,68.5C 11.35,68.5 26.4,31.5 19.0,31.5C 11.399999999999999,31.0 26.85,69.0 19.25,69.0C 11.649999999999999,69.0 27.1,31.0 19.5,31.0C 11.7,30.5 27.55,69.5 19.75,69.5C 11.95,69.5 27.8,30.5 20.0,30.5C 12.0,30.0 28.25,70.0 20.25,70.0C 12.25,70.0 28.5,30.0 20.5,30.0C 12.299999999999999,29.5 28.950000000000003,70.5 20.75,70.5C 12.549999999999999,70.5 29.200000000000003,29.5 21.0,29.5C 12.6,29.0 29.65,71.0 21.25,71.0C 12.85,71.0 29.9,29.0 21.5,29.0C 12.9,28.5 30.35,71.5 21.75,71.5C 13.15,71.5 30.6,28.5 22.0,28.5C 13.2,28.0 31.05,72.0 22.25,72.0C 13.45,72.0 31.3,28.0 22.5,28.0C 13.5,27.5 31.75,72.5 22.75,72.5C 13.75,72.5 32.0,27.5 23.0,27.5C 13.799999999999999,27.0 32.45,73.0 23.25,73.0C 14.049999999999999,73.0 32.7,27.0 23.5,27.0C 14.1,26.5 33.15,73.5 23.75,73.5C 14.35,73.5 33.4,26.5 24.0,26.5C 14.399999999999999,26.0 33.85,74.0 24.25,74.0C 14.649999999999999,74.0 34.1,26.0 24.5,26.0C 14.7,25.5 34.55,74.5 24.75,74.5C 14.95,74.5 34.8,25.5 25.0,25.5C 15.0,25.0 35.25,75.0 25.25,75.0C 15.25,75.0 35.5,25.0 25.5,25.0C 15.299999999999999,24.5 35.95,75.5 25.75,75.5C 15.549999999999999,75.5 36.2,24.5 26.0,24.5C 15.6,24.0 36.65,76.0 26.25,76.0C 15.85,76.0 36.9,24.0 26.5,24.0C 15.899999999999999,23.5 37.35,76.5 26.75,76.5C 16.15,76.5 37.6,23.5 27.0,23.5C 16.2,23.0 38.05,77.0 27.25,77.0C 16.45,77.0 38.3,23.0 27.5,23.0C 16.5,22.5 38.75,77.5 27.75,77.5C 16.75,77.5 39.0,22.5 28.0,22.5C 16.799999999999997,22.0 39.45,78.0 28.25,78.0C 17.049999999999997,78.0 39.7,22.0 28.5,22.0C 17.1,21.5 40.15,78.5 28.75,78.5C 17.35,78.5 40.4,21.5 29.0,21.5C 17.4,21.0 40.85,79.0 29.25,79.0C 17.65,79.0 41.1,21.0 29.5,21.0C 17.7,20.5 41.55,79.5 29.75,79.5C 17.95,79.5 41.8,20.5 30.0,20.5C 18.0,20.0 42.25,80.0 30.25,80.0C 18.25,80.0 42.5,20.0 30.5,20.0C 18.299999999999997,19.5 42.95,80.5 30.75,80.5C 18.549999999999997,80.5 43.2,19.5 31.0,19.5C 18.6,19.0 43.65,81.0 31.25,81.0C 18.85,81.0 43.9,19.0 31.5,19.0C 18.9,18.5 44.35,81.5 31.75,81.5C 19.15,81.5 44.6,18.5 32.0,18.5C 19.2,18.0 45.05,82.0 32.25,82.0C 19.45,82.0 45.3,18.0 32.5,18.0C 19.5,17.5 45.75,82.5 32.75,82.5C 19.75,82.5 46.0,17.5 33.0,17.5C 19.799999999999997,17.0 46.45,83.0 33.25,83.0C 20.049999999999997,83.0 46.7,17.0 33.5,17.0C 20.1,16.5 47.15,83.5 33.75,83.5C 20.35,83.5 47.4,16.5 34.0,16.5C 20.4,16.0 47.85,84.0 34.25,84.0C 20.65,84.0 48.1,16.0 34.5,16.0C 20.7,15.5 48.55,84.5 34.75,84.5C 20.95,84.5 48.8,15.5 35.0,15.5C 21.0,15.0 49.25,85.0 35.25,85.0C 21.25,85.0 49.5,15.0 35.5,15.0C 21.299999999999997,14.5 49.95,85.5 35.75,85.5C 21.549999999999997,85.5 50.2,14.5 36.0,14.5C 21.6,14.0 50.65,86.0 36.25,86.0C 21.85,86.0 50.9,14.0 36.5,14.0C 21.9,13.5 51.35,86.5 36.75,86.5C 22.15,86.5 51.6,13.5 37.0,13.5C 22.2,13.0 52.05,87.0 37.25,87.0C 22.45,87.0 52.3,13.0 37.5,13.0C 22.5,12.5 52.75,87.5 37.75,87.5C 22.75,87.5 53.0,12.5 38.0,12.5C 22.799999999999997,12.0 53.45,88.0 38.25,88.0C 23.049999999999997,88.0 53.7,12.0 38.5,12.0C 23.1,11.5 54.15,88.5 38.75,88.5C 23.35,88.5 54.4,11.5 39.0,11.5C 23.4,11.0 54.85,89.0 39.25,89.0C 23.65,89.0 55.1,11.0 39.5,11.0C 23.7,10.5 55.55,89.5 39.75,89.5C 23.95,89.5 55.8,10.5 40.0,10.5C 24.0,10.0 56.25,90.0 40.25,90.0C 24.25,90.0 56.5,10.0 40.5,10.0C 24.3,9.5 56.95,90.5 40.75,90.5C 24.55,90.5 57.2,9.5 41.0,9.5C 24.599999999999998,9.0 57.650000000000006,91.0 41.25,91.0C 24.849999999999998,91.0 57.900000000000006,9.0 41.5,9.0C 24.9,8.5 58.35,91.5 41.75,91.5C 25.15,91.5 58.6,8.5 42.0,8.5C 25.2,8.0 59.05,92.0 42.25,92.0C 25.45,92.0 59.3,8.0 42.5,8.0C 25.5,7.5 59.75,92.5 42.75,92.5C 25.75,92.5 60.0,7.5 43.0,7.5C 25.8,7.0 60.45,93.0 43.25,93.0C 26.05,93.0 60.7,7.0 43.5,7.0C 26.099999999999998,6.5 61.150000000000006,93.5 43.75,93.5C 26.349999999999998,93.5 61.400000000000006,6.5 44.0,6.5C 26.4,6.0 61.85,94.0 44.25,94.0C 26.65,94.0 62.1,6.0 44.5,6.0C 26.7,5.5 62.55,94.5 44.75,94.5C 26.95,94.5 62.8,5.5 45.0,5.5C 27.0,5.0 63.25,95.0 45.25,95.0C 27.25,95.0 63.5,5.0 45.5,5.0C 27.3,4.5 63.95,95.5 45.75,95.5C 27.55,95.5 64.2,4.5 46.0,4.5C 27.599999999999998,4.0 64.65,96.0 46.25,96.0C 27.849999999999998,96.0 64.9,4.0 46.5,4.0C 27.9,3.5 65.35,96.5 46.75,96.5C 28.15,96.5 65.6,3.5 47.0,3.5C 28.2,3.0 66.05,97.0 47.25,97.0C 28.45,97.0 66.3,3.0 47.5,3.0C 28.5,2.5 66.75,97.5 47.75,97.5C 28.75,97.5 67.0,2.5 48.0,2.5C 28.799999999999997,2.0 67.45,98.0 48.25,98.0C 29.049999999999997,98.0 67.7,2.0 48.5,2.0C 29.099999999999998,1.5 68.15,98.5 48.75,98.5C 29.349999999999998,98.5 68.4,1.5 49.0,1.5C 29.4,1.0 68.85,99.0 49.25,99.0C 29.65,99.0 69.1,1.0 49.5,1.0C 29.7,0.5 69.55,99.5 49.75,99.5C 29.95,99.5 69.8,0.5 50.0,0.5C 30.0,0.0 70.25,100.0 50.25,100.0C 30.25,100.0 70.5,0.0 50.5,0.0C 30.7,0.5 70.55,99.5 50.75,99.5C 30.95,99.5 70.8,0.5 51.0,0.5C 31.4,1.0 70.85,99.0 51.25,99.0C 31.65,99.0 71.1,1.0 51.5,1.0C 32.099999999999994,1.5 71.15,98.5 51.75,98.5C 32.349999999999994,98.5 71.4,1.5 52.0,1.5C 32.8,2.0 71.45,98.0 52.25,98.0C 33.05,98.0 71.7,2.0 52.5,2.0C 33.5,2.5 71.75,97.5 52.75,97.5C 33.75,97.5 72.0,2.5 53.0,2.5C 34.2,3.0 72.05,97.0 53.25,97.0C 34.45,97.0 72.3,3.0 53.5,3.0C 34.9,3.5 72.35,96.5 53.75,96.5C 35.15,96.5 72.6,3.5 54.0,3.5C 35.599999999999994,4.0 72.65,96.0 54.25,96.0C 35.849999999999994,96.0 72.9,4.0 54.5,4.0C 36.3,4.5 72.95,95.5 54.75,95.5C 36.55,95.5 73.2,4.5 55.0,4.5C 37.0,5.0 73.25,95.0 55.25,95.0C 37.25,95.0 73.5,5.0 55.5,5.0C 37.7,5.5 73.55,94.5 55.75,94.5C 37.95,94.5 73.8,5.5 56.0,5.5C 38.4,6.0 73.85,94.0 56.25,94.0C 38.65,94.0 74.1,6.0 56.5,6.0C 39.099999999999994,6.5 74.15,93.5 56.75,93.5C 39.349999999999994,93.5 74.4,6.5 57.0,6.5C 39.8,7.0 74.45,93.0 57.25,93.0C 40.05,93.0 74.7,7.0 57.5,7.0C 40.5,7.5 74.75,92.5 57.75,92.5C 40.75,92.5 75.0,7.5 58.0,7.5C 41.2,8.0 75.05,92.0 58.25,92.0C 41.45,92.0 75.3,8.0 58.5,8.0C 41.9,8.5 75.35,91.5 58.75,91.5C 42.15,91.5 75.6,8.5 59.0,8.5C 42.599999999999994,9.0 75.65,91.0 59.25,91.0C 42.849999999999994,91.0 75.9,9.0 59.5,9.0C 43.3,9.5 75.95,90.5 59.75,90.5C 43.55,90.5 76.2,9.5 60.0,9.5C 44.0,10.0 76.25,90.0 60.25,90.0C 44.25,90.0 76.5,10.0 60.5,10.0C 44.7,10.5 76.55,89.5 60.75,89.5C 44.95,89.5 76.8,10.5 61.0,10.5C 45.4,11.0 76.85,89.0 61.25,89.0C 45.65,89.0 77.1,11.0 61.5,11.0C 46.1,11.5 77.15,88.5 61.75,88.5C 46.35,88.5 77.4,11.5 62.0,11.5C 46.8,12.0 77.45,88.0 62.25,88.0C 47.05,88.0 77.7,12.0 62.5,12.0C 47.5,12.5 77.75,87.5 62.75,87.5C 47.75,87.5 78.0,12.5 63.0,12.5C 48.2,13.0 78.05,87.0 63.25,87.0C 48.45,87.0 78.3,13.0 63.5,13.0C 48.9,13.5 78.35,86.5 63.75,86.5C 49.15,86.5 78.6,13.5 64.0,13.5C 49.6,14.0 78.65,86.0 64.25,86.0C 49.85,86.0 78.9,14.0 64.5,14.0C 50.3,14.5 78.95,85.5 64.75,85.5C 50.55,85.5 79.2,14.5 65.0,14.5C 51.0,15.0 79.25,85.0 65.25,85.0C 51.25,85.0 79.5,15.0 65.5,15.0C 51.7,15.5 79.55,84.5 65.75,84.5C 51.95,84.5 79.8,15.5 66.0,15.5C 52.4,16.0 79.85,84.0 66.25,84.0C 52.65,84.0 80.1,16.0 66.5,16.0C 53.1,16.5 80.15,83.5 66.75,83.5C 53.35,83.5 80.4,16.5 67.0,16.5C 53.8,17.0 80.45,83.0 67.25,83.0C 54.05,83.0 80.7,17.0 67.5,17.0C 54.5,17.5 80.75,82.5 67.75,82.5C 54.75,82.5 81.0,17.5 68.0,17.5C 55.2,18.0 81.05,82.0 68.25,82.0C 55.45,82.0 81.3,18.0 68.5,18.0C 55.9,18.5 81.35,81.5 68.75,81.5C 56.15,81.5 81.6,18.5 69.0,18.5C 56.6,19.0 81.65,81.0 69.25,81.0C 56.85,81.0 81.9,19.0 69.5,19.0C 57.3,19.5 81.95,80.5 69.75,80.5C 57.55,80.5 82.2,19.5 70.0,19.5C 58.0,20.0 82.25,80.0 70.25,80.0C 58.25,80.0 82.5,20.0 70.5,20.0C 58.7,20.5 82.55,79.5 70.75,79.5C 58.95,79.5 82.8,20.5 71.0,20.5C 59.4,21.0 82.85,79.0 71.25,79.0C 59.65,79.0 83.1,21.0 71.5,21.0C 60.1,21.5 83.15,78.5 71.75,78.5C 60.35,78.5 83.4,21.5 72.0,21.5C 60.8,22.0 83.45,78.0 72.25,78.0C 61.05,78.0 83.7,22.0 72.5,22.0C 61.5,22.5 83.75,77.5 72.75,77.5C 61.75,77.5 84.0,22.5 73.0,22.5C 62.2,23.0 84.05,77.0 73.25,77.0C 62.45,77.0 84.3,23.0 73.5,23.0C 62.9,23.5 84.35,76.5 73.75,76.5C 63.15,76.5 84.6,23.5 74.0,23.5C 63.6,24.0 84.65,76.0 74.25,76.0C 63.85,76.0 84.9,24.0 74.5,24.0C 64.3,24.5 84.95,75.5 74.75,75.5C 64.55,75.5 85.2,24.5 75.0,24.5C 65.0,25.0 85.25,75.0 75.25,75.0C 65.25,75.0 85.5,25.0 75.5,25.0C 65.7,25.5 85.55,74.5 75.75,74.5C 65.95,74.5 85.8,25.5 76.0,25.5C 66.4,26.0 85.85,74.0 76.25,74.0C 66.65,74.0 86.1,26.0 76.5,26.0C 67.1,26.5 86.15,73.5 76.75,73.5C 67.35,73.5 86.4,26.5 77.0,26.5C 67.8,27.0 86.45,73.0 77.25,73.0C 68.05,73.0 86.7,27.0 77.5,27.0C 68.5,27.5 86.75,72.5 77.75,72.5C 68.75,72.5 87.0,27.5 78.0,27.5C 69.2,28.0 87.05,72.0 78.25,72.0C 69.45,72.0 87.3,28.0 78.5,28.0C 69.9,28.5 87.35,71.5 78.75,71.5C 70.15,71.5 87.6,28.5 79.0,28.5C 70.6,29.0 87.65,71.0 79.25,71.0C 70.85,71.0 87.9,29.0 79.5,29.0C 71.3,29.5 87.95,70.5 79.75,70.5C 71.55,70.5 88.2,29.5 80.0,29.5C 72.0,30.0 88.25,70.0 80.25,70.0C 72.25,70.0 88.5,30.0 80.5,30.0C 72.7,30.5 88.55,69.5 80.75,69.5C 72.95,69.5 88.8,30.5 81.0,30.5C 73.4,31.0 88.85,69.0 81.25,69.0C 73.65,69.0 89.1,31.0 81.5,31.0C 74.1,31.5 89.15,68.5 81.75,68.5C 74.35,68.5 89.4,31.5 82.0,31.5C 74.8,32.0 89.45,68.0 82.25,68.0C 75.05,68.0 89.7,32.0 82.5,32.0C 75.5,32.5 89.75,67.5 82.75,67.5C 75.75,67.5 90.0,32.5 83.0,32.5C 76.2,33.0 90.05,67.0 83.25,67.0C 76.45,67.0 90.3,33.0 83.5,33.0C 76.9,33.5 90.35,66.5 83.75,66.5C 77.15,66.5 90.6,33.5 84.0,33.5C 77.6,34.0 90.65,66.0 84.25,66.0C 77.85,66.0 90.9,34.0 84.5,34.0C 78.3,34.5 90.95,65.5 84.75,65.5C 78.55,65.5 91.2,34.5 85.0,34.5C 79.0,35.0 91.25,65.0 85.25,65.0C 79.25,65.0 91.5,35.0 85.5,35.0C 79.7,35.5 91.55,64.5 85.75,64.5C 79.95,64.5 91.8,35.5 86.0,35.5C 80.4,36.0 91.85,64.0 86.25,64.0C 80.65,64.0 92.1,36.0 86.5,36.0C 81.1,36.5 92.15,63.5 86.75,63.5C 81.35,63.5 92.4,36.5 87.0,36.5C 81.8,37.0 92.45,63.0 87.25,63.0C 82.05,63.0 92.7,37.0 87.5,37.0C 82.5,37.5 92.75,62.5 87.75,62.5C 82.75,62.5 93.0,37.5 88.0,37.5C 83.2,38.0 93.05,62.0 88.25,62.0C 83.45,62.0 93.3,38.0 88.5,38.0C 83.9,38.5 93.35,61.5 88.75,61.5C 84.15,61.5 93.6,38.5 89.0,38.5C 84.6,39.0 93.65,61.0 89.25,61.0C 84.85,61.0 93.9,39.0 89.5,39.0C 85.3,39.5 93.95,60.5 89.75,60.5C 85.55,60.5 94.2,39.5 90.0,39.5C 86.0,40.0 94.25,60.0 90.25,60.0C 86.25,60.0 94.5,40.0 90.5,40.0C 86.7,40.5 94.55,59.5 90.75,59.5C 86.95,59.5 94.8,40.5 91.0,40.5C 87.4,41.0 94.85,59.0 91.25,59.0C 87.65,59.0 95.1,41.0 91.5,41.0C 88.1,41.5 95.15,58.5 91.75,58.5C 88.35,58.5 95.4,41.5 92.0,41.5C 88.8,42.0 95.45,58.0 92.25,58.0C 89.05,58.0 95.7,42.0 92.5,42.0C 89.5,42.5 95.75,57.5 92.75,57.5C 89.75,57.5 96.0,42.5 93.0,42.5C 90.2,43.0 96.05,57.0 93.25,57.0C 90.45,57.0 96.3,43.0 93.5,43.0C 90.9,43.5 96.35,56.5 93.75,56.5C 91.15,56.5 96.6,43.5 94.0,43.5C 91.6,44.0 96.65,56.0 94.25,56.0C 91.85,56.0 96.9,44.0 94.5,44.0C 92.3,44.5 96.95,55.5 94.75,55.5C 92.55,55.5 97.2,44.5 95.0,44.5C 93.0,45.0 97.25,55.0 95.25,55.0C 93.25,55.0 97.5,45.0 95.5,45.0C 93.7,45.5 97.55,54.5 95.75,54.5C 93.95,54.5 97.8,45.5 96.0,45.5C 94.4,46.0 97.85,54.0 96.25,54.0C 94.65,54.0 98.1,46.0 96.5,46.0C 95.1,46.5 98.15,53.5 96.75,53.5C 95.35,53.5 98.4,46.5 97.0,46.5C 95.8,47.0 98.45,53.0 97.25,53.0C 96.05,53.0 98.7,47.0 97.5,47.0C 96.5,47.5 98.75,52.5 97.75,52.5C 96.75,52.5 99.0,47.5 98.0,47.5C 97.2,48.0 99.05,52.0 98.25,52.0C 97.45,52.0 99.3,48.0 98.5,48.0C 97.9,48.5 99.35,51.5 98.75,51.5C 98.15,51.5 99.6,48.5 99.0,48.5"/>
</svg>