<?xml version="1.0" encoding="UTF-8" standalone="no"?>
<svg
   id="svg_css_ex1"
   viewBox="0 0 100 100"
   height="20cm"
   width="20cm"
   version="1.1"
   sodipodi:docname="xmastree.svg"
   inkscape:version="1.2.2 (b0a84865, 2022-12-01)"
   xmlns:inkscape="http://www.inkscape.org/namespaces/inkscape"
   xmlns:sodipodi="http://sodipodi.sourceforge.net/DTD/sodipodi-0.dtd"
   xmlns="http://www.w3.org/2000/svg"
   xmlns:svg="http://www.w3.org/2000/svg">
  <defs
     id="defs326" />
  <sodipodi:namedview
     id="namedview324"
     pagecolor="#ffffff"
     bordercolor="#000000"
     borderopacity="0.25"
     inkscape:showpageshadow="2"
     inkscape:pageopacity="0.0"
     inkscape:pagecheckerboard="0"
     inkscape:deskcolor="#d1d1d1"
     inkscape:document-units="cm"
     showgrid="false"
     inkscape:zoom="1.679868"
     inkscape:cx="354.49214"
     inkscape:cy="298.833"
     inkscape:window-width="1440"
     inkscape:window-height="872"
     inkscape:window-x="0"
     inkscape:window-y="28"
     inkscape:window-maximized="0"
     inkscape:current-layer="text661" />
  <path
     fill="none"
     stroke="#000000"
     stroke-width="0.055767"
     d="m 39.05667,52.55214 c -2.158695,1.440662 -6.476089,-2.701246 -6.476089,-1.260582 0,1.440664 4.317394,-2.701245 4.317394,-1.260581 0,1.440665 -4.317394,-2.701246 -4.317394,-1.260581 0,1.440664 4.317394,-2.701246 4.317394,-1.260581 0,1.440664 -4.317394,-2.701245 -4.317394,-1.260582 0,1.440665 4.317394,-2.701245 4.317394,-1.260581 -0.0095,1.963636 -12.56505,-8.205541 -12.56505,-1.26058 0,6.944959 20.812706,-8.205542 20.812706,-1.260582 -0.933903,6.321694 -19.878803,-7.582275 -19.878803,-1.260581 0,6.321693 18.9449,-7.582276 18.9449,-1.260581 -0.933904,5.698428 -18.010996,-6.95901 -18.010996,-1.260582 0,5.698429 17.077092,-6.959009 17.077092,-1.260581 -0.933904,5.075163 -16.143188,-6.335744 -16.143188,-1.260581 0,5.075163 15.209284,-6.335744 15.209284,-1.260582 -0.933903,4.451898 -14.275381,-5.712477 -14.275381,-1.26058 0,4.451898 13.341478,-5.712478 13.341478,-1.260581 -0.933903,3.828631 -12.407575,-5.089213 -12.407575,-1.260581 0,3.828631 11.473672,-5.089213 11.473672,-1.260582 -0.933904,3.205366 -10.539769,-4.465946 -10.539769,-1.260581 0,3.205366 9.605865,-4.465946 9.605865,-1.260581 -0.933903,2.5821 -8.671961,-3.842682 -8.671961,-1.260582 0,2.5821 7.738058,-3.84268 7.738058,-1.26058 -0.933903,1.958834 -6.804155,-3.219416 -6.804155,-1.260581 0,1.958834 5.870252,-3.219417 5.870252,-1.260582 -0.933904,1.33557 -4.936348,-2.59615 -4.936348,-1.260581 0,1.335569 4.002444,-2.596151 4.002444,-1.260581 -0.933904,0.712303 -3.06854,-1.972885 -3.06854,-1.260581 0,0.712304 2.134636,-1.972885 2.134636,-1.260582"
     id="path321"
     sodipodi:nodetypes="cssssscscscscscscscscscscscsc" />
  <g
     aria-label="To: Gaelan
From: Gareth"
     id="text661"
     style="font-size:1.5875px;white-space:pre;inline-size:21.6982;fill:#ff5555;stroke-width:0.132292"
     transform="matrix(2.2144214,0,0,2.411764,-82.264619,-4.9074447)">
    <path
       d="m 56.083704,20.808698 h -0.412378 v 1.017768 h -0.153479 v -1.017768 h -0.412378 v -0.136425 h 0.978235 z"
       id="path719" />
    <path
       d="m 56.794513,21.393934 q 0,0.211615 -0.108521,0.334088 -0.10852,0.122473 -0.29068,0.122473 -0.183709,0 -0.29223,-0.122473 -0.107745,-0.122473 -0.107745,-0.334088 0,-0.211615 0.107745,-0.334088 0.108521,-0.123249 0.29223,-0.123249 0.18216,0 0.29068,0.123249 0.108521,0.122473 0.108521,0.334088 z m -0.150379,0 q 0,-0.168207 -0.06589,-0.249597 -0.06589,-0.08217 -0.182935,-0.08217 -0.118597,0 -0.184484,0.08217 -0.06511,0.08139 -0.06511,0.249597 0,0.162781 0.06589,0.247272 0.06589,0.08371 0.183709,0.08371 0.116272,0 0.18216,-0.08294 0.06666,-0.08372 0.06666,-0.248047 z"
       id="path721" />
    <path
       d="m 57.330139,21.181544 h -0.18526 v -0.220917 h 0.18526 z m 0,0.644922 h -0.18526 v -0.220917 h 0.18526 z"
       id="path723" />
    <path
       d="m 59.273431,21.741199 q -0.09457,0.04341 -0.206964,0.07596 -0.111621,0.03178 -0.216266,0.03178 -0.134875,0 -0.247271,-0.03721 -0.112397,-0.03721 -0.191461,-0.111621 -0.07984,-0.07519 -0.123249,-0.187586 -0.04341,-0.113171 -0.04341,-0.264325 0,-0.276727 0.16123,-0.436407 0.162006,-0.160455 0.444159,-0.160455 0.09844,0 0.200763,0.02403 0.103095,0.02325 0.221692,0.07984 v 0.18216 h -0.01395 q -0.02403,-0.0186 -0.06976,-0.04884 -0.04573,-0.03023 -0.08992,-0.05038 -0.05349,-0.02403 -0.121698,-0.03953 -0.06744,-0.01628 -0.153479,-0.01628 -0.193786,0 -0.306958,0.124799 -0.112396,0.124023 -0.112396,0.336413 0,0.224018 0.117822,0.348816 0.117823,0.124024 0.320911,0.124024 0.07441,0 0.148053,-0.01473 0.07441,-0.01473 0.130225,-0.03798 V 21.380748 H 58.81222 v -0.134875 h 0.461212 z"
       id="path725" />
    <path
       d="M 60.202832,21.826466 H 60.05788 v -0.09224 q -0.01938,0.01318 -0.05271,0.03721 -0.03256,0.02326 -0.06356,0.03721 -0.03643,0.01783 -0.08372,0.02946 -0.04728,0.0124 -0.110846,0.0124 -0.117047,0 -0.198438,-0.07751 -0.08139,-0.07752 -0.08139,-0.197663 0,-0.09844 0.04186,-0.158905 0.04263,-0.06124 0.120923,-0.09612 0.07906,-0.03488 0.189911,-0.04728 0.110846,-0.0124 0.23797,-0.0186 v -0.02248 q 0,-0.04961 -0.01783,-0.08216 -0.01705,-0.03256 -0.04961,-0.05116 -0.03101,-0.01783 -0.07441,-0.02403 -0.04341,-0.0062 -0.09069,-0.0062 -0.05736,0 -0.127899,0.0155 -0.07054,0.01473 -0.145728,0.04341 h -0.0078 v -0.148052 q 0.04263,-0.01163 0.123248,-0.02558 0.08062,-0.01395 0.158905,-0.01395 0.09147,0 0.158905,0.0155 0.06821,0.01473 0.117822,0.05116 0.04883,0.03566 0.07441,0.09224 0.02558,0.05659 0.02558,0.140302 z M 60.05788,21.6133 v -0.24107 q -0.06666,0.0039 -0.157355,0.01163 -0.08992,0.0078 -0.142627,0.02248 -0.06279,0.01783 -0.101544,0.05581 -0.03876,0.03721 -0.03876,0.103094 0,0.07441 0.04496,0.112396 0.04496,0.03721 0.137201,0.03721 0.07674,0 0.140301,-0.02946 0.06356,-0.03023 0.117824,-0.07209 z"
       id="path727" />
    <path
       d="m 61.208197,21.408662 h -0.637945 q 0,0.07984 0.02403,0.139526 0.02403,0.05891 0.06589,0.09689 0.04031,0.03721 0.09534,0.05581 0.05581,0.0186 0.122473,0.0186 0.08837,0 0.177508,-0.03488 0.08992,-0.03566 0.127899,-0.06976 h 0.0078 v 0.158905 q -0.07364,0.03101 -0.150379,0.05193 -0.07674,0.02093 -0.16123,0.02093 -0.215491,0 -0.336414,-0.116272 -0.120922,-0.117047 -0.120922,-0.331762 0,-0.21239 0.115496,-0.337189 0.116272,-0.124799 0.305408,-0.124799 0.175183,0 0.269751,0.10232 0.09534,0.102319 0.09534,0.29068 z m -0.141852,-0.111621 q -7.75e-4,-0.114722 -0.05814,-0.177509 -0.05658,-0.06279 -0.172857,-0.06279 -0.117047,0 -0.186811,0.06899 -0.06899,0.06899 -0.07829,0.171308 z"
       id="path729" />
    <path
       d="m 61.576392,21.826466 h -0.145728 v -1.206128 h 0.145728 z"
       id="path731" />
    <path
       d="m 62.537573,21.826466 h -0.144952 v -0.09224 q -0.01938,0.01318 -0.05271,0.03721 -0.03256,0.02326 -0.06356,0.03721 -0.03643,0.01783 -0.08372,0.02946 -0.04728,0.0124 -0.110846,0.0124 -0.117047,0 -0.198437,-0.07751 -0.08139,-0.07752 -0.08139,-0.197663 0,-0.09844 0.04186,-0.158905 0.04263,-0.06124 0.120923,-0.09612 0.07906,-0.03488 0.189911,-0.04728 0.110846,-0.0124 0.23797,-0.0186 v -0.02248 q 0,-0.04961 -0.01783,-0.08216 -0.01705,-0.03256 -0.04961,-0.05116 -0.03101,-0.01783 -0.07441,-0.02403 -0.04341,-0.0062 -0.09069,-0.0062 -0.05736,0 -0.127899,0.0155 -0.07054,0.01473 -0.145728,0.04341 h -0.0078 v -0.148052 q 0.04263,-0.01163 0.123248,-0.02558 0.08062,-0.01395 0.158905,-0.01395 0.09147,0 0.158905,0.0155 0.06821,0.01473 0.117822,0.05116 0.04884,0.03566 0.07441,0.09224 0.02558,0.05659 0.02558,0.140302 z M 62.392621,21.6133 v -0.24107 q -0.06666,0.0039 -0.157355,0.01163 -0.08992,0.0078 -0.142627,0.02248 -0.06279,0.01783 -0.101544,0.05581 -0.03876,0.03721 -0.03876,0.103094 0,0.07441 0.04496,0.112396 0.04496,0.03721 0.137201,0.03721 0.07674,0 0.140302,-0.02946 0.06356,-0.03023 0.117822,-0.07209 z"
       id="path733" />
    <path
       d="m 63.542163,21.826466 h -0.145727 v -0.492994 q 0,-0.05969 -0.007,-0.111621 -0.007,-0.05271 -0.02558,-0.08216 -0.01938,-0.03256 -0.05581,-0.04806 -0.03643,-0.01628 -0.09457,-0.01628 -0.05969,0 -0.124799,0.02946 -0.06511,0.02946 -0.124798,0.07519 v 0.646473 h -0.145728 v -0.865839 h 0.145728 v 0.09612 q 0.06821,-0.05659 0.141076,-0.08837 0.07286,-0.03178 0.149604,-0.03178 0.140301,0 0.21394,0.08449 0.07364,0.08449 0.07364,0.243396 z"
       id="path735" />
    <path
       d="m 55.997662,22.793073 h -0.583685 v 0.325562 h 0.50152 v 0.136426 h -0.50152 v 0.55578 h -0.153479 v -1.154193 h 0.737164 z"
       id="path737" />
    <path
       d="m 56.701495,23.103907 h -0.0078 q -0.03256,-0.0078 -0.06356,-0.01085 -0.03023,-0.0039 -0.07209,-0.0039 -0.06744,0 -0.130224,0.03023 -0.06279,0.02946 -0.120923,0.07674 v 0.614691 H 56.16117 v -0.865839 h 0.145728 v 0.127899 q 0.08682,-0.06976 0.152704,-0.09844 0.06666,-0.02946 0.13565,-0.02946 0.03798,0 0.05504,0.0023 0.01705,0.0016 0.05116,0.007 z"
       id="path739" />
    <path
       d="m 57.576636,23.378309 q 0,0.211615 -0.108521,0.334088 -0.10852,0.122473 -0.29068,0.122473 -0.183709,0 -0.29223,-0.122473 -0.107745,-0.122473 -0.107745,-0.334088 0,-0.211615 0.107745,-0.334088 0.108521,-0.123248 0.29223,-0.123248 0.18216,0 0.29068,0.123248 0.108521,0.122473 0.108521,0.334088 z m -0.150379,0 q 0,-0.168207 -0.06589,-0.249597 -0.06589,-0.08217 -0.182935,-0.08217 -0.118597,0 -0.184485,0.08217 -0.06511,0.08139 -0.06511,0.249597 0,0.162781 0.06589,0.247272 0.06589,0.08372 0.183709,0.08372 0.116272,0 0.18216,-0.08294 0.06666,-0.08372 0.06666,-0.248047 z"
       id="path741" />
    <path
       d="m 59.065692,23.810841 h -0.145728 v -0.492993 q 0,-0.05581 -0.0054,-0.107746 -0.0047,-0.05194 -0.02093,-0.08294 -0.01783,-0.03333 -0.05116,-0.05038 -0.03333,-0.01705 -0.09612,-0.01705 -0.06124,0 -0.122474,0.03101 -0.06124,0.03023 -0.122473,0.07751 0.0023,0.01783 0.0039,0.04186 0.0016,0.02326 0.0016,0.04651 v 0.55423 H 58.36118 v -0.492993 q 0,-0.05736 -0.0054,-0.108521 -0.0047,-0.05193 -0.02093,-0.08294 -0.01783,-0.03333 -0.05116,-0.04961 -0.03333,-0.01705 -0.09612,-0.01705 -0.05969,0 -0.120148,0.02946 -0.05969,0.02946 -0.119372,0.07519 v 0.646472 h -0.145728 v -0.865839 h 0.145728 v 0.09612 q 0.06821,-0.05658 0.13565,-0.08837 0.06821,-0.03178 0.144953,-0.03178 0.08837,0 0.149603,0.03721 0.06201,0.03721 0.09224,0.103094 0.08837,-0.07441 0.161231,-0.10697 0.07286,-0.03333 0.155804,-0.03333 0.142627,0 0.210065,0.08682 0.06821,0.08604 0.06821,0.241071 z"
       id="path743" />
    <path
       d="m 59.656354,23.165919 h -0.18526 v -0.220917 h 0.18526 z m 0,0.644922 h -0.18526 v -0.220917 h 0.18526 z"
       id="path745" />
    <path
       d="m 61.599646,23.725575 q -0.09457,0.04341 -0.206964,0.07596 -0.111621,0.03178 -0.216266,0.03178 -0.134875,0 -0.247272,-0.03721 -0.112396,-0.03721 -0.191461,-0.111621 -0.07984,-0.07519 -0.123248,-0.187586 -0.04341,-0.113171 -0.04341,-0.264325 0,-0.276727 0.16123,-0.436407 0.162006,-0.160455 0.444159,-0.160455 0.09844,0 0.200763,0.02403 0.103095,0.02325 0.221692,0.07984 v 0.18216 h -0.01395 q -0.02403,-0.0186 -0.06976,-0.04883 -0.04573,-0.03023 -0.08992,-0.05039 -0.05349,-0.02403 -0.121698,-0.03953 -0.06744,-0.01628 -0.153479,-0.01628 -0.193786,0 -0.306958,0.124799 -0.112396,0.124023 -0.112396,0.336414 0,0.224017 0.117822,0.348816 0.117823,0.124023 0.320911,0.124023 0.07441,0 0.148053,-0.01473 0.07441,-0.01473 0.130224,-0.03798 v -0.282928 h -0.309283 v -0.134876 h 0.461212 z"
       id="path747" />
    <path
       d="m 62.529046,23.810841 h -0.144952 v -0.09224 q -0.01938,0.01318 -0.05271,0.03721 -0.03256,0.02326 -0.06356,0.03721 -0.03643,0.01783 -0.08372,0.02946 -0.04728,0.0124 -0.110846,0.0124 -0.117047,0 -0.198437,-0.07751 -0.08139,-0.07752 -0.08139,-0.197663 0,-0.09844 0.04186,-0.158905 0.04263,-0.06124 0.120923,-0.09612 0.07906,-0.03488 0.189911,-0.04728 0.110846,-0.0124 0.23797,-0.0186 v -0.02248 q 0,-0.04961 -0.01783,-0.08216 -0.01705,-0.03256 -0.04961,-0.05116 -0.03101,-0.01783 -0.07441,-0.02403 -0.04341,-0.0062 -0.09069,-0.0062 -0.05736,0 -0.127899,0.0155 -0.07054,0.01473 -0.145728,0.04341 h -0.0078 V 22.96363 q 0.04263,-0.01163 0.123248,-0.02558 0.08062,-0.01395 0.158905,-0.01395 0.09147,0 0.158905,0.0155 0.06821,0.01473 0.117823,0.05116 0.04883,0.03566 0.07441,0.09224 0.02558,0.05659 0.02558,0.140302 z m -0.144952,-0.213166 v -0.24107 q -0.06666,0.0039 -0.157355,0.01163 -0.08992,0.0078 -0.142627,0.02248 -0.06279,0.01783 -0.101544,0.05581 -0.03876,0.03721 -0.03876,0.103094 0,0.07441 0.04496,0.112397 0.04496,0.03721 0.137201,0.03721 0.07674,0 0.140302,-0.02946 0.06356,-0.03023 0.117822,-0.07209 z"
       id="path749" />
    <path
       d="m 63.349927,23.103907 h -0.0078 q -0.03256,-0.0078 -0.06356,-0.01085 -0.03023,-0.0039 -0.07209,-0.0039 -0.06744,0 -0.130224,0.03023 -0.06279,0.02946 -0.120923,0.07674 v 0.614691 h -0.145728 v -0.865839 h 0.145728 v 0.127899 q 0.08682,-0.06976 0.152704,-0.09844 0.06666,-0.02946 0.13565,-0.02946 0.03798,0 0.05504,0.0023 0.01705,0.0016 0.05116,0.007 z"
       id="path751" />
    <path
       d="m 64.211889,23.393037 h -0.637945 q 0,0.07984 0.02403,0.139526 0.02403,0.05891 0.06589,0.09689 0.04031,0.03721 0.09534,0.05581 0.05581,0.0186 0.122473,0.0186 0.08837,0 0.177508,-0.03488 0.08992,-0.03566 0.1279,-0.06976 h 0.0078 v 0.158905 q -0.07364,0.03101 -0.150378,0.05194 -0.07674,0.02093 -0.161231,0.02093 -0.215491,0 -0.336413,-0.116272 -0.120923,-0.117048 -0.120923,-0.331763 0,-0.21239 0.115497,-0.337189 0.116272,-0.124798 0.305407,-0.124798 0.175183,0 0.269751,0.102319 0.09534,0.102319 0.09534,0.29068 z m -0.141852,-0.111621 q -7.75e-4,-0.114722 -0.05814,-0.177509 -0.05658,-0.06279 -0.172857,-0.06279 -0.117047,0 -0.18681,0.06899 -0.06899,0.06899 -0.07829,0.171308 z"
       id="path753" />
    <path
       d="m 64.882391,23.803089 q -0.04108,0.01085 -0.08992,0.01783 -0.04806,0.007 -0.08604,0.007 -0.13255,0 -0.201538,-0.07131 -0.06899,-0.07131 -0.06899,-0.228669 v -0.460437 h -0.09844 V 22.94503 h 0.09844 v -0.24885 h 0.145727 v 0.248822 h 0.300757 v 0.122473 H 64.58163 v 0.39455 q 0,0.06821 0.0031,0.10697 0.0031,0.03798 0.0217,0.07131 0.01705,0.03101 0.04651,0.04573 0.03023,0.01395 0.09147,0.01395 0.03566,0 0.07441,-0.01008 0.03876,-0.01085 0.05581,-0.01783 h 0.0078 z"
       id="path755" />
    <path
       d="m 65.782336,23.810841 h -0.145727 v -0.492993 q 0,-0.05969 -0.007,-0.111621 -0.007,-0.05271 -0.02558,-0.08217 -0.01938,-0.03256 -0.05581,-0.04806 -0.03643,-0.01628 -0.09457,-0.01628 -0.05969,0 -0.124798,0.02946 -0.06511,0.02946 -0.124799,0.07519 v 0.646472 H 65.05835 v -1.206128 h 0.145727 v 0.436407 q 0.06821,-0.05658 0.141077,-0.08837 0.07286,-0.03178 0.149603,-0.03178 0.140302,0 0.21394,0.08449 0.07364,0.08449 0.07364,0.243396 z"
       id="path757" />
  </g>
</svg>
