<svg id="svg_css_ex1" viewBox="0 0 10 10" 
   height="7cm"
   width="7cm"
   xmlns="http://www.w3.org/2000/svg">
  <line x1="4.982055727948476" y1="5.004236068017455" x2="5.01109017003449" y2="5.004236068017455" stroke="black" stroke-width="0.05" />
  <line x1="5.01109017003449" y1="5.03327051010347" x2="5.01109017003449" y2="4.986291795927612" stroke="black" stroke-width="0.05" />
  <line x1="5.058068884210347" y1="4.986291795927612" x2="4.982055727867315" y2="4.986291795927612" stroke="black" stroke-width="0.05" />
  <line x1="4.982055727867315" y1="4.91027863958458" x2="4.982055727867315" y2="5.03327051023479" stroke="black" stroke-width="0.05" />
  <line x1="4.859063857217104" y1="5.03327051023479" x2="5.058068884422828" y2="5.03327051023479" stroke="black" stroke-width="0.05" />
  <line x1="5.058068884422828" y1="5.232275537440514" x2="5.058068884422828" y2="4.9102786392407785" stroke="black" stroke-width="0.05" />
  <line x1="5.380065782622563" y1="4.9102786392407785" x2="4.859063856660821" y2="4.9102786392407785" stroke="black" stroke-width="0.05" />
  <line x1="4.859063856660821" y1="4.3892767132790365" x2="4.859063856660821" y2="5.232275538340598" stroke="black" stroke-width="0.05" />
  <line x1="4.016065031599259" y1="5.232275538340598" x2="5.38006578407893" y2="5.232275538340598" stroke="black" stroke-width="0.05" />
  <line x1="5.38006578407893" y1="6.596276290820269" x2="5.38006578407893" y2="4.389276710922585" stroke="black" stroke-width="0.05" />
  <line x1="7.587065363976613" y1="4.389276710922585" x2="4.01606502778644" y2="4.389276710922585" stroke="black" stroke-width="0.05" />
  <line x1="4.01606502778644" y1="1.1229041834828095" x2="4.01606502778644" y2="6.59627629698954" stroke="black" stroke-width="0.05" />
  <line x1="1.3323165371491825" y1="6.59627629698954" x2="7.587065373958703" y2="6.59627629698954" stroke="black" stroke-width="0.05" />
  <line x1="7.587065373958703" y1="8.050752817070553" x2="7.587065373958703" y2="1.9492471829294469" stroke="black" stroke-width="0.05" />
<path
    fill="none"
    stroke="black"
    stroke-width="0.05"
    d="
M 5 5
M 4.982055727948476 5.004236068017455
a 0.029034442086014186 0.029034442086014186 0 0 0 0.029034442086014245 0.029034442086014245
a 0.04697871417585746 0.04697871417585746 0 0 0 0.046978714175857306 -0.046978714175857306
a 0.07601315634303221 0.07601315634303221 0 0 0 -0.0760131563430324 -0.0760131563430324
a 0.12299187065021022 0.12299187065021022 0 0 0 -0.12299187065021044 0.12299187065021044
a 0.19900502720572355 0.19900502720572355 0 0 0 0.19900502720572355 0.19900502720572355
a 0.3219968981997354 0.3219968981997354 0 0 0 0.3219968981997354 -0.3219968981997354
a 0.5210019259617418 0.5210019259617418 0 0 0 -0.521001925961742 -0.521001925961742
a 0.8429988250615617 0.8429988250615617 0 0 0 -0.8429988250615619 0.8429988250615619
a 1.3640007524796707 1.3640007524796707 0 0 0 1.3640007524796705 1.3640007524796705
a 2.206999579897684 2.206999579897684 0 0 0 2.2069995798976834 -2.2069995798976834
a 3.571000336190173 3.571000336190173 0 0 0 -2.437905301492882 -3.3864640915584316
    " />
</svg>
