<svg id="svg_css_ex1" viewBox="0 0 10 10" 
   height="7cm"
   width="7cm"
   xmlns="http://www.w3.org/2000/svg">
  <line x1="4.984089679263564" y1="5.003755917243428" x2="5.009833118989932" y2="5.003755917243428" stroke="black" stroke-width="0.05" />
  <line x1="5.009833118989932" y1="5.029499356969796" x2="5.009833118989932" y2="4.987845596473015" stroke="black" stroke-width="0.05" />
  <line x1="5.051486879486713" y1="4.987845596473015" x2="4.9840896791916025" y2="4.987845596473015" stroke="black" stroke-width="0.05" />
  <line x1="4.9840896791916025" y1="4.920448396177904" x2="4.9840896791916025" y2="5.029499357086231" stroke="black" stroke-width="0.05" />
  <line x1="4.8750387182832755" y1="5.029499357086231" x2="5.05148687967511" y2="5.029499357086231" stroke="black" stroke-width="0.05" />
  <line x1="5.05148687967511" y1="5.205947518478066" x2="5.05148687967511" y2="4.920448395873072" stroke="black" stroke-width="0.05" />
  <line x1="5.336986002280105" y1="4.920448395873072" x2="4.875038717790047" y2="4.920448395873072" stroke="black" stroke-width="0.05" />
  <line x1="4.875038717790047" y1="4.458501111383014" x2="4.875038717790047" y2="5.205947519276128" stroke="black" stroke-width="0.05" />
  <line x1="4.127592309896933" y1="5.205947519276128" x2="5.336986003571395" y2="5.205947519276128" stroke="black" stroke-width="0.05" />
  <line x1="5.336986003571395" y1="6.41534121295059" x2="5.336986003571395" y2="4.458501109293662" stroke="black" stroke-width="0.05" />
  <line x1="7.293826107228323" y1="4.458501109293662" x2="4.1275923065162905" y2="4.458501109293662" stroke="black" stroke-width="0.05" />
  <line x1="4.1275923065162905" y1="1.2922673085816294" x2="4.1275923065162905" y2="6.4153412184205845" stroke="black" stroke-width="0.05" />
  <line x1="1.2587690213728133" y1="6.4153412184205845" x2="7.293826116078961" y2="6.4153412184205845" stroke="black" stroke-width="0.05" />
  <line x1="7.293826116078961" y1="8.276943964915194" x2="7.293826116078961" y2="1.7230560350848063" stroke="black" stroke-width="0.05" />
  <line x1="6.5009057874474765" y1="1.2922672942609967" x2="3.4990942125525235" y2="1.2922672942609967" stroke="black" stroke-width="0.05" />
<path
    fill="none"
    stroke="black"
    stroke-width="0.05"
    d="
M 5 5
M 4.984089679263564 5.003755917243428
a 0.025743439726368708 0.025743439726368708 0 0 0 0.0257434397263685 0.0257434397263685
a 0.04165376049678087 0.04165376049678087 0 0 0 0.04165376049678127 -0.04165376049678127
a 0.06739720029511073 0.06739720029511073 0 0 0 -0.06739720029511087 -0.06739720029511087
a 0.1090509609083272 0.1090509609083272 0 0 0 -0.109050960908327 0.109050960908327
a 0.17644816139183467 0.17644816139183467 0 0 0 0.17644816139183472 0.17644816139183472
a 0.2854991226049942 0.2854991226049942 0 0 0 0.2854991226049943 -0.2854991226049943
a 0.461947284490058 0.461947284490058 0 0 0 -0.4619472844900576 -0.4619472844900576
a 0.7474464078931137 0.7474464078931137 0 0 0 -0.747446407893114 0.747446407893114
a 1.2093936936744623 1.2093936936744623 0 0 0 1.2093936936744623 1.2093936936744623
a 1.956840103656928 1.956840103656928 0 0 0 1.956840103656928 -1.956840103656928
a 3.1662338007120328 3.1662338007120328 0 0 0 -3.1662338007120328 -3.1662338007120328
a 5.123073909838955 5.123073909838955 0 0 0 -0.7572385377867672 0.05627254383267033
    " />
</svg>
