<svg id="svg_css_ex1" viewBox="0 0 10 10" 
   height="7cm"
   width="7cm"
   xmlns="http://www.w3.org/2000/svg">
  <line x1="5.004777600517889" y1="5.014332801553666" x2="5.004777600517889" y2="4.994094560978606" stroke="black" stroke-width="0.05" />
  <line x1="5.025015841092948" y1="4.994094560978606" x2="4.992269679944705" y2="4.994094560978606" stroke="black" stroke-width="0.05" />
  <line x1="4.992269679944705" y1="4.961348399830364" x2="4.992269679944705" y2="5.014332801610238" stroke="black" stroke-width="0.05" />
  <line x1="4.939285278164831" y1="5.014332801610238" x2="5.025015841184484" y2="5.014332801610238" stroke="black" stroke-width="0.05" />
  <line x1="5.025015841184484" y1="5.100063364629891" x2="5.025015841184484" y2="4.961348399682255" stroke="black" stroke-width="0.05" />
  <line x1="5.163730806132119" y1="4.961348399682255" x2="4.939285277925186" y2="4.961348399682255" stroke="black" stroke-width="0.05" />
  <line x1="4.939285277925186" y1="4.736902871475322" x2="4.939285277925186" y2="5.100063365017643" stroke="black" stroke-width="0.05" />
  <line x1="4.5761247843828645" y1="5.100063365017643" x2="5.163730806759516" y2="5.100063365017643" stroke="black" stroke-width="0.05" />
  <line x1="5.163730806759516" y1="5.687669387394295" x2="5.163730806759516" y2="4.736902870460172" stroke="black" stroke-width="0.05" />
  <line x1="6.114497323693639" y1="4.736902870460172" x2="4.576124782740317" y2="4.736902870460172" stroke="black" stroke-width="0.05" />
  <line x1="4.576124782740317" y1="3.19853032950685" x2="4.576124782740317" y2="5.687669390051992" stroke="black" stroke-width="0.05" />
  <line x1="2.086985722195175" y1="5.687669390051992" x2="6.114497327993883" y2="5.687669390051992" stroke="black" stroke-width="0.05" />
  <line x1="6.114497327993883" y1="8.84160066975922" x2="6.114497327993883" y2="3.1985303225489092" stroke="black" stroke-width="0.05" />
  <line x1="8.571373265457458" y1="3.1985303225489092" x2="2.0869857109369914" y2="3.1985303225489092" stroke="black" stroke-width="0.05" />
  <line x1="2.0869857109369914" y1="2.2587689350011493" x2="2.0869857109369914" y2="7.741231064998851" stroke="black" stroke-width="0.05" />
<path
    fill="none"
    stroke="black"
    stroke-width="0.05"
    d="
M 5 5
M 5.004777600517889 5.014332801553666
a 0.020238240575059113 0.020238240575059113 0 0 0 0.020238240575059407 -0.020238240575059407
a 0.03274616114824279 0.03274616114824279 0 0 0 -0.03274616114824269 -0.03274616114824269
a 0.05298440177987426 0.05298440177987426 0 0 0 -0.052984401779874624 0.052984401779874624
a 0.08573056301965305 0.08573056301965305 0 0 0 0.08573056301965298 0.08573056301965298
a 0.1387149649476357 0.1387149649476357 0 0 0 0.1387149649476358 -0.1387149649476358
a 0.22444552820693311 0.22444552820693311 0 0 0 -0.22444552820693353 -0.22444552820693353
a 0.36316049354232155 0.36316049354232155 0 0 0 -0.3631604935423214 0.3631604935423214
a 0.5876060223766518 0.5876060223766518 0 0 0 0.5876060223766517 0.5876060223766517
a 0.9507665169341233 0.9507665169341233 0 0 0 0.9507665169341228 -0.9507665169341228
a 1.538372540953322 1.538372540953322 0 0 0 -1.538372540953322 -1.538372540953322
a 2.489139060545142 2.489139060545142 0 0 0 -2.489139060545142 2.489139060545142
a 4.027511605798708 4.027511605798708 0 0 0 1.3169458967903354 2.9788728190359564
    " />
</svg>
