<svg id="svg_css_ex1" viewBox="0 0 10 10" 
   height="7cm"
   width="7cm"
   xmlns="http://www.w3.org/2000/svg">
  <line x1="5.017437104841346" y1="4.995883657920291" x2="4.994611638251118" y2="4.995883657920291" stroke="black" stroke-width="0.05" />
  <line x1="4.994611638251118" y1="4.973058191330062" x2="4.994611638251118" y2="5.009990572110662" stroke="black" stroke-width="0.05" />
  <line x1="4.9576792574705175" y1="5.009990572110662" x2="5.0174371049051505" y2="5.009990572110662" stroke="black" stroke-width="0.05" />
  <line x1="5.0174371049051505" y1="5.069748419545295" x2="5.0174371049051505" y2="4.973058191226825" stroke="black" stroke-width="0.05" />
  <line x1="5.114127333223621" y1="4.973058191226825" x2="4.957679257303474" y2="4.973058191226825" stroke="black" stroke-width="0.05" />
  <line x1="4.957679257303474" y1="4.816610115306678" x2="4.957679257303474" y2="5.069748419815576" stroke="black" stroke-width="0.05" />
  <line x1="4.704540952794576" y1="5.069748419815576" x2="5.114127333660943" y2="5.069748419815576" stroke="black" stroke-width="0.05" />
  <line x1="5.114127333660943" y1="5.479334800681943" x2="5.114127333660943" y2="4.816610114599076" stroke="black" stroke-width="0.05" />
  <line x1="5.77685201974381" y1="4.816610114599076" x2="4.704540951649651" y2="4.816610114599076" stroke="black" stroke-width="0.05" />
  <line x1="4.704540951649651" y1="3.7442990465049175" x2="4.704540951649651" y2="5.479334802534471" stroke="black" stroke-width="0.05" />
  <line x1="2.9695051956200986" y1="5.479334802534471" x2="5.776852022741262" y2="5.479334802534471" stroke="black" stroke-width="0.05" />
  <line x1="5.776852022741262" y1="8.286681629655634" x2="5.776852022741262" y2="3.744299041654938" stroke="black" stroke-width="0.05" />
  <line x1="8.797790818780214" y1="3.744299041654938" x2="2.9695051877726657" y2="3.744299041654938" stroke="black" stroke-width="0.05" />
  <line x1="2.9695051877726657" y1="1.5536844576391613" x2="2.9695051877726657" y2="8.286681642353047" stroke="black" stroke-width="0.05" />
  <line x1="2.720148298283531" y1="8.286681642353047" x2="7.279851701716469" y2="8.286681642353047" stroke="black" stroke-width="0.05" />
<path
    fill="none"
    stroke="black"
    stroke-width="0.05"
    d="
M 5 5
M 5.017437104841346 4.995883657920291
a 0.022825466590228945 0.022825466590228945 0 0 0 -0.02282546659022877 -0.02282546659022877
a 0.036932380780599836 0.036932380780599836 0 0 0 -0.03693238078060013 0.03693238078060013
a 0.05975784743463327 0.05975784743463327 0 0 0 0.05975784743463297 0.05975784743463297
a 0.09669022831847093 0.09669022831847093 0 0 0 0.09669022831847052 -0.09669022831847052
a 0.1564480759201465 0.1564480759201465 0 0 0 -0.15644807592014676 -0.15644807592014676
a 0.25313830450889757 0.25313830450889757 0 0 0 -0.25313830450889796 0.25313830450889796
a 0.40958638086636656 0.40958638086636656 0 0 0 0.4095863808663669 0.4095863808663669
a 0.6627246860828667 0.6627246860828667 0 0 0 0.6627246860828668 -0.6627246860828668
a 1.0723110680941583 1.0723110680941583 0 0 0 -1.0723110680941588 -1.0723110680941583
a 1.7350357560295526 1.7350357560295526 0 0 0 -1.7350357560295526 1.735035756029553
a 2.8073468271211635 2.8073468271211635 0 0 0 2.8073468271211635 2.8073468271211635
a 4.542382588000696 4.542382588000696 0 0 0 2.1114904146701354 -0.5205859988470323
    " />
</svg>
