<svg id="svg_css_ex1" viewBox="0 0 10 10" 
   height="7cm"
   width="7cm"
   xmlns="http://www.w3.org/2000/svg">
  <line x1="4.987492079442721" y1="5.002952719513247" x2="5.007730320035262" y2="5.002952719513247" stroke="black" stroke-width="0.05" />
  <line x1="5.007730320035262" y1="5.023190960105787" x2="5.007730320035262" y2="4.990444798929258" stroke="black" stroke-width="0.05" />
  <line x1="5.040476481211791" y1="4.990444798929258" x2="4.987492079386149" y2="4.990444798929258" stroke="black" stroke-width="0.05" />
  <line x1="4.987492079386149" y1="4.9374603971036155" x2="4.987492079386149" y2="5.023190960197323" stroke="black" stroke-width="0.05" />
  <line x1="4.901761516292441" y1="5.023190960197323" x2="5.0404764813598995" y2="5.023190960197323" stroke="black" stroke-width="0.05" />
  <line x1="5.0404764813598995" y1="5.161905925264781" x2="5.0404764813598995" y2="4.937460396863972" stroke="black" stroke-width="0.05" />
  <line x1="5.264922009760709" y1="4.937460396863972" x2="4.901761515904689" y2="4.937460396863972" stroke="black" stroke-width="0.05" />
  <line x1="4.901761515904689" y1="4.574299903007952" x2="4.901761515904689" y2="5.161905925892178" stroke="black" stroke-width="0.05" />
  <line x1="4.314155493020463" y1="5.161905925892178" x2="5.26492201077586" y2="5.161905925892178" stroke="black" stroke-width="0.05" />
  <line x1="5.26492201077586" y1="6.112672443647575" x2="5.26492201077586" y2="4.574299901365404" stroke="black" stroke-width="0.05" />
  <line x1="6.80329455305803" y1="4.574299901365404" x2="4.314155490362767" y2="4.574299901365404" stroke="black" stroke-width="0.05" />
  <line x1="4.314155490362767" y1="2.0851608386701415" x2="4.314155490362767" y2="6.112672447947818" stroke="black" stroke-width="0.05" />
  <line x1="1.1578703791285476" y1="6.112672447947818" x2="6.803294560015971" y2="6.112672447947818" stroke="black" stroke-width="0.05" />
  <line x1="6.803294560015971" y1="8.570452174419483" x2="6.803294560015971" y2="2.0851608274119577" stroke="black" stroke-width="0.05" />
  <line x1="7.739290528210956" y1="2.0851608274119577" x2="2.260709471789044" y2="2.0851608274119577" stroke="black" stroke-width="0.05" />
<path
    fill="none"
    stroke="black"
    stroke-width="0.05"
    d="
M 5 5
M 4.987492079442721 5.002952719513247
a 0.02023824059254093 0.02023824059254093 0 0 0 0.020238240592540535 0.020238240592540535
a 0.03274616117652897 0.03274616117652897 0 0 0 0.0327461611765294 -0.0327461611765294
a 0.05298440182564226 0.05298440182564226 0 0 0 -0.05298440182564246 -0.05298440182564246
a 0.08573056309370723 0.08573056309370723 0 0 0 -0.08573056309370752 0.08573056309370752
a 0.13871496506745787 0.13871496506745787 0 0 0 0.13871496506745817 0.13871496506745817
a 0.22444552840080947 0.22444552840080947 0 0 0 0.22444552840080956 -0.22444552840080956
a 0.36316049385602006 0.36316049385602006 0 0 0 -0.3631604938560198 -0.3631604938560198
a 0.5876060228842266 0.5876060228842266 0 0 0 -0.5876060228842261 0.5876060228842261
a 0.9507665177553964 0.9507665177553964 0 0 0 0.9507665177553966 0.9507665177553966
a 1.53837254228217 1.53837254228217 0 0 0 1.5383725422821701 -1.5383725422821701
a 2.489139062695263 2.489139062695263 0 0 0 -2.489139062695263 -2.489139062695263
a 4.027511609277677 4.027511609277677 0 0 0 -2.9788728216091105 1.3169458979279152
    " />
</svg>
