<svg id="svg_css_ex1" viewBox="0 0 10 10" 
   height="7cm"
   width="7cm"
   xmlns="http://www.w3.org/2000/svg">
  <line x1="5.0053883617349175" y1="5.016165085204756" x2="5.0053883617349175" y2="4.993339618594811" stroke="black" stroke-width="0.05" />
  <line x1="5.028213828344863" y1="4.993339618594811" x2="4.991281447532361" y2="4.993339618594811" stroke="black" stroke-width="0.05" />
  <line x1="4.991281447532361" y1="4.956407237782309" x2="4.991281447532361" y2="5.016165085268561" stroke="black" stroke-width="0.05" />
  <line x1="4.931523600046109" y1="5.016165085268561" x2="5.028213828448101" y2="5.016165085268561" stroke="black" stroke-width="0.05" />
  <line x1="5.028213828448101" y1="5.112855313670553" x2="5.028213828448101" y2="4.956407237615267" stroke="black" stroke-width="0.05" />
  <line x1="5.184661904503388" y1="4.956407237615267" x2="4.931523599775829" y2="4.956407237615267" stroke="black" stroke-width="0.05" />
  <line x1="4.931523599775829" y1="4.703268932887708" x2="4.931523599775829" y2="5.112855314107875" stroke="black" stroke-width="0.05" />
  <line x1="4.521937218555662" y1="5.112855314107875" x2="5.184661905210991" y2="5.112855314107875" stroke="black" stroke-width="0.05" />
  <line x1="5.184661905210991" y1="5.775580000763204" x2="5.184661905210991" y2="4.703268931742782" stroke="black" stroke-width="0.05" />
  <line x1="6.256972974231413" y1="4.703268931742782" x2="4.521937216703134" y2="4.703268931742782" stroke="black" stroke-width="0.05" />
  <line x1="4.521937216703134" y1="2.968233174214503" x2="4.521937216703134" y2="5.775580003760657" stroke="black" stroke-width="0.05" />
  <line x1="1.71459038715698" y1="5.775580003760657" x2="6.256972979081393" y2="5.775580003760657" stroke="black" stroke-width="0.05" />
  <line x1="6.256972979081393" y1="8.797370001706344" x2="6.256972979081393" y2="2.96823316636707" stroke="black" stroke-width="0.05" />
  <line x1="8.445565778467916" y1="2.96823316636707" x2="1.714590374459565" y2="2.96823316636707" stroke="black" stroke-width="0.05" />
  <line x1="1.714590374459565" y1="2.7183156238414004" x2="1.714590374459565" y2="7.2816843761586" stroke="black" stroke-width="0.05" />
<path
    fill="none"
    stroke="black"
    stroke-width="0.05"
    d="
M 5 5
M 5.0053883617349175 5.016165085204756
a 0.02282546660994561 0.02282546660994561 0 0 0 0.022825466609945444 -0.022825466609945444
a 0.03693238081250207 0.03693238081250207 0 0 0 -0.03693238081250172 -0.03693238081250172
a 0.05975784748625217 0.05975784748625217 0 0 0 -0.059757847486252125 0.059757847486252125
a 0.09669022840199208 0.09669022840199208 0 0 0 0.09669022840199215 0.09669022840199215
a 0.15644807605528657 0.15644807605528657 0 0 0 0.15644807605528666 -0.15644807605528666
a 0.25313830472755877 0.25313830472755877 0 0 0 -0.2531383047275586 -0.2531383047275586
a 0.4095863812201678 0.4095863812201678 0 0 0 -0.40958638122016744 0.40958638122016744
a 0.6627246866553291 0.6627246866553291 0 0 0 0.6627246866553289 0.6627246866553289
a 1.072311069020422 1.072311069020422 0 0 0 1.0723110690204223 -1.0723110690204223
a 1.7350357575282789 1.7350357575282789 0 0 0 -1.735035757528279 -1.735035757528279
a 2.807346829546154 2.807346829546154 0 0 0 -2.807346829546154 2.8073468295461543
a 4.542382591924413 4.542382591924413 0 0 0 0.5242773689598947 2.118506556186034
    " />
</svg>
