<svg id="svg_css_ex1" viewBox="0 0 10 10" 
   height="7cm"
   width="7cm"
   xmlns="http://www.w3.org/2000/svg">
  <line x1="4.999999999984937" y1="4.98256289510991" x2="4.999999999984937" y2="5.005388361759289" stroke="black" stroke-width="0.05" />
  <line x1="4.977174533335559" y1="5.005388361759289" x2="5.014106914211865" y2="5.005388361759289" stroke="black" stroke-width="0.05" />
  <line x1="5.014106914211865" y1="5.042320742635596" x2="5.014106914211865" y2="4.982562895046106" stroke="black" stroke-width="0.05" />
  <line x1="5.073864761801355" y1="4.982562895046106" x2="4.97717453323232" y2="4.982562895046106" stroke="black" stroke-width="0.05" />
  <line x1="4.97717453323232" y1="4.885872666477072" x2="4.97717453323232" y2="5.042320742802638" stroke="black" stroke-width="0.05" />
  <line x1="4.820726456906754" y1="5.042320742802638" x2="5.073864762071635" y2="5.042320742802638" stroke="black" stroke-width="0.05" />
  <line x1="5.073864762071635" y1="5.295459047967519" x2="5.073864762071635" y2="4.885872666039749" stroke="black" stroke-width="0.05" />
  <line x1="5.483451143999405" y1="4.885872666039749" x2="4.820726456199151" y2="4.885872666039749" stroke="black" stroke-width="0.05" />
  <line x1="4.820726456199151" y1="4.223147978239495" x2="4.820726456199151" y2="5.295459049112444" stroke="black" stroke-width="0.05" />
  <line x1="3.7484153853262017" y1="5.295459049112444" x2="5.483451145851932" y2="5.295459049112444" stroke="black" stroke-width="0.05" />
  <line x1="5.483451145851932" y1="7.030494809638174" x2="5.483451145851932" y2="4.223147975242042" stroke="black" stroke-width="0.05" />
  <line x1="8.290797980248065" y1="4.223147975242042" x2="3.7484153804762217" y2="4.223147975242042" stroke="black" stroke-width="0.05" />
  <line x1="3.7484153804762217" y1="1.2008506293945853" x2="3.7484153804762217" y2="7.030494817485607" stroke="black" stroke-width="0.05" />
  <line x1="1.5536844607372222" y1="7.030494817485607" x2="8.290797992945478" y2="7.030494817485607" stroke="black" stroke-width="0.05" />
  <line x1="8.290797992945478" y1="7.273906016005501" x2="8.290797992945478" y2="2.7260939839944984" stroke="black" stroke-width="0.05" />
<path
    fill="none"
    stroke="black"
    stroke-width="0.05"
    d="
M 5 5
M 4.999999999984937 4.98256289510991
a 0.02282546664937894 0.02282546664937894 0 0 0 -0.02282546664937879 0.02282546664937879
a 0.036932380876306535 0.036932380876306535 0 0 0 0.03693238087630668 0.03693238087630668
a 0.05975784758948996 0.05975784758948996 0 0 0 0.05975784758948954 -0.05975784758948954
a 0.09669022856903432 0.09669022856903432 0 0 0 -0.09669022856903453 -0.09669022856903453
a 0.1564480763255666 0.1564480763255666 0 0 0 -0.15644807632556645 0.15644807632556645
a 0.25313830516488106 0.25313830516488106 0 0 0 0.2531383051648808 0.2531383051648808
a 0.40958638192777014 0.40958638192777014 0 0 0 0.4095863819277703 -0.4095863819277703
a 0.6627246878002538 0.6627246878002538 0 0 0 -0.662724687800254 -0.662724687800254
a 1.072311070872949 1.072311070872949 0 0 0 -1.0723110708729493 1.0723110708729493
a 1.7350357605257307 1.7350357605257307 0 0 0 1.7350357605257303 1.7350357605257303
a 2.8073468343961325 2.8073468343961325 0 0 0 2.8073468343961334 -2.8073468343961325
a 4.542382599771844 4.542382599771844 0 0 0 -0.5169068816164453 -2.104467848471744
    " />
</svg>
