<svg id="svg_css_ex1" viewBox="0 0 10 10" 
   height="7cm"
   width="7cm"
   xmlns="http://www.w3.org/2000/svg">
  <line x1="4.9957639319907265" y1="4.9788196600121815" x2="4.9957639319907265" y2="5.0078541020229554" stroke="black" stroke-width="0.05" />
  <line x1="4.966729489979953" y1="5.0078541020229554" x2="5.013708204034069" y2="5.0078541020229554" stroke="black" stroke-width="0.05" />
  <line x1="5.013708204034069" y1="5.054832816077072" x2="5.013708204034069" y2="4.978819659931021" stroke="black" stroke-width="0.05" />
  <line x1="5.08972136018012" y1="4.978819659931021" x2="4.966729489848632" y2="4.978819659931021" stroke="black" stroke-width="0.05" />
  <line x1="4.966729489848632" y1="4.855827789599532" x2="4.966729489848632" y2="5.0548328162895535" stroke="black" stroke-width="0.05" />
  <line x1="4.76772446315861" y1="5.0548328162895535" x2="5.089721360523922" y2="5.0548328162895535" stroke="black" stroke-width="0.05" />
  <line x1="5.089721360523922" y1="5.376829713654865" x2="5.089721360523922" y2="4.855827789043249" stroke="black" stroke-width="0.05" />
  <line x1="5.6107232851355375" y1="4.855827789043249" x2="4.767724462258526" y2="4.855827789043249" stroke="black" stroke-width="0.05" />
  <line x1="4.767724462258526" y1="4.0128289661662375" x2="4.767724462258526" y2="5.376829715111231" stroke="black" stroke-width="0.05" />
  <line x1="3.403723713313532" y1="5.376829715111231" x2="5.6107232874919895" y2="5.376829715111231" stroke="black" stroke-width="0.05" />
  <line x1="5.6107232874919895" y1="7.583829289289689" x2="5.6107232874919895" y2="4.012828962353419" stroke="black" stroke-width="0.05" />
  <line x1="8.876273125365623" y1="4.012828962353419" x2="3.4037237071442616" y2="4.012828962353419" stroke="black" stroke-width="0.05" />
  <line x1="3.4037237071442616" y1="1.332316535350039" x2="3.4037237071442616" y2="7.583829299271778" stroke="black" stroke-width="0.05" />
  <line x1="1.9465059108908176" y1="7.583829299271778" x2="8.053494089109183" y2="7.583829299271778" stroke="black" stroke-width="0.05" />
<path
    fill="none"
    stroke="black"
    stroke-width="0.05"
    d="
M 5 5
M 4.9957639319907265 4.9788196600121815
a 0.029034442010774226 0.029034442010774226 0 0 0 -0.029034442010773986 0.029034442010773986
a 0.046978714054116646 0.046978714054116646 0 0 0 0.046978714054116466 0.046978714054116466
a 0.07601315614605143 0.07601315614605143 0 0 0 0.07601315614605131 -0.07601315614605131
a 0.12299187033148863 0.12299187033148863 0 0 0 -0.1229918703314885 -0.1229918703314885
a 0.19900502669002118 0.19900502669002118 0 0 0 -0.1990050266900214 0.1990050266900214
a 0.32199689736531145 0.32199689736531145 0 0 0 0.32199689736531134 0.32199689736531134
a 0.5210019246116154 0.5210019246116154 0 0 0 0.5210019246116158 -0.5210019246116158
a 0.8429988228770113 0.8429988228770113 0 0 0 -0.8429988228770116 -0.8429988228770116
a 1.364000748944994 1.364000748944994 0 0 0 -1.364000748944994 1.364000748944994
a 2.206999574178457 2.206999574178457 0 0 0 2.2069995741784574 2.2069995741784574
a 3.57100032693627 3.57100032693627 0 0 0 3.3864640827827373 -2.437905295175285
    " />
</svg>
