<svg id="svg_css_ex1" viewBox="0 0 10 10" 
   height="7cm"
   width="7cm"
   xmlns="http://www.w3.org/2000/svg">
  <line x1="5.01966623792489" y1="4.995357430980868" x2="4.993922798242997" y2="4.995357430980868" stroke="black" stroke-width="0.05" />
  <line x1="4.993922798242997" y1="4.969613991298974" x2="4.993922798242997" y2="5.0112677517237945" stroke="black" stroke-width="0.05" />
  <line x1="4.952269037818176" y1="5.0112677517237945" x2="5.0196662379968515" y2="5.0112677517237945" stroke="black" stroke-width="0.05" />
  <line x1="5.0196662379968515" y1="5.07866495190247" x2="5.0196662379968515" y2="4.969613991182539" stroke="black" stroke-width="0.05" />
  <line x1="5.128717198716782" y1="4.969613991182539" x2="4.9522690376297795" y2="4.969613991182539" stroke="black" stroke-width="0.05" />
  <line x1="4.9522690376297795" y1="4.793165830095537" x2="4.9522690376297795" y2="5.078664952207302" stroke="black" stroke-width="0.05" />
  <line x1="4.666769915518015" y1="5.078664952207302" x2="5.128717199210011" y2="5.078664952207302" stroke="black" stroke-width="0.05" />
  <line x1="5.128717199210011" y1="5.540612235899299" x2="5.128717199210011" y2="4.793165829297475" stroke="black" stroke-width="0.05" />
  <line x1="5.8761636058118345" y1="4.793165829297475" x2="4.666769914226723" y2="4.793165829297475" stroke="black" stroke-width="0.05" />
  <line x1="4.666769914226723" y1="3.5837721377123644" x2="4.666769914226723" y2="5.54061223798865" stroke="black" stroke-width="0.05" />
  <line x1="2.7099298139504366" y1="5.54061223798865" x2="5.876163609192476" y2="5.54061223798865" stroke="black" stroke-width="0.05" />
  <line x1="5.876163609192476" y1="8.70684603323069" x2="5.876163609192476" y2="3.583772132242369" stroke="black" stroke-width="0.05" />
  <line x1="8.74089543112163" y1="3.583772132242369" x2="2.709929805099799" y2="3.583772132242369" stroke="black" stroke-width="0.05" />
  <line x1="2.709929805099799" y1="1.7204301345405435" x2="2.709929805099799" y2="8.279569865459457" stroke="black" stroke-width="0.05" />
  <line x1="3.496905731581305" y1="8.706846047551323" x2="6.503094268418695" y2="8.706846047551323" stroke="black" stroke-width="0.05" />
<path
    fill="none"
    stroke="black"
    stroke-width="0.05"
    d="
M 5 5
M 5.01966623792489 4.995357430980868
a 0.025743439681894277 0.025743439681894277 0 0 0 -0.025743439681893854 -0.025743439681893854
a 0.041653760424819726 0.041653760424819726 0 0 0 -0.04165376042482016 0.04165376042482016
a 0.06739720017867516 0.06739720017867516 0 0 0 0.06739720017867512 0.06739720017867512
a 0.10905096071993049 0.10905096071993049 0 0 0 0.10905096071993015 -0.10905096071993015
a 0.1764481610870024 0.1764481610870024 0 0 0 -0.17644816108700212 -0.17644816108700212
a 0.28549912211176526 0.28549912211176526 0 0 0 -0.28549912211176487 0.28549912211176487
a 0.4619472836919968 0.4619472836919968 0 0 0 0.46194728369199645 0.46194728369199645
a 0.7474464066018235 0.7474464066018235 0 0 0 0.7474464066018234 -0.7474464066018234
a 1.209393691585111 1.209393691585111 0 0 0 -1.2093936915851113 -1.209393691585111
a 1.9568401002762865 1.9568401002762865 0 0 0 -1.9568401002762865 1.956840100276286
a 3.16623379524204 3.16623379524204 0 0 0 3.1662337952420394 3.1662337952420394
a 5.123073900988321 5.123073900988321 0 0 0 0.7572385364785612 -0.056272543735452984
    " />
</svg>
