<svg id="svg_css_ex1" viewBox="0 0 10 10" 
   height="7cm"
   width="7cm"
   xmlns="http://www.w3.org/2000/svg">
  <line x1="5.015460640027307" y1="4.996350237972262" x2="4.995222399469729" y2="4.996350237972262" stroke="black" stroke-width="0.05" />
  <line x1="4.995222399469729" y1="4.976111997414685" x2="4.995222399469729" y2="5.0088581585346414" stroke="black" stroke-width="0.05" />
  <line x1="4.9624762383497725" y1="5.0088581585346414" x2="5.015460640083878" y2="5.0088581585346414" stroke="black" stroke-width="0.05" />
  <line x1="5.015460640083878" y1="5.061842560268747" x2="5.015460640083878" y2="4.976111997323149" stroke="black" stroke-width="0.05" />
  <line x1="5.101191203029477" y1="4.976111997323149" x2="4.962476238201663" y2="4.976111997323149" stroke="black" stroke-width="0.05" />
  <line x1="4.962476238201663" y1="4.8373970324953355" x2="4.962476238201663" y2="5.061842560508392" stroke="black" stroke-width="0.05" />
  <line x1="4.738030710188607" y1="5.061842560508392" x2="5.10119120341723" y2="5.061842560508392" stroke="black" stroke-width="0.05" />
  <line x1="5.10119120341723" y1="5.425003053737015" x2="5.10119120341723" y2="4.837397031867939" stroke="black" stroke-width="0.05" />
  <line x1="5.688797225286306" y1="4.837397031867939" x2="4.738030709173456" y2="4.837397031867939" stroke="black" stroke-width="0.05" />
  <line x1="4.738030709173456" y1="3.886630515755089" x2="4.738030709173456" y2="5.4250030553795625" stroke="black" stroke-width="0.05" />
  <line x1="3.1996581695489827" y1="5.4250030553795625" x2="5.688797227944002" y2="5.4250030553795625" stroke="black" stroke-width="0.05" />
  <line x1="5.688797227944002" y1="7.914142113774583" x2="5.688797227944002" y2="3.886630511454846" stroke="black" stroke-width="0.05" />
  <line x1="8.841927690883406" y1="3.886630511454846" x2="3.1996581625910414" y2="3.886630511454846" stroke="black" stroke-width="0.05" />
  <line x1="3.1996581625910414" y1="1.4280580535967644" x2="3.1996581625910414" y2="7.914142125032766" stroke="black" stroke-width="0.05" />
  <line x1="2.2599679426857957" y1="7.914142125032766" x2="7.740032057314204" y2="7.914142125032766" stroke="black" stroke-width="0.05" />
<path
    fill="none"
    stroke="black"
    stroke-width="0.05"
    d="
M 5 5
M 5.015460640027307 4.996350237972262
a 0.02023824055757729 0.02023824055757729 0 0 0 -0.02023824055757739 -0.02023824055757739
a 0.03274616111995661 0.03274616111995661 0 0 0 -0.032746161119956874 0.032746161119956874
a 0.05298440173410626 0.05298440173410626 0 0 0 0.0529844017341059 0.0529844017341059
a 0.08573056294559887 0.08573056294559887 0 0 0 0.08573056294559844 -0.08573056294559844
a 0.1387149648278135 0.1387149648278135 0 0 0 -0.13871496482781343 -0.13871496482781343
a 0.22444552801305676 0.22444552801305676 0 0 0 -0.22444552801305662 0.22444552801305662
a 0.363160493228623 0.363160493228623 0 0 0 0.363160493228623 0.363160493228623
a 0.5876060218690768 0.5876060218690768 0 0 0 0.5876060218690764 -0.5876060218690764
a 0.9507665161128497 0.9507665161128497 0 0 0 -0.95076651611285 -0.9507665161128496
a 1.5383725396244734 1.5383725396244734 0 0 0 -1.5383725396244734 1.5383725396244734
a 2.4891390583950197 2.4891390583950197 0 0 0 2.4891390583950197 2.48913905839502
a 4.027511602319737 4.027511602319737 0 0 0 2.9741374521657207 -1.3117509128543912
    " />
</svg>
