<svg id="svg_css_ex1" viewBox="0 0 10 10" 
   height="7cm"
   width="7cm"
   xmlns="http://www.w3.org/2000/svg">
  <line x1="4.999999999983013" y1="4.980333762020136" x2="4.999999999983013" y2="5.006077201768742" stroke="black" stroke-width="0.05" />
  <line x1="4.974256560234407" y1="5.006077201768742" x2="5.015910320767168" y2="5.006077201768742" stroke="black" stroke-width="0.05" />
  <line x1="5.015910320767168" y1="5.047730962301503" x2="5.015910320767168" y2="4.980333761948175" stroke="black" stroke-width="0.05" />
  <line x1="5.0833075211204966" y1="4.980333761948175" x2="4.974256560117971" y2="4.980333761948175" stroke="black" stroke-width="0.05" />
  <line x1="4.974256560117971" y1="4.871282800945649" x2="4.974256560117971" y2="5.0477309624899" stroke="black" stroke-width="0.05" />
  <line x1="4.7978083985737205" y1="5.0477309624899" x2="5.083307521425329" y2="5.0477309624899" stroke="black" stroke-width="0.05" />
  <line x1="5.083307521425329" y1="5.333230085341508" x2="5.083307521425329" y2="4.87128280045242" stroke="black" stroke-width="0.05" />
  <line x1="5.545254806314418" y1="4.87128280045242" x2="4.797808397775659" y2="4.87128280045242" stroke="black" stroke-width="0.05" />
  <line x1="4.797808397775659" y1="4.123836391913661" x2="4.797808397775659" y2="5.333230086632799" stroke="black" stroke-width="0.05" />
  <line x1="3.588414703056521" y1="5.333230086632799" x2="5.5452548084037705" y2="5.333230086632799" stroke="black" stroke-width="0.05" />
  <line x1="5.5452548084037705" y1="7.290070191980048" x2="5.5452548084037705" y2="4.123836388533018" stroke="black" stroke-width="0.05" />
  <line x1="8.7114886118508" y1="4.123836388533018" x2="3.5884146975865265" y2="4.123836388533018" stroke="black" stroke-width="0.05" />
  <line x1="3.5884146975865265" y1="1.2573502790121727" x2="3.5884146975865265" y2="7.290070200830685" stroke="black" stroke-width="0.05" />
  <line x1="1.7204301386817038" y1="7.290070200830685" x2="8.279569861318297" y2="7.290070200830685" stroke="black" stroke-width="0.05" />
  <line x1="8.71148862617143" y1="6.4915938380806315" x2="8.71148862617143" y2="3.5084061619193685" stroke="black" stroke-width="0.05" />
<path
    fill="none"
    stroke="black"
    stroke-width="0.05"
    d="
M 5 5
M 4.999999999983013 4.980333762020136
a 0.025743439748605927 0.025743439748605927 0 0 0 -0.025743439748605823 0.025743439748605823
a 0.041653760532761444 0.041653760532761444 0 0 0 0.041653760532761375 0.041653760532761375
a 0.06739720035332852 0.06739720035332852 0 0 0 0.0673972003533283 -0.0673972003533283
a 0.10905096100252556 0.10905096100252556 0 0 0 -0.10905096100252543 -0.10905096100252543
a 0.17644816154425083 0.17644816154425083 0 0 0 -0.17644816154425058 0.17644816154425058
a 0.2854991228516087 0.2854991228516087 0 0 0 0.2854991228516086 0.2854991228516086
a 0.46194728488908865 0.46194728488908865 0 0 0 0.46194728488908865 -0.46194728488908865
a 0.7474464085387589 0.7474464085387589 0 0 0 -0.7474464085387584 -0.7474464085387584
a 1.2093936947191382 1.2093936947191382 0 0 0 -1.2093936947191382 1.2093936947191377
a 1.956840105347249 1.956840105347249 0 0 0 1.9568401053472493 1.9568401053472488
a 3.16623380344703 3.16623380344703 0 0 0 3.16623380344703 -3.16623380344703
a 5.123073914264274 5.123073914264274 0 0 0 -0.053660156793263525 -0.7395474877103756
    " />
</svg>
