<svg id="svg_css_ex1" viewBox="0 0 10 10" 
   height="7cm"
   width="7cm"
   xmlns="http://www.w3.org/2000/svg">
  <line x1="4.985893085815382" y1="5.003330190705471" x2="5.008718552445044" y2="5.003330190705471" stroke="black" stroke-width="0.05" />
  <line x1="5.008718552445044" y1="5.026155657335133" x2="5.008718552445044" y2="4.989223276490729" stroke="black" stroke-width="0.05" />
  <line x1="5.045650933289449" y1="4.989223276490729" x2="4.985893085751577" y2="4.989223276490729" stroke="black" stroke-width="0.05" />
  <line x1="4.985893085751577" y1="4.929465428952858" x2="4.985893085751577" y2="5.026155657438371" stroke="black" stroke-width="0.05" />
  <line x1="4.889202857266064" y1="5.026155657438371" x2="5.045650933456491" y2="5.026155657438371" stroke="black" stroke-width="0.05" />
  <line x1="5.045650933456491" y1="5.182603733628797" x2="5.045650933456491" y2="4.929465428682577" stroke="black" stroke-width="0.05" />
  <line x1="5.298789238402711" y1="4.929465428682577" x2="4.889202856828742" y2="4.929465428682577" stroke="black" stroke-width="0.05" />
  <line x1="4.889202856828742" y1="4.519879047108608" x2="4.889202856828742" y2="5.182603734336399" stroke="black" stroke-width="0.05" />
  <line x1="4.226478169600951" y1="5.182603734336399" x2="5.298789239547636" y2="5.182603734336399" stroke="black" stroke-width="0.05" />
  <line x1="5.298789239547636" y1="6.254914804283084" x2="5.298789239547636" y2="4.519879045256079" stroke="black" stroke-width="0.05" />
  <line x1="7.033824998574641" y1="4.519879045256079" x2="4.226478166603498" y2="4.519879045256079" stroke="black" stroke-width="0.05" />
  <line x1="4.226478166603498" y1="1.7125322132849368" x2="4.226478166603498" y2="6.254914809133064" stroke="black" stroke-width="0.05" />
  <line x1="1.2019493392243268" y1="6.254914809133064" x2="7.033825006422074" y2="6.254914809133064" stroke="black" stroke-width="0.05" />
  <line x1="7.033825006422074" y1="8.444351294983171" x2="7.033825006422074" y2="1.712532200587523" stroke="black" stroke-width="0.05" />
  <line x1="7.278717943894348" y1="1.712532200587523" x2="2.7212820561056517" y2="1.712532200587523" stroke="black" stroke-width="0.05" />
<path
    fill="none"
    stroke="black"
    stroke-width="0.05"
    d="
M 5 5
M 4.985893085815382 5.003330190705471
a 0.022825466629662273 0.022825466629662273 0 0 0 0.022825466629662117 0.022825466629662117
a 0.0369323808444043 0.0369323808444043 0 0 0 0.0369323808444042 -0.0369323808444042
a 0.059757847537871056 0.059757847537871056 0 0 0 -0.05975784753787128 -0.05975784753787128
a 0.09669022848551319 0.09669022848551319 0 0 0 -0.0966902284855129 0.0966902284855129
a 0.15644807619042655 0.15644807619042655 0 0 0 0.15644807619042655 0.15644807619042655
a 0.25313830494621986 0.25313830494621986 0 0 0 0.25313830494622014 -0.25313830494622014
a 0.40958638157396887 0.40958638157396887 0 0 0 -0.40958638157396887 -0.40958638157396887
a 0.6627246872277913 0.6627246872277913 0 0 0 -0.662724687227791 0.662724687227791
a 1.0723110699466853 1.0723110699466853 0 0 0 1.072311069946685 1.072311069946685
a 1.7350357590270045 1.7350357590270045 0 0 0 1.7350357590270047 -1.7350357590270047
a 2.8073468319711425 2.8073468319711425 0 0 0 -2.8073468319711425 -2.8073468319711425
a 4.542382595848127 4.542382595848127 0 0 0 -2.1185065580160027 0.5242773694127667
    " />
</svg>
