<svg id="svg_css_ex1" viewBox="0 0 10 10" 
   height="7cm"
   width="7cm"
   xmlns="http://www.w3.org/2000/svg">
  <line x1="5.0221803400069795" y1="4.9947639319862045" x2="4.993145897971125" y2="4.9947639319862045" stroke="black" stroke-width="0.05" />
  <line x1="4.993145897971125" y1="4.96572948995035" x2="4.993145897971125" y2="5.0127082040450475" stroke="black" stroke-width="0.05" />
  <line x1="4.946167183876428" y1="5.0127082040450475" x2="5.0221803400881395" y2="5.0127082040450475" stroke="black" stroke-width="0.05" />
  <line x1="5.0221803400881395" y1="5.088721360256759" x2="5.0221803400881395" y2="4.96572948981903" stroke="black" stroke-width="0.05" />
  <line x1="5.145172210525868" y1="4.96572948981903" x2="4.946167183663946" y2="4.96572948981903" stroke="black" stroke-width="0.05" />
  <line x1="4.946167183663946" y1="4.766724462957108" x2="4.946167183663946" y2="5.088721360600561" stroke="black" stroke-width="0.05" />
  <line x1="4.624170286020494" y1="5.088721360600561" x2="5.145172211082151" y2="5.088721360600561" stroke="black" stroke-width="0.05" />
  <line x1="5.145172211082151" y1="5.609723285662218" x2="5.145172211082151" y2="4.766724462057024" stroke="black" stroke-width="0.05" />
  <line x1="5.988171034687346" y1="4.766724462057024" x2="4.624170284564126" y2="4.766724462057024" stroke="black" stroke-width="0.05" />
  <line x1="4.624170284564126" y1="3.4027237119338043" x2="4.624170284564126" y2="5.609723288018669" stroke="black" stroke-width="0.05" />
  <line x1="2.417170708479261" y1="5.609723288018669" x2="5.988171038500164" y2="5.609723288018669" stroke="black" stroke-width="0.05" />
  <line x1="5.988171038500164" y1="8.876018317638541" x2="5.988171038500164" y2="3.402723705764533" stroke="black" stroke-width="0.05" />
  <line x1="8.66724807449311" y1="3.402723705764533" x2="2.4171706984971717" y2="3.402723705764533" stroke="black" stroke-width="0.05" />
  <line x1="2.4171706984971717" y1="1.945660005942624" x2="2.4171706984971717" y2="8.054339994057376" stroke="black" stroke-width="0.05" />
<path
    fill="none"
    stroke="black"
    stroke-width="0.05"
    d="
M 5 5
M 5.0221803400069795 4.9947639319862045
a 0.029034442035854213 0.029034442035854213 0 0 0 -0.02903444203585437 -0.02903444203585437
a 0.046978714094696915 0.046978714094696915 0 0 0 -0.04697871409469734 0.04697871409469734
a 0.07601315621171169 0.07601315621171169 0 0 0 0.07601315621171167 0.07601315621171167
a 0.12299187043772915 0.12299187043772915 0 0 0 0.12299187043772886 -0.12299187043772886
a 0.19900502686192195 0.19900502686192195 0 0 0 -0.19900502686192212 -0.19900502686192212
a 0.32199689764345274 0.32199689764345274 0 0 0 -0.3219968976434524 0.3219968976434524
a 0.5210019250616574 0.5210019250616574 0 0 0 0.5210019250616575 0.5210019250616575
a 0.8429988236051946 0.8429988236051946 0 0 0 0.8429988236051944 -0.8429988236051944
a 1.3640007501232192 1.3640007501232192 0 0 0 -1.3640007501232194 -1.3640007501232194
a 2.2069995760848653 2.2069995760848653 0 0 0 -2.2069995760848653 2.206999576084865
a 3.5710003300209032 3.5710003300209032 0 0 0 2.43790529728115 3.386464085707967
    " />
</svg>
