<svg id="svg_css_ex1" viewBox="0 0 10 10" 
   height="7cm"
   width="7cm"
   xmlns="http://www.w3.org/2000/svg">
  <line x1="5.006077201741256" y1="5.018231605223766" x2="5.006077201741256" y2="4.992488165519635" stroke="black" stroke-width="0.05" />
  <line x1="5.031820641445387" y1="4.992488165519635" x2="4.990166880984587" y2="4.992488165519635" stroke="black" stroke-width="0.05" />
  <line x1="4.990166880984587" y1="4.950834405058835" x2="4.990166880984587" y2="5.018231605295727" stroke="black" stroke-width="0.05" />
  <line x1="4.922769680747694" y1="5.018231605295727" x2="5.031820641561823" y2="5.018231605295727" stroke="black" stroke-width="0.05" />
  <line x1="5.031820641561823" y1="5.127282566109856" x2="5.031820641561823" y2="4.950834404870437" stroke="black" stroke-width="0.05" />
  <line x1="5.208268802801242" y1="4.950834404870437" x2="4.922769680442862" y2="4.950834404870437" stroke="black" stroke-width="0.05" />
  <line x1="4.922769680442862" y1="4.665335282512057" x2="4.922769680442862" y2="5.127282566603085" stroke="black" stroke-width="0.05" />
  <line x1="4.460822396351834" y1="5.127282566603085" x2="5.208268803599303" y2="5.127282566603085" stroke="black" stroke-width="0.05" />
  <line x1="5.208268803599303" y1="5.874728973850553" x2="5.208268803599303" y2="4.6653352812207665" stroke="black" stroke-width="0.05" />
  <line x1="6.41766249622909" y1="4.6653352812207665" x2="4.4608223942624825" y2="4.6653352812207665" stroke="black" stroke-width="0.05" />
  <line x1="4.4608223942624825" y1="2.708495179254159" x2="4.4608223942624825" y2="5.874728977231197" stroke="black" stroke-width="0.05" />
  <line x1="1.2945885962854455" y1="5.874728977231197" x2="6.417662501699084" y2="5.874728977231197" stroke="black" stroke-width="0.05" />
  <line x1="6.417662501699084" y1="8.740351992964872" x2="6.417662501699084" y2="2.7084951704035234" stroke="black" stroke-width="0.05" />
  <line x1="8.278567616495963" y1="2.7084951704035234" x2="1.7214323835040366" y2="2.7084951704035234" stroke="black" stroke-width="0.05" />
  <line x1="1.2945885819648133" y1="3.493372566593032" x2="1.2945885819648133" y2="6.506627433406968" stroke="black" stroke-width="0.05" />
<path
    fill="none"
    stroke="black"
    stroke-width="0.05"
    d="
M 5 5
M 5.006077201741256 5.018231605223766
a 0.025743439704131496 0.025743439704131496 0 0 0 0.025743439704131177 -0.025743439704131177
a 0.041653760460800306 0.041653760460800306 0 0 0 -0.04165376046080027 -0.04165376046080027
a 0.06739720023689295 0.06739720023689295 0 0 0 -0.06739720023689255 0.06739720023689255
a 0.10905096081412885 0.10905096081412885 0 0 0 0.10905096081412857 0.10905096081412857
a 0.17644816123941856 0.17644816123941856 0 0 0 0.17644816123941887 -0.17644816123941887
a 0.28549912235837976 0.28549912235837976 0 0 0 -0.28549912235838004 -0.28549912235838004
a 0.4619472840910274 0.4619472840910274 0 0 0 -0.4619472840910275 0.4619472840910275
a 0.7474464072474687 0.7474464072474687 0 0 0 0.7474464072474687 0.7474464072474687
a 1.2093936926297868 1.2093936926297868 0 0 0 1.2093936926297868 -1.2093936926297868
a 1.9568401019666075 1.9568401019666075 0 0 0 -1.9568401019666073 -1.9568401019666073
a 3.166233797977037 3.166233797977037 0 0 0 -3.166233797977037 3.1662337979770374
a 5.123073905413639 5.123073905413639 0 0 0 0.05760189086049783 0.7660806159335332
    " />
</svg>
