<svg id="svg_css_ex1" viewBox="0 0 10 10" 
   height="7cm"
   width="7cm"
   xmlns="http://www.w3.org/2000/svg">
  <line x1="5.006854102011114" y1="5.020562306033342" x2="5.006854102011114" y2="4.991527863972408" stroke="black" stroke-width="0.05" />
  <line x1="5.035888544072048" y1="4.991527863972408" x2="4.9889098299367705" y2="4.991527863972408" stroke="black" stroke-width="0.05" />
  <line x1="4.9889098299367705" y1="4.944549149837131" x2="4.9889098299367705" y2="5.020562306114503" stroke="black" stroke-width="0.05" />
  <line x1="4.912896673659398" y1="5.020562306114503" x2="5.0358885442033685" y2="5.020562306114503" stroke="black" stroke-width="0.05" />
  <line x1="5.0358885442033685" y1="5.143554176658473" x2="5.0358885442033685" y2="4.94454914962465" stroke="black" stroke-width="0.05" />
  <line x1="5.234893571237191" y1="4.94454914962465" x2="4.912896673315597" y2="4.94454914962465" stroke="black" stroke-width="0.05" />
  <line x1="4.912896673315597" y1="4.6225522517030555" x2="4.912896673315597" y2="5.143554177214755" stroke="black" stroke-width="0.05" />
  <line x1="4.391894747803898" y1="5.143554177214755" x2="5.234893572137276" y2="5.143554177214755" stroke="black" stroke-width="0.05" />
  <line x1="5.234893572137276" y1="5.986553001548133" x2="5.234893572137276" y2="4.622552250246688" stroke="black" stroke-width="0.05" />
  <line x1="6.598894323438721" y1="4.622552250246688" x2="4.391894745447447" y2="4.622552250246688" stroke="black" stroke-width="0.05" />
  <line x1="4.391894745447447" y1="2.415552672255414" x2="4.391894745447447" y2="5.9865530053609515" stroke="black" stroke-width="0.05" />
  <line x1="1.1235695327255932" y1="5.9865530053609515" x2="6.598894329607991" y2="5.9865530053609515" stroke="black" stroke-width="0.05" />
  <line x1="6.598894329607991" y1="8.66654291161953" x2="6.598894329607991" y2="2.415552662273324" stroke="black" stroke-width="0.05" />
  <line x1="8.052971005187814" y1="2.415552662273324" x2="1.947028994812185" y2="2.415552662273324" stroke="black" stroke-width="0.05" />
<path
    fill="none"
    stroke="black"
    stroke-width="0.05"
    d="
M 5 5
M 5.006854102011114 5.020562306033342
a 0.029034442060934203 0.029034442060934203 0 0 0 0.029034442060933863 -0.029034442060933863
a 0.04697871413527719 0.04697871413527719 0 0 0 -0.04697871413527732 -0.04697871413527732
a 0.07601315627737196 0.07601315627737196 0 0 0 -0.07601315627737204 0.07601315627737204
a 0.12299187054396969 0.12299187054396969 0 0 0 0.1229918705439701 0.1229918705439701
a 0.19900502703382275 0.19900502703382275 0 0 0 0.19900502703382283 -0.19900502703382283
a 0.3219968979215941 0.3219968979215941 0 0 0 -0.32199689792159436 -0.32199689792159436
a 0.5210019255116995 0.5210019255116995 0 0 0 -0.5210019255116993 0.5210019255116993
a 0.842998824333378 0.842998824333378 0 0 0 0.8429988243333781 0.8429988243333781
a 1.3640007513014447 1.3640007513014447 0 0 0 1.364000751301445 -1.364000751301445
a 2.206999577991274 2.206999577991274 0 0 0 -2.206999577991274 -2.206999577991274
a 3.5710003331055375 3.5710003331055375 0 0 0 -3.388436553658351 2.4438175170229925
    " />
</svg>
