<svg id="svg_css_ex1" viewBox="0 0 10 10" 
   height="7cm"
   width="7cm"
   xmlns="http://www.w3.org/2000/svg">
  <line x1="4.999999999986645" y1="4.9845393599294745" x2="4.999999999986645" y2="5.004777600539497" stroke="black" stroke-width="0.05" />
  <line x1="4.979761759376623" y1="5.004777600539497" x2="5.012507920581438" y2="5.004777600539497" stroke="black" stroke-width="0.05" />
  <line x1="5.012507920581438" y1="5.037523761744312" x2="5.012507920581438" y2="4.984539359872902" stroke="black" stroke-width="0.05" />
  <line x1="5.065492322452848" y1="4.984539359872902" x2="4.979761759285087" y2="4.984539359872902" stroke="black" stroke-width="0.05" />
  <line x1="4.979761759285087" y1="4.898808796705141" x2="4.979761759285087" y2="5.0375237618924205" stroke="black" stroke-width="0.05" />
  <line x1="4.8410467940978075" y1="5.0375237618924205" x2="5.065492322692493" y2="5.0375237618924205" stroke="black" stroke-width="0.05" />
  <line x1="5.065492322692493" y1="5.261969290487106" x2="5.065492322692493" y2="4.898808796317388" stroke="black" stroke-width="0.05" />
  <line x1="5.428652816862211" y1="4.898808796317388" x2="4.84104679347041" y2="4.898808796317388" stroke="black" stroke-width="0.05" />
  <line x1="4.84104679347041" y1="4.311202772925586" x2="4.84104679347041" y2="5.261969291502256" stroke="black" stroke-width="0.05" />
  <line x1="3.8902802748937404" y1="5.261969291502256" x2="5.428652818504758" y2="5.261969291502256" stroke="black" stroke-width="0.05" />
  <line x1="5.428652818504758" y1="6.800341835113273" x2="5.428652818504758" y2="4.311202770267889" stroke="black" stroke-width="0.05" />
  <line x1="7.917791883350142" y1="4.311202770267889" x2="3.8902802705934967" y2="4.311202770267889" stroke="black" stroke-width="0.05" />
  <line x1="3.8902802705934967" y1="1.157016507690157" x2="3.8902802705934967" y2="6.800341842071213" stroke="black" stroke-width="0.05" />
  <line x1="1.4280580559466491" y1="6.800341842071213" x2="7.917791894608325" y2="6.800341842071213" stroke="black" stroke-width="0.05" />
  <line x1="7.917791894608325" y1="7.736145182507309" x2="7.917791894608325" y2="2.2638548174926907" stroke="black" stroke-width="0.05" />
<path
    fill="none"
    stroke="black"
    stroke-width="0.05"
    d="
M 5 5
M 4.999999999986645 4.9845393599294745
a 0.020238240610022742 0.020238240610022742 0 0 0 -0.02023824061002255 0.02023824061002255
a 0.03274616120481513 0.03274616120481513 0 0 0 0.032746161204815216 0.032746161204815216
a 0.052984401871410236 0.052984401871410236 0 0 0 0.05298440187141029 -0.05298440187141029
a 0.08573056316776137 0.08573056316776137 0 0 0 -0.08573056316776118 -0.08573056316776118
a 0.13871496518727996 0.13871496518727996 0 0 0 -0.13871496518727966 0.13871496518727966
a 0.2244455285946857 0.2244455285946857 0 0 0 0.22444552859468558 0.22444552859468558
a 0.3631604941697184 0.3631604941697184 0 0 0 0.3631604941697182 -0.3631604941697182
a 0.5876060233918012 0.5876060233918012 0 0 0 -0.5876060233918015 -0.5876060233918015
a 0.9507665185766695 0.9507665185766695 0 0 0 -0.9507665185766694 0.9507665185766694
a 1.5383725436110176 1.5383725436110176 0 0 0 1.5383725436110174 1.5383725436110174
a 2.489139064845384 2.489139064845384 0 0 0 2.489139064845384 -2.489139064845384
a 4.027511612756645 4.027511612756645 0 0 0 -1.3117509162536667 -2.974137459872911
    " />
</svg>
